<svg width="143" height="71" viewBox="0 0 143 71" fill="none" xmlns="http://www.w3.org/2000/svg">
<path fill-rule="evenodd" clip-rule="evenodd" d="M90.8871 18.6416C92.7118 13.4391 96.3053 9.36931 101.813 6.43032C102.462 6.08349 102.653 5.36284 102.233 4.82234C101.819 4.28184 100.951 4.12447 100.302 4.4713C94.2063 7.72546 90.221 12.2291 88.2003 17.9893C87.982 18.6057 88.4131 19.2528 89.1519 19.4325C89.8964 19.6127 90.6744 19.2579 90.8871 18.6416Z" fill="#FCBC05"/>
<path fill-rule="evenodd" clip-rule="evenodd" d="M103.105 67.3106C115.872 67.5667 128.919 67.0546 141.127 70.6858C141.855 70.9 142.655 70.5881 142.918 69.9829C143.176 69.3777 142.801 68.7119 142.073 68.4931C129.58 64.7781 116.236 65.2436 103.172 64.9829C102.399 64.9643 101.756 65.4764 101.739 66.1188C101.716 66.7613 102.332 67.292 103.105 67.3106Z" fill="#FCBC05"/>
<path fill-rule="evenodd" clip-rule="evenodd" d="M101.958 51.8913C105.938 48.8457 110.281 46.5641 115.531 45.4333C116.281 45.2722 116.729 44.6367 116.539 44.0147C116.343 43.3927 115.576 43.0189 114.832 43.18C109.122 44.409 104.393 46.8681 100.066 50.1776C99.4951 50.6124 99.4559 51.3494 99.982 51.8224C100.503 52.2949 101.393 52.3261 101.958 51.8913Z" fill="#FCBC05"/>
<path fill-rule="evenodd" clip-rule="evenodd" d="M28.0005 11.5812C26.9146 12.644 25.9407 13.7892 25.1123 15.0085C24.7429 15.5513 24.0936 16.7049 23.9928 17.6942C23.8809 18.7482 24.3118 19.6374 25.4201 20.1058C26.8922 20.7268 28.0677 20.6621 28.9744 20.2864C29.8476 19.9256 30.5305 19.2166 30.9614 18.2659C31.7843 16.4489 31.6611 13.6719 31.2301 12.0872C32.3888 11.0928 33.6594 10.191 35.0195 9.38938C45.1506 3.41876 60.0116 5.62033 71.4469 14.5476C75.449 17.6733 77.3744 24.2375 78.3764 31.3198C79.938 42.3472 79.048 54.6637 78.9249 58.2721C78.8969 59.1632 78.9976 59.692 79.0536 59.7977C79.3167 60.3172 79.7813 60.4522 80.1059 60.5034C80.5761 60.5733 80.9511 60.4988 81.2533 60.3684C81.6619 60.1897 81.9978 59.875 82.1545 59.3894C82.2385 59.1212 82.2608 58.7479 82.2497 58.3498C82.2385 58.0738 82.1713 57.7721 82.2384 57.5742C82.675 56.307 83.2012 55.0696 83.7161 53.8233C85.4345 49.6339 87.6567 45.708 90.1251 41.7867C97.967 29.3268 105.551 16.1617 118.408 6.66873C118.985 6.24276 119.041 5.50627 118.526 5.02583C118.017 4.54539 117.132 4.50161 116.55 4.92805C103.436 14.6086 95.644 28.0005 87.6455 40.7071C85.5465 44.0427 83.621 47.383 82.0201 50.8769C82.1825 44.6963 82.1209 36.141 80.7607 28.5712C79.5517 21.839 77.2512 15.8893 73.3611 12.8507C60.8343 3.071 44.4957 0.949518 33.4019 7.49043C32.2152 8.19061 31.0846 8.96063 30.0323 9.79582C24.2279 1.07849 11.8018 -2.41545 0.819915 1.75397C0.114653 2.02073 -0.193194 2.7116 0.125853 3.29586C0.450498 3.88012 1.27887 4.13804 1.98413 3.87129C11.8802 0.114336 23.1029 3.46718 28.0005 11.5812ZM28.8121 14.4997C28.3587 15.0322 27.9389 15.5844 27.5471 16.1552C27.34 16.4615 26.9818 17.0504 26.8306 17.6267C26.797 17.7618 26.7915 17.9731 26.7915 18.0709C27.1777 18.2292 27.4799 18.3055 27.7262 18.2026C28.034 18.076 28.1908 17.778 28.3419 17.4452C28.7226 16.61 28.8457 15.5029 28.8121 14.4997Z" fill="#FCBC05"/>
</svg>
