<svg xmlns="http://www.w3.org/2000/svg" width="54" height="59" viewBox="0 0 54 59" fill="none">
<path fill-rule="evenodd" clip-rule="evenodd" d="M17.8021 54.3979C12.7217 52.9722 7.40263 52.253 2.24281 51.5941C1.13146 51.456 0.0996518 52.2268 0.0202699 53.3128C-0.138494 54.3995 0.65579 55.3934 1.68776 55.5315C6.68882 56.1657 11.8482 56.8444 16.6905 58.217C17.7224 58.5146 18.8342 57.9018 19.1518 56.8476C19.4693 55.7942 18.8341 54.6964 17.8021 54.3979Z" fill="black"/>
<path fill-rule="evenodd" clip-rule="evenodd" d="M33.2007 34.1857C25.0244 25.8419 15.8161 18.5721 7.79853 10.0044C7.08409 9.20421 5.81398 9.16134 5.02016 9.90832C4.22634 10.6561 4.14727 11.9135 4.94109 12.7137C12.9587 21.306 22.167 28.5996 30.3433 36.968C31.1371 37.7492 32.4069 37.7603 33.2007 36.9918C33.9152 36.2242 33.9946 34.9668 33.2007 34.1857Z" fill="black"/>
<path fill-rule="evenodd" clip-rule="evenodd" d="M48.5226 2.09232C48.7607 6.86793 48.9984 11.6435 49.2366 16.42C49.2366 17.5138 50.1896 18.3585 51.301 18.3053C52.4123 18.2513 53.2057 17.3202 53.2057 16.2255C52.9675 11.4419 52.7298 6.65916 52.4917 1.8764C52.4123 0.782513 51.4596 -0.0565542 50.3482 0.00298224C49.3163 0.0625187 48.4432 0.999228 48.5226 2.09232Z" fill="black"/>
</svg>