<svg width="24" height="24" viewBox="0 0 24 24" fill="none" xmlns="http://www.w3.org/2000/svg">
<path d="M11.7109 19.6757C7.30738 19.6757 3.74707 16.1154 3.74707 11.7119C3.74707 7.30836 7.30738 3.74805 11.7109 3.74805C16.1145 3.74805 19.6748 7.30836 19.6748 11.7119C19.6748 16.1154 16.1145 19.6757 11.7109 19.6757ZM11.7109 4.68497C7.82269 4.68497 4.68399 7.82366 4.68399 11.7119C4.68399 15.6001 7.82269 18.7388 11.7109 18.7388C15.5991 18.7388 18.7378 15.6001 18.7378 11.7119C18.7378 7.82366 15.5991 4.68497 11.7109 4.68497Z" fill="black"/>
<path d="M7.49609 11.2422H15.9284V12.1791H7.49609V11.2422Z" fill="black"/>
<path d="M11.2432 7.49609H12.1801V15.9284H11.2432V7.49609Z" fill="black"/>
</svg>
