<svg width="230" height="10" viewBox="0 0 230 10" fill="none" xmlns="http://www.w3.org/2000/svg">
<path d="M10.9345 1.98057C9.75018 1.74365 9.92288 0 11.1307 0H230L205.898 1.875V1.875C206.998 1.875 207.179 3.45103 206.109 3.70093L205.898 3.75L208.067 4.12288C209.108 4.30188 209.196 5.76265 208.185 6.06622L207.572 6.25V6.25C209.823 6.68485 209.506 10 207.213 10H200.542H1.0339V10C-0.00935805 10 -0.172135 8.50021 0.846828 8.27639L4.38136 7.5L8.73305 5.46875V5.46875C7.70716 5.32141 7.60071 3.88202 8.59376 3.58536L12.75 2.34375L10.9345 1.98057Z" fill="#F7BF46" fill-opacity="0.54"/>
</svg>
