<svg width="289" height="28" viewBox="0 0 289 28" fill="none" xmlns="http://www.w3.org/2000/svg">
<path d="M11.9102 2.79384C10.8996 2.37477 11.1992 0.870117 12.2932 0.870117H287.518C288.749 0.870117 288.892 2.66141 287.677 2.85736L269.186 5.83932H275.094C276.157 5.83932 276.486 7.27686 275.53 7.73951L269.186 10.8085L275.365 13.0111C276.154 13.2922 276.268 14.36 275.557 14.8022L271.326 17.4341L286.516 23.5158C288.56 24.3342 287.974 27.3725 285.772 27.3725H262.339H7.27119H1.60926C0.534184 27.3725 0.216434 25.908 1.19486 25.4625L11.5508 20.7469L17.1144 15.3636L13.686 14.3429C12.8589 14.0967 12.7112 12.9887 13.4449 12.5343L22.25 7.08162L11.9102 2.79384Z" fill="#F7BF46" fill-opacity="0.54"/>
</svg>
