<svg width="290" height="28" viewBox="0 0 290 28" fill="none" xmlns="http://www.w3.org/2000/svg">
<path d="M11.6443 1.91595C10.6523 1.48135 10.9626 0 12.0456 0H288.177C289.402 0 289.553 1.77999 288.345 1.98579L269.186 5.25H275.304C276.354 5.25 276.694 6.66234 275.759 7.14042L269.186 10.5L275.479 12.87C276.244 13.1581 276.359 14.1926 275.676 14.6415L271.326 17.5L287.066 24.158C289.074 25.0074 288.467 28 286.287 28H262.339H7.27119H1.38542C0.321896 28 -0.00648952 26.5599 0.951898 26.0989L11.5508 21L17.1144 15.3125L13.5663 14.1965C12.7612 13.9432 12.6126 12.8679 13.3189 12.4057L22.25 6.5625L11.6443 1.91595Z" fill="#FCBC05"/>
</svg>
