<svg width="66" height="62" viewBox="0 0 66 62" fill="none" xmlns="http://www.w3.org/2000/svg">
<path fill-rule="evenodd" clip-rule="evenodd" d="M8.97321 18.1779C11.1187 13.357 12.5995 8.19791 13.9977 3.18762C14.2951 2.10793 13.6816 0.975495 12.6186 0.739899C11.5662 0.42564 10.4679 1.06784 10.182 2.06898C8.83117 6.92574 7.41345 11.9327 5.35507 16.5256C4.91128 17.5037 5.35687 18.6924 6.35406 19.1591C7.35046 19.6256 8.52863 19.1558 8.97321 18.1779Z" fill="black"/>
<path fill-rule="evenodd" clip-rule="evenodd" d="M26.7475 36.338C36.186 29.4543 44.7111 21.3942 54.3482 14.6999C55.2433 14.1087 55.4694 12.8582 54.8451 11.9647C54.22 11.071 52.9872 10.811 52.0807 11.4807C42.4192 18.1714 33.8706 26.2281 24.4076 33.1082C23.5199 33.7807 23.3253 35.0356 23.9708 35.9322C24.6271 36.7501 25.8598 37.0105 26.7475 36.338Z" fill="black"/>
<path fill-rule="evenodd" clip-rule="evenodd" d="M56.2874 56.1399C51.5275 55.6849 46.7677 55.2294 42.0071 54.7743C40.9247 54.6161 39.9511 55.437 39.843 56.5443C39.7357 57.6518 40.5423 58.5715 41.6255 58.7298C46.3932 59.1859 51.1601 59.6424 55.927 60.0985C57.0209 60.1781 57.9889 59.3567 58.0907 58.2485C58.181 57.2187 57.3804 56.2194 56.2874 56.1399Z" fill="black"/>
</svg>
