<svg width="76" height="59" viewBox="0 0 76 59" fill="none" xmlns="http://www.w3.org/2000/svg">
<path d="M35.9141 4.16628C37.093 2.62139 39.4185 2.62139 40.5974 4.16628L45.6951 10.8465C46.607 12.0415 48.1187 12.6145 49.5936 12.3243L59.0132 10.4706C61.212 10.0379 63.0694 12.1214 62.3881 14.2563L60.758 19.3645C60.156 21.2508 61.0453 23.2911 62.8369 24.1341L68.7259 26.9053C70.9812 27.9665 70.9812 31.1746 68.7259 32.2358L62.8369 35.007C61.0453 35.85 60.156 37.8903 60.758 39.7766L62.3881 44.8848C63.0694 47.0197 61.212 49.1032 59.0132 48.6705L49.5936 46.8168C48.1187 46.5266 46.607 47.0996 45.6951 48.2946L40.5974 54.9748C39.4185 56.5197 37.093 56.5197 35.9141 54.9748L30.8165 48.2946C29.9046 47.0996 28.3929 46.5266 26.918 46.8168L17.4983 48.6705C15.2996 49.1032 13.4421 47.0197 14.1234 44.8848L15.7536 39.7766C16.3555 37.8903 15.4663 35.85 13.6747 35.007L7.78561 32.2358C5.53037 31.1746 5.53037 27.9665 7.7856 26.9053L13.6747 24.1341C15.4662 23.2911 16.3555 21.2508 15.7536 19.3645L14.1234 14.2563C13.4421 12.1215 15.2996 10.0379 17.4983 10.4706L26.918 12.3243C28.3929 12.6145 29.9046 12.0415 30.8165 10.8465L35.9141 4.16628Z" fill="#646FD4" stroke="black"/>
<mask id="path-2-outside-1_554_3310" maskUnits="userSpaceOnUse" x="29.002" y="18.6348" width="13" height="24" fill="black">
<rect fill="white" x="29.002" y="18.6348" width="13" height="24"/>
<path d="M36.1462 41.6348V25.3051L32.4181 26.8764L30.9392 23.4564L37.1322 20.5602H40.1824V41.6348H36.1462Z"/>
</mask>
<path d="M36.1462 41.6348V25.3051L32.4181 26.8764L30.9392 23.4564L37.1322 20.5602H40.1824V41.6348H36.1462Z" fill="white"/>
<path d="M36.1462 41.6348H35.1462V42.6348H36.1462V41.6348ZM36.1462 25.3051H37.1462V23.7984L35.7578 24.3836L36.1462 25.3051ZM32.4181 26.8764L31.5003 27.2733L31.8935 28.1827L32.8065 27.7979L32.4181 26.8764ZM30.9392 23.4564L30.5156 22.5506L29.6359 22.962L30.0214 23.8533L30.9392 23.4564ZM37.1322 20.5602V19.5602H36.9099L36.7086 19.6544L37.1322 20.5602ZM40.1824 20.5602H41.1824V19.5602H40.1824V20.5602ZM40.1824 41.6348V42.6348H41.1824V41.6348H40.1824ZM37.1462 41.6348V25.3051H35.1462V41.6348H37.1462ZM35.7578 24.3836L32.0297 25.9549L32.8065 27.7979L36.5346 26.2266L35.7578 24.3836ZM33.336 26.4795L31.8571 23.0595L30.0214 23.8533L31.5003 27.2733L33.336 26.4795ZM31.3628 24.3623L37.5558 21.4661L36.7086 19.6544L30.5156 22.5506L31.3628 24.3623ZM37.1322 21.5602H40.1824V19.5602H37.1322V21.5602ZM39.1824 20.5602V41.6348H41.1824V20.5602H39.1824ZM40.1824 40.6348H36.1462V42.6348H40.1824V40.6348Z" fill="black" mask="url(#path-2-outside-1_554_3310)"/>
</svg>
