<svg width="71" height="60" viewBox="0 0 71 60" fill="none" xmlns="http://www.w3.org/2000/svg">
<path d="M33.2472 5.10934C34.4213 3.45512 36.8771 3.45512 38.0512 5.10934L42.4311 11.28C43.3414 12.5626 44.9265 13.182 46.4652 12.8564L54.627 11.1297C56.8116 10.6675 58.6959 12.7091 58.0606 14.8496L56.5069 20.084C55.9642 21.912 56.8066 23.8666 58.5082 24.7274L64.0481 27.5301C66.2027 28.62 66.2026 31.6968 64.0481 32.7868L58.5082 35.5895C56.8066 36.4503 55.9642 38.4049 56.5069 40.2329L58.0606 45.4672C58.6959 47.6078 56.8116 49.6494 54.627 49.1872L46.4652 47.4604C44.9265 47.1349 43.3414 47.7543 42.4311 49.0369L38.0512 55.2075C36.8771 56.8618 34.4213 56.8618 33.2472 55.2075L28.8673 49.0369C27.957 47.7543 26.3719 47.1349 24.8332 47.4604L16.6714 49.1872C14.4869 49.6494 12.6025 47.6078 13.2379 45.4672L14.7916 40.2329C15.3342 38.4049 14.4918 36.4503 12.7902 35.5895L7.25027 32.7868C5.09577 31.6968 5.09577 28.62 7.25028 27.5301L12.7902 24.7274C14.4918 23.8666 15.3342 21.912 14.7916 20.084L13.2379 14.8496C12.6025 12.7091 14.4869 10.6675 16.6714 11.1297L24.8332 12.8564C26.3719 13.182 27.957 12.5626 28.8673 11.28L33.2472 5.10934Z" fill="#F7BF46" stroke="black"/>
<mask id="path-2-outside-1_554_3309" maskUnits="userSpaceOnUse" x="26.665" y="18.7256" width="18" height="24" fill="black">
<rect fill="white" x="26.665" y="18.7256" width="18" height="24"/>
<path d="M28.9876 41.7256V38.0591C30.1995 36.8678 31.3189 35.7586 32.3459 34.7315C32.7773 34.3002 33.2189 33.8586 33.6708 33.4067C34.1227 32.9548 34.5438 32.5337 34.934 32.1434C35.3243 31.7532 35.6735 31.404 35.9816 31.0959C36.2897 30.7672 36.5259 30.5105 36.6903 30.3256C37.0189 29.9353 37.3065 29.5862 37.553 29.278C37.82 28.9699 38.0254 28.6721 38.1692 28.3845C38.3335 28.0764 38.4567 27.7786 38.5389 27.491C38.6211 27.1829 38.6621 26.8543 38.6621 26.5051C38.6621 25.8272 38.3951 25.2418 37.8611 24.7489C37.327 24.2354 36.5978 23.9786 35.6735 23.9786C34.7492 23.9786 34.0303 24.2456 33.5168 24.7797C33.0032 25.2932 32.6541 25.8786 32.4692 26.5359L28.8027 25.0262C28.967 24.4716 29.2341 23.9067 29.6038 23.3316C29.9735 22.7359 30.4459 22.2121 31.0211 21.7602C31.5962 21.2878 32.2741 20.9078 33.0546 20.6202C33.8557 20.3121 34.7492 20.1581 35.7351 20.1581C36.8032 20.1581 37.7686 20.3224 38.6313 20.651C39.494 20.9591 40.2232 21.3905 40.8189 21.9451C41.4146 22.4997 41.8767 23.157 42.2054 23.917C42.534 24.6564 42.6984 25.4575 42.6984 26.3202C42.6984 27.6348 42.3697 28.8467 41.7124 29.9559C41.0757 31.0445 40.2951 32.0613 39.3708 33.0061L36.7211 35.6559C36.0227 36.3542 35.2319 37.1348 34.3486 37.9975L34.4719 38.1823H43.0065V41.7256H28.9876Z"/>
</mask>
<path d="M28.9876 41.7256V38.0591C30.1995 36.8678 31.3189 35.7586 32.3459 34.7315C32.7773 34.3002 33.2189 33.8586 33.6708 33.4067C34.1227 32.9548 34.5438 32.5337 34.934 32.1434C35.3243 31.7532 35.6735 31.404 35.9816 31.0959C36.2897 30.7672 36.5259 30.5105 36.6903 30.3256C37.0189 29.9353 37.3065 29.5862 37.553 29.278C37.82 28.9699 38.0254 28.6721 38.1692 28.3845C38.3335 28.0764 38.4567 27.7786 38.5389 27.491C38.6211 27.1829 38.6621 26.8543 38.6621 26.5051C38.6621 25.8272 38.3951 25.2418 37.8611 24.7489C37.327 24.2354 36.5978 23.9786 35.6735 23.9786C34.7492 23.9786 34.0303 24.2456 33.5168 24.7797C33.0032 25.2932 32.6541 25.8786 32.4692 26.5359L28.8027 25.0262C28.967 24.4716 29.2341 23.9067 29.6038 23.3316C29.9735 22.7359 30.4459 22.2121 31.0211 21.7602C31.5962 21.2878 32.2741 20.9078 33.0546 20.6202C33.8557 20.3121 34.7492 20.1581 35.7351 20.1581C36.8032 20.1581 37.7686 20.3224 38.6313 20.651C39.494 20.9591 40.2232 21.3905 40.8189 21.9451C41.4146 22.4997 41.8767 23.157 42.2054 23.917C42.534 24.6564 42.6984 25.4575 42.6984 26.3202C42.6984 27.6348 42.3697 28.8467 41.7124 29.9559C41.0757 31.0445 40.2951 32.0613 39.3708 33.0061L36.7211 35.6559C36.0227 36.3542 35.2319 37.1348 34.3486 37.9975L34.4719 38.1823H43.0065V41.7256H28.9876Z" fill="white"/>
<path d="M28.9876 41.7256H27.9876V42.7256H28.9876V41.7256ZM28.9876 38.0591L28.2865 37.346L27.9876 37.6399V38.0591H28.9876ZM32.3459 34.7315L31.6388 34.0244H31.6388L32.3459 34.7315ZM33.6708 33.4067L34.3779 34.1138H34.3779L33.6708 33.4067ZM34.934 32.1434L34.2269 31.4363L34.2269 31.4363L34.934 32.1434ZM35.9816 31.0959L36.6887 31.803L36.7001 31.7916L36.7112 31.7798L35.9816 31.0959ZM36.6903 30.3256L37.4377 30.99L37.4466 30.98L37.4552 30.9697L36.6903 30.3256ZM37.553 29.278L36.7973 28.6231L36.7844 28.638L36.7721 28.6533L37.553 29.278ZM38.1692 28.3845L37.2868 27.9139L37.2806 27.9255L37.2747 27.9373L38.1692 28.3845ZM38.5389 27.491L39.5004 27.7657L39.5029 27.7572L39.5051 27.7487L38.5389 27.491ZM37.8611 24.7489L37.168 25.4697L37.1753 25.4768L37.1828 25.4837L37.8611 24.7489ZM33.5168 24.7797L34.2239 25.4868L34.2308 25.4798L34.2376 25.4728L33.5168 24.7797ZM32.4692 26.5359L32.0884 27.4606L33.1276 27.8884L33.4318 26.8066L32.4692 26.5359ZM28.8027 25.0262L27.8439 24.7421L27.5876 25.6073L28.422 25.9508L28.8027 25.0262ZM29.6038 23.3316L30.445 23.8723L30.4493 23.8657L30.4534 23.8589L29.6038 23.3316ZM31.0211 21.7602L31.6389 22.5465L31.6474 22.5398L31.6558 22.5329L31.0211 21.7602ZM33.0546 20.6202L33.4003 21.5586L33.407 21.5561L33.4136 21.5536L33.0546 20.6202ZM38.6313 20.651L38.2753 21.5855L38.2851 21.5893L38.295 21.5928L38.6313 20.651ZM40.8189 21.9451L40.1375 22.677L40.8189 21.9451ZM42.2054 23.917L41.2875 24.3139L41.2916 24.3231L42.2054 23.917ZM41.7124 29.9559L40.8521 29.4461L40.8492 29.451L41.7124 29.9559ZM39.3708 33.0061L40.0779 33.7133L40.0856 33.7054L39.3708 33.0061ZM36.7211 35.6559L37.4282 36.363L36.7211 35.6559ZM34.3486 37.9975L33.6499 37.2821L33.0564 37.8618L33.5166 38.5522L34.3486 37.9975ZM34.4719 38.1824L33.6398 38.737L33.9367 39.1824H34.4719V38.1824ZM43.0065 38.1824H44.0065V37.1824H43.0065V38.1824ZM43.0065 41.7256V42.7256H44.0065V41.7256H43.0065ZM29.9876 41.7256V38.0591H27.9876V41.7256H29.9876ZM29.6886 38.7722C30.9022 37.5792 32.0237 36.468 33.0531 35.4387L31.6388 34.0244C30.6141 35.0491 29.4967 36.1563 28.2865 37.346L29.6886 38.7722ZM33.0531 35.4387C33.4844 35.0073 33.926 34.5657 34.3779 34.1138L32.9637 32.6996C32.5118 33.1515 32.0702 33.5931 31.6388 34.0244L33.0531 35.4387ZM34.3779 34.1138C34.8298 33.6619 35.2509 33.2408 35.6412 32.8505L34.2269 31.4363C33.8367 31.8266 33.4156 32.2477 32.9637 32.6996L34.3779 34.1138ZM35.6412 32.8505C36.0314 32.4603 36.3806 32.1111 36.6887 31.803L35.2745 30.3888C34.9664 30.6969 34.6172 31.0461 34.2269 31.4363L35.6412 32.8505ZM36.7112 31.7798C37.0213 31.449 37.2646 31.1847 37.4377 30.99L35.9429 29.6612C35.7873 29.8362 35.5582 30.0854 35.2521 30.4119L36.7112 31.7798ZM37.4552 30.9697C37.7878 30.5748 38.0809 30.219 38.3338 29.9027L36.7721 28.6533C36.5321 28.9533 36.2501 29.2959 35.9253 29.6815L37.4552 30.9697ZM38.3087 29.933C38.6166 29.5777 38.874 29.2109 39.0636 28.8317L37.2747 27.9373C37.1768 28.1333 37.0234 28.3622 36.7973 28.6231L38.3087 29.933ZM39.0515 28.8551C39.2437 28.4948 39.396 28.1314 39.5004 27.7657L37.5774 27.2163C37.5175 27.4258 37.4233 27.6581 37.2868 27.9139L39.0515 28.8551ZM39.5051 27.7487C39.6117 27.349 39.6621 26.9331 39.6621 26.5051H37.6621C37.6621 26.7755 37.6304 27.0169 37.5727 27.2334L39.5051 27.7487ZM39.6621 26.5051C39.6621 25.5263 39.2619 24.681 38.5393 24.0141L37.1828 25.4837C37.5284 25.8027 37.6621 26.1282 37.6621 26.5051H39.6621ZM38.5542 24.028C37.7904 23.2937 36.789 22.9786 35.6735 22.9786V24.9786C36.4066 24.9786 36.8636 25.177 37.168 25.4697L38.5542 24.028ZM35.6735 22.9786C34.5488 22.9786 33.5424 23.3102 32.7959 24.0866L34.2376 25.4728C34.5181 25.1811 34.9496 24.9786 35.6735 24.9786V22.9786ZM32.8096 24.0726C32.1829 24.6993 31.7408 25.4324 31.5065 26.2651L33.4318 26.8066C33.5674 26.3248 33.8235 25.8871 34.2239 25.4868L32.8096 24.0726ZM32.8499 25.6112L29.1835 24.1015L28.422 25.9508L32.0884 27.4606L32.8499 25.6112ZM29.7615 25.3102C29.8946 24.8611 30.1174 24.3819 30.445 23.8723L28.7626 22.7908C28.3508 23.4315 28.0395 24.0821 27.8439 24.7421L29.7615 25.3102ZM30.4534 23.8589C30.759 23.3667 31.1515 22.9295 31.6389 22.5465L30.4033 20.9739C29.7404 21.4948 29.1881 22.1051 28.7541 22.8042L30.4534 23.8589ZM31.6558 22.5329C32.135 22.1393 32.7125 21.812 33.4003 21.5586L32.7089 19.6819C31.8357 20.0036 31.0574 20.4363 30.3863 20.9875L31.6558 22.5329ZM33.4136 21.5536C34.0844 21.2956 34.8539 21.1581 35.7351 21.1581V19.1581C34.6445 19.1581 33.627 19.3287 32.6956 19.6869L33.4136 21.5536ZM35.7351 21.1581C36.7004 21.1581 37.5427 21.3064 38.2753 21.5855L38.9873 19.7165C37.9946 19.3384 36.9061 19.1581 35.7351 19.1581V21.1581ZM38.295 21.5928C39.0457 21.8609 39.6531 22.226 40.1375 22.677L41.5003 21.2132C40.7933 20.5549 39.9424 20.0574 38.9677 19.7093L38.295 21.5928ZM40.1375 22.677C40.6303 23.1358 41.0127 23.6784 41.2875 24.3139L43.1232 23.5201C42.7407 22.6355 42.1989 21.8636 41.5003 21.2132L40.1375 22.677ZM41.2916 24.3231C41.5597 24.9264 41.6984 25.588 41.6984 26.3202H43.6984C43.6984 25.327 43.5084 24.3865 43.1192 23.5108L41.2916 24.3231ZM41.6984 26.3202C41.6984 27.4591 41.4161 28.4944 40.8521 29.4461L42.5727 30.4657C43.3233 29.199 43.6984 27.8105 43.6984 26.3202H41.6984ZM40.8492 29.451C40.2557 30.4657 39.5258 31.4177 38.656 32.3068L40.0856 33.7054C41.0644 32.7049 41.8956 31.6234 42.5756 30.4608L40.8492 29.451ZM38.6637 32.299L36.014 34.9488L37.4282 36.363L40.0779 33.7132L38.6637 32.299ZM36.014 34.9488C35.3189 35.6438 34.531 36.4215 33.6499 37.2821L35.0474 38.7129C35.9328 37.8481 36.7264 37.0647 37.4282 36.363L36.014 34.9488ZM33.5166 38.5522L33.6398 38.737L35.3039 37.6277L35.1807 37.4428L33.5166 38.5522ZM34.4719 39.1824H43.0065V37.1824H34.4719V39.1824ZM42.0065 38.1824V41.7256H44.0065V38.1824H42.0065ZM43.0065 40.7256H28.9876V42.7256H43.0065V40.7256Z" fill="black" mask="url(#path-2-outside-1_554_3309)"/>
</svg>
