<svg width="72" height="59" viewBox="0 0 72 59" fill="none" xmlns="http://www.w3.org/2000/svg">
<path d="M33.9245 4.30605C35.1004 2.68038 37.522 2.68039 38.6978 4.30605L43.2597 10.6128C44.1707 11.8724 45.7365 12.4796 47.2586 12.1636L55.7417 10.4024C57.9297 9.94818 59.8069 12.0004 59.1599 14.1394L57.5861 19.3419C57.0285 21.1853 57.8833 23.1619 59.6083 24.0183L65.236 26.8121C67.4171 27.8948 67.4171 31.006 65.236 32.0888L59.6083 34.8826C57.8833 35.7389 57.0285 37.7156 57.5861 39.559L59.1599 44.7615C59.8069 46.9005 57.9297 48.9527 55.7417 48.4984L47.2586 46.7373C45.7365 46.4213 44.1707 47.0285 43.2597 48.2881L38.6978 54.5948C37.522 56.2205 35.1004 56.2205 33.9245 54.5948L29.3627 48.2881C28.4516 47.0285 26.8858 46.4213 25.3637 46.7373L16.8807 48.4984C14.6926 48.9527 12.8155 46.9005 13.4625 44.7615L15.0362 39.559C15.5938 37.7156 14.7391 35.7389 13.014 34.8826L7.38635 32.0888C5.20528 31.006 5.20528 27.8948 7.38636 26.8121L13.014 24.0183C14.7391 23.1619 15.5938 21.1853 15.0362 19.3419L13.4625 14.1394C12.8155 12.0004 14.6926 9.94818 16.8807 10.4024L25.3637 12.1636C26.8858 12.4796 28.4516 11.8724 29.3627 10.6128L33.9245 4.30605Z" fill="#EC79F6" stroke="black"/>
<mask id="path-2-outside-1_554_3313" maskUnits="userSpaceOnUse" x="27.208" y="17.3545" width="18" height="25" fill="black">
<rect fill="white" x="27.208" y="17.3545" width="18" height="25"/>
<path d="M36.2803 40.8475C35.4176 40.8475 34.5857 40.7345 33.7846 40.5085C33.0041 40.2826 32.2852 39.9437 31.6279 39.4918C30.9706 39.0194 30.3852 38.434 29.8717 37.7356C29.3787 37.0372 28.9987 36.2259 28.7317 35.3015L32.5214 33.7918C32.7884 34.8188 33.2403 35.5994 33.8771 36.1334C34.5138 36.6469 35.3149 36.9037 36.2803 36.9037C36.7117 36.9037 37.1225 36.8421 37.5127 36.7188C37.903 36.575 38.2419 36.3799 38.5295 36.1334C38.8171 35.8869 39.043 35.5994 39.2073 35.2707C39.3922 34.9215 39.4846 34.5313 39.4846 34.0999C39.4846 33.1961 39.1457 32.4875 38.4679 31.974C37.8106 31.4605 36.8965 31.2037 35.7257 31.2037H33.9079V27.5372H35.5717C35.9825 27.5372 36.383 27.4859 36.7733 27.3832C37.1635 27.2805 37.5025 27.1264 37.79 26.921C38.0981 26.6951 38.3344 26.4178 38.4987 26.0891C38.6835 25.7399 38.776 25.3394 38.776 24.8875C38.776 24.1891 38.5295 23.6243 38.0365 23.1929C37.5435 22.741 36.876 22.5151 36.0338 22.5151C35.13 22.5151 34.4317 22.7616 33.9387 23.2545C33.4663 23.727 33.1376 24.261 32.9527 24.8567L29.2554 23.347C29.4403 22.8334 29.7176 22.3097 30.0873 21.7756C30.4571 21.221 30.9192 20.728 31.4738 20.2967C32.049 19.8448 32.7165 19.4853 33.4765 19.2183C34.2365 18.9307 35.1095 18.787 36.0954 18.787C37.1019 18.787 38.016 18.9307 38.8376 19.2183C39.6798 19.5059 40.3987 19.9064 40.9943 20.4199C41.59 20.9129 42.0522 21.5086 42.3808 22.207C42.7095 22.8848 42.8738 23.6243 42.8738 24.4253C42.8738 25.0415 42.7916 25.5961 42.6273 26.0891C42.4835 26.5821 42.2884 27.0237 42.0419 27.414C41.7954 27.8042 41.5079 28.1432 41.1792 28.4307C40.8711 28.6978 40.5527 28.9134 40.2241 29.0778V29.3242C41.21 29.7145 42.0214 30.341 42.6581 31.2037C43.3154 32.0664 43.6441 33.155 43.6441 34.4696C43.6441 35.394 43.4695 36.2464 43.1203 37.0269C42.7711 37.7869 42.2679 38.4545 41.6106 39.0296C40.9738 39.6048 40.2035 40.0464 39.2998 40.3545C38.396 40.6831 37.3895 40.8475 36.2803 40.8475Z"/>
</mask>
<path d="M36.2803 40.8475C35.4176 40.8475 34.5857 40.7345 33.7846 40.5085C33.0041 40.2826 32.2852 39.9437 31.6279 39.4918C30.9706 39.0194 30.3852 38.434 29.8717 37.7356C29.3787 37.0372 28.9987 36.2259 28.7317 35.3015L32.5214 33.7918C32.7884 34.8188 33.2403 35.5994 33.8771 36.1334C34.5138 36.6469 35.3149 36.9037 36.2803 36.9037C36.7117 36.9037 37.1225 36.8421 37.5127 36.7188C37.903 36.575 38.2419 36.3799 38.5295 36.1334C38.8171 35.8869 39.043 35.5994 39.2073 35.2707C39.3922 34.9215 39.4846 34.5313 39.4846 34.0999C39.4846 33.1961 39.1457 32.4875 38.4679 31.974C37.8106 31.4605 36.8965 31.2037 35.7257 31.2037H33.9079V27.5372H35.5717C35.9825 27.5372 36.383 27.4859 36.7733 27.3832C37.1635 27.2805 37.5025 27.1264 37.79 26.921C38.0981 26.6951 38.3344 26.4178 38.4987 26.0891C38.6835 25.7399 38.776 25.3394 38.776 24.8875C38.776 24.1891 38.5295 23.6243 38.0365 23.1929C37.5435 22.741 36.876 22.5151 36.0338 22.5151C35.13 22.5151 34.4317 22.7616 33.9387 23.2545C33.4663 23.727 33.1376 24.261 32.9527 24.8567L29.2554 23.347C29.4403 22.8334 29.7176 22.3097 30.0873 21.7756C30.4571 21.221 30.9192 20.728 31.4738 20.2967C32.049 19.8448 32.7165 19.4853 33.4765 19.2183C34.2365 18.9307 35.1095 18.787 36.0954 18.787C37.1019 18.787 38.016 18.9307 38.8376 19.2183C39.6798 19.5059 40.3987 19.9064 40.9943 20.4199C41.59 20.9129 42.0522 21.5086 42.3808 22.207C42.7095 22.8848 42.8738 23.6243 42.8738 24.4253C42.8738 25.0415 42.7916 25.5961 42.6273 26.0891C42.4835 26.5821 42.2884 27.0237 42.0419 27.414C41.7954 27.8042 41.5079 28.1432 41.1792 28.4307C40.8711 28.6978 40.5527 28.9134 40.2241 29.0778V29.3242C41.21 29.7145 42.0214 30.341 42.6581 31.2037C43.3154 32.0664 43.6441 33.155 43.6441 34.4696C43.6441 35.394 43.4695 36.2464 43.1203 37.0269C42.7711 37.7869 42.2679 38.4545 41.6106 39.0296C40.9738 39.6048 40.2035 40.0464 39.2998 40.3545C38.396 40.6831 37.3895 40.8475 36.2803 40.8475Z" fill="white"/>
<path d="M33.7846 40.5085L33.5066 41.4691L33.5132 41.471L33.7846 40.5085ZM31.6279 39.4918L31.0442 40.3038L31.0527 40.3099L31.0613 40.3158L31.6279 39.4918ZM29.8717 37.7356L29.0547 38.3123L29.0603 38.3202L29.066 38.328L29.8717 37.7356ZM28.7317 35.3015L28.3616 34.3725L27.5193 34.7081L27.771 35.5791L28.7317 35.3015ZM32.5214 33.7918L33.4892 33.5402L33.2041 32.4434L32.1513 32.8628L32.5214 33.7918ZM33.8771 36.1334L33.2344 36.8996L33.2418 36.9058L33.2493 36.9118L33.8771 36.1334ZM37.5127 36.7188L37.8139 37.6724L37.8363 37.6653L37.8584 37.6572L37.5127 36.7188ZM38.5295 36.1334L37.8787 35.3742H37.8787L38.5295 36.1334ZM39.2073 35.2707L38.3235 34.8028L38.3181 34.8131L38.3129 34.8235L39.2073 35.2707ZM38.4679 31.974L37.8522 32.762L37.8581 32.7666L37.864 32.7711L38.4679 31.974ZM33.9079 31.2037H32.9079V32.2037H33.9079V31.2037ZM33.9079 27.5372V26.5372H32.9079V27.5372H33.9079ZM36.7733 27.3832L36.5188 26.4161L36.5188 26.4161L36.7733 27.3832ZM37.79 26.921L38.3713 27.7348L38.3814 27.7274L37.79 26.921ZM38.4987 26.0891L37.6149 25.6212L37.6094 25.6315L37.6042 25.6419L38.4987 26.0891ZM38.0365 23.1929L37.3608 23.9301L37.3693 23.9379L37.378 23.9455L38.0365 23.1929ZM33.9387 23.2545L34.6458 23.9616H34.6458L33.9387 23.2545ZM32.9527 24.8567L32.5747 25.7825L33.5845 26.1948L33.9078 25.1531L32.9527 24.8567ZM29.2554 23.347L28.3146 23.0082L27.9898 23.9103L28.8774 24.2727L29.2554 23.347ZM30.0873 21.7756L30.9095 22.3448L30.9145 22.3376L30.9194 22.3303L30.0873 21.7756ZM31.4738 20.2967L32.0878 21.0861L32.0916 21.083L31.4738 20.2967ZM33.4765 19.2183L33.808 20.1618L33.8193 20.1578L33.8304 20.1536L33.4765 19.2183ZM38.8376 19.2183L38.5072 20.1622L38.5144 20.1647L38.8376 19.2183ZM40.9943 20.4199L40.3414 21.1773L40.349 21.1839L40.3568 21.1903L40.9943 20.4199ZM42.3808 22.207L41.4759 22.6328L41.481 22.6432L42.3808 22.207ZM42.6273 26.0891L41.6786 25.7729L41.6726 25.7909L41.6673 25.8091L42.6273 26.0891ZM41.1792 28.4307L41.8341 29.1864L41.8377 29.1833L41.1792 28.4307ZM40.2241 29.0778L39.7769 28.1833L39.2241 28.4597V29.0778H40.2241ZM40.2241 29.3242H39.2241V30.0039L39.856 30.2541L40.2241 29.3242ZM42.6581 31.2037L41.8536 31.7976L41.8581 31.8037L41.8627 31.8097L42.6581 31.2037ZM43.1203 37.0269L44.029 37.4445L44.0331 37.4353L43.1203 37.0269ZM41.6106 39.0296L40.9521 38.2771L40.9461 38.2822L40.9403 38.2875L41.6106 39.0296ZM39.2998 40.3545L38.9771 39.408L38.9675 39.4112L38.958 39.4147L39.2998 40.3545ZM36.2803 39.8475C35.506 39.8475 34.7657 39.7462 34.0561 39.5461L33.5132 41.471C34.4058 41.7228 35.3292 41.8475 36.2803 41.8475V39.8475ZM34.0627 39.548C33.383 39.3512 32.7618 39.0578 32.1944 38.6677L31.0613 40.3158C31.8085 40.8295 32.6251 41.214 33.5066 41.4691L34.0627 39.548ZM32.2115 38.6798C31.6451 38.2727 31.1332 37.7632 30.6773 37.1432L29.066 38.328C29.6372 39.1047 30.2961 39.7661 31.0442 40.3038L32.2115 38.6798ZM30.6886 37.1589C30.2674 36.5622 29.9323 35.8546 29.6924 35.024L27.771 35.5791C28.0651 36.5971 28.49 37.5122 29.0547 38.3123L30.6886 37.1589ZM29.1018 36.2305L32.8915 34.7208L32.1513 32.8628L28.3616 34.3725L29.1018 36.2305ZM31.5536 34.0434C31.8584 35.2158 32.3993 36.1992 33.2344 36.8996L34.5197 35.3672C34.0813 34.9995 33.7184 34.4218 33.4892 33.5402L31.5536 34.0434ZM33.2493 36.9118C34.0946 37.5935 35.1294 37.9037 36.2803 37.9037V35.9037C35.5004 35.9037 34.933 35.7003 34.5048 35.355L33.2493 36.9118ZM36.2803 37.9037C36.8083 37.9037 37.321 37.828 37.8139 37.6724L37.2116 35.7652C36.9239 35.8561 36.615 35.9037 36.2803 35.9037V37.9037ZM37.8584 37.6572C38.3493 37.4763 38.794 37.2238 39.1803 36.8927L37.8787 35.3742C37.6898 35.5361 37.4567 35.6738 37.167 35.7805L37.8584 37.6572ZM39.1803 36.8927C39.5659 36.5622 39.876 36.1695 40.1017 35.7179L38.3129 34.8235C38.21 35.0292 38.0683 35.2117 37.8787 35.3742L39.1803 36.8927ZM40.0911 35.7386C40.3591 35.2323 40.4846 34.6791 40.4846 34.0999H38.4846C38.4846 34.3834 38.4252 34.6107 38.3235 34.8028L40.0911 35.7386ZM40.4846 34.0999C40.4846 32.9059 40.0168 31.8928 39.0717 31.1769L37.864 32.7711C38.2746 33.0821 38.4846 33.4863 38.4846 34.0999H40.4846ZM39.0835 31.1859C38.1916 30.4892 37.0314 30.2037 35.7257 30.2037V32.2037C36.7616 32.2037 37.4295 32.4318 37.8522 32.762L39.0835 31.1859ZM35.7257 30.2037H33.9079V32.2037H35.7257V30.2037ZM34.9079 31.2037V27.5372H32.9079V31.2037H34.9079ZM33.9079 28.5372H35.5717V26.5372H33.9079V28.5372ZM35.5717 28.5372C36.0668 28.5372 36.5529 28.4752 37.0278 28.3502L36.5188 26.4161C36.2131 26.4965 35.8981 26.5372 35.5717 26.5372V28.5372ZM37.0278 28.3502C37.5189 28.221 37.972 28.0199 38.3713 27.7347L37.2088 26.1073C37.0329 26.2329 36.8082 26.3399 36.5188 26.4161L37.0278 28.3502ZM38.3814 27.7274C38.8123 27.4114 39.1549 27.0128 39.3931 26.5363L37.6042 25.6419C37.5138 25.8227 37.3839 25.9787 37.1987 26.1146L38.3814 27.7274ZM39.3825 26.557C39.654 26.0441 39.776 25.4789 39.776 24.8875H37.776C37.776 25.1999 37.7131 25.4357 37.6149 25.6212L39.3825 26.557ZM39.776 24.8875C39.776 23.9224 39.4208 23.0753 38.695 22.4403L37.378 23.9455C37.6382 24.1732 37.776 24.4559 37.776 24.8875H39.776ZM38.7122 22.4557C37.9905 21.7942 37.0587 21.5151 36.0338 21.5151V23.5151C36.6932 23.5151 37.0966 23.6879 37.3608 23.9301L38.7122 22.4557ZM36.0338 21.5151C34.9468 21.5151 33.963 21.8159 33.2316 22.5474L34.6458 23.9616C34.9003 23.7072 35.3132 23.5151 36.0338 23.5151V21.5151ZM33.2316 22.5474C32.6528 23.1262 32.234 23.7987 31.9977 24.5603L33.9078 25.1531C34.0412 24.7234 34.2797 24.3277 34.6458 23.9616L33.2316 22.5474ZM33.3308 23.9309L29.6335 22.4212L28.8774 24.2727L32.5747 25.7825L33.3308 23.9309ZM30.1963 23.6857C30.3469 23.2676 30.5801 22.8206 30.9095 22.3448L29.2651 21.2064C28.8551 21.7987 28.5338 22.3993 28.3146 23.0082L30.1963 23.6857ZM30.9194 22.3303C31.2263 21.8699 31.6134 21.455 32.0878 21.086L30.8599 19.5073C30.2251 20.0011 29.6878 20.5721 29.2553 21.2209L30.9194 22.3303ZM32.0916 21.083C32.5723 20.7053 33.141 20.3961 33.808 20.1618L33.145 18.2749C32.292 18.5746 31.5256 18.9843 30.856 19.5104L32.0916 21.083ZM33.8304 20.1536C34.4561 19.9169 35.2054 19.787 36.0954 19.787V17.787C35.0136 17.787 34.017 17.9446 33.1226 18.283L33.8304 20.1536ZM36.0954 19.787C37.0067 19.787 37.8069 19.9171 38.5072 20.1622L39.1679 18.2745C38.225 17.9444 37.1972 17.787 36.0954 17.787V19.787ZM38.5144 20.1647C39.2514 20.4163 39.8545 20.7576 40.3414 21.1773L41.6473 19.6625C40.9429 19.0553 40.1081 18.5954 39.1607 18.272L38.5144 20.1647ZM40.3568 21.1903C40.8393 21.5897 41.2101 22.0678 41.476 22.6328L43.2856 21.7812C42.8942 20.9494 42.3407 20.2361 41.6319 19.6495L40.3568 21.1903ZM41.481 22.6432C41.7396 23.1765 41.8738 23.7656 41.8738 24.4253H43.8738C43.8738 23.4829 43.6794 22.5931 43.2806 21.7707L41.481 22.6432ZM41.8738 24.4253C41.8738 24.9535 41.8033 25.3988 41.6786 25.7729L43.576 26.4053C43.78 25.7935 43.8738 25.1296 43.8738 24.4253H41.8738ZM41.6673 25.8091C41.5468 26.2224 41.3878 26.5769 41.1964 26.88L42.8874 27.948C43.189 27.4705 43.4203 26.9417 43.5873 26.3691L41.6673 25.8091ZM41.1964 26.88C40.9985 27.1934 40.7728 27.4576 40.5207 27.6782L41.8377 29.1833C42.2429 28.8287 42.5924 28.4151 42.8874 27.948L41.1964 26.88ZM40.5243 27.675C40.2725 27.8932 40.0231 28.0602 39.7769 28.1833L40.6713 29.9722C41.0824 29.7666 41.4697 29.5023 41.8341 29.1864L40.5243 27.675ZM39.2241 29.0778V29.3242H41.2241V29.0778H39.2241ZM39.856 30.2541C40.6658 30.5746 41.3267 31.0837 41.8536 31.7976L43.4627 30.6098C42.7161 29.5983 41.7542 28.8544 40.5921 28.3944L39.856 30.2541ZM41.8627 31.8097C42.361 32.4638 42.6441 33.3263 42.6441 34.4696H44.6441C44.6441 32.9838 44.2698 31.669 43.4536 30.5977L41.8627 31.8097ZM42.6441 34.4696C42.6441 35.2648 42.4946 35.9766 42.2075 36.6186L44.0331 37.4353C44.4443 36.5162 44.6441 35.5232 44.6441 34.4696H42.6441ZM42.2116 36.6094C41.9239 37.2357 41.5081 37.7905 40.9521 38.2771L42.2691 39.7822C43.0276 39.1185 43.6183 38.3382 44.029 37.4444L42.2116 36.6094ZM40.9403 38.2875C40.4151 38.7619 39.7669 39.1387 38.9771 39.408L39.6224 41.301C40.6402 40.954 41.5325 40.4477 42.2808 39.7717L40.9403 38.2875ZM38.958 39.4147C38.1792 39.6979 37.2905 39.8475 36.2803 39.8475V41.8475C37.4884 41.8475 38.6128 41.6684 39.6415 41.2943L38.958 39.4147Z" fill="black" mask="url(#path-2-outside-1_554_3313)"/>
</svg>
