<svg width="213" height="213" viewBox="0 0 213 213" fill="none" xmlns="http://www.w3.org/2000/svg">
<g clip-path="url(#clip0_3025_1973)">
<path fill-rule="evenodd" clip-rule="evenodd" d="M94.4881 126.516C92.5766 130.242 89.4021 133.131 84.6725 134.661C70.0417 139.392 58.6048 133.196 50.2319 122.323C38.0066 106.446 32.4266 80.4671 32.9343 65.3233C32.9575 64.606 33.5594 64.0458 34.274 64.0709C34.9912 64.0941 35.5539 64.6942 35.5307 65.4114C35.0369 80.1098 40.4262 105.33 52.29 120.74C59.9783 130.723 70.4364 136.536 83.874 132.188C87.8742 130.897 90.5448 128.45 92.1692 125.304C90.1295 124.211 88.1475 123.074 86.2278 121.895C80.9296 118.64 68.9206 107.764 63.5825 97.3904C59.7552 89.9479 59.3556 82.7729 66.174 78.3953C69.9645 75.963 74.235 76.4498 78.3925 79.0189C84.1105 82.5474 89.6514 90.1438 93.1209 98.6739C96.0107 105.775 97.467 113.507 96.4997 120.019C96.2842 121.45 95.9591 122.824 95.5069 124.123C124.084 138.747 162.552 144.429 193.09 137.086C193.786 136.922 194.488 137.348 194.655 138.047C194.824 138.744 194.393 139.445 193.699 139.613C162.662 147.072 123.586 141.34 94.4881 126.516ZM93.1696 122.895C91.255 121.864 89.3928 120.792 87.5874 119.682C82.5113 116.561 71.0073 106.142 65.8932 96.2026C62.7538 90.1032 61.989 84.1676 67.577 80.5796C70.5129 78.697 73.8078 79.2412 77.0292 81.2265C80.5706 83.4142 84.0027 87.3052 86.8653 91.9958C91.2112 99.1172 94.2341 108.086 94.2007 115.912C94.1914 118.391 93.8692 120.755 93.1696 122.895Z" fill="black"/>
<path fill-rule="evenodd" clip-rule="evenodd" d="M149.984 115.004C160.735 126.157 178.133 133.985 193.36 137.242C194.06 137.392 194.507 138.083 194.357 138.783C194.207 139.483 193.518 139.932 192.818 139.783C177.115 136.426 159.2 128.304 148.115 116.806C147.619 116.292 147.634 115.469 148.151 114.971C148.665 114.474 149.488 114.489 149.984 115.004Z" fill="black"/>
<path fill-rule="evenodd" clip-rule="evenodd" d="M192.837 140.103C179.979 141.115 165.278 150.048 156.747 159.772C156.274 160.312 155.452 160.368 154.915 159.893C154.375 159.42 154.321 158.601 154.794 158.061C163.732 147.874 179.163 138.576 192.633 137.515C193.347 137.458 193.974 137.994 194.031 138.708C194.086 139.424 193.552 140.048 192.837 140.103Z" fill="black"/>
</g>
<defs>
<clipPath id="clip0_3025_1973">
<rect width="152.709" height="152.709" fill="white" transform="matrix(0.826777 -0.56253 -0.56253 -0.826777 86.4453 212.699)"/>
</clipPath>
</defs>
</svg>
