<svg width="28" height="28" viewBox="0 0 28 28" fill="none" xmlns="http://www.w3.org/2000/svg">
<path fill-rule="evenodd" clip-rule="evenodd" d="M13.1697 17.4441V21.9472C13.1699 22.053 13.2004 22.1566 13.2574 22.2457C13.3144 22.3348 13.3956 22.4058 13.4916 22.4504C13.5875 22.495 13.6942 22.5114 13.7991 22.4975C13.9039 22.4837 14.0027 22.4402 14.0838 22.3723L22.896 14.916C23.0189 14.8121 23.1177 14.6827 23.1854 14.5368C23.2531 14.3908 23.2882 14.2319 23.2882 14.071C23.2882 13.9101 23.2531 13.7512 23.1854 13.6052C23.1177 13.4593 23.0189 13.3299 22.896 13.226L14.0838 5.76977C14.0027 5.70129 13.9038 5.65739 13.7987 5.64327C13.6935 5.62914 13.5865 5.64536 13.4902 5.69003C13.394 5.73469 13.3125 5.80594 13.2554 5.89537C13.1983 5.98479 13.168 6.08868 13.168 6.19478V10.6979H5.58015C5.3565 10.6979 5.14201 10.7867 4.98386 10.9449C4.82571 11.103 4.73687 11.3175 4.73687 11.5412V16.6009C4.73687 16.8245 4.82571 17.039 4.98386 17.1971C5.14201 17.3553 5.3565 17.4441 5.58015 17.4441H13.1697ZM5.58015 19.974C4.68554 19.974 3.82758 19.6186 3.19499 18.986C2.56241 18.3534 2.20703 17.4955 2.20703 16.6009V11.5412C2.20703 10.6466 2.56241 9.7886 3.19499 9.15602C3.82758 8.52344 4.68554 8.16806 5.58015 8.16806H10.6398V6.19478C10.6404 5.60683 10.8089 5.03127 11.1255 4.53583C11.4421 4.04039 11.8936 3.64568 12.4269 3.39816C12.9602 3.15064 13.5531 3.0606 14.1359 3.13864C14.7186 3.21667 15.267 3.45954 15.7164 3.83866L24.5303 11.2949C24.9338 11.6363 25.258 12.0615 25.4804 12.5409C25.7028 13.0204 25.818 13.5425 25.818 14.071C25.818 14.5995 25.7028 15.1217 25.4804 15.6011C25.258 16.0805 24.9338 16.5057 24.5303 16.8471L15.7164 24.3034C15.267 24.6835 14.7184 24.9273 14.1351 25.0059C13.5518 25.0845 12.9582 24.9947 12.4242 24.747C11.8903 24.4994 11.4383 24.1042 11.1215 23.6082C10.8048 23.1121 10.6365 22.5358 10.6365 21.9472V19.974H5.58015Z" fill="black"/>
</svg>
