<svg width="32" height="31" viewBox="0 0 32 31" fill="none" xmlns="http://www.w3.org/2000/svg">
<path fill-rule="evenodd" clip-rule="evenodd" d="M16.7813 11.8739V6.78971C16.7813 6.66992 16.7471 6.55263 16.6826 6.45166C16.6181 6.35069 16.5262 6.27025 16.4175 6.21983C16.3088 6.1694 16.188 6.15108 16.0693 6.16703C15.9506 6.18298 15.8389 6.23254 15.7474 6.30986L5.79804 14.7282C5.65931 14.8455 5.54783 14.9916 5.47136 15.1564C5.39489 15.3211 5.35528 15.5006 5.35528 15.6822C5.35528 15.8639 5.39489 16.0433 5.47136 16.2081C5.54783 16.3729 5.65931 16.519 5.79804 16.6362L15.7474 25.0546C15.8389 25.1319 15.9506 25.1815 16.0693 25.1974C16.188 25.2134 16.3088 25.1951 16.4175 25.1446C16.5262 25.0942 16.6181 25.0138 16.6826 24.9128C16.7471 24.8118 16.7813 24.6945 16.7813 24.5747V19.4906H25.3501C25.6027 19.4906 25.8448 19.3903 26.0234 19.2117C26.2019 19.0332 26.3022 18.791 26.3022 18.5385V12.826C26.3022 12.5735 26.2019 12.3313 26.0234 12.1527C25.8448 11.9742 25.6027 11.8739 25.3501 11.8739H16.7813ZM25.3501 9.0176C26.3602 9.0176 27.3289 9.41884 28.0431 10.133C28.7573 10.8472 29.1585 11.8159 29.1585 12.826V18.5385C29.1585 19.5485 28.7573 20.5172 28.0431 21.2314C27.3289 21.9456 26.3602 22.3469 25.3501 22.3469H19.6376V24.5747C19.6376 25.2393 19.4476 25.8899 19.0899 26.45C18.7323 27.0101 18.222 27.4562 17.6192 27.7358C17.0163 28.0154 16.3461 28.1168 15.6875 28.0281C15.029 27.9393 14.4095 27.6641 13.9022 27.2349L3.95289 18.8165C3.49734 18.4311 3.13127 17.9511 2.88018 17.4098C2.6291 16.8685 2.49902 16.2789 2.49902 15.6822C2.49902 15.0855 2.6291 14.496 2.88018 13.9547C3.13127 13.4134 3.49734 12.9333 3.95289 12.5479L13.9022 4.12957C14.4095 3.70036 15.029 3.42515 15.6875 3.3364C16.3461 3.24764 17.0163 3.34905 17.6192 3.62865C18.222 3.90825 18.7323 4.35439 19.0899 4.91446C19.4476 5.47454 19.6376 6.12519 19.6376 6.78971V9.0176H25.3501Z" fill="black"/>
</svg>
