<svg width="29" height="29" viewBox="0 0 29 29" fill="none" xmlns="http://www.w3.org/2000/svg">
<path fill-rule="evenodd" clip-rule="evenodd" d="M10.6804 13.5062H6.03205C5.92284 13.5065 5.81598 13.5379 5.72399 13.5968C5.632 13.6556 5.55868 13.7395 5.51264 13.8385C5.4666 13.9375 5.44974 14.0476 5.46403 14.1559C5.47832 14.2642 5.52317 14.3661 5.59332 14.4498L13.2884 23.5463C13.3956 23.6735 13.5293 23.7757 13.6801 23.8458C13.8309 23.9159 13.9952 23.9522 14.1615 23.9522C14.3278 23.9522 14.4921 23.9159 14.6429 23.8458C14.7937 23.7757 14.9274 23.6735 15.0346 23.5463L22.7296 14.4498C22.7997 14.3662 22.8445 14.2644 22.8589 14.1563C22.8732 14.0482 22.8565 13.9383 22.8107 13.8393C22.7649 13.7403 22.6918 13.6565 22.6001 13.5975C22.5083 13.5385 22.4017 13.5068 22.2927 13.5062H17.6443V5.67187C17.6443 5.441 17.5526 5.21959 17.3893 5.05635C17.2261 4.8931 17.0047 4.80139 16.7738 4.80139H11.5509C11.32 4.80139 11.0986 4.8931 10.9354 5.05635C10.7721 5.21959 10.6804 5.441 10.6804 5.67187V13.5062ZM8.06897 5.67187C8.06897 4.7484 8.43582 3.86276 9.08881 3.20977C9.7418 2.55679 10.6274 2.18994 11.5509 2.18994H16.7738C17.6973 2.18994 18.5829 2.55679 19.2359 3.20977C19.8889 3.86276 20.2557 4.7484 20.2557 5.67187V10.8948H22.2927C22.8999 10.8951 23.4944 11.0689 24.0061 11.3958C24.5179 11.7227 24.9256 12.189 25.1811 12.7398C25.4367 13.2907 25.5295 13.9031 25.4487 14.5049C25.3678 15.1068 25.1167 15.6729 24.7248 16.1368L17.028 25.2333C16.6756 25.6498 16.2367 25.9845 15.7418 26.2141C15.2469 26.4437 14.7079 26.5626 14.1623 26.5626C13.6168 26.5626 13.0778 26.4437 12.5829 26.2141C12.088 25.9845 11.6491 25.6498 11.2967 25.2333L3.59992 16.1368C3.20813 15.6731 2.957 15.107 2.87608 14.5053C2.79517 13.9037 2.88785 13.2914 3.1432 12.7406C3.39856 12.1899 3.80597 11.7235 4.31745 11.3965C4.82894 11.0695 5.42322 10.8954 6.03031 10.8948H8.06897V5.67187Z" fill="black"/>
</svg>
