<svg width="335" height="314" viewBox="0 0 335 314" fill="none" xmlns="http://www.w3.org/2000/svg">
<path d="M319.211 154.053C337.71 204.884 323.474 265.438 274.122 287.582C264.157 292.054 253.593 295.792 242.7 298.98C218.551 306.05 196.174 311.537 172.148 312.749C140.652 314.338 108.375 304.568 85.9585 282.385C55.957 252.697 49.7208 214.199 56.4634 165.995C59.7949 142.177 67.2707 118.47 83.0305 100.303C102.363 78.0177 127.183 63.2894 148.828 53.1881C179.949 38.6647 219.41 27.7532 247.251 47.8605C277.275 69.5439 303.442 110.721 319.211 154.053Z" fill="#A4E8A6"/>
<path d="M156.999 124.292V26.167M156.999 124.292L78.4993 143.917M156.999 124.292L235.499 104.667M78.4993 143.917L130.833 235.5M78.4993 143.917L26.166 235.5M235.499 104.667L183.166 196.25M235.499 104.667L287.833 196.25" stroke="black" stroke-width="4" stroke-linecap="round" stroke-linejoin="round"/>
<path d="M78.4993 287.833C92.379 287.833 105.69 282.32 115.505 272.505C125.319 262.691 130.833 249.38 130.833 235.5H26.166C26.166 249.38 31.6797 262.691 41.4941 272.505C51.3085 282.32 64.6197 287.833 78.4993 287.833ZM235.499 248.583C249.379 248.583 262.69 243.07 272.505 233.255C282.319 223.441 287.833 210.13 287.833 196.25H183.166C183.166 210.13 188.68 223.441 198.494 233.255C208.308 243.07 221.62 248.583 235.499 248.583Z" stroke="black" stroke-width="4" stroke-linecap="round" stroke-linejoin="round"/>
</svg>
