<svg width="1435" height="310" viewBox="0 0 1435 310" fill="none" xmlns="http://www.w3.org/2000/svg">
<g filter="url(#filter0_d_1513_4082)">
<path fill-rule="evenodd" clip-rule="evenodd" d="M1347.15 78.5104C1347.1 74.8516 1346.62 71.1613 1345.66 67.4457C1342.3 54.4064 1327.3 46.0353 1311.33 44.0671C1295.37 42.0989 1278.78 46.5778 1272.38 57.9201C1268.72 64.405 1268.22 69.9942 1269.71 74.7065C1271.2 79.3936 1274.73 83.2794 1279.53 86.3074C1292.9 94.7416 1316.31 96.4638 1326.99 92.9374C1331.92 91.3036 1336.75 89.3355 1341.45 87.0835C1338.76 101.826 1328.75 115.792 1315.39 128.378C1286.35 155.73 1241.29 176.491 1216.75 184.124C1215.44 184.534 1214.7 185.934 1215.11 187.253C1215.52 188.571 1216.92 189.309 1218.24 188.899C1243.27 181.115 1289.2 159.913 1318.82 132.017C1334.11 117.609 1345.01 101.391 1346.88 84.3393C1381.46 65.8623 1409.86 32.3401 1434.14 4.12945C1435.04 3.08858 1434.92 1.50514 1433.87 0.603058C1432.83 -0.292719 1431.25 -0.179219 1430.35 0.867957C1407.06 27.9242 1380.03 60.1092 1347.15 78.5104ZM1342.13 81.1915C1342.31 77.0785 1341.91 72.9023 1340.82 68.6884C1337.91 57.4029 1324.54 50.7287 1310.72 49.0255C1302.25 47.9846 1293.54 48.8426 1286.71 51.8958C1282.41 53.8135 1278.87 56.5954 1276.74 60.3804C1273.94 65.345 1273.33 69.5906 1274.48 73.1926C1275.63 76.8199 1278.48 79.7342 1282.2 82.0746C1294.38 89.7644 1315.69 91.3983 1325.41 88.1874C1331.15 86.2949 1336.71 83.9356 1342.13 81.1915Z" fill="black"/>
<path fill-rule="evenodd" clip-rule="evenodd" d="M1039.13 182.661C1027.66 185.985 1014.43 189.293 1001.69 190.119C990.808 190.824 980.295 189.729 971.69 185.07C970.477 184.414 968.958 184.865 968.302 186.079C967.645 187.292 968.097 188.811 969.31 189.468C978.697 194.549 990.143 195.878 1002.01 195.108C1014.98 194.268 1028.45 190.938 1040.15 187.566C1041.51 190.315 1044.32 192.878 1049.27 194.769C1056.87 197.674 1067.25 197.638 1078.19 196.001C1094.05 193.628 1111.11 187.969 1122.08 183.948C1122.53 183.784 1123.2 183.523 1124.02 183.179C1124.27 183.731 1124.55 184.275 1124.86 184.809C1127.55 189.463 1132.31 193.226 1137.16 194.57C1167.92 203.092 1203.82 192.881 1233.05 184.571C1234.37 184.194 1235.14 182.81 1234.77 181.483C1234.39 180.156 1233.01 179.385 1231.68 179.762C1203.27 187.84 1168.39 198.032 1138.49 189.751C1134.81 188.731 1131.23 185.839 1129.19 182.307C1128.96 181.913 1128.76 181.51 1128.57 181.101C1132.6 179.104 1137.34 176.32 1139.89 173.34C1142.51 170.285 1143.16 167.024 1140.88 163.944C1138.92 161.311 1135.95 161.087 1132.86 162.452C1129.53 163.914 1126.1 167.332 1124.99 168.936C1122.91 171.932 1122.25 175.182 1122.63 178.351C1121.65 178.765 1120.85 179.073 1120.36 179.253C1109.63 183.185 1092.95 188.735 1077.45 191.056C1067.47 192.55 1057.99 192.749 1051.05 190.099C1048.09 188.968 1046.14 187.648 1045.07 186.116C1047.17 185.49 1049.19 184.874 1051.12 184.286C1054.93 183.123 1062.87 181.198 1068.55 177.767C1073.06 175.039 1076.12 171.328 1075.94 166.676C1075.85 164.286 1074.47 162.691 1072.27 161.797C1068.98 160.462 1063.29 161.108 1061.17 161.558C1054.75 162.92 1046.18 168.558 1041.93 174.911C1040.24 177.446 1039.23 180.098 1039.13 182.661ZM1044.4 181.099C1046.22 180.553 1047.97 180.017 1049.66 179.503C1053.22 178.417 1060.66 176.692 1065.96 173.488C1068.77 171.792 1071.06 169.76 1070.95 166.867C1070.94 166.642 1070.72 166.578 1070.52 166.486C1070.21 166.345 1069.87 166.248 1069.49 166.172C1066.98 165.658 1063.6 166.155 1062.21 166.449C1056.82 167.592 1049.65 172.357 1046.09 177.688C1045.34 178.814 1044.74 179.961 1044.4 181.099ZM1127.57 176.049C1129.92 174.84 1132.38 173.378 1134.32 171.787C1135.35 170.942 1136.22 170.073 1136.77 169.171C1137.23 168.425 1137.41 167.661 1136.86 166.923C1136.64 166.624 1136.31 166.618 1135.97 166.674C1135.61 166.734 1135.24 166.862 1134.87 167.027C1132.43 168.101 1129.91 170.61 1129.1 171.787C1128.15 173.152 1127.68 174.596 1127.57 176.049Z" fill="black"/>
</g>
<path d="M48.5328 257.776L18.8826 248.281L10.7676 278.338L40.4161 287.831L48.5328 257.776Z" fill="#242F9B"/>
<path d="M224.898 138V154.562" stroke="black" stroke-width="3" stroke-miterlimit="10" stroke-linecap="round" stroke-linejoin="round"/>
<path d="M224.898 175.643V192.372" stroke="black" stroke-width="3" stroke-miterlimit="10" stroke-linecap="round" stroke-linejoin="round"/>
<path d="M203 151.553L216.452 159.918" stroke="black" stroke-width="3" stroke-miterlimit="10" stroke-linecap="round" stroke-linejoin="round"/>
<path d="M233.504 170.455L246.956 178.653" stroke="black" stroke-width="3" stroke-miterlimit="10" stroke-linecap="round" stroke-linejoin="round"/>
<path d="M203 178.653L216.452 170.455" stroke="black" stroke-width="3" stroke-miterlimit="10" stroke-linecap="round" stroke-linejoin="round"/>
<path d="M233.504 159.918L246.956 151.553" stroke="black" stroke-width="3" stroke-miterlimit="10" stroke-linecap="round" stroke-linejoin="round"/>
<path d="M542.533 205.776L512.883 196.281L504.768 226.338L534.416 235.831L542.533 205.776Z" fill="#F7BF46"/>
<path d="M891.752 135.6L854.664 155.174L865.479 160.064L850.624 181.755L887.711 162.182L876.896 157.292L891.752 135.6Z" fill="#242F9B"/>
<path d="M1349.9 254V270.562" stroke="black" stroke-width="3" stroke-miterlimit="10" stroke-linecap="round" stroke-linejoin="round"/>
<path d="M1349.9 291.643V308.372" stroke="black" stroke-width="3" stroke-miterlimit="10" stroke-linecap="round" stroke-linejoin="round"/>
<path d="M1328 267.553L1341.45 275.918" stroke="black" stroke-width="3" stroke-miterlimit="10" stroke-linecap="round" stroke-linejoin="round"/>
<path d="M1358.5 286.455L1371.96 294.653" stroke="black" stroke-width="3" stroke-miterlimit="10" stroke-linecap="round" stroke-linejoin="round"/>
<path d="M1328 294.653L1341.45 286.455" stroke="black" stroke-width="3" stroke-miterlimit="10" stroke-linecap="round" stroke-linejoin="round"/>
<path d="M1358.5 275.918L1371.96 267.553" stroke="black" stroke-width="3" stroke-miterlimit="10" stroke-linecap="round" stroke-linejoin="round"/>
<defs>
<filter id="filter0_d_1513_4082" x="964" y="0" width="474.743" height="205.783" filterUnits="userSpaceOnUse" color-interpolation-filters="sRGB">
<feFlood flood-opacity="0" result="BackgroundImageFix"/>
<feColorMatrix in="SourceAlpha" type="matrix" values="0 0 0 0 0 0 0 0 0 0 0 0 0 0 0 0 0 0 127 0" result="hardAlpha"/>
<feOffset dy="4"/>
<feGaussianBlur stdDeviation="2"/>
<feComposite in2="hardAlpha" operator="out"/>
<feColorMatrix type="matrix" values="0 0 0 0 0 0 0 0 0 0 0 0 0 0 0 0 0 0 0.25 0"/>
<feBlend mode="normal" in2="BackgroundImageFix" result="effect1_dropShadow_1513_4082"/>
<feBlend mode="normal" in="SourceGraphic" in2="effect1_dropShadow_1513_4082" result="shape"/>
</filter>
</defs>
</svg>
