<svg width="1367" height="272" viewBox="0 0 1367 272" fill="none" xmlns="http://www.w3.org/2000/svg">
<g filter="url(#filter0_d_1503_4081)">
<path fill-rule="evenodd" clip-rule="evenodd" d="M664.372 116.842C631.478 118.159 598.969 119.778 567.269 121.548C522.392 124.051 477.534 126.642 432.945 130.743C418.91 132.038 404.657 132.858 390.709 134.477C381.954 135.491 370.344 136.937 368.821 137.239C368.024 137.412 367.676 137.671 367.564 137.758C366.774 138.362 366.918 138.945 367.364 139.398C367.543 139.592 367.995 140.067 369.252 140.132C453.303 144.557 539.25 135.923 623.403 135.016C769.339 133.462 919.699 139.635 1064.48 153.104C1065.74 153.212 1066.97 152.672 1067.14 151.874C1067.36 151.097 1066.44 150.341 1065.18 150.233C920.155 136.743 769.55 130.548 623.333 132.124C544.906 132.966 464.931 140.542 386.395 137.952C388.199 137.736 389.968 137.52 391.583 137.326C405.475 135.707 419.668 134.908 433.648 133.613C478.141 129.512 522.908 126.922 567.725 124.44C623.333 121.332 681.363 118.655 739.85 117.403C760.773 117.598 781.626 117.792 802.479 118.029C847.591 118.547 892.913 120.058 937.919 122.087C951.47 122.713 965.021 123.361 978.572 123.922C983.066 124.116 994.651 124.677 996.266 124.634C998.267 124.591 998.653 123.555 998.688 123.382C998.793 122.994 998.723 122.454 997.74 122.001C997.634 121.936 997.003 121.72 995.598 121.591C913.766 113.95 826.387 112.676 739.921 114.511C648.715 113.712 557.158 113.367 466.184 113C464.881 113 463.818 113.648 463.807 114.446C463.8 115.245 464.85 115.893 466.152 115.914C532.025 116.173 598.232 116.432 664.372 116.842Z" fill="#FED98B" fill-opacity="0.83"/>
</g>
<path d="M139.753 143.6L102.665 163.174L113.48 168.064L98.6245 189.755L135.712 170.182L124.897 165.292L139.753 143.6Z" fill="#242F9B"/>
<path d="M23.8984 2V18.5624" stroke="black" stroke-width="3" stroke-miterlimit="10" stroke-linecap="round" stroke-linejoin="round"/>
<path d="M23.8984 39.6426V56.3723" stroke="black" stroke-width="3" stroke-miterlimit="10" stroke-linecap="round" stroke-linejoin="round"/>
<path d="M2 15.5527L15.452 23.9176" stroke="black" stroke-width="3" stroke-miterlimit="10" stroke-linecap="round" stroke-linejoin="round"/>
<path d="M32.5039 34.4551L45.9559 42.6527" stroke="black" stroke-width="3" stroke-miterlimit="10" stroke-linecap="round" stroke-linejoin="round"/>
<path d="M2 42.6527L15.452 34.4551" stroke="black" stroke-width="3" stroke-miterlimit="10" stroke-linecap="round" stroke-linejoin="round"/>
<path d="M32.5039 23.9176L45.9559 15.5527" stroke="black" stroke-width="3" stroke-miterlimit="10" stroke-linecap="round" stroke-linejoin="round"/>
<path d="M1349.47 122.552C1356.27 122.552 1361.77 117.714 1361.77 111.745C1361.77 105.777 1356.27 100.938 1349.47 100.938C1342.68 100.938 1337.18 105.777 1337.18 111.745C1337.18 117.714 1342.68 122.552 1349.47 122.552Z" fill="#F7BF46"/>
<path d="M1349.48 96V104.66" stroke="black" stroke-width="3" stroke-miterlimit="10" stroke-linecap="round" stroke-linejoin="round"/>
<path d="M1334 103.872L1342.55 108.166" stroke="black" stroke-width="3" stroke-miterlimit="10" stroke-linecap="round" stroke-linejoin="round"/>
<path d="M1349.48 118.759V127.418" stroke="black" stroke-width="3" stroke-miterlimit="10" stroke-linecap="round" stroke-linejoin="round"/>
<path d="M1356.48 115.251L1365.03 119.545" stroke="black" stroke-width="3" stroke-miterlimit="10" stroke-linecap="round" stroke-linejoin="round"/>
<path d="M1334 120.046L1342.55 115.251" stroke="black" stroke-width="3" stroke-miterlimit="10" stroke-linecap="round" stroke-linejoin="round"/>
<path d="M1356.48 108.166L1365.03 103.872" stroke="black" stroke-width="3" stroke-miterlimit="10" stroke-linecap="round" stroke-linejoin="round"/>
<path d="M1266.9 216V232.562" stroke="black" stroke-width="3" stroke-miterlimit="10" stroke-linecap="round" stroke-linejoin="round"/>
<path d="M1266.9 253.643V270.372" stroke="black" stroke-width="3" stroke-miterlimit="10" stroke-linecap="round" stroke-linejoin="round"/>
<path d="M1245 229.553L1258.45 237.918" stroke="black" stroke-width="3" stroke-miterlimit="10" stroke-linecap="round" stroke-linejoin="round"/>
<path d="M1275.5 248.455L1288.96 256.653" stroke="black" stroke-width="3" stroke-miterlimit="10" stroke-linecap="round" stroke-linejoin="round"/>
<path d="M1245 256.653L1258.45 248.455" stroke="black" stroke-width="3" stroke-miterlimit="10" stroke-linecap="round" stroke-linejoin="round"/>
<path d="M1275.5 237.918L1288.96 229.553" stroke="black" stroke-width="3" stroke-miterlimit="10" stroke-linecap="round" stroke-linejoin="round"/>
<defs>
<filter id="filter0_d_1503_4081" x="363" y="113" width="708.175" height="48.1182" filterUnits="userSpaceOnUse" color-interpolation-filters="sRGB">
<feFlood flood-opacity="0" result="BackgroundImageFix"/>
<feColorMatrix in="SourceAlpha" type="matrix" values="0 0 0 0 0 0 0 0 0 0 0 0 0 0 0 0 0 0 127 0" result="hardAlpha"/>
<feOffset dy="4"/>
<feGaussianBlur stdDeviation="2"/>
<feComposite in2="hardAlpha" operator="out"/>
<feColorMatrix type="matrix" values="0 0 0 0 0 0 0 0 0 0 0 0 0 0 0 0 0 0 0.25 0"/>
<feBlend mode="normal" in2="BackgroundImageFix" result="effect1_dropShadow_1503_4081"/>
<feBlend mode="normal" in="SourceGraphic" in2="effect1_dropShadow_1503_4081" result="shape"/>
</filter>
</defs>
</svg>
