<svg width="15" height="15" viewBox="0 0 15 15" fill="none" xmlns="http://www.w3.org/2000/svg">
<g clip-path="url(#clip0_2023_2946)">
<path d="M6.6376 0.746094C8.4276 0.746094 9.7701 0.969844 10.6651 1.49193C11.6347 2.01401 12.0822 2.90901 12.0822 4.17693C12.0822 4.92276 11.8584 5.59401 11.5601 6.11609C11.391 6.37112 11.1713 6.58875 10.9148 6.75552C10.6582 6.92229 10.3702 7.03466 10.0684 7.08568C10.4948 7.18527 10.8993 7.36222 11.2618 7.60776C11.5601 7.83151 11.8584 8.20443 12.0822 8.57734C12.3156 9.1176 12.4178 9.70543 12.3805 10.2928C12.4069 10.8316 12.3058 11.369 12.0855 11.8615C11.8652 12.3539 11.5319 12.7875 11.1126 13.1269C10.0509 13.8852 8.76008 14.254 7.45802 14.1711H2.46094V0.746094H6.6376ZM6.93594 6.04151C7.75635 6.04151 8.35302 5.96693 8.65135 5.66859C9.02427 5.44484 9.17344 4.99734 9.17344 4.54984C9.17344 4.02776 8.94969 3.65484 8.57677 3.43109C8.20385 3.20734 7.60719 3.05818 6.78677 3.05818H5.2951V6.04151H6.93594ZM5.2951 8.27901V11.9336H7.15969C7.9801 11.9336 8.65135 11.7098 8.94969 11.4115C9.3226 11.0386 9.47177 10.6657 9.47177 10.069C9.48066 9.84357 9.4383 9.61905 9.34786 9.41235C9.25743 9.20565 9.12129 9.02215 8.94969 8.87568C8.57677 8.57734 7.9801 8.42818 7.0851 8.42818H5.22052L5.2951 8.27901Z" fill="black"/>
</g>
<defs>
<clipPath id="clip0_2023_2946">
<rect width="14.9167" height="14.9167" fill="white"/>
</clipPath>
</defs>
</svg>
