<svg width="288" height="281" viewBox="0 0 288 281" fill="none" xmlns="http://www.w3.org/2000/svg">
<path d="M272.211 122.053C290.71 172.884 276.474 233.438 227.122 255.582C217.157 260.054 206.593 263.792 195.7 266.98C171.551 274.05 149.174 279.537 125.148 280.749C93.6517 282.338 61.3749 272.568 38.9585 250.385C8.95705 220.697 2.72079 182.199 9.46338 133.995C12.7949 110.177 20.2707 86.4698 36.0305 68.3031C55.3635 46.0177 80.1827 31.2894 101.828 21.1881C132.949 6.66469 172.41 -4.24683 200.251 15.8605C230.275 37.5439 256.442 78.7215 272.211 122.053Z" fill="#FBE494"/>
<g clip-path="url(#clip0_1453_4082)">
<path d="M212.787 193.783C215.46 192.695 218.191 191.758 220.969 190.978C225.699 189.673 230.556 188.883 235.456 188.621C237.058 188.572 238.648 188.92 240.084 189.633C241.52 190.346 242.758 191.403 243.689 192.71C244.62 194.016 245.215 195.533 245.421 197.124C245.627 198.716 245.438 200.334 244.871 201.835C241.648 212.806 234.895 221.475 224.247 225.403C213.672 229.161 202.786 231.978 191.716 233.82C159.632 239.6 127.213 238.674 94.8772 235.868C86.8809 235.178 78.9757 233.674 71.2841 231.379C58.6189 227.563 46.0657 223.13 33.7647 218.277C20.6876 213.392 10.0242 203.601 4.03501 190.978C0.26805 183.955 -0.86497 175.814 0.840726 168.027C3.16642 158.516 10.6479 153.185 19.8666 156.187C26.2553 158.292 31.9154 162.668 37.8277 166.119C39.0984 167.087 40.2715 168.177 41.3303 169.374C42.6192 159.807 43.656 150.857 45.0009 141.935C46.8783 129.393 50.0726 116.964 50.605 104.395C51.3616 89.1881 49.9885 73.8691 49.6522 58.5783C49.4367 53.963 49.5867 49.3379 50.1007 44.7464C51.5858 33.8604 58.0304 26.9304 68.2859 23.4233C79.1521 20.0261 90.6325 19.0681 101.91 20.6177C134.638 24.0967 167.142 29.2591 198.048 41.1271C208.656 45.3922 218.954 50.3889 228.871 56.0812C233.819 59.2596 238.364 63.0281 242.405 67.3039C244.867 69.4882 246.482 72.4702 246.969 75.7275C247.456 78.9848 246.782 82.3097 245.067 85.1199C234.055 106.723 227.302 130.01 221.165 153.157C218.111 164.801 215.925 176.697 213.404 188.452C213.101 190.217 212.895 191.996 212.787 193.783ZM207.183 168.701C207.912 165.895 208.584 162.753 209.341 159.779C216.122 132.956 223.043 106.19 236.184 81.5286C238.65 76.8431 237.417 73.308 232.85 69.9132C220.409 60.7104 206.643 53.4544 192.024 48.3937C164.2 38.5739 135.311 33.5798 106.17 29.9886C94.6532 28.5577 83.0526 27.9124 71.7324 31.6159C62.962 34.4215 58.7029 39.7803 58.3106 48.9829C58.1376 54.0767 58.3154 59.1764 58.843 64.2457C60.8302 80.1851 60.6982 96.3179 58.4507 112.223C57.1057 120.64 55.8728 128.86 54.5839 137.109C108.579 133.461 158.428 146.901 207.211 168.532L207.183 168.701ZM46.9623 186.18C47.3135 186.374 47.691 186.516 48.0831 186.601C84.1454 185.03 118.134 194.625 151.507 206.577C152.684 206.872 153.916 206.872 155.093 206.577C167.674 204.052 180.311 201.555 192.753 198.861C202.672 196.729 202.644 196.617 203.961 186.629C205.25 177.594 205.334 177.37 196.956 173.61C152.834 153.395 104.719 143.429 56.2091 144.46C55.4908 144.58 54.8131 144.876 54.2364 145.321C53.6596 145.767 53.2016 146.348 52.9027 147.013C50.8292 159.947 48.9518 172.937 46.9623 186.18ZM19.5303 164.66C13.4218 162.837 10.4237 164.38 9.1628 170.272C8.56624 172.81 8.47104 175.441 8.88257 178.015C9.9007 183.843 12.2619 189.352 15.7787 194.105C19.2954 198.859 23.8708 202.726 29.1414 205.399C48.9877 216.561 70.8424 223.684 93.4482 226.357C126.232 229.64 159.1 230.341 191.828 224.842C204.857 222.653 217.663 220.072 228.871 212.581C234.027 209.13 235.007 203.519 236.745 196.897C233.091 197.31 229.475 198.004 225.929 198.974C202.083 207.391 177.285 211.655 152.487 215.948C113.259 222.71 75.6832 215.948 39.5929 200.012C34.2281 197.631 29.3823 194.218 25.3305 189.967C18.8578 183.009 15.5514 174.649 19.5303 164.66ZM49.3441 194.934C75.263 205.006 102.078 210.898 130.183 209.355C104.096 200.068 77.3365 194.176 49.3441 194.934ZM40.2374 185.731C40.2374 182.925 41.2181 179.587 40.0413 178.352C36.1577 174.207 31.1535 171.282 25.6388 169.935C24.8262 179.053 28.665 183.094 40.2374 185.731Z" fill="black"/>
</g>
<defs>
<clipPath id="clip0_1453_4082">
<rect width="247" height="218" fill="white" transform="translate(0 20)"/>
</clipPath>
</defs>
</svg>
