<svg width="32" height="32" viewBox="0 0 32 32" fill="none" xmlns="http://www.w3.org/2000/svg">
<path d="M8.86718 18.0319H17.7412V16.7683H8.86718V18.0319ZM8.86718 14.2412H22.8121V12.9777H8.86718V14.2412ZM8.86718 10.4506H22.8121V9.18706H8.86718V10.4506ZM4.43018 26.3422V6.80528C4.43018 6.22404 4.62583 5.73884 5.01713 5.34967C5.40759 4.95966 5.89439 4.76465 6.47754 4.76465H25.2017C25.7849 4.76465 26.2717 4.95966 26.6621 5.34967C27.0534 5.73884 27.2491 6.22404 27.2491 6.80528V20.4137C27.2491 20.9949 27.0539 21.4805 26.6634 21.8705C26.2721 22.2597 25.7849 22.4543 25.2017 22.4543H8.33094L4.43018 26.3422ZM7.78963 21.1908H25.2017C25.3961 21.1908 25.5748 21.1099 25.738 20.9482C25.9002 20.7856 25.9814 20.6074 25.9814 20.4137V6.80528C25.9814 6.61153 25.9002 6.43337 25.738 6.2708C25.5748 6.10906 25.3961 6.02819 25.2017 6.02819H6.47754C6.28315 6.02819 6.10441 6.10906 5.94129 6.2708C5.77903 6.43337 5.69789 6.61153 5.69789 6.80528V23.2693L7.78963 21.1908Z" fill="black"/>
</svg>
