<svg width="101" height="125" viewBox="0 0 101 125" fill="none" xmlns="http://www.w3.org/2000/svg">
<path fill-rule="evenodd" clip-rule="evenodd" d="M40.7869 60.0459C39.4441 56.9202 38.8787 54.182 38.5784 52.0484C35.7868 31.6327 52.0416 20.4448 69.3211 15.3141C73.9502 13.9369 81.5122 13.3909 87.2191 15.4616C91.2298 16.915 94.3394 19.6289 95.1168 24.1087C95.9826 28.9892 93.5973 34.0882 89.7456 38.688C84.1801 45.3452 75.5757 50.9789 70.1692 53.4253C63.9323 56.2451 53.8436 59.5562 43.596 61.4965C45.3099 64.7538 47.9071 68.3594 51.9355 72.0816C53.72 73.7424 56.1758 75.1622 58.9674 76.3039C61.07 72.2213 64.0736 68.3721 67.9783 64.9759C71.2646 62.1257 79.286 57.4372 86.3886 55.9983C91.4594 54.9751 96.0532 55.634 98.4914 59.2966C101.513 63.8496 100.453 68.0929 97.502 71.6425C93.35 76.6426 85.3109 80.1954 80.5581 81.0717C75.0279 82.0883 66.8299 81.1452 59.957 78.7026C53.5787 92.8716 58.2254 109.538 73.1728 118.704C73.6145 118.982 73.7558 119.574 73.4908 120.026C73.2081 120.478 72.6074 120.619 72.1657 120.342C56.3526 110.64 51.4056 93.0075 58.1372 78.0064C55.1689 76.7841 52.5363 75.2654 50.6282 73.4924C46.1934 69.3893 43.4018 65.4153 41.6173 61.8541C39.6915 62.1849 37.7655 62.4624 35.8574 62.6748C27.2883 63.6333 19.2493 63.237 13.9665 60.48C1.75771 54.1108 -1.63464 41.4928 0.679909 29.1759C2.97678 16.9776 10.8744 5.11986 21.1044 0.0983639C21.5814 -0.135387 22.1644 0.061793 22.3941 0.53813C22.6238 1.01464 22.4295 1.59116 21.9524 1.82474C12.2172 6.60294 4.74364 17.9232 2.57045 29.5304C0.414925 41.0191 3.47153 52.8341 14.8499 58.7751C19.8854 61.3919 27.5003 61.6737 35.6453 60.7638C37.3415 60.5744 39.0554 60.332 40.7869 60.0459ZM60.7874 76.9985C62.7839 73.1924 65.5931 69.6006 69.2504 66.4277C72.3777 63.714 79.9927 59.2532 86.7774 57.883C90.9824 57.0333 94.8695 57.319 96.8836 60.3606C99.3572 64.0702 98.4207 67.5228 96.0178 70.4149C92.1662 75.077 84.6395 78.3635 80.2047 79.1805C75.0103 80.1386 67.2717 79.2777 60.7874 76.9985ZM42.7304 59.7032C41.3523 56.6019 40.7869 53.8877 40.4865 51.7878C37.8363 32.431 53.4903 22.022 69.8688 17.1574C74.1799 15.8728 81.2295 15.3378 86.5653 17.2693C89.9046 18.4841 92.5726 20.6976 93.2263 24.4421C94.0037 28.8151 91.7245 33.332 88.2792 37.4537C82.908 43.8784 74.5863 49.3125 69.3741 51.6735C63.1372 54.4937 52.9957 57.8116 42.7304 59.7032Z" fill="black"/>
<path fill-rule="evenodd" clip-rule="evenodd" d="M71.9668 118.982C71.6134 118.067 70.6063 115.429 70.465 115.026C70.0763 113.896 70.0409 113.274 70.0763 112.638C70.1116 112.127 70.2176 111.602 70.1646 110.641C70.1293 110.111 70.5533 109.661 71.0834 109.634C71.6134 109.608 72.0552 110.017 72.0905 110.547C72.1259 111.419 72.0728 111.972 72.0198 112.456C71.9668 113.014 71.9491 113.449 72.2848 114.401C72.4438 114.866 73.61 117.355 73.9103 118.592C74.0693 119.237 73.981 119.721 73.8573 119.933C73.6807 120.237 73.3625 120.523 72.8678 120.719C72.2318 120.968 71.1717 121.113 69.9879 121.302C68.8748 121.477 67.6204 121.7 66.525 122.17C65.6063 122.571 64.8111 123.15 64.4224 124.115C64.2281 124.608 63.6804 124.852 63.1856 124.657C62.6909 124.463 62.4436 123.903 62.638 123.41C63.2034 121.951 64.3693 121.012 65.7651 120.406C67.0019 119.871 68.4154 119.601 69.6875 119.403C70.4473 119.281 71.1541 119.187 71.7018 119.062C71.7901 119.042 71.8785 119.012 71.9668 118.982Z" fill="black"/>
</svg>
