<svg width="27" height="27" viewBox="0 0 27 27" fill="none" xmlns="http://www.w3.org/2000/svg">
<g clip-path="url(#clip0_1574_6093)">
<path d="M13.1896 0.560059C14.3882 0.560059 15.5443 0.713073 16.6579 1.0191C17.7715 1.32513 18.8086 1.76717 19.7692 2.34523C20.7298 2.92328 21.6096 3.60334 22.4087 4.38542C23.2077 5.16749 23.8921 6.04733 24.4616 7.02492C25.0312 8.00251 25.469 9.04386 25.775 10.149C26.081 11.2541 26.2383 12.4102 26.2468 13.6173C26.2468 14.8159 26.0938 15.972 25.7877 17.0856C25.4817 18.1992 25.0397 19.2363 24.4616 20.1969C23.8836 21.1575 23.2035 22.0373 22.4214 22.8364C21.6393 23.6355 20.7595 24.3198 19.7819 24.8893C18.8043 25.4589 17.763 25.8967 16.6579 26.2027C15.5528 26.5088 14.3967 26.666 13.1896 26.6745C11.9909 26.6745 10.8348 26.5215 9.72123 26.2155C8.60762 25.9094 7.57052 25.4674 6.60993 24.8893C5.64934 24.3113 4.76951 23.6312 3.97044 22.8492C3.17136 22.0671 2.48705 21.1873 1.91749 20.2097C1.34794 19.2321 0.910147 18.1907 0.604119 17.0856C0.29809 15.9805 0.140825 14.8244 0.132324 13.6173C0.132324 12.4187 0.285339 11.2626 0.591367 10.149C0.897396 9.03536 1.33944 7.99826 1.91749 7.03767C2.49555 6.07708 3.17561 5.19725 3.95768 4.39817C4.73976 3.59909 5.61959 2.91478 6.59718 2.34523C7.57477 1.77567 8.61612 1.33788 9.72123 1.03185C10.8263 0.725824 11.9824 0.568559 13.1896 0.560059ZM13.1896 25.0424C14.2437 25.0424 15.2552 24.9063 16.2243 24.6343C17.1934 24.3623 18.103 23.9798 18.9531 23.4867C19.8032 22.9937 20.5725 22.3986 21.2611 21.7015C21.9496 21.0045 22.5447 20.2352 23.0462 19.3936C23.5478 18.552 23.9346 17.6424 24.2066 16.6648C24.4786 15.6872 24.6146 14.6714 24.6146 13.6173C24.6146 12.5632 24.4786 11.5516 24.2066 10.5825C23.9346 9.61341 23.552 8.70382 23.059 7.85374C22.5659 7.00366 21.9709 6.23434 21.2738 5.54578C20.5767 4.85721 19.8074 4.26216 18.9658 3.76061C18.1243 3.25906 17.2147 2.87228 16.2371 2.60025C15.2595 2.32823 14.2437 2.19221 13.1896 2.19221C12.1355 2.19221 11.1239 2.32823 10.1548 2.60025C9.18568 2.87228 8.27609 3.25481 7.42601 3.74786C6.57593 4.24091 5.80661 4.83596 5.11804 5.53303C4.42948 6.23009 3.83442 6.99941 3.33288 7.84099C2.83133 8.68257 2.44454 9.59216 2.17252 10.5698C1.90049 11.5473 1.76448 12.5632 1.76448 13.6173C1.76448 14.6714 1.90049 15.683 2.17252 16.6521C2.44454 17.6212 2.82708 18.5308 3.32012 19.3808C3.81317 20.2309 4.40823 21.0002 5.10529 21.6888C5.80236 22.3774 6.57168 22.9724 7.41326 23.474C8.25484 23.9755 9.16442 24.3623 10.142 24.6343C11.1196 24.9063 12.1355 25.0424 13.1896 25.0424Z" fill="black"/>
</g>
<defs>
<clipPath id="clip0_1574_6093">
<rect width="26.1145" height="26.1145" fill="white" transform="translate(0.132324 0.560059)"/>
</clipPath>
</defs>
</svg>
