<svg width="236" height="146" viewBox="0 0 236 146" fill="none" xmlns="http://www.w3.org/2000/svg">
<g filter="url(#filter0_f_610_1937)">
<path fill-rule="evenodd" clip-rule="evenodd" d="M163.692 18.9196C175.047 17.9153 184.485 20.5008 193.978 23.5385C225.114 33.5188 237.539 53.3738 219.855 76.525C192.346 112.437 121.727 142.349 63.8041 139.567C50.9774 138.962 33.735 139.151 19.9948 130.239C7.21387 121.953 6.29315 110.364 10.3099 99.043C14.3905 87.4396 23.6038 76.0956 31.1286 68.6086C64.0349 35.9334 133.698 1.39472 201.176 6.91357C202.561 7.00956 203.86 6.39623 204.147 5.53517C204.435 4.67409 203.651 3.88374 202.363 3.77597C132.904 -1.90204 60.9878 33.4705 27.1184 67.0984C17.7583 76.4316 5.86706 91.5567 3.69852 105.972C2.24914 115.82 5.27182 125.339 16.3571 132.59C30.9534 142.088 49.2952 142.063 62.9121 142.713C122.711 145.589 195.767 114.758 224.115 77.6753C243.157 52.7877 229.958 31.4063 196.476 20.6808C186.263 17.3742 175.931 14.7002 163.605 15.7913C162.246 15.9121 161.167 16.7106 161.271 17.5643C161.278 18.4297 162.43 19.0287 163.692 18.9196Z" fill="#F7D99B"/>
</g>
<defs>
<filter id="filter0_f_610_1937" x="0.360352" y="0.171875" width="235.525" height="145.728" filterUnits="userSpaceOnUse" color-interpolation-filters="sRGB">
<feFlood flood-opacity="0" result="BackgroundImageFix"/>
<feBlend mode="normal" in="SourceGraphic" in2="BackgroundImageFix" result="shape"/>
<feGaussianBlur stdDeviation="1.5" result="effect1_foregroundBlur_610_1937"/>
</filter>
</defs>
</svg>
