<svg width="168" height="168" viewBox="0 0 168 168" fill="none" xmlns="http://www.w3.org/2000/svg">
<g filter="url(#filter0_d_1583_6604)">
<circle cx="79.5842" cy="79.5842" r="74.5842" fill="#DBDFFD"/>
<g clip-path="url(#clip0_1583_6604)">
<path d="M75.0389 66.2347H91.1182C93.008 66.2347 94.5414 64.892 94.5414 63.2357V46.8841C94.5414 45.2252 93.0105 43.8838 91.1182 43.8838H56.4851C54.5941 43.8838 53.0645 45.2265 53.0645 46.8853V63.2357C53.0645 64.892 54.5941 66.2347 56.4851 66.2347H70.4036L69.9443 71.3644L75.0389 66.2347Z" fill="#454545"/>
<path d="M106.106 71.4446V60.2528C106.106 59.2138 105.149 58.3706 103.967 58.3706H96.0875V64.2683C96.0875 66.0476 94.4324 67.4982 92.4008 67.4982H82.0059V71.4358C82.0059 72.4698 82.9633 73.3118 84.1491 73.3118H94.716L97.9045 76.5342L97.6171 73.3206H103.97C105.149 73.3206 106.106 72.4786 106.106 71.4446Z" fill="#6C76D7"/>
<path d="M49.3828 89.8847C49.3833 91.4946 49.8612 93.0682 50.756 94.4065C51.6508 95.7449 52.9223 96.7878 54.4098 97.4035C55.8973 98.0192 57.534 98.1799 59.1129 97.8654C60.6918 97.551 62.1419 96.7754 63.28 95.6368C64.4182 94.4981 65.1931 93.0476 65.5068 91.4686C65.8205 89.8895 65.659 88.2529 65.0427 86.7657C64.4263 85.2785 63.3828 84.0074 62.044 83.1132C60.7053 82.2191 59.1315 81.7419 57.5216 81.7422C56.4524 81.742 55.3937 81.9526 54.406 82.3617C53.4182 82.7709 52.5207 83.3708 51.7649 84.1269C51.0091 84.8831 50.4097 85.7808 50.0009 86.7688C49.5922 87.7568 49.3822 88.8156 49.3828 89.8847Z" fill="#454545"/>
<path d="M96.7278 98.7891C95.0211 98.79 93.3643 99.3645 92.0234 100.42C93.692 101.449 95.076 102.879 96.0484 104.581C97.0209 106.283 97.5509 108.202 97.5898 110.162H113.8V106.447C113.8 104.417 112.993 102.47 111.558 101.035C110.122 99.5993 108.175 98.7928 106.145 98.7928L96.7278 98.7891ZM103.454 103.719L104.987 105.197L101.438 109.048L97.8885 105.197L99.4206 103.719C99.4206 103.719 97.1506 101.656 97.0415 101.481C96.8595 101.162 98.4431 100.1 98.4431 100.1L101.438 109.056L104.429 100.093C104.429 100.093 106.013 101.158 105.83 101.473C105.732 101.656 103.454 103.719 103.454 103.719Z" fill="#454545"/>
<path d="M45.1582 106.441V110.155H61.3994C61.4374 108.198 61.9655 106.283 62.9353 104.583C63.9051 102.883 65.2857 101.454 66.9507 100.425C65.6062 99.3663 63.944 98.7916 62.2326 98.794H52.8101C50.7818 98.7946 48.8366 99.6003 47.4019 101.034C45.9672 102.468 45.1602 104.413 45.1582 106.441ZM61.7896 99.5983C61.9653 99.5983 62.1385 99.6096 62.3104 99.6234L60.5536 108.839H59.4243L58.4807 102.644H58.4505L59.3753 100.942H55.6686L56.5947 102.644H56.5633L55.6171 108.84H54.4878L52.7311 99.6246C52.903 99.6108 53.0761 99.5995 53.2518 99.5995L61.7896 99.5983Z" fill="#454545"/>
<path d="M58.479 102.645L59.4226 108.84H60.5519L62.3087 99.6247C62.1368 99.6109 61.9636 99.5996 61.7879 99.5996H53.2551C53.0795 99.5996 52.9063 99.6109 52.7344 99.6247L54.4911 108.84H55.6205L56.5641 102.645H56.5955L55.6694 100.944H59.3749L58.4501 102.645H58.479Z" fill="white"/>
<path d="M68.457 87.9622C68.4565 90.1423 69.1025 92.2736 70.3133 94.0865C71.5241 95.8994 73.2453 97.3126 75.2593 98.1472C77.2732 98.9819 79.4895 99.2006 81.6277 98.7757C83.766 98.3508 85.7302 97.3013 87.2721 95.7601C88.8139 94.2188 89.864 92.2549 90.2896 90.1168C90.7153 87.9787 90.4973 85.7624 89.6633 83.7481C88.8293 81.7339 87.4168 80.0122 85.6043 78.8008C83.7918 77.5894 81.6607 76.9426 79.4806 76.9424C78.0332 76.9421 76.5999 77.2268 75.2626 77.7805C73.9252 78.3341 72.71 79.1458 71.6864 80.1691C70.6627 81.1924 69.8507 82.4073 69.2966 83.7444C68.7425 85.0816 68.4572 86.5148 68.457 87.9622Z" fill="#454545"/>
<path d="M78.2282 105.241L76.9746 102.938L78.2282 105.241Z" fill="#454545"/>
<path d="M73.1007 100.024C71.7404 100.024 70.3933 100.292 69.1365 100.812C67.8797 101.333 66.7377 102.096 65.7758 103.058C64.8139 104.019 64.0509 105.161 63.5303 106.418C63.0098 107.675 62.742 109.022 62.7422 110.382V115.409H96.2196V110.382C96.2194 109.022 95.9513 107.675 95.4305 106.418C94.9097 105.161 94.1465 104.019 93.1844 103.057C92.2223 102.095 91.0801 101.333 89.8231 100.812C88.5662 100.292 87.219 100.024 85.8585 100.024H73.1007ZM83.5873 113.632H75.3745L72.9979 101.153C73.235 101.137 73.4659 101.117 73.7018 101.117H85.26C85.4946 101.117 85.7293 101.137 85.9627 101.153L83.5873 113.632Z" fill="#454545"/>
<path d="M80.7785 105.245L82.0547 113.635H83.5855L85.9609 101.156C85.7275 101.139 85.4929 101.119 85.2582 101.119H73.7C73.4641 101.119 73.2333 101.139 72.9961 101.156L75.3727 113.635H76.9024L78.181 105.245H78.2262L76.9714 102.941H81.9844L80.7296 105.245H80.7785Z" fill="white"/>
<path d="M76.9043 113.632H82.0566L80.7804 105.241H80.7328L81.9876 102.938H76.9746L78.2281 105.241H78.183L76.9043 113.632Z" fill="#6C76D7"/>
<path d="M105.833 101.48C106.016 101.162 104.431 100.1 104.431 100.1L101.439 109.056L104.988 105.205L103.455 103.727C103.455 103.727 105.733 101.656 105.833 101.48Z" fill="white"/>
<path d="M101.439 109.048L98.4435 100.092C98.4435 100.092 96.86 101.158 97.0419 101.473C97.1448 101.652 99.4261 103.715 99.4261 103.715L97.8939 105.193L101.439 109.048Z" fill="white"/>
<path d="M100.461 81.6345C98.3316 81.7688 96.3386 82.7266 94.9034 84.3049C93.4683 85.8832 92.7037 87.9581 92.7718 90.0902C92.8398 92.2223 93.735 94.2443 95.2678 95.7279C96.8006 97.2115 98.8507 98.0403 100.984 98.0387C101.137 98.0387 101.286 98.0387 101.436 98.0274H111.238L111.277 97.8317C110.064 97.3298 109.194 95.9708 109.194 94.3684V89.984V89.8284C109.194 88.7061 108.965 87.5956 108.519 86.5656C108.073 85.5356 107.42 84.608 106.602 83.8401C105.783 83.0721 104.816 82.4802 103.76 82.1008C102.704 81.7215 101.581 81.5627 100.461 81.6345Z" fill="#454545"/>
<path d="M31.1562 103.151V105.998H43.5702C43.5997 104.498 44.0051 103.029 44.7494 101.726C45.4937 100.423 46.553 99.3277 47.8303 98.5404C46.804 97.7342 45.5366 97.2962 44.2315 97.2969H37.0163C36.2471 97.2962 35.4853 97.4471 34.7744 97.741C34.0635 98.0349 33.4176 98.4659 32.8734 99.0096C32.3292 99.5532 31.8974 100.199 31.6028 100.909C31.3081 101.62 31.1564 102.381 31.1562 103.151ZM38.3276 98.2932L40.6176 105.147L42.9102 98.2932C42.9102 98.2932 44.1211 99.1101 43.9843 99.3535C43.904 99.4891 42.1623 101.07 42.1623 101.07L43.3368 102.199L40.6176 105.143L37.9022 102.199L39.0754 101.07C39.0754 101.07 37.335 99.4891 37.2547 99.3535C37.1167 99.1101 38.3276 98.2932 38.3276 98.2932Z" fill="#454545"/>
<path d="M40.6161 105.147L38.326 98.293C38.326 98.293 37.1151 99.1099 37.2532 99.3533C37.3335 99.4888 39.0739 101.07 39.0739 101.07L37.9006 102.199L40.6161 105.147Z" fill="white"/>
<path d="M43.9839 99.3533C44.1207 99.1099 42.9097 98.293 42.9097 98.293L40.6172 105.147L43.3364 102.203L42.1619 101.074C42.1619 101.074 43.9036 99.4888 43.9839 99.3533Z" fill="white"/>
<path d="M34.0694 93.9331C34.0694 95.1515 33.4106 96.1843 32.4883 96.5682L32.5184 96.7176H39.9633L40.3058 96.7264C41.5393 96.7264 42.745 96.3606 43.7706 95.6753C44.7962 94.9901 45.5955 94.016 46.0676 92.8765C46.5396 91.7369 46.6631 90.483 46.4225 89.2732C46.1818 88.0635 45.5879 86.9522 44.7157 86.08C43.8435 85.2079 42.7323 84.6139 41.5225 84.3733C40.3127 84.1326 39.0588 84.2561 37.9192 84.7281C36.7797 85.2002 35.8057 85.9995 35.1204 87.0251C34.4351 88.0507 34.0694 89.2564 34.0694 90.4899V90.6154V93.9331Z" fill="#454545"/>
<path d="M114.939 97.2969C113.635 97.2973 112.368 97.7351 111.342 98.5404C112.619 99.3279 113.677 100.423 114.421 101.726C115.165 103.029 115.569 104.498 115.598 105.998H128.008V103.151C128.008 102.382 127.857 101.62 127.562 100.91C127.268 100.199 126.836 99.554 126.292 99.0104C125.748 98.4669 125.102 98.0357 124.392 97.7417C123.681 97.4477 122.92 97.2965 122.151 97.2969H114.939ZM120.784 104.688H119.95L119.256 100.12H119.237L119.922 98.8654H117.183L117.867 100.12H117.842L117.148 104.688H116.313L115.02 97.8917C115.145 97.8841 115.271 97.8728 115.404 97.8728H121.695C121.821 97.8728 121.946 97.8841 122.072 97.8917L120.784 104.688Z" fill="#454545"/>
<path d="M112.363 90.4384C112.364 91.6616 112.727 92.8572 113.406 93.874C114.086 94.8908 115.052 95.6832 116.182 96.151C117.313 96.6187 118.556 96.7407 119.756 96.5017C120.955 96.2626 122.057 95.6732 122.921 94.808C123.786 93.9427 124.374 92.8406 124.613 91.6408C124.851 90.4411 124.728 89.1977 124.259 88.0679C123.79 86.9381 122.997 85.9726 121.98 85.2936C120.962 84.6147 119.766 84.2527 118.543 84.2534C117.731 84.2536 116.927 84.4137 116.177 84.7247C115.427 85.0356 114.746 85.4913 114.172 86.0656C113.598 86.64 113.143 87.3218 112.833 88.0721C112.522 88.8224 112.363 89.6265 112.363 90.4384Z" fill="#454545"/>
<path d="M119.254 100.12L119.948 104.688H120.782L122.075 97.8914C121.949 97.8839 121.824 97.8726 121.698 97.8726H115.402C115.27 97.8726 115.144 97.8839 115.018 97.8914L116.311 104.688H117.146L117.84 100.12H117.865L117.181 98.8651H119.914L119.229 100.12H119.254Z" fill="white"/>
</g>
</g>
<defs>
<filter id="filter0_d_1583_6604" x="0" y="0" width="167.168" height="167.168" filterUnits="userSpaceOnUse" color-interpolation-filters="sRGB">
<feFlood flood-opacity="0" result="BackgroundImageFix"/>
<feColorMatrix in="SourceAlpha" type="matrix" values="0 0 0 0 0 0 0 0 0 0 0 0 0 0 0 0 0 0 127 0" result="hardAlpha"/>
<feOffset dx="4" dy="4"/>
<feGaussianBlur stdDeviation="4.5"/>
<feComposite in2="hardAlpha" operator="out"/>
<feColorMatrix type="matrix" values="0 0 0 0 0 0 0 0 0 0 0 0 0 0 0 0 0 0 0.25 0"/>
<feBlend mode="normal" in2="BackgroundImageFix" result="effect1_dropShadow_1583_6604"/>
<feBlend mode="normal" in="SourceGraphic" in2="effect1_dropShadow_1583_6604" result="shape"/>
</filter>
<clipPath id="clip0_1583_6604">
<rect width="96.8535" height="71.5261" fill="white" transform="translate(31.1562 43.8828)"/>
</clipPath>
</defs>
</svg>
