<svg width="26" height="26" viewBox="0 0 26 26" fill="none" xmlns="http://www.w3.org/2000/svg">
<path d="M11.0496 5.2002H14.9496C14.9496 4.68302 14.7442 4.18703 14.3785 3.82134C14.0128 3.45564 13.5168 3.2502 12.9996 3.2502C12.4824 3.2502 11.9864 3.45564 11.6208 3.82134C11.2551 4.18703 11.0496 4.68302 11.0496 5.2002ZM9.74961 5.2002C9.74961 4.33824 10.092 3.51159 10.7015 2.9021C11.311 2.29261 12.1377 1.9502 12.9996 1.9502C13.8616 1.9502 14.6882 2.29261 15.2977 2.9021C15.9072 3.51159 16.2496 4.33824 16.2496 5.2002H22.7496C22.922 5.2002 23.0873 5.26868 23.2092 5.39058C23.3311 5.51247 23.3996 5.6778 23.3996 5.8502C23.3996 6.02259 23.3311 6.18792 23.2092 6.30981C23.0873 6.43171 22.922 6.5002 22.7496 6.5002H21.3794L19.8272 19.9474C19.7175 20.8979 19.2621 21.775 18.5478 22.4116C17.8335 23.0483 16.9101 23.4001 15.9532 23.4002H10.046C9.08915 23.4001 8.16571 23.0483 7.45139 22.4116C6.73707 21.775 6.28173 20.8979 6.17201 19.9474L4.61981 6.5002H3.24961C3.07722 6.5002 2.91189 6.43171 2.78999 6.30981C2.66809 6.18792 2.59961 6.02259 2.59961 5.8502C2.59961 5.6778 2.66809 5.51247 2.78999 5.39058C2.91189 5.26868 3.07722 5.2002 3.24961 5.2002H9.74961ZM7.46291 19.7992C7.53626 20.4328 7.83997 21.0174 8.31625 21.4416C8.79254 21.8659 9.40816 22.1003 10.046 22.1002H15.9532C16.5911 22.1003 17.2067 21.8659 17.683 21.4416C18.1592 21.0174 18.463 20.4328 18.5363 19.7992L20.0703 6.5002H5.92891L7.46291 19.7992ZM11.0496 9.7502C11.222 9.7502 11.3873 9.81868 11.5092 9.94058C11.6311 10.0625 11.6996 10.2278 11.6996 10.4002V18.2002C11.6996 18.3726 11.6311 18.5379 11.5092 18.6598C11.3873 18.7817 11.222 18.8502 11.0496 18.8502C10.8772 18.8502 10.7119 18.7817 10.59 18.6598C10.4681 18.5379 10.3996 18.3726 10.3996 18.2002V10.4002C10.3996 10.2278 10.4681 10.0625 10.59 9.94058C10.7119 9.81868 10.8772 9.7502 11.0496 9.7502ZM15.5996 10.4002C15.5996 10.2278 15.5311 10.0625 15.4092 9.94058C15.2873 9.81868 15.122 9.7502 14.9496 9.7502C14.7772 9.7502 14.6119 9.81868 14.49 9.94058C14.3681 10.0625 14.2996 10.2278 14.2996 10.4002V18.2002C14.2996 18.3726 14.3681 18.5379 14.49 18.6598C14.6119 18.7817 14.7772 18.8502 14.9496 18.8502C15.122 18.8502 15.2873 18.7817 15.4092 18.6598C15.5311 18.5379 15.5996 18.3726 15.5996 18.2002V10.4002Z" fill="black"/>
</svg>
