<svg width="27" height="27" viewBox="0 0 27 27" fill="none" xmlns="http://www.w3.org/2000/svg">
<path d="M15.1875 20.25C15.1875 19.318 14.432 18.5625 13.5 18.5625C12.568 18.5625 11.8125 19.318 11.8125 20.25C11.8125 21.182 12.568 21.9375 13.5 21.9375C14.432 21.9375 15.1875 21.182 15.1875 20.25Z" fill="black"/>
<path d="M15.1875 13.5C15.1875 12.568 14.432 11.8125 13.5 11.8125C12.568 11.8125 11.8125 12.568 11.8125 13.5C11.8125 14.432 12.568 15.1875 13.5 15.1875C14.432 15.1875 15.1875 14.432 15.1875 13.5Z" fill="black"/>
<path d="M15.1875 6.75C15.1875 5.81802 14.432 5.0625 13.5 5.0625C12.568 5.0625 11.8125 5.81802 11.8125 6.75C11.8125 7.68198 12.568 8.4375 13.5 8.4375C14.432 8.4375 15.1875 7.68198 15.1875 6.75Z" fill="black"/>
</svg>
