<svg width="27" height="27" viewBox="0 0 27 27" fill="none" xmlns="http://www.w3.org/2000/svg">
<path d="M6.75 15.1875C7.68198 15.1875 8.4375 14.432 8.4375 13.5C8.4375 12.568 7.68198 11.8125 6.75 11.8125C5.81802 11.8125 5.0625 12.568 5.0625 13.5C5.0625 14.432 5.81802 15.1875 6.75 15.1875Z" fill="black"/>
<path d="M13.5 15.1875C14.432 15.1875 15.1875 14.432 15.1875 13.5C15.1875 12.568 14.432 11.8125 13.5 11.8125C12.568 11.8125 11.8125 12.568 11.8125 13.5C11.8125 14.432 12.568 15.1875 13.5 15.1875Z" fill="black"/>
<path d="M20.25 15.1875C21.182 15.1875 21.9375 14.432 21.9375 13.5C21.9375 12.568 21.182 11.8125 20.25 11.8125C19.318 11.8125 18.5625 12.568 18.5625 13.5C18.5625 14.432 19.318 15.1875 20.25 15.1875Z" fill="black"/>
</svg>
