<svg width="28" height="23" viewBox="0 0 28 23" fill="none" xmlns="http://www.w3.org/2000/svg">
<path d="M15.9855 22.488L20.2095 7.128L21.6175 12.888C19.7828 12.888 18.2895 12.3547 17.1375 11.288C15.9855 10.2213 15.4095 8.74934 15.4095 6.872C15.4095 5.03733 16.0068 3.544 17.2015 2.392C18.3535 1.28267 19.8042 0.728001 21.5535 0.728001C23.3455 0.728001 24.8388 1.28267 26.0335 2.392C27.1855 3.544 27.7615 5.03733 27.7615 6.872C27.7615 7.42667 27.7188 7.96 27.6335 8.472C27.5482 9.02667 27.3775 9.66667 27.1215 10.392C26.8655 11.1173 26.5028 12.0773 26.0335 13.272L22.3215 22.488H15.9855ZM0.881498 22.488L5.1055 7.128L6.5135 12.888C4.67883 12.888 3.1855 12.3547 2.0335 11.288C0.881498 10.2213 0.305498 8.74934 0.305498 6.872C0.305498 5.03733 0.902831 3.544 2.0975 2.392C3.2495 1.28267 4.70017 0.728001 6.4495 0.728001C8.2415 0.728001 9.73483 1.28267 10.9295 2.392C12.0815 3.544 12.6575 5.03733 12.6575 6.872C12.6575 7.42667 12.6148 7.96 12.5295 8.472C12.4442 9.02667 12.2735 9.66667 12.0175 10.392C11.7615 11.1173 11.3988 12.0773 10.9295 13.272L7.2175 22.488H0.881498Z" fill="white"/>
</svg>
