<svg width="23" height="28" viewBox="0 0 23 28" fill="none" xmlns="http://www.w3.org/2000/svg">
<path d="M21.4688 4.8498C20.7438 4.1248 19.6563 3.94355 18.75 4.30605C18.75 3.7623 18.5688 3.21855 18.025 2.6748C17.6625 2.3123 16.9375 1.9498 16.0313 1.9498C15.4875 1.9498 15.125 2.13105 14.7625 2.13105C14.7625 1.76855 14.5813 1.5873 14.4 1.2248C13.4938 0.137305 11.6813 0.137305 10.775 1.2248C10.4125 1.5873 10.05 1.9498 10.05 2.3123C9.68753 2.3123 9.32503 2.13105 8.96253 2.13105C8.05628 2.13105 7.51253 2.49355 6.96878 3.0373C6.06253 3.94355 6.06253 5.39355 6.06253 5.39355V12.2811C5.51878 11.7373 4.61253 10.8311 3.34378 10.8311C2.98128 10.8311 2.43753 11.0123 2.07503 11.1936C1.35003 11.5561 0.987532 12.0998 0.806282 12.8248C0.262532 14.6373 1.89378 17.1748 1.89378 17.3561C2.07503 17.5373 4.06878 22.2498 5.88128 24.2436C7.69378 26.4186 9.68753 27.6873 14.7625 27.6873C20.0188 27.6873 22.375 24.7873 22.375 18.4436V8.4748C22.375 8.29356 22.5563 6.11855 21.4688 4.8498ZM11.5 4.1248C11.5 3.58105 11.3188 2.3123 12.4063 2.3123C13.3125 2.3123 13.3125 3.21855 13.3125 4.1248V11.3748C13.3125 11.9186 13.675 12.2811 14.2188 12.2811C14.7625 12.2811 15.125 11.9186 15.125 11.3748V4.4873C15.125 4.4873 15.125 3.7623 16.0313 3.7623C17.1188 3.7623 16.9375 5.39355 16.9375 5.39355V11.3748C16.9375 11.9186 17.3 12.2811 17.8438 12.2811C18.3875 12.2811 18.75 11.9186 18.75 11.3748V7.0248C18.75 6.84355 18.75 5.9373 19.6563 5.9373C20.5625 5.9373 20.5625 7.7498 20.5625 7.7498V18.4436C20.5625 24.6061 18.2063 25.8748 14.7625 25.8748C10.4125 25.8748 8.78128 24.9686 7.33128 22.9748C5.70003 21.1623 3.52503 16.4498 3.52503 16.2686C2.98128 15.7248 2.25628 14.0936 2.43753 13.3686C2.43753 13.1873 2.61878 13.0061 2.80003 12.8248C2.98128 12.8248 3.16253 12.6436 3.16253 12.6436C3.88753 12.6436 4.61253 13.5498 4.79378 13.9123L5.88128 15.5436C6.06253 15.9061 6.60628 16.0873 6.96878 15.9061C7.69378 15.9061 7.87503 15.5436 7.87503 15.1811V5.75605C7.87503 5.03105 7.87503 3.94355 8.78128 3.94355C9.50628 3.94355 9.68753 4.4873 9.68753 5.39355V11.3748C9.68753 11.9186 10.05 12.2811 10.5938 12.2811C11.1375 12.2811 11.5 11.9186 11.5 11.3748V4.1248Z" fill="black"/>
</svg>
