<svg width="68" height="69" viewBox="0 0 68 69" fill="none" xmlns="http://www.w3.org/2000/svg">
<path fill-rule="evenodd" clip-rule="evenodd" d="M15.2824 39.7269C17.0861 37.981 18.8876 35.9316 19.9631 33.6614C21.2405 30.9651 21.0575 28.3238 20.5434 25.6897C19.8823 22.3059 18.694 18.9214 18.1853 15.4623C17.9954 14.1781 18.4287 13.4631 18.6117 13.1499C19.0745 12.3587 19.705 11.9167 20.3752 11.6702C21.1687 11.3765 22.3561 11.1873 23.6358 12.1595C23.8186 12.2988 24.0749 12.5211 24.3365 12.8665C24.5278 13.1198 24.9697 13.9833 25.2019 14.3166C25.7763 15.1363 26.3234 15.9684 26.8641 16.8093C28.6639 19.6081 30.0728 22.0397 32.7044 24.1661C36.2762 27.0534 39.1918 28.4878 42.196 28.3443C45.1008 28.2056 47.9574 26.6841 51.365 24.2074C51.6832 23.9582 52.0032 23.7231 52.3257 23.5032C53.8505 22.4605 55.9284 22.8277 57.0043 24.33C58.0795 25.8311 57.7576 27.9167 56.2808 29.0257C55.9725 29.257 55.6674 29.4824 55.3632 29.6998C50.8579 33.2655 47.0205 40.4239 45.3912 45.9049C44.8892 47.5947 44.8876 51.6815 44.2976 54.5564C43.8618 56.6774 43.0356 58.3207 42.1095 59.1897C41.4896 59.7732 40.8537 60.0161 40.2854 60.1223C39.4599 60.2768 38.661 60.1548 37.8976 59.7302C37.4811 59.4971 37.029 59.1369 36.643 58.5899C36.4574 58.3264 36.1183 57.5969 35.9687 57.2648C35.1471 56.3083 34.2655 55.4104 33.4739 54.4282C31.5856 52.0847 29.4843 51.0129 26.8867 49.516C24.4564 48.1146 22.2671 47.5352 19.4542 47.5575C19.1161 47.6216 16.3871 48.1371 15.363 48.1863C13.8661 48.2565 12.877 47.6836 12.4505 47.3267C11.7259 46.7217 11.3799 46.0625 11.1976 45.4646C10.9291 44.582 10.9786 43.6996 11.3801 42.8228C11.6282 42.2785 12.0837 41.6518 12.828 41.1088C13.4025 40.6878 15.0512 39.8455 15.2824 39.7269ZM27.7212 28.8509C27.9503 29.0527 28.1874 29.2524 28.4331 29.4512C33.6644 33.6798 38.12 35.3425 42.5205 35.1313L42.6674 35.1227C41.0164 38.1069 39.7006 41.2014 38.8779 43.9687C38.5391 45.1081 38.3703 47.2316 38.1457 49.4328C35.8586 46.8526 33.3851 45.4186 30.2807 43.6281C27.91 42.2624 25.6978 41.4292 23.2662 41.0361C24.3767 39.6339 25.3624 38.1346 26.1036 36.5703C27.3375 33.9654 27.7701 31.4009 27.7212 28.8509Z" fill="black"/>
</svg>
