<svg width="86" height="89" viewBox="0 0 86 89" fill="none" xmlns="http://www.w3.org/2000/svg">
<path fill-rule="evenodd" clip-rule="evenodd" d="M44.627 22.8039C44.8795 21.7044 45.17 20.6342 45.5067 19.583C46.0111 18.006 46.7259 16.5025 47.3124 14.9594C47.5606 14.3046 48.1817 12.5865 48.3133 12.3569C49.4717 10.3608 51.3113 10.7439 51.8342 10.8929C52.0899 10.9582 54.6829 11.7078 54.079 14.6778C53.3429 18.3101 52.1514 21.7808 50.5463 24.999C49.9207 28.0412 49.6844 31.231 49.8549 34.2783C50.5355 46.399 59.4022 51.2221 69.4876 55.2916C71.0423 55.9086 71.8231 57.6527 71.2677 59.2221C70.7075 60.8031 69.0023 61.6662 67.4067 61.1676C61.5659 59.384 49.7361 59.7604 44.349 63.022C43.2218 63.7051 41.8219 65.8989 40.306 67.9905C38.1976 70.8919 35.9568 73.698 34.3706 74.6104C34.1298 74.7542 31.3683 76.0998 30.6779 76.1791C29.0229 76.3594 28.1202 75.4848 27.6696 74.8381C27.219 74.1915 26.8455 73.1302 27.0993 71.7335C27.3644 70.2738 28.7478 67.6267 28.9467 67.0191C29.6677 64.8147 30.977 60.4457 31.5977 56.4814C31.9314 54.3466 32.1716 52.349 31.7108 51.1163C30.0047 46.5534 24.8957 45.0054 20.5377 43.836C20.0391 43.6971 19.5358 43.5698 19.0384 43.4314C17.1501 43.231 15.2104 42.8604 13.2314 42.2977C10.2414 41.4514 10.8585 38.6357 10.9048 38.452C11.0096 38.0489 11.6253 36.0039 14.0997 36.1089C14.3677 36.1252 16.2555 36.4606 16.984 36.5866C17.9986 36.7633 19.0045 36.9906 20.009 37.2308C30.9965 38.2375 39.8043 31.9279 44.627 22.8039ZM43.6194 34.6855C44.1463 43.8065 48.2017 49.789 54.1231 54.1902L54.122 54.1897C49.1 54.6395 44.2262 55.7867 41.1122 57.6763C39.9312 58.3912 38.382 60.1713 36.7957 62.2337C37.3519 59.934 37.8466 57.4464 38.0559 55.233C38.2968 52.7079 38.1419 50.4656 37.5687 48.9292C36.4605 45.9671 34.4519 43.7414 32.0062 42.0383C36.4075 40.5196 40.3223 37.974 43.6194 34.6855Z" fill="black"/>
</svg>
