<svg width="103" height="100" viewBox="0 0 103 100" fill="none" xmlns="http://www.w3.org/2000/svg">
<path d="M45.5427 10.5415C48.2578 6.13988 54.6578 6.13988 57.3729 10.5415L60.7892 16.0796C62.5977 19.0115 66.0887 20.445 69.4358 19.6302L75.8697 18.0639C80.9714 16.822 85.5549 21.4685 84.2433 26.5528L82.8001 32.1473C81.9108 35.5946 83.4217 39.2128 86.4985 41.0038L91.5887 43.9669C96.1935 46.6474 96.1935 53.2993 91.5887 55.9798L86.4985 58.9429C83.4217 60.7339 81.9108 64.3521 82.8001 67.7994L84.2433 73.3939C85.5549 78.4782 80.9714 83.1247 75.8697 81.8828L69.4358 80.3165C66.0887 79.5017 62.5977 80.9352 60.7892 83.8671L57.3729 89.4052C54.6578 93.8068 48.2578 93.8068 45.5427 89.4052L42.1264 83.8671C40.3179 80.9352 36.8269 79.5017 33.4798 80.3165L27.0459 81.8828C21.9442 83.1247 17.3607 78.4782 18.6723 73.3939L20.1155 67.7994C21.0048 64.3521 19.4939 60.7339 16.4171 58.9429L11.3269 55.9798C6.72211 53.2993 6.72211 46.6474 11.3269 43.9669L16.4171 41.0038C19.4939 39.2128 21.0048 35.5946 20.1155 32.1473L18.6723 26.5528C17.3607 21.4685 21.9442 16.822 27.0459 18.0639L33.4798 19.6302C36.8269 20.445 40.3179 19.0115 42.1264 16.0796L45.5427 10.5415Z" fill="#F7BF46" stroke="black"/>
<mask id="path-2-outside-1_843_6117" maskUnits="userSpaceOnUse" x="41.7412" y="37.3252" width="18" height="24" fill="black">
<rect fill="white" x="41.7412" y="37.3252" width="18" height="24"/>
<path d="M44.1174 60.3252V56.6587C45.3293 55.4674 46.4487 54.3582 47.4758 53.3312C47.9071 52.8998 48.3487 52.4582 48.8006 52.0063C49.2525 51.5544 49.6736 51.1333 50.0639 50.7431C50.4541 50.3528 50.8033 50.0036 51.1114 49.6955C51.4195 49.3668 51.6558 49.1101 51.8201 48.9252C52.1487 48.5349 52.4363 48.1858 52.6828 47.8777C52.9498 47.5695 53.1552 47.2717 53.299 46.9841C53.4633 46.676 53.5866 46.3782 53.6687 46.0906C53.7509 45.7825 53.792 45.4539 53.792 45.1047C53.792 44.4268 53.5249 43.8414 52.9909 43.3485C52.4568 42.835 51.7277 42.5782 50.8033 42.5782C49.879 42.5782 49.1601 42.8452 48.6466 43.3793C48.1331 43.8928 47.7839 44.4782 47.599 45.1355L43.9325 43.6258C44.0969 43.0712 44.3639 42.5063 44.7336 41.9312C45.1033 41.3355 45.5758 40.8117 46.1509 40.3598C46.726 39.8874 47.4039 39.5074 48.1844 39.2198C48.9855 38.9117 49.879 38.7577 50.865 38.7577C51.9331 38.7577 52.8985 38.922 53.7612 39.2506C54.6239 39.5587 55.3531 39.9901 55.9487 40.5447C56.5444 41.0993 57.0066 41.7566 57.3352 42.5166C57.6639 43.256 57.8282 44.0571 57.8282 44.9198C57.8282 46.2344 57.4995 47.4463 56.8422 48.5555C56.2055 49.6441 55.4249 50.6609 54.5006 51.6058L51.8509 54.2555C51.1525 54.9539 50.3617 55.7344 49.4785 56.5971L49.6017 56.782H58.1363V60.3252H44.1174Z"/>
</mask>
<path d="M44.1174 60.3252V56.6587C45.3293 55.4674 46.4487 54.3582 47.4758 53.3312C47.9071 52.8998 48.3487 52.4582 48.8006 52.0063C49.2525 51.5544 49.6736 51.1333 50.0639 50.7431C50.4541 50.3528 50.8033 50.0036 51.1114 49.6955C51.4195 49.3668 51.6558 49.1101 51.8201 48.9252C52.1487 48.5349 52.4363 48.1858 52.6828 47.8777C52.9498 47.5695 53.1552 47.2717 53.299 46.9841C53.4633 46.676 53.5866 46.3782 53.6687 46.0906C53.7509 45.7825 53.792 45.4539 53.792 45.1047C53.792 44.4268 53.5249 43.8414 52.9909 43.3485C52.4568 42.835 51.7277 42.5782 50.8033 42.5782C49.879 42.5782 49.1601 42.8452 48.6466 43.3793C48.1331 43.8928 47.7839 44.4782 47.599 45.1355L43.9325 43.6258C44.0969 43.0712 44.3639 42.5063 44.7336 41.9312C45.1033 41.3355 45.5758 40.8117 46.1509 40.3598C46.726 39.8874 47.4039 39.5074 48.1844 39.2198C48.9855 38.9117 49.879 38.7577 50.865 38.7577C51.9331 38.7577 52.8985 38.922 53.7612 39.2506C54.6239 39.5587 55.3531 39.9901 55.9487 40.5447C56.5444 41.0993 57.0066 41.7566 57.3352 42.5166C57.6639 43.256 57.8282 44.0571 57.8282 44.9198C57.8282 46.2344 57.4995 47.4463 56.8422 48.5555C56.2055 49.6441 55.4249 50.6609 54.5006 51.6058L51.8509 54.2555C51.1525 54.9539 50.3617 55.7344 49.4785 56.5971L49.6017 56.782H58.1363V60.3252H44.1174Z" fill="white"/>
<path d="M44.1174 60.3252H43.1174V61.3252H44.1174V60.3252ZM44.1174 56.6587L43.4164 55.9456L43.1174 56.2395V56.6587H44.1174ZM47.4758 53.3312L46.7687 52.624H46.7687L47.4758 53.3312ZM48.8006 52.0063L49.5077 52.7134L48.8006 52.0063ZM50.0639 50.7431L49.3568 50.0359V50.0359L50.0639 50.7431ZM51.1114 49.6955L51.8185 50.4026L51.8299 50.3912L51.841 50.3794L51.1114 49.6955ZM51.8201 48.9252L52.5675 49.5896L52.5764 49.5796L52.585 49.5694L51.8201 48.9252ZM52.6828 47.8777L51.9271 47.2227L51.9142 47.2376L51.9019 47.253L52.6828 47.8777ZM53.299 46.9841L52.4166 46.5136L52.4105 46.5252L52.4046 46.5369L53.299 46.9841ZM53.6687 46.0906L54.6303 46.3653L54.6327 46.3568L54.635 46.3483L53.6687 46.0906ZM52.9909 43.3485L52.2978 44.0693L52.3051 44.0764L52.3126 44.0833L52.9909 43.3485ZM48.6466 43.3793L49.3537 44.0864L49.3606 44.0795L49.3674 44.0724L48.6466 43.3793ZM47.599 45.1355L47.2183 46.0602L48.2574 46.4881L48.5617 45.4062L47.599 45.1355ZM43.9325 43.6258L42.9737 43.3417L42.7174 44.2069L43.5518 44.5504L43.9325 43.6258ZM44.7336 41.9312L45.5748 42.4719L45.5791 42.4653L45.5833 42.4585L44.7336 41.9312ZM46.1509 40.3598L46.7687 41.1461L46.7773 41.1394L46.7856 41.1326L46.1509 40.3598ZM48.1844 39.2198L48.5301 40.1582L48.5368 40.1557L48.5434 40.1532L48.1844 39.2198ZM53.7612 39.2506L53.4052 40.1851L53.415 40.1889L53.4248 40.1924L53.7612 39.2506ZM55.9487 40.5447L55.2673 41.2766L55.9487 40.5447ZM57.3352 42.5166L56.4173 42.9135L56.4214 42.9227L57.3352 42.5166ZM56.8422 48.5555L55.9819 48.0457L55.979 48.0506L56.8422 48.5555ZM54.5006 51.6058L55.2078 52.3129L55.2155 52.305L54.5006 51.6058ZM51.8509 54.2555L52.558 54.9626L51.8509 54.2555ZM49.4785 56.5971L48.7797 55.8817L48.1862 56.4615L48.6464 57.1518L49.4785 56.5971ZM49.6017 56.782L48.7697 57.3367L49.0665 57.782H49.6017V56.782ZM58.1363 56.782H59.1363V55.782H58.1363V56.782ZM58.1363 60.3252V61.3252H59.1363V60.3252H58.1363ZM45.1174 60.3252V56.6587H43.1174V60.3252H45.1174ZM44.8184 57.3718C46.032 56.1788 47.1535 55.0676 48.1829 54.0383L46.7687 52.624C45.744 53.6488 44.6265 54.7559 43.4164 55.9456L44.8184 57.3718ZM48.1829 54.0383C48.6142 53.6069 49.0558 53.1653 49.5077 52.7134L48.0935 51.2992C47.6416 51.7511 47.2 52.1927 46.7687 52.624L48.1829 54.0383ZM49.5077 52.7134C49.9596 52.2615 50.3807 51.8404 50.771 51.4502L49.3568 50.0359C48.9665 50.4262 48.5454 50.8473 48.0935 51.2992L49.5077 52.7134ZM50.771 51.4502C51.1612 51.0599 51.5104 50.7107 51.8185 50.4026L50.4043 48.9884C50.0962 49.2965 49.747 49.6457 49.3568 50.0359L50.771 51.4502ZM51.841 50.3794C52.1511 50.0486 52.3944 49.7843 52.5675 49.5896L51.0727 48.2609C50.9171 48.4358 50.688 48.685 50.3819 49.0115L51.841 50.3794ZM52.585 49.5694C52.9176 49.1744 53.2107 48.8186 53.4637 48.5023L51.9019 47.253C51.6619 47.5529 51.3799 47.8955 51.0552 48.2811L52.585 49.5694ZM53.4385 48.5326C53.7464 48.1773 54.0038 47.8105 54.1934 47.4314L52.4046 46.5369C52.3066 46.7329 52.1532 46.9618 51.9271 47.2227L53.4385 48.5326ZM54.1814 47.4547C54.3735 47.0944 54.5258 46.731 54.6303 46.3653L52.7072 45.8159C52.6474 46.0254 52.5531 46.2577 52.4166 46.5136L54.1814 47.4547ZM54.635 46.3483C54.7416 45.9486 54.792 45.5327 54.792 45.1047H52.792C52.792 45.3751 52.7602 45.6165 52.7025 45.833L54.635 46.3483ZM54.792 45.1047C54.792 44.1259 54.3917 43.2806 53.6692 42.6137L52.3126 44.0833C52.6582 44.4023 52.792 44.7278 52.792 45.1047H54.792ZM53.684 42.6276C52.9203 41.8933 51.9189 41.5782 50.8033 41.5782V43.5782C51.5364 43.5782 51.9934 43.7766 52.2978 44.0693L53.684 42.6276ZM50.8033 41.5782C49.6786 41.5782 48.6723 41.9098 47.9257 42.6862L49.3674 44.0724C49.6479 43.7807 50.0794 43.5782 50.8033 43.5782V41.5782ZM47.9395 42.6722C47.3128 43.2989 46.8706 44.032 46.6364 44.8647L48.5617 45.4062C48.6972 44.9244 48.9534 44.4867 49.3537 44.0864L47.9395 42.6722ZM47.9798 44.2108L44.3133 42.7011L43.5518 44.5504L47.2183 46.0602L47.9798 44.2108ZM44.8913 43.9099C45.0244 43.4607 45.2472 42.9815 45.5748 42.4719L43.8924 41.3904C43.4806 42.0311 43.1693 42.6817 42.9737 43.3417L44.8913 43.9099ZM45.5833 42.4585C45.8888 41.9663 46.2814 41.5291 46.7687 41.1461L45.5331 39.5735C44.8702 40.0944 44.3179 40.7047 43.884 41.4038L45.5833 42.4585ZM46.7856 41.1326C47.2648 40.7389 47.8423 40.4116 48.5301 40.1582L47.8387 38.2815C46.9655 38.6032 46.1872 39.0359 45.5162 39.5871L46.7856 41.1326ZM48.5434 40.1532C49.2142 39.8952 49.9837 39.7577 50.865 39.7577V37.7577C49.7743 37.7577 48.7568 37.9283 47.8254 38.2865L48.5434 40.1532ZM50.865 39.7577C51.8302 39.7577 52.6725 39.906 53.4052 40.1851L54.1172 38.3162C53.1244 37.938 52.0359 37.7577 50.865 37.7577V39.7577ZM53.4248 40.1924C54.1755 40.4605 54.783 40.8256 55.2673 41.2766L56.6301 39.8128C55.9231 39.1546 55.0722 38.657 54.0975 38.3089L53.4248 40.1924ZM55.2673 41.2766C55.7601 41.7354 56.1426 42.278 56.4174 42.9135L58.2531 42.1197C57.8706 41.2351 57.3287 40.4632 56.6301 39.8128L55.2673 41.2766ZM56.4214 42.9227C56.6895 43.526 56.8282 44.1876 56.8282 44.9198H58.8282C58.8282 43.9266 58.6382 42.9861 58.249 42.1104L56.4214 42.9227ZM56.8282 44.9198C56.8282 46.0587 56.5459 47.094 55.9819 48.0457L57.7025 49.0653C58.4531 47.7986 58.8282 46.4101 58.8282 44.9198H56.8282ZM55.979 48.0506C55.3855 49.0653 54.6556 50.0173 53.7858 50.9065L55.2155 52.305C56.1942 51.3045 57.0254 50.223 57.7054 49.0604L55.979 48.0506ZM53.7935 50.8986L51.1438 53.5484L52.558 54.9626L55.2077 52.3129L53.7935 50.8986ZM51.1438 53.5484C50.4488 54.2434 49.6608 55.0211 48.7797 55.8817L50.1772 57.3125C51.0626 56.4477 51.8563 55.6643 52.558 54.9626L51.1438 53.5484ZM48.6464 57.1518L48.7697 57.3367L50.4338 56.2273L50.3105 56.0424L48.6464 57.1518ZM49.6017 57.782H58.1363V55.782H49.6017V57.782ZM57.1363 56.782V60.3252H59.1363V56.782H57.1363ZM58.1363 59.3252H44.1174V61.3252H58.1363V59.3252Z" fill="black" mask="url(#path-2-outside-1_843_6117)"/>
</svg>
