<svg width="83" height="79" viewBox="0 0 83 79" fill="none" xmlns="http://www.w3.org/2000/svg">
<g clip-path="url(#clip0_1066_2357)">
<path d="M15.083 30.43L14.9512 30.3457" stroke="black" stroke-miterlimit="10"/>
<path d="M54.1628 78.6148L49.802 77.9046L45.4292 77.1944L41.0563 76.4722L36.6835 75.762L32.3106 75.0397L27.9258 74.3295L23.541 73.6073L19.1562 72.8851L14.7594 72.1749L13.2858 68.1785L11.8122 64.1822L16.209 64.8924L20.5939 65.6267L24.9906 66.3369L29.3755 67.0591L33.7483 67.7813L38.1331 68.5035L42.5059 69.2137L46.8788 69.936L45.4172 65.9517L44.4947 63.4479L40.1219 62.7257L35.737 62.0035L31.3642 61.2812L26.9794 60.559L22.5826 59.8368L18.1978 59.1025L13.801 58.3923L9.40418 57.658L6.92425 50.9654L5.89394 48.1607L4.40837 44.1523L2.93478 40.144L1.44922 36.1235L5.858 36.8578L10.2548 37.5921L14.6636 38.3263L19.0604 39.0606L23.4572 39.7949L27.842 40.5171L32.2268 41.2514L36.6116 41.9856L40.9964 42.7079L42.458 46.7042L43.9316 50.7126L39.5468 49.9783L35.174 49.2561L30.7891 48.5218L26.4043 47.7996L22.0075 47.0653L17.6227 46.3431L13.2139 45.6088L14.6995 49.6172L15.7178 52.4098L20.1146 53.1321L24.5114 53.8543L28.8962 54.5886L33.2811 55.3108L37.6539 56.033L42.0387 56.7553L46.4116 57.4775L48.7597 63.8813L49.778 66.6739L51.2396 70.6582L52.7012 74.6425L54.1628 78.6148Z" fill="#9999CC" stroke="#666666" stroke-width="0.5" stroke-miterlimit="10"/>
<path d="M82.6649 46.0062L79.8615 49.4248L76.9742 52.9516L74.0869 56.4665L72.5414 58.3563L67.3659 64.6638L65.4371 67.0111L62.5618 70.5259L59.6865 74.0287L56.955 77.363L55.4455 73.3426L53.9479 69.3342L56.7393 65.9277L59.6026 62.4369L62.466 58.9462L64.3828 56.5989L62.8972 52.5905L61.4117 48.6062L59.9381 44.6219L58.4645 40.6617L57.0149 36.7135L55.122 39.0246L52.2826 42.5034L53.7323 46.4516L50.8929 49.9303L48.0536 53.4091L48.0056 53.4211L46.5321 49.4729L45.0585 45.5247L43.6328 41.721L46.58 38.1098L49.4074 34.6551L52.2347 31.2005L54.0438 28.9856L59.2193 22.6541L60.7288 20.8003L63.5562 17.3336L66.3955 13.8669L69.2229 10.3882L70.6965 14.2401L72.182 18.1401L69.3307 21.6309L66.4914 25.1097L63.64 28.6004L62.1305 30.4421L63.6041 34.3903L65.0777 38.3505L66.5513 42.3228L68.0368 46.3071L69.5344 50.3155L71.0798 48.4257L73.9551 44.9228L72.4456 40.9265L75.3089 37.4237L78.1483 33.957L79.6458 37.9654L81.1553 41.9737L82.6649 46.0062Z" fill="#CBC9E6" stroke="#666666" stroke-width="0.5" stroke-miterlimit="10"/>
<path d="M68.1081 7.16231L65.2687 10.6531L62.2497 14.3605L57.5414 13.6022L52.8691 12.8439L48.2087 12.0855L43.5723 11.3272L38.9599 10.5809L34.3714 9.83457L29.7949 9.08826L26.8717 12.7355L25.1345 14.9022L29.6751 15.6606L34.2516 16.4189L38.84 17.1893L43.4525 17.9597L48.0889 18.7421L52.7493 19.5125L57.3377 20.2828L57.3976 20.331L52.2101 26.6987L47.5498 25.9162L42.9014 25.1338L38.2889 24.3514L33.6885 23.569L29.112 22.7986L24.5594 22.0282L20.0309 21.2578L18.126 23.6292L15.2267 27.2524L19.7433 28.0348L24.2599 28.8172L28.8125 29.6117L33.389 30.4061L37.9894 31.2006L42.6019 32.0071L47.2503 32.8135L44.2672 36.4728L41.3679 40.0358L36.7075 39.2655L32.9697 38.6395L32.0831 38.4831L27.5066 37.6766L22.9661 36.858L18.4375 36.0515L13.9329 35.2571L9.4522 34.4626L4.9955 33.6682L0.550781 32.8737L3.41409 29.2866L6.2774 25.6996L9.15269 22.1005L11.1534 19.5967L16.1133 13.3976L17.8265 11.255L20.7257 7.61973L23.637 3.97246L26.5482 0.325195L31.1007 1.04743L35.6652 1.76966L40.2657 2.49189L44.8782 3.22616L49.5146 3.96042L54.1869 4.69469L54.9536 4.81506L58.8473 5.46507L63.5196 6.23545L68.0482 6.99379L68.1081 7.16231Z" fill="#CBC9E6" stroke="#666666" stroke-width="0.5" stroke-miterlimit="10"/>
</g>
<defs>
<clipPath id="clip0_1066_2357">
<rect width="83" height="79" fill="white"/>
</clipPath>
</defs>
</svg>
