<svg width="720" height="603" viewBox="0 0 720 603" fill="none" xmlns="http://www.w3.org/2000/svg">
<g filter="url(#filter0_d_1583_6574)">
<path d="M381.391 38.2067C381.391 27.0704 381.391 21.5022 383.558 17.2487C385.464 13.5072 388.506 10.4653 392.248 8.55888C396.501 6.3916 402.069 6.3916 413.206 6.3916H439.055C450.192 6.3916 455.76 6.3916 460.014 8.55888C463.755 10.4653 466.797 13.5072 468.703 17.2487C470.871 21.5022 470.871 27.0704 470.871 38.2067V64.0565C470.871 75.1928 470.871 80.761 468.703 85.0145C466.797 88.756 463.755 91.7979 460.014 93.7043C455.76 95.8716 450.192 95.8716 439.055 95.8716H413.206C402.069 95.8716 396.501 95.8716 392.248 93.7043C388.506 91.7979 385.464 88.756 383.558 85.0145C381.391 80.761 381.391 75.1928 381.391 64.0565V38.2067Z" fill="white"/>
<path d="M426.137 39.7898L415.077 20.2713C415.444 19.8974 415.866 19.6521 416.289 19.4873C413.027 20.5607 411.531 24.2232 411.531 24.2232L391.326 59.8711C391.042 60.9888 390.963 61.9979 390.998 62.8864H413.051L426.137 39.7898Z" fill="#34A853"/>
<path d="M426.139 39.7898L439.224 62.8864H461.277C461.313 61.9979 461.234 60.9888 460.949 59.8711L440.744 24.2232C440.744 24.2232 439.244 20.5607 435.986 19.4873C436.405 19.6521 436.831 19.8974 437.199 20.2713L426.139 39.7898Z" fill="#FBBC05"/>
<path d="M426.138 39.7907L437.198 20.2721C436.831 19.8983 436.404 19.653 435.986 19.4882C435.504 19.3314 434.987 19.2269 434.426 19.1987H433.842H418.434H417.85C417.293 19.2229 416.772 19.3274 416.29 19.4882C415.872 19.653 415.445 19.8983 415.078 20.2721L426.138 39.7907Z" fill="#188038"/>
<path d="M413.056 62.8862L402.122 82.1836C402.122 82.1836 401.759 82.0067 401.266 81.6409C402.817 82.8349 404.326 83.0882 404.326 83.0882H447.267C449.636 83.0882 450.129 82.1836 450.129 82.1836C450.137 82.1796 450.141 82.1756 450.149 82.1716L439.223 62.8862H413.056Z" fill="#4285F4"/>
<path d="M413.055 62.8862H391.002C391.113 65.5075 392.25 67.0392 392.25 67.0392L393.079 68.4785C393.138 68.5629 393.174 68.6111 393.174 68.6111L394.978 71.7791L399.029 78.8307C399.148 79.1162 399.286 79.3775 399.432 79.6267C399.487 79.7112 399.539 79.8036 399.598 79.884C399.614 79.9081 399.63 79.9323 399.645 79.9564C400.147 80.664 400.708 81.2107 401.268 81.6409C401.762 82.0108 402.125 82.1836 402.125 82.1836L413.055 62.8862Z" fill="#1967D2"/>
<path d="M439.223 62.8862H461.276C461.165 65.5075 460.028 67.0392 460.028 67.0392L459.199 68.4785C459.139 68.5629 459.104 68.6111 459.104 68.6111L457.299 71.7791L453.248 78.8307C453.13 79.1162 452.991 79.3775 452.845 79.6267C452.79 79.7112 452.739 79.8036 452.679 79.884C452.664 79.9081 452.648 79.9323 452.632 79.9564C452.131 80.664 451.57 81.2107 451.009 81.6409C450.516 82.0108 450.152 82.1836 450.152 82.1836L439.223 62.8862Z" fill="#EA4335"/>
</g>
<g filter="url(#filter1_d_1583_6574)">
<path d="M623.393 214.206C623.393 203.07 623.393 197.502 625.56 193.248C627.466 189.507 630.508 186.465 634.25 184.558C638.503 182.391 644.071 182.391 655.208 182.391H681.057C692.194 182.391 697.762 182.391 702.015 184.558C705.757 186.465 708.799 189.507 710.705 193.248C712.873 197.502 712.873 203.07 712.873 214.206V240.056C712.873 251.192 712.873 256.76 710.705 261.014C708.799 264.755 705.757 267.797 702.015 269.704C697.762 271.871 692.194 271.871 681.057 271.871H655.208C644.071 271.871 638.503 271.871 634.25 269.704C630.508 267.797 627.466 264.755 625.56 261.014C623.393 256.76 623.393 251.192 623.393 240.056V214.206Z" fill="white"/>
<path d="M632.98 251.291C632.98 253.834 635.058 255.893 637.617 255.893H637.683C635.085 255.893 632.98 253.834 632.98 251.291Z" fill="#FBBC05"/>
<path d="M672.824 215.627V227.642L689.022 214.577V202.972C689.022 200.43 686.945 198.371 684.385 198.371H649.293L649.262 215.627H672.824Z" fill="#FBBC05"/>
<path d="M672.824 239.662H649.223L649.195 255.895H684.386C686.949 255.895 689.022 253.836 689.022 251.293V240.816L672.824 227.647V239.662Z" fill="#34A853"/>
<path d="M649.292 198.371L632.98 215.627H649.265L649.292 198.371Z" fill="#EA4335"/>
<path d="M632.98 239.66V251.291C632.98 253.834 635.085 255.893 637.683 255.893H649.194L649.222 239.66H632.98Z" fill="#1967D2"/>
<path d="M649.265 215.627H632.98V239.66H649.222L649.265 215.627Z" fill="#4285F4"/>
<path d="M703.264 247.202V207.703C702.351 202.461 696.601 208.47 696.601 208.47L689.025 214.579V240.813L699.87 249.629C703.785 250.143 703.264 247.202 703.264 247.202Z" fill="#34A853"/>
<path d="M672.822 227.642L689.024 240.815V214.581L672.822 227.642Z" fill="#188038"/>
</g>
<path d="M279.732 323.482C280.55 323.354 281.11 322.587 280.982 321.768C280.854 320.95 280.087 320.39 279.268 320.518L279.732 323.482ZM134.048 121.375C134.491 123.092 134.979 124.942 135.51 126.915L138.407 126.135C137.878 124.171 137.393 122.331 136.952 120.625L134.048 121.375ZM138.587 137.992C139.576 141.456 140.651 145.14 141.805 149.006L144.68 148.147C143.529 144.293 142.457 140.62 141.472 137.168L138.587 137.992ZM145.158 160.007C146.26 163.555 147.417 167.209 148.623 170.947L151.478 170.026C150.275 166.299 149.122 162.654 148.023 159.116L145.158 160.007ZM152.21 181.854C153.409 185.432 154.647 189.062 155.922 192.724L158.755 191.738C157.485 188.087 156.25 184.469 155.055 180.901L152.21 181.854ZM159.765 203.55C161.063 207.134 162.393 210.732 163.751 214.326L166.557 213.266C165.204 209.685 163.88 206.1 162.586 202.528L159.765 203.55ZM167.893 225.046C169.307 228.622 170.747 232.179 172.211 235.699L174.981 234.547C173.525 231.044 172.091 227.504 170.683 223.943L167.893 225.046ZM176.731 246.272C178.296 249.828 179.882 253.326 181.488 256.746L184.204 255.472C182.609 252.075 181.033 248.599 179.477 245.064L176.731 246.272ZM186.529 267.092C187.406 268.823 188.288 270.528 189.174 272.202L191.826 270.798C190.948 269.141 190.074 267.452 189.205 265.736L186.529 267.092ZM189.174 272.202C190.05 273.856 190.95 275.462 191.871 277.019L194.453 275.492C193.556 273.976 192.68 272.411 191.826 270.798L189.174 272.202ZM197.961 286.232C200.22 289.294 202.569 292.127 204.987 294.745L207.191 292.709C204.848 290.173 202.569 287.425 200.375 284.451L197.961 286.232ZM212.952 302.422C215.843 304.897 218.793 307.114 221.772 309.095L223.433 306.597C220.553 304.682 217.7 302.538 214.903 300.143L212.952 302.422ZM231.342 314.647C234.756 316.358 238.164 317.794 241.519 318.988L242.526 316.162C239.282 315.007 235.987 313.618 232.685 311.965L231.342 314.647ZM252.14 322.056C255.956 322.91 259.628 323.471 263.08 323.794L263.36 320.808C260.031 320.495 256.485 319.954 252.795 319.129L252.14 322.056ZM274.18 324.049C276.192 323.94 278.052 323.745 279.732 323.482L279.268 320.518C277.696 320.764 275.937 320.95 274.018 321.054L274.18 324.049Z" fill="black"/>
<g filter="url(#filter2_d_1583_6574)">
<path d="M6.39062 453.207C6.39062 442.07 6.39062 436.502 8.5579 432.249C10.4643 428.507 13.5062 425.465 17.2477 423.559C21.5012 421.392 27.0694 421.392 38.2057 421.392H64.0555C75.1918 421.392 80.76 421.392 85.0135 423.559C88.755 425.465 91.7969 428.507 93.7033 432.249C95.8706 436.502 95.8706 442.07 95.8706 453.207V479.056C95.8706 490.193 95.8706 495.761 93.7033 500.014C91.7969 503.756 88.755 506.798 85.0135 508.704C80.76 510.872 75.1918 510.872 64.0555 510.872H38.2057C27.0694 510.872 21.5012 510.872 17.2477 508.704C13.5062 506.798 10.4643 503.756 8.5579 500.014C6.39062 495.761 6.39062 490.193 6.39062 479.056V453.207Z" fill="white"/>
<path d="M78.2691 434.174H67.8789V449.23H83.0824V438.42C83.0866 438.42 82.3311 434.585 78.2691 434.174Z" fill="#1967D2"/>
<path d="M67.8848 498.019V498.056V498.089L83.0883 483.033H82.9521L67.8848 498.019Z" fill="#1967D2"/>
<path d="M83.0862 483.032V482.897L82.9512 483.032H83.0862Z" fill="#FBBC05"/>
<path d="M83.0883 449.23H67.8848V482.898H83.0883V449.23Z" fill="#FBBC05"/>
<path d="M82.9521 483.033H67.8848V498.019L82.9521 483.033Z" fill="#EA4335"/>
<path d="M67.8848 483.032H82.9521L83.0883 482.897H67.8848V483.032Z" fill="#EA4335"/>
<path d="M67.8477 498.056H67.8845V498.019L67.8477 498.056Z" fill="#34A853"/>
<path d="M34.0352 482.897V498.056H67.8478L67.885 482.897H34.0352Z" fill="#34A853"/>
<path d="M67.8845 483.033V482.897L67.8477 498.056L67.8845 498.019V483.033Z" fill="#34A853"/>
<path d="M19.1738 482.897V493.437C19.3101 496.857 23.0088 498.056 23.0088 498.056H34.0347V482.897H19.1738Z" fill="#188038"/>
<path d="M34.0347 449.23H67.8846V434.174H23.4381C23.4381 434.174 19.4463 434.585 19.1738 438.826V482.897H34.0347V449.23Z" fill="#4285F4"/>
<path d="M45.1101 476.083C44.3357 476.083 43.589 475.982 42.8699 475.78C42.1692 475.579 41.5238 475.276 40.9338 474.872C40.3438 474.451 39.8183 473.928 39.3573 473.304C38.9148 472.681 38.5737 471.957 38.334 471.131L41.7359 469.783C41.9756 470.7 42.3812 471.397 42.9528 471.874C43.5244 472.333 44.2435 472.562 45.1101 472.562C45.4974 472.562 45.8661 472.507 46.2165 472.397C46.5668 472.268 46.871 472.094 47.1292 471.874C47.3873 471.654 47.5901 471.397 47.7376 471.104C47.9036 470.792 47.9866 470.444 47.9866 470.058C47.9866 469.252 47.6823 468.619 47.0738 468.16C46.4838 467.702 45.6633 467.473 44.6123 467.473H42.9805V464.199H44.474C44.8428 464.199 45.2023 464.153 45.5527 464.062C45.903 463.97 46.2072 463.832 46.4654 463.649C46.742 463.447 46.954 463.2 47.1015 462.906C47.2675 462.594 47.3504 462.237 47.3504 461.833C47.3504 461.21 47.1292 460.706 46.6866 460.32C46.2441 459.917 45.6449 459.715 44.8889 459.715C44.0776 459.715 43.4507 459.935 43.0082 460.375C42.5841 460.797 42.289 461.274 42.1231 461.806L38.8042 460.458C38.9701 460 39.219 459.532 39.5509 459.055C39.8828 458.56 40.2977 458.12 40.7955 457.735C41.3118 457.331 41.9111 457.01 42.5933 456.772C43.2755 456.515 44.0591 456.387 44.9442 456.387C45.8477 456.387 46.6682 456.515 47.4057 456.772C48.1617 457.029 48.8071 457.386 49.3418 457.845C49.8765 458.285 50.2914 458.817 50.5864 459.44C50.8814 460.045 51.0289 460.706 51.0289 461.421C51.0289 461.971 50.9552 462.466 50.8076 462.906C50.6786 463.346 50.5034 463.741 50.2821 464.089C50.0609 464.438 49.8027 464.74 49.5077 464.997C49.2312 465.235 48.9454 465.428 48.6503 465.575V465.795C49.5354 466.143 50.2637 466.702 50.8353 467.473C51.4253 468.243 51.7204 469.215 51.7204 470.389C51.7204 471.214 51.5636 471.975 51.2502 472.672C50.9367 473.35 50.485 473.946 49.8949 474.46C49.3233 474.973 48.6319 475.368 47.8206 475.643C47.0093 475.936 46.1058 476.083 45.1101 476.083Z" fill="#4285F4"/>
<path d="M58.3252 475.643V461.063L54.9786 462.466L53.651 459.413L59.2102 456.827H61.9483V475.643H58.3252Z" fill="#4285F4"/>
</g>
<g clip-path="url(#clip0_1583_6574)" filter="url(#filter3_d_1583_6574)">
<rect x="85.3594" y="13.3398" width="76.0775" height="88.757" rx="6.33979" fill="#2FB776"/>
<path d="M85.3594 79.9077H161.437V95.7572C161.437 99.2586 158.598 102.097 155.097 102.097H91.6992C88.1978 102.097 85.3594 99.2586 85.3594 95.7572V79.9077Z" fill="url(#paint0_linear_1583_6574)"/>
<rect x="123.398" y="57.7183" width="38.0387" height="22.1893" fill="#229C5B"/>
<rect x="123.398" y="35.5288" width="38.0387" height="22.1893" fill="#27AE68"/>
<path d="M85.3594 19.6796C85.3594 16.1783 88.1978 13.3398 91.6992 13.3398H123.398V35.5291H85.3594V19.6796Z" fill="#1D854F"/>
<rect x="85.3594" y="35.5288" width="38.0387" height="22.1893" fill="#197B43"/>
<rect x="85.3594" y="57.7183" width="38.0387" height="22.1893" fill="#1B5B38"/>
<path d="M85.3594 45.0385C85.3594 39.7864 89.617 35.5288 94.8691 35.5288H113.888C119.14 35.5288 123.398 39.7864 123.398 45.0385V83.0772C123.398 88.3293 119.14 92.5869 113.888 92.5869H85.3594V45.0385Z" fill="black" fill-opacity="0.3"/>
<rect x="60" y="29.1895" width="57.0581" height="57.0581" rx="6.33979" fill="url(#paint1_linear_1583_6574)"/>
<path d="M101.209 73.5676L92.2764 57.4011L100.817 41.8687H93.845L88.5728 51.7859L83.3876 41.8687H76.1982L84.782 57.4011L75.8496 73.5676H82.8212L88.442 63.0617L94.0193 73.5676H101.209Z" fill="white"/>
</g>
<g clip-path="url(#clip1_1583_6574)" filter="url(#filter4_d_1583_6574)">
<rect x="496.359" y="501.34" width="76.0775" height="88.757" rx="6.33979" fill="url(#paint2_linear_1583_6574)"/>
<path d="M496.359 567.907H572.437V583.757C572.437 587.258 569.598 590.096 566.097 590.096H502.699C499.198 590.096 496.359 587.258 496.359 583.757V567.907Z" fill="url(#paint3_linear_1583_6574)"/>
<rect x="496.359" y="545.719" width="76.0775" height="22.1893" fill="url(#paint4_linear_1583_6574)"/>
<rect x="496.359" y="523.529" width="76.0775" height="22.1893" fill="url(#paint5_linear_1583_6574)"/>
<path d="M496.359 533.038C496.359 527.786 500.617 523.529 505.869 523.529H524.888C530.14 523.529 534.398 527.786 534.398 533.038V571.077C534.398 576.329 530.14 580.587 524.888 580.587H496.359V533.038Z" fill="black" fill-opacity="0.3"/>
<rect x="471" y="517.189" width="57.0581" height="57.0581" rx="6.33979" fill="url(#paint6_linear_1583_6574)"/>
<path d="M518.548 529.914H512.374L507.526 550.597L502.223 529.869H497.002L491.656 550.597L486.85 529.914H480.51L488.756 561.568H494.225L499.529 541.56L504.833 561.568H510.303L518.548 529.914Z" fill="white"/>
</g>
<path d="M339.14 380.755C339.557 380.039 339.315 379.121 338.599 378.704C337.883 378.287 336.965 378.529 336.548 379.245L339.14 380.755ZM120.005 461.807C121.668 461.721 123.402 461.627 125.202 461.524L125.032 458.529C123.237 458.632 121.508 458.725 119.85 458.811L120.005 461.807ZM135.63 460.879C138.968 460.658 142.455 460.412 146.059 460.143L145.836 457.152C142.24 457.42 138.761 457.665 135.431 457.886L135.63 460.879ZM156.485 459.324C159.892 459.043 163.373 458.742 166.907 458.422L166.636 455.434C163.111 455.754 159.638 456.053 156.238 456.334L156.485 459.324ZM177.309 457.438C180.751 457.097 184.223 456.739 187.707 456.363L187.385 453.381C183.911 453.756 180.448 454.113 177.013 454.452L177.309 457.438ZM198.098 455.192C201.569 454.782 205.034 454.356 208.475 453.911L208.09 450.936C204.661 451.379 201.208 451.804 197.747 452.212L198.098 455.192ZM218.845 452.504C222.347 452.005 225.804 451.486 229.196 450.948L228.726 447.985C225.351 448.521 221.909 449.037 218.422 449.534L218.845 452.504ZM239.517 449.211C243.057 448.578 246.495 447.922 249.806 447.242L249.202 444.303C245.919 444.978 242.507 445.629 238.989 446.258L239.517 449.211ZM260.054 444.953C263.682 444.069 267.087 443.148 270.222 442.191L269.346 439.321C266.276 440.259 262.927 441.165 259.344 442.038L260.054 444.953ZM280.199 438.608C281.966 437.845 283.574 437.056 284.998 436.239L283.506 433.637C282.2 434.386 280.697 435.125 279.01 435.854L280.199 438.608ZM284.998 436.239C286.416 435.427 287.817 434.576 289.2 433.692L287.585 431.164C286.24 432.024 284.88 432.849 283.506 433.637L284.998 436.239ZM297.23 428.06C299.834 426.072 302.358 423.987 304.793 421.843L302.81 419.591C300.423 421.694 297.953 423.733 295.41 425.675L297.23 428.06ZM311.925 415.159C314.283 412.815 316.533 410.443 318.662 408.086L316.436 406.075C314.34 408.395 312.127 410.728 309.81 413.032L311.925 415.159ZM325.021 400.679C327.203 398.006 329.203 395.413 331.002 392.966L328.585 391.188C326.815 393.596 324.846 396.15 322.697 398.782L325.021 400.679ZM336.567 384.929C337.555 383.399 338.416 381.998 339.14 380.755L336.548 379.245C335.85 380.443 335.014 381.805 334.047 383.3L336.567 384.929Z" fill="black"/>
<path d="M464.478 484.739C464.697 485.538 465.523 486.007 466.322 485.787C467.121 485.567 467.59 484.742 467.37 483.943L464.478 484.739ZM397.194 363.915C398.415 364.693 399.891 365.729 401.564 367.016L403.393 364.639C401.664 363.309 400.115 362.22 398.806 361.385L397.194 363.915ZM409.797 374.087C412.225 376.379 414.788 378.981 417.392 381.878L419.623 379.872C416.962 376.912 414.341 374.252 411.856 371.906L409.797 374.087ZM424.343 390.253C426.473 393.038 428.573 396.01 430.594 399.159L433.119 397.539C431.051 394.317 428.903 391.277 426.726 388.43L424.343 390.253ZM436.063 408.556C436.895 410.144 437.7 411.767 438.474 413.425L441.192 412.156C440.399 410.455 439.573 408.791 438.72 407.163L436.063 408.556ZM438.474 413.425C439.358 415.318 440.23 417.24 441.089 419.18L443.832 417.965C442.965 416.008 442.085 414.069 441.192 412.156L438.474 413.425ZM446.017 430.839C447.617 434.795 449.152 438.754 450.609 442.646L453.418 441.594C451.953 437.681 450.409 433.697 448.798 429.714L446.017 430.839ZM454.914 454.563C456.39 458.794 457.746 462.836 458.961 466.578L461.814 465.651C460.593 461.89 459.23 457.828 457.747 453.574L454.914 454.563ZM462.733 478.673C463.427 481.006 464.012 483.047 464.478 484.739L467.37 483.943C466.898 482.228 466.308 480.166 465.609 477.818L462.733 478.673Z" fill="black"/>
<path d="M498 324L497.466 322.598L498 324ZM598.412 265.191C599.069 264.688 599.195 263.746 598.691 263.088C598.188 262.431 597.246 262.305 596.588 262.809L598.412 265.191ZM415.443 325.393C416.89 325.972 418.575 326.571 420.47 327.164L421.367 324.302C419.535 323.728 417.923 323.154 416.557 322.607L415.443 325.393ZM430.74 329.804C433.953 330.472 437.453 331.067 441.182 331.532L441.554 328.555C437.907 328.1 434.486 327.519 431.351 326.866L430.74 329.804ZM451.714 332.429C455.126 332.585 458.662 332.616 462.288 332.488L462.182 329.49C458.641 329.615 455.186 329.585 451.851 329.432L451.714 332.429ZM472.843 331.667C476.284 331.248 479.773 330.671 483.286 329.91L482.651 326.978C479.233 327.718 475.835 328.28 472.48 328.689L472.843 331.667ZM493.524 327.162C495.196 326.623 496.866 326.037 498.534 325.402L497.466 322.598C495.848 323.215 494.226 323.783 492.603 324.307L493.524 327.162ZM498.534 325.402C500.316 324.723 502.132 323.99 503.978 323.208L502.807 320.446C500.993 321.215 499.211 321.934 497.466 322.598L498.534 325.402ZM514.648 318.324C518.072 316.651 521.554 314.856 525.062 312.972L523.642 310.329C520.164 312.198 516.716 313.974 513.331 315.628L514.648 318.324ZM535.279 307.28C538.645 305.342 542.007 303.347 545.335 301.323L543.777 298.76C540.467 300.773 537.125 302.755 533.782 304.681L535.279 307.28ZM555.255 295.149C558.595 293.023 561.871 290.894 565.051 288.789L563.395 286.287C560.229 288.383 556.969 290.503 553.644 292.618L555.255 295.149ZM574.735 282.259C578.11 279.942 581.315 277.697 584.304 275.569L582.563 273.125C579.588 275.244 576.397 277.479 573.036 279.786L574.735 282.259ZM593.758 268.698C595.446 267.444 597.002 266.27 598.412 265.191L596.588 262.809C595.191 263.878 593.646 265.043 591.968 266.29L593.758 268.698Z" fill="black"/>
<path d="M350 158.5L348.558 158.088L350 158.5ZM393.222 95.3719C393.703 94.6978 393.547 93.7609 392.873 93.2794C392.199 92.7979 391.262 92.954 390.78 93.6281L393.222 95.3719ZM363.431 256.048C362.93 254.462 362.398 252.857 361.846 251.234L359.006 252.2C359.553 253.808 360.077 255.392 360.57 256.952L363.431 256.048ZM358.508 241.715C357.416 238.627 356.308 235.468 355.233 232.223L352.385 233.166C353.47 236.442 354.586 239.624 355.68 242.715L358.508 241.715ZM352.283 222.662C351.396 219.516 350.578 216.293 349.87 212.984L346.936 213.612C347.66 216.993 348.494 220.279 349.396 223.477L352.283 222.662ZM348.161 203.183C347.733 199.965 347.431 196.669 347.285 193.287L344.288 193.417C344.438 196.893 344.748 200.278 345.187 203.578L348.161 203.183ZM347.321 183.361C347.485 180.144 347.801 176.851 348.294 173.478L345.326 173.045C344.819 176.512 344.493 179.898 344.325 183.208L347.321 183.361ZM350.176 163.729C350.557 162.141 350.979 160.535 351.442 158.912L348.558 158.088C348.082 159.752 347.65 161.399 347.259 163.03L350.176 163.729ZM351.442 158.912C351.896 157.323 352.362 155.785 352.837 154.293L349.979 153.382C349.494 154.903 349.02 156.471 348.558 158.088L351.442 158.912ZM356.061 145.251C357.318 142.091 358.623 139.184 359.963 136.498L357.278 135.159C355.9 137.923 354.561 140.907 353.274 144.142L356.061 145.251ZM364.632 128.153C366.44 125.271 368.279 122.691 370.119 120.344L367.759 118.492C365.857 120.917 363.957 123.583 362.09 126.56L364.632 128.153ZM376.389 113.11C378.734 110.635 381.023 108.42 383.215 106.293L381.125 104.14C378.942 106.259 376.607 108.518 374.211 111.046L376.389 113.11ZM390.087 99.2796C391.203 98.018 392.254 96.7259 393.222 95.3719L390.78 93.6281C389.886 94.8803 388.903 96.0905 387.84 97.2916L390.087 99.2796Z" fill="black"/>
<g filter="url(#filter5_d_1583_6574)">
<path d="M398.407 91.6404C398.966 90.1476 397.639 88.6326 396.086 88.9898L378.907 92.9394C377.433 93.2783 376.854 95.068 377.851 96.2061L388.847 108.763C389.843 109.901 391.694 109.564 392.224 108.147L398.407 91.6404Z" fill="#242F9B"/>
<path d="M397.939 91.465C398.358 90.3454 397.363 89.2092 396.198 89.4771L379.019 93.4267C377.914 93.6809 377.479 95.0232 378.227 95.8767L389.223 108.434C389.97 109.288 391.358 109.034 391.756 107.972L397.939 91.465Z" stroke="white"/>
</g>
<g filter="url(#filter6_d_1583_6574)">
<path d="M134.556 111.546C133.426 110.421 131.499 111.006 131.184 112.569L127.708 129.85C127.41 131.333 128.803 132.597 130.25 132.158L146.222 127.309C147.669 126.87 148.124 125.045 147.051 123.978L134.556 111.546Z" fill="#242F9B"/>
<path d="M134.203 111.9C133.355 111.057 131.91 111.496 131.675 112.668L128.199 129.948C127.975 131.061 129.019 132.009 130.105 131.679L146.077 126.831C147.162 126.501 147.503 125.132 146.699 124.332L134.203 111.9Z" stroke="white"/>
</g>
<g filter="url(#filter7_d_1583_6574)">
<path d="M102.491 458.206C101.101 458.986 101.137 461 102.555 461.729L118.23 469.79C119.576 470.482 121.172 469.487 121.145 467.975L120.84 451.286C120.813 449.774 119.181 448.838 117.862 449.579L102.491 458.206Z" fill="#242F9B"/>
<path d="M102.735 458.642C101.693 459.227 101.72 460.737 102.784 461.284L118.459 469.345C119.468 469.864 120.666 469.118 120.645 467.984L120.34 451.295C120.32 450.161 119.096 449.459 118.107 450.015L102.735 458.642Z" stroke="white"/>
</g>
<g filter="url(#filter8_d_1583_6574)">
<path d="M469.786 497.074C470.92 498.194 472.845 497.602 473.153 496.038L476.562 478.744C476.854 477.26 475.457 476.001 474.011 476.446L458.058 481.356C456.613 481.801 456.165 483.628 457.242 484.691L469.786 497.074Z" fill="#242F9B"/>
<path d="M470.137 496.719C470.988 497.559 472.431 497.114 472.663 495.941L476.071 478.647C476.291 477.534 475.242 476.59 474.158 476.924L458.206 481.834C457.121 482.168 456.786 483.538 457.593 484.335L470.137 496.719Z" stroke="white"/>
</g>
<g filter="url(#filter9_d_1583_6574)">
<path d="M614.143 254.003C614.9 252.6 613.792 250.919 612.204 251.061L594.648 252.638C593.142 252.773 592.325 254.467 593.157 255.73L602.343 269.667C603.176 270.93 605.055 270.847 605.773 269.516L614.143 254.003Z" fill="#242F9B"/>
<path d="M613.703 253.765C614.271 252.713 613.44 251.452 612.249 251.559L594.693 253.136C593.563 253.237 592.95 254.508 593.575 255.455L602.761 269.391C603.385 270.339 604.795 270.277 605.333 269.278L613.703 253.765Z" stroke="white"/>
</g>
<g clip-path="url(#clip2_1583_6574)">
<path d="M323.083 308.43L322.951 308.346" stroke="black" stroke-miterlimit="10"/>
<path d="M362.163 356.615L357.802 355.905L353.429 355.194L349.056 354.472L344.683 353.762L340.311 353.04L335.926 352.33L331.541 351.607L327.156 350.885L322.759 350.175L321.286 346.179L319.812 342.182L324.209 342.892L328.594 343.627L332.991 344.337L337.375 345.059L341.748 345.781L346.133 346.504L350.506 347.214L354.879 347.936L353.417 343.952L352.495 341.448L348.122 340.726L343.737 340.003L339.364 339.281L334.979 338.559L330.583 337.837L326.198 337.103L321.801 336.392L317.404 335.658L314.924 328.965L313.894 326.161L312.408 322.152L310.935 318.144L309.449 314.124L313.858 314.858L318.255 315.592L322.664 316.326L327.06 317.061L331.457 317.795L335.842 318.517L340.227 319.251L344.612 319.986L348.996 320.708L350.458 324.704L351.932 328.713L347.547 327.978L343.174 327.256L338.789 326.522L334.404 325.8L330.008 325.065L325.623 324.343L321.214 323.609L322.7 327.617L323.718 330.41L328.115 331.132L332.511 331.854L336.896 332.589L341.281 333.311L345.654 334.033L350.039 334.755L354.412 335.477L356.76 341.881L357.778 344.674L359.24 348.658L360.701 352.643L362.163 356.615Z" fill="#9999CC" stroke="#666666" stroke-width="0.5" stroke-miterlimit="10"/>
<path d="M390.665 324.006L387.861 327.425L384.974 330.952L382.087 334.466L380.541 336.356L375.366 342.664L373.437 345.011L370.562 348.526L367.687 352.029L364.955 355.363L363.445 351.343L361.948 347.334L364.739 343.928L367.603 340.437L370.466 336.946L372.383 334.599L370.897 330.591L369.412 326.606L367.938 322.622L366.465 318.662L365.015 314.713L363.122 317.025L360.283 320.503L361.732 324.452L358.893 327.93L356.054 331.409L356.006 331.421L354.532 327.473L353.058 323.525L351.633 319.721L354.58 316.11L357.407 312.655L360.235 309.2L362.044 306.986L367.219 300.654L368.729 298.8L371.556 295.334L374.396 291.867L377.223 288.388L378.696 292.24L380.182 296.14L377.331 299.631L374.491 303.11L371.64 306.6L370.131 308.442L371.604 312.39L373.078 316.351L374.551 320.323L376.037 324.307L377.534 328.316L379.08 326.426L381.955 322.923L380.446 318.927L383.309 315.424L386.148 311.957L387.646 315.965L389.155 319.974L390.665 324.006Z" fill="#242F9B" stroke="#666666" stroke-width="0.5" stroke-miterlimit="10"/>
<path d="M376.108 285.162L373.269 288.653L370.25 292.361L365.541 291.602L360.869 290.844L356.209 290.086L351.572 289.327L346.96 288.581L342.371 287.835L337.795 287.088L334.872 290.736L333.135 292.902L337.675 293.661L342.252 294.419L346.84 295.189L351.452 295.96L356.089 296.742L360.749 297.512L365.338 298.283L365.398 298.331L360.21 304.699L355.55 303.916L350.901 303.134L346.289 302.351L341.688 301.569L337.112 300.799L332.559 300.028L328.031 299.258L326.126 301.629L323.227 305.252L327.743 306.035L332.26 306.817L336.812 307.612L341.389 308.406L345.989 309.201L350.602 310.007L355.25 310.814L352.267 314.473L349.368 318.036L344.708 317.265L340.97 316.64L340.083 316.483L335.507 315.677L330.966 314.858L326.437 314.052L321.933 313.257L317.452 312.463L312.995 311.668L308.551 310.874L311.414 307.287L314.277 303.7L317.153 300.1L319.153 297.597L324.113 291.398L325.826 289.255L328.726 285.62L331.637 281.972L334.548 278.325L339.101 279.047L343.665 279.77L348.266 280.492L352.878 281.226L357.515 281.96L362.187 282.695L362.954 282.815L366.847 283.465L371.52 284.235L376.048 284.994L376.108 285.162Z" fill="#CBC9E6" stroke="#666666" stroke-width="0.5" stroke-miterlimit="10"/>
</g>
<defs>
<filter id="filter0_d_1583_6574" x="373" y="-1" width="106.264" height="106.263" filterUnits="userSpaceOnUse" color-interpolation-filters="sRGB">
<feFlood flood-opacity="0" result="BackgroundImageFix"/>
<feColorMatrix in="SourceAlpha" type="matrix" values="0 0 0 0 0 0 0 0 0 0 0 0 0 0 0 0 0 0 127 0" result="hardAlpha"/>
<feOffset dy="1"/>
<feGaussianBlur stdDeviation="1"/>
<feColorMatrix type="matrix" values="0 0 0 0 0.0627451 0 0 0 0 0.0941176 0 0 0 0 0.156863 0 0 0 0.05 0"/>
<feBlend mode="normal" in2="BackgroundImageFix" result="effect1_dropShadow_1583_6574"/>
<feBlend mode="normal" in="SourceGraphic" in2="effect1_dropShadow_1583_6574" result="shape"/>
</filter>
<filter id="filter1_d_1583_6574" x="613" y="176" width="110.264" height="110.263" filterUnits="userSpaceOnUse" color-interpolation-filters="sRGB">
<feFlood flood-opacity="0" result="BackgroundImageFix"/>
<feColorMatrix in="SourceAlpha" type="matrix" values="0 0 0 0 0 0 0 0 0 0 0 0 0 0 0 0 0 0 127 0" result="hardAlpha"/>
<feOffset dy="4"/>
<feGaussianBlur stdDeviation="2"/>
<feComposite in2="hardAlpha" operator="out"/>
<feColorMatrix type="matrix" values="0 0 0 0 0 0 0 0 0 0 0 0 0 0 0 0 0 0 0.25 0"/>
<feBlend mode="normal" in2="BackgroundImageFix" result="effect1_dropShadow_1583_6574"/>
<feBlend mode="normal" in="SourceGraphic" in2="effect1_dropShadow_1583_6574" result="shape"/>
</filter>
<filter id="filter2_d_1583_6574" x="-2" y="414" width="106.264" height="106.263" filterUnits="userSpaceOnUse" color-interpolation-filters="sRGB">
<feFlood flood-opacity="0" result="BackgroundImageFix"/>
<feColorMatrix in="SourceAlpha" type="matrix" values="0 0 0 0 0 0 0 0 0 0 0 0 0 0 0 0 0 0 127 0" result="hardAlpha"/>
<feOffset dy="1"/>
<feGaussianBlur stdDeviation="1"/>
<feColorMatrix type="matrix" values="0 0 0 0 0.0627451 0 0 0 0 0.0941176 0 0 0 0 0.156863 0 0 0 0.05 0"/>
<feBlend mode="normal" in2="BackgroundImageFix" result="effect1_dropShadow_1583_6574"/>
<feBlend mode="normal" in="SourceGraphic" in2="effect1_dropShadow_1583_6574" result="shape"/>
</filter>
<filter id="filter3_d_1583_6574" x="56" y="7" width="109.437" height="109.437" filterUnits="userSpaceOnUse" color-interpolation-filters="sRGB">
<feFlood flood-opacity="0" result="BackgroundImageFix"/>
<feColorMatrix in="SourceAlpha" type="matrix" values="0 0 0 0 0 0 0 0 0 0 0 0 0 0 0 0 0 0 127 0" result="hardAlpha"/>
<feOffset dy="4"/>
<feGaussianBlur stdDeviation="2"/>
<feComposite in2="hardAlpha" operator="out"/>
<feColorMatrix type="matrix" values="0 0 0 0 0 0 0 0 0 0 0 0 0 0 0 0 0 0 0.25 0"/>
<feBlend mode="normal" in2="BackgroundImageFix" result="effect1_dropShadow_1583_6574"/>
<feBlend mode="normal" in="SourceGraphic" in2="effect1_dropShadow_1583_6574" result="shape"/>
</filter>
<filter id="filter4_d_1583_6574" x="471" y="495" width="110.437" height="113.437" filterUnits="userSpaceOnUse" color-interpolation-filters="sRGB">
<feFlood flood-opacity="0" result="BackgroundImageFix"/>
<feColorMatrix in="SourceAlpha" type="matrix" values="0 0 0 0 0 0 0 0 0 0 0 0 0 0 0 0 0 0 127 0" result="hardAlpha"/>
<feOffset dx="5" dy="8"/>
<feGaussianBlur stdDeviation="2"/>
<feComposite in2="hardAlpha" operator="out"/>
<feColorMatrix type="matrix" values="0 0 0 0 0 0 0 0 0 0 0 0 0 0 0 0 0 0 0.25 0"/>
<feBlend mode="normal" in2="BackgroundImageFix" result="effect1_dropShadow_1583_6574"/>
<feBlend mode="normal" in="SourceGraphic" in2="effect1_dropShadow_1583_6574" result="shape"/>
</filter>
<filter id="filter5_d_1583_6574" x="373.354" y="86.937" width="29.1836" height="28.5093" filterUnits="userSpaceOnUse" color-interpolation-filters="sRGB">
<feFlood flood-opacity="0" result="BackgroundImageFix"/>
<feColorMatrix in="SourceAlpha" type="matrix" values="0 0 0 0 0 0 0 0 0 0 0 0 0 0 0 0 0 0 127 0" result="hardAlpha"/>
<feOffset dy="2"/>
<feGaussianBlur stdDeviation="2"/>
<feComposite in2="hardAlpha" operator="out"/>
<feColorMatrix type="matrix" values="0 0 0 0 0 0 0 0 0 0 0 0 0 0 0 0 0 0 0.67 0"/>
<feBlend mode="normal" in2="BackgroundImageFix" result="effect1_dropShadow_1583_6574"/>
<feBlend mode="normal" in="SourceGraphic" in2="effect1_dropShadow_1583_6574" result="shape"/>
</filter>
<filter id="filter6_d_1583_6574" x="123.668" y="108.962" width="27.9746" height="29.2847" filterUnits="userSpaceOnUse" color-interpolation-filters="sRGB">
<feFlood flood-opacity="0" result="BackgroundImageFix"/>
<feColorMatrix in="SourceAlpha" type="matrix" values="0 0 0 0 0 0 0 0 0 0 0 0 0 0 0 0 0 0 127 0" result="hardAlpha"/>
<feOffset dy="2"/>
<feGaussianBlur stdDeviation="2"/>
<feComposite in2="hardAlpha" operator="out"/>
<feColorMatrix type="matrix" values="0 0 0 0 0 0 0 0 0 0 0 0 0 0 0 0 0 0 0.67 0"/>
<feBlend mode="normal" in2="BackgroundImageFix" result="effect1_dropShadow_1583_6574"/>
<feBlend mode="normal" in="SourceGraphic" in2="effect1_dropShadow_1583_6574" result="shape"/>
</filter>
<filter id="filter7_d_1583_6574" x="97.4688" y="447.32" width="27.6758" height="28.6943" filterUnits="userSpaceOnUse" color-interpolation-filters="sRGB">
<feFlood flood-opacity="0" result="BackgroundImageFix"/>
<feColorMatrix in="SourceAlpha" type="matrix" values="0 0 0 0 0 0 0 0 0 0 0 0 0 0 0 0 0 0 127 0" result="hardAlpha"/>
<feOffset dy="2"/>
<feGaussianBlur stdDeviation="2"/>
<feComposite in2="hardAlpha" operator="out"/>
<feColorMatrix type="matrix" values="0 0 0 0 0 0 0 0 0 0 0 0 0 0 0 0 0 0 0.67 0"/>
<feBlend mode="normal" in2="BackgroundImageFix" result="effect1_dropShadow_1583_6574"/>
<feBlend mode="normal" in="SourceGraphic" in2="effect1_dropShadow_1583_6574" result="shape"/>
</filter>
<filter id="filter8_d_1583_6574" x="452.646" y="474.355" width="27.9551" height="29.2979" filterUnits="userSpaceOnUse" color-interpolation-filters="sRGB">
<feFlood flood-opacity="0" result="BackgroundImageFix"/>
<feColorMatrix in="SourceAlpha" type="matrix" values="0 0 0 0 0 0 0 0 0 0 0 0 0 0 0 0 0 0 127 0" result="hardAlpha"/>
<feOffset dy="2"/>
<feGaussianBlur stdDeviation="2"/>
<feComposite in2="hardAlpha" operator="out"/>
<feColorMatrix type="matrix" values="0 0 0 0 0 0 0 0 0 0 0 0 0 0 0 0 0 0 0.67 0"/>
<feBlend mode="normal" in2="BackgroundImageFix" result="effect1_dropShadow_1583_6574"/>
<feBlend mode="normal" in="SourceGraphic" in2="effect1_dropShadow_1583_6574" result="shape"/>
</filter>
<filter id="filter9_d_1583_6574" x="588.824" y="249.053" width="29.5625" height="27.5132" filterUnits="userSpaceOnUse" color-interpolation-filters="sRGB">
<feFlood flood-opacity="0" result="BackgroundImageFix"/>
<feColorMatrix in="SourceAlpha" type="matrix" values="0 0 0 0 0 0 0 0 0 0 0 0 0 0 0 0 0 0 127 0" result="hardAlpha"/>
<feOffset dy="2"/>
<feGaussianBlur stdDeviation="2"/>
<feComposite in2="hardAlpha" operator="out"/>
<feColorMatrix type="matrix" values="0 0 0 0 0 0 0 0 0 0 0 0 0 0 0 0 0 0 0.67 0"/>
<feBlend mode="normal" in2="BackgroundImageFix" result="effect1_dropShadow_1583_6574"/>
<feBlend mode="normal" in="SourceGraphic" in2="effect1_dropShadow_1583_6574" result="shape"/>
</filter>
<linearGradient id="paint0_linear_1583_6574" x1="85.3594" y1="91.0023" x2="161.437" y2="91.0023" gradientUnits="userSpaceOnUse">
<stop stop-color="#163C27"/>
<stop offset="1" stop-color="#2A6043"/>
</linearGradient>
<linearGradient id="paint1_linear_1583_6574" x1="60" y1="57.7185" x2="117.058" y2="57.7185" gradientUnits="userSpaceOnUse">
<stop stop-color="#185A30"/>
<stop offset="1" stop-color="#176F3D"/>
</linearGradient>
<linearGradient id="paint2_linear_1583_6574" x1="496.359" y1="516.133" x2="572.437" y2="516.133" gradientUnits="userSpaceOnUse">
<stop stop-color="#2B78B1"/>
<stop offset="1" stop-color="#338ACD"/>
</linearGradient>
<linearGradient id="paint3_linear_1583_6574" x1="496.359" y1="581.776" x2="572.437" y2="581.776" gradientUnits="userSpaceOnUse">
<stop stop-color="#1B366F"/>
<stop offset="1" stop-color="#2657B0"/>
</linearGradient>
<linearGradient id="paint4_linear_1583_6574" x1="529.643" y1="558.398" x2="572.437" y2="558.398" gradientUnits="userSpaceOnUse">
<stop stop-color="#20478B"/>
<stop offset="1" stop-color="#2D6FD1"/>
</linearGradient>
<linearGradient id="paint5_linear_1583_6574" x1="529.643" y1="536.208" x2="572.437" y2="536.208" gradientUnits="userSpaceOnUse">
<stop stop-color="#215295"/>
<stop offset="1" stop-color="#2E84D3"/>
</linearGradient>
<linearGradient id="paint6_linear_1583_6574" x1="471" y1="548.888" x2="531.228" y2="548.888" gradientUnits="userSpaceOnUse">
<stop stop-color="#223E74"/>
<stop offset="1" stop-color="#215091"/>
</linearGradient>
<clipPath id="clip0_1583_6574">
<rect width="101.437" height="101.437" fill="white" transform="translate(60 7)"/>
</clipPath>
<clipPath id="clip1_1583_6574">
<rect width="101.437" height="101.437" fill="white" transform="translate(471 495)"/>
</clipPath>
<clipPath id="clip2_1583_6574">
<rect width="83" height="79" fill="white" transform="translate(308 278)"/>
</clipPath>
</defs>
</svg>
