<svg width="709" height="939" viewBox="0 0 709 939" fill="none" xmlns="http://www.w3.org/2000/svg">
<path d="M480.971 280.026C479.513 274.242 478.09 268.697 476.689 263.15C476.405 262.046 476.206 261.266 476.077 259.822C475.971 258.751 475.794 256.475 476.967 256.605C477.924 256.813 478.578 257.082 479.259 258.955C480.992 263.801 481.991 268.865 483.009 273.884C483.906 278.316 484.521 281.71 485.083 285.678C485.345 287.532 484.468 288.33 482.746 288.211C481.201 288.103 479.613 288.02 478.117 287.624C472.715 286.224 467.371 284.689 461.986 283.201C461.316 283.02 460.783 282.919 460.016 282.59C459.091 282.182 458.395 281.937 458.603 280.98C458.791 280.067 460.109 280.034 460.775 280.149C466.364 280.989 477.864 282.912 478.5 282.875C476.492 280.112 474.691 277.513 472.742 275.01C459.088 257.648 444.312 241.406 425.862 228.874C411.257 218.953 395.73 210.933 378.979 205.315C377.992 204.977 377.022 204.55 376.096 204.12C374.832 203.557 374.274 203.04 374.52 202.366C375.154 201.164 376.109 201.328 376.882 201.392C378.427 201.5 379.969 201.938 381.467 202.356C401.438 208.16 419.216 218.203 435.747 230.627C452.716 243.378 466.137 259.391 478.243 276.602C478.847 277.534 480.557 279.699 480.971 280.026Z" fill="black"/>
<path d="M303.685 504.608C305.225 497.707 306.731 491.091 308.211 484.475C308.512 483.157 308.723 482.227 308.828 480.513C308.919 479.24 309.055 476.538 307.669 476.729C306.542 477.007 305.777 477.347 305.031 479.588C303.134 485.385 302.115 491.417 301.071 497.396C300.153 502.677 299.534 506.718 298.998 511.437C298.747 513.642 299.812 514.559 301.848 514.362C303.675 514.184 305.553 514.034 307.313 513.516C313.667 511.683 319.949 509.691 326.28 507.752C327.068 507.517 327.697 507.38 328.595 506.965C329.678 506.452 330.494 506.139 330.217 505.011C329.964 503.937 328.402 503.94 327.616 504.098C321.022 505.274 307.46 507.925 306.706 507.902C308.995 504.564 311.044 501.426 313.271 498.398C328.884 477.385 345.863 457.663 367.316 442.218C384.297 429.991 402.432 419.986 422.095 412.786C423.253 412.354 424.389 411.816 425.472 411.277C426.951 410.568 427.596 409.938 427.282 409.147C426.492 407.744 425.366 407.969 424.452 408.071C422.625 408.249 420.812 408.817 419.051 409.361C395.58 416.885 374.844 429.36 355.661 444.616C335.971 460.272 320.59 479.679 306.806 500.462C306.12 501.586 304.166 504.206 303.685 504.608Z" fill="black"/>
<g clip-path="url(#clip0_999_4148)">
<path d="M477.236 839.634C471.519 843.795 466.017 847.764 460.533 851.751C459.436 852.541 458.663 853.1 457.451 854.317C456.542 855.212 454.654 857.15 455.82 857.922C456.85 858.459 457.649 858.709 459.69 857.52C464.945 854.424 469.696 850.571 474.431 846.773C478.61 843.417 481.746 840.795 485.268 837.607C486.912 836.118 486.72 834.726 485.062 833.528C483.573 832.454 482.064 831.325 480.401 830.551C474.421 827.727 468.391 825.07 462.358 822.34C461.611 821.996 461.049 821.683 460.101 821.401C458.949 821.07 458.13 820.766 457.593 821.795C457.072 822.769 458.246 823.798 458.94 824.199C464.666 827.676 476.596 834.65 477.147 835.165C473.222 836.158 469.611 837.158 465.938 837.958C440.333 843.408 414.557 846.986 388.249 844.398C367.425 842.35 347.202 837.872 327.689 830.279C326.533 829.838 325.326 829.49 324.156 829.179C322.578 828.733 321.678 828.781 321.391 829.581C321.055 831.156 322.049 831.731 322.803 832.259C324.291 833.333 326.028 834.105 327.708 834.86C350.296 844.727 374.102 849.071 398.58 850.301C423.704 851.566 448.073 847.168 472.154 840.682C473.411 840.292 476.61 839.618 477.236 839.634Z" fill="black"/>
</g>
<g filter="url(#filter0_d_999_4148)">
<rect x="37.3613" y="573.918" width="240.527" height="240.527" transform="rotate(-16.7428 37.3613 573.918)" fill="#EC79F7"/>
</g>
<g filter="url(#filter1_f_999_4148)">
<ellipse cx="3.48998" cy="15.3776" rx="3.48998" ry="15.3776" transform="matrix(-0.080031 0.996792 0.996792 0.080031 41.0469 582.319)" fill="#393939" fill-opacity="0.1"/>
</g>
<path d="M62.5487 561.909L53.2562 569.794L58.4702 580.23L71.9973 568.752L62.5487 561.909Z" fill="#4583A6"/>
<path d="M62.5487 561.909L53.2562 569.794L58.4702 580.23L71.9973 568.752L62.5487 561.909Z" fill="url(#paint0_linear_999_4148)"/>
<path d="M71.9965 568.754L58.4694 580.232L58.8699 587.879C58.9676 589.743 61.159 590.689 62.5828 589.481L80.4528 574.318C81.8767 573.11 81.3003 570.794 79.4763 570.394L71.9965 568.754Z" fill="#4583A6"/>
<path d="M71.9965 568.754L58.4694 580.232L58.8699 587.879C58.9676 589.743 61.159 590.689 62.5828 589.481L80.4528 574.318C81.8767 573.11 81.3003 570.794 79.4763 570.394L71.9965 568.754Z" fill="url(#paint1_linear_999_4148)"/>
<path d="M62.6414 552.711C62.661 550.778 60.3995 549.717 58.9255 550.968L43.0496 564.439C41.5757 565.69 42.2543 568.094 44.1646 568.389L53.2557 569.795L62.5482 561.91L62.6414 552.711Z" fill="#4583A6"/>
<path d="M62.6414 552.711C62.661 550.778 60.3995 549.717 58.9255 550.968L43.0496 564.439C41.5757 565.69 42.2543 568.094 44.1646 568.389L53.2557 569.795L62.5482 561.91L62.6414 552.711Z" fill="url(#paint2_linear_999_4148)"/>
<path fill-rule="evenodd" clip-rule="evenodd" d="M79.8508 587.428L73.6348 580.103L69.4002 583.696L72.4209 587.256C72.4209 587.256 73.3669 588.333 76.1601 588.76C78.9534 589.187 79.8508 587.428 79.8508 587.428Z" fill="#8F8F8F"/>
<path fill-rule="evenodd" clip-rule="evenodd" d="M79.8508 587.428L73.6348 580.103L69.4002 583.696L72.4209 587.256C72.4209 587.256 73.3669 588.333 76.1601 588.76C78.9534 589.187 79.8508 587.428 79.8508 587.428Z" fill="url(#paint3_linear_999_4148)"/>
<path fill-rule="evenodd" clip-rule="evenodd" d="M55.8539 814.903C50.9671 816.419 46.1195 817.876 41.2795 819.534C40.2369 819.886 39.6842 821.011 40.038 822.045C40.3909 823.088 41.5228 823.642 42.5575 823.288C47.372 821.643 52.1782 820.197 57.0315 818.693C58.0791 818.365 58.6626 817.252 58.3413 816.214C58.013 815.166 56.9015 814.575 55.8539 814.903Z" fill="black"/>
<path fill-rule="evenodd" clip-rule="evenodd" d="M86.8975 843.659C78.3936 857.409 70.5899 871.581 62.3849 885.504C61.8296 886.452 62.1456 887.666 63.0857 888.22C64.0337 888.775 65.2466 888.467 65.8098 887.52C73.9961 873.619 81.7809 859.469 90.2731 845.749C90.8511 844.812 90.5599 843.593 89.6306 843.016C88.6934 842.438 87.4745 842.729 86.8975 843.659Z" fill="black"/>
<path fill-rule="evenodd" clip-rule="evenodd" d="M144.175 854.473C144.695 868.131 145.597 881.795 145.965 895.459C146 896.55 146.91 897.413 148.001 897.386C149.1 897.36 149.963 896.441 149.936 895.351C149.563 881.67 148.662 867.99 148.136 854.315C148.093 853.223 147.174 852.367 146.081 852.41C144.981 852.452 144.133 853.372 144.175 854.473Z" fill="black"/>
<g filter="url(#filter2_d_999_4148)">
<rect x="129.826" y="34.1641" width="240.527" height="240.527" transform="rotate(13.911 129.826 34.1641)" fill="#646FD4"/>
</g>
<g filter="url(#filter3_f_999_4148)">
<ellipse cx="171.843" cy="53.8901" rx="3.48998" ry="15.3776" transform="rotate(23.9889 171.843 53.8901)" fill="#393939" fill-opacity="0.1"/>
</g>
<path d="M146.696 47.5392L158.065 43.1508L164.736 52.7222L148.186 59.1103L146.696 47.5392Z" fill="#FFB411"/>
<path d="M146.696 47.5392L158.065 43.1508L164.736 52.7222L148.186 59.1103L146.696 47.5392Z" fill="url(#paint4_linear_999_4148)"/>
<path d="M148.187 59.111L164.738 52.7229L171.261 56.7327C172.852 57.7105 172.635 60.0873 170.892 60.7598L149.028 69.1988C147.286 69.8712 145.528 68.2571 146.049 66.464L148.187 59.111Z" fill="#FFB411"/>
<path d="M148.187 59.111L164.738 52.7229L171.261 56.7327C172.852 57.7105 172.635 60.0873 170.892 60.7598L149.028 69.1988C147.286 69.8712 145.528 68.2571 146.049 66.464L148.187 59.111Z" fill="url(#paint5_linear_999_4148)"/>
<path d="M138.574 43.221C136.867 42.3135 137.017 39.82 138.821 39.1239L158.245 31.6266C160.048 30.9305 161.835 32.6764 161.18 34.4954L158.066 43.1511L146.696 47.5395L138.574 43.221Z" fill="#FFB411"/>
<path d="M138.574 43.221C136.867 42.3135 137.017 39.82 138.821 39.1239L158.245 31.6266C160.048 30.9305 161.835 32.6764 161.18 34.4954L158.066 43.1511L146.696 47.5395L138.574 43.221Z" fill="url(#paint6_linear_999_4148)"/>
<path fill-rule="evenodd" clip-rule="evenodd" d="M160.829 74.9417L157.369 65.9785L162.55 63.9788L164.231 68.3343C164.231 68.3343 164.725 69.6804 163.764 72.3377C162.803 74.9951 160.829 74.9417 160.829 74.9417Z" fill="#8F8F8F"/>
<path fill-rule="evenodd" clip-rule="evenodd" d="M160.829 74.9417L157.369 65.9785L162.55 63.9788L164.231 68.3343C164.231 68.3343 164.725 69.6804 163.764 72.3377C162.803 74.9951 160.829 74.9417 160.829 74.9417Z" fill="url(#paint7_linear_999_4148)"/>
<path fill-rule="evenodd" clip-rule="evenodd" d="M95.9877 54.3979C90.9072 52.9722 85.5882 52.253 80.4284 51.5941C79.317 51.456 78.2852 52.2268 78.2058 53.3128C78.0471 54.3995 78.8413 55.3934 79.8733 55.5315C84.8744 56.1657 90.0337 56.8444 94.876 58.217C95.908 58.5146 97.0198 57.9018 97.3373 56.8476C97.6549 55.7942 97.0196 54.6964 95.9877 54.3979Z" fill="black"/>
<path fill-rule="evenodd" clip-rule="evenodd" d="M111.387 34.1857C103.211 25.8419 94.0026 18.5721 85.9851 10.0044C85.2706 9.20421 84.0005 9.16134 83.2067 9.90832C82.4129 10.6561 82.3338 11.9135 83.1276 12.7137C91.1452 21.306 100.353 28.5996 108.53 36.968C109.324 37.7492 110.593 37.7603 111.387 36.9918C112.102 36.2242 112.181 34.9668 111.387 34.1857Z" fill="black"/>
<path fill-rule="evenodd" clip-rule="evenodd" d="M126.708 2.09232C126.946 6.86793 127.184 11.6435 127.422 16.42C127.422 17.5138 128.375 18.3585 129.487 18.3053C130.598 18.2513 131.391 17.3202 131.391 16.2255C131.153 11.4419 130.915 6.65916 130.677 1.8764C130.598 0.782513 129.645 -0.0565542 128.534 0.00298224C127.502 0.0625187 126.629 0.999228 126.708 2.09232Z" fill="black"/>
<path d="M572.414 811.514C569.684 813.317 563.943 817.025 562.813 817.437C560.837 819.497 556.036 824.545 552.648 828.253C548.412 832.888 549.824 849.627 548.695 859.67C547.565 869.714 554.907 878.727 559.425 881.817C563.943 884.908 569.308 890.058 569.308 894.693V907.054H634.536C635.383 891.088 637.02 857.61 636.795 851.43C636.569 845.249 632.747 839.24 630.865 837.009C631.147 835.206 631.542 830.571 630.865 826.45C630.187 822.33 627.382 819.755 626.064 818.982C625.97 817.866 625.556 814.81 624.653 811.514C623.749 808.218 619.382 805.677 617.311 804.818C616.652 803.617 614.657 800.286 611.946 796.578C608.557 791.942 601.781 791.685 593.874 792.715C585.968 793.745 578.344 798.638 574.955 803.016C572.244 806.518 572.132 810.14 572.414 811.514Z" fill="#DA9267"/>
<path d="M574.108 795.032L561.119 762.585C562.625 760.868 566.089 757.022 567.896 755.374C570.155 753.314 581.168 745.073 587.944 747.648C594.721 750.224 595.851 750.481 602.063 747.648C607.033 745.382 614.864 739.15 618.158 736.317L613.923 757.434C617.782 757.949 626.968 758.979 632.842 758.979C626.629 769.023 616.464 774.688 608.558 777.521C600.651 780.354 597.827 776.233 593.027 778.808C589.187 780.869 578.814 790.483 574.108 795.032Z" fill="#FC5353"/>
<path fill-rule="evenodd" clip-rule="evenodd" d="M616.785 734.048C616.104 734.165 614.239 735.74 612.041 738.054C611.265 738.871 610.059 739.93 609.36 740.407C606.941 742.058 606.708 742.24 605.45 743.457C604.755 744.13 604.032 744.68 603.843 744.68C603.654 744.68 603.332 744.864 603.128 745.088C602.704 745.554 597.479 747.879 596.286 748.134C595.722 748.254 595.264 748.152 594.689 747.779C594.246 747.491 593.783 747.256 593.66 747.256C593.537 747.256 593.107 746.967 592.704 746.615C591.719 745.755 589.531 745.352 585.965 745.375C581.699 745.403 577.648 746.682 573.747 749.235C573.03 749.704 572.299 750.088 572.124 750.088C571.948 750.088 571.804 750.2 571.804 750.336C571.804 750.595 568.617 752.663 568.218 752.663C568.092 752.663 567.58 753.069 567.081 753.565C566.583 754.061 566.072 754.466 565.947 754.466C565.822 754.466 564.845 755.277 563.777 756.269C562.709 757.26 561.709 758.071 561.555 758.071C560.814 758.071 556.74 762.004 556.021 763.413L555.345 764.738L556.1 766.146C556.516 766.92 556.826 767.651 556.789 767.77C556.699 768.063 557.405 769.925 557.847 770.561C558.044 770.844 558.349 771.598 558.526 772.235C558.703 772.872 559.022 773.742 559.234 774.167C559.446 774.591 559.71 775.287 559.821 775.712C559.932 776.137 560.115 776.6 560.229 776.742C560.342 776.883 560.696 777.695 561.015 778.544C561.334 779.394 562.126 781.248 562.775 782.665C563.425 784.081 563.984 785.534 564.019 785.893C564.054 786.252 564.475 787.251 564.956 788.113C565.436 788.975 566.107 790.535 566.446 791.58C566.785 792.625 567.157 793.596 567.271 793.738C567.386 793.88 567.765 794.865 568.115 795.927C568.465 796.989 569.056 798.439 569.43 799.15C569.804 799.86 570.11 800.647 570.11 800.9C570.11 801.152 570.428 801.903 570.816 802.568C571.586 803.887 571.649 804.205 571.273 804.88C570.427 806.395 570.276 806.973 570.265 808.744L570.251 810.713L568.698 811.206C567.051 811.729 566.183 812.263 562.435 815.066C559.168 817.508 556.426 820.001 555.394 821.468C554.914 822.151 554.355 822.709 554.152 822.709C553.949 822.709 553.498 823.26 553.15 823.932C552.802 824.605 552.306 825.387 552.048 825.671C551.79 825.954 551.348 826.707 551.067 827.345C550.786 827.982 550.391 828.851 550.19 829.276C549.484 830.77 548.621 834.104 548.202 836.954C547.969 838.538 547.647 840.707 547.485 841.773C547.324 842.838 547.211 844.577 547.235 845.635C547.259 846.694 547.223 849.24 547.156 851.294C546.983 856.533 546.949 861.328 547.079 862.239C547.563 865.648 547.918 867.612 548.288 868.934C548.793 870.742 548.781 870.693 549.048 872.025C549.257 873.065 549.55 873.81 550.21 874.986C551.549 877.371 552.098 878.17 552.932 878.94C553.45 879.419 554.434 880.415 555.119 881.154C555.803 881.893 556.629 882.591 556.954 882.705C557.632 882.942 560.419 884.561 561.126 885.129C561.387 885.338 561.959 885.719 562.397 885.973C562.834 886.228 563.354 886.636 563.551 886.879C563.749 887.123 564.072 887.472 564.269 887.656C564.957 888.299 565.977 890.577 566.206 891.982C566.797 895.603 567 898.07 567.001 901.64C567.003 906.674 567.124 907.657 567.818 908.291C568.374 908.797 568.688 908.807 581.743 908.742C589.089 908.705 595.672 908.679 596.371 908.684C597.07 908.689 603.55 908.756 610.772 908.833C633.175 909.072 635.199 909.065 635.85 908.747C637.201 908.088 637.207 908.013 637.454 890.437C637.528 885.126 637.657 879.911 637.74 878.849C637.893 876.9 637.998 874.809 638.304 867.518C638.396 865.323 638.595 862.252 638.746 860.694C639.172 856.308 639.053 850.956 638.458 847.689C638.316 846.91 638.196 845.703 638.19 845.006C638.185 844.31 638.049 843.62 637.889 843.474C637.728 843.328 637.597 843.056 637.597 842.871C637.597 842.231 635.427 838.156 634.678 837.39C634.264 836.966 633.926 836.445 633.926 836.231C633.926 836.018 633.787 835.843 633.617 835.843C633.406 835.843 633.376 835.416 633.521 834.491C633.808 832.669 633.695 827.655 633.353 827.073C633.202 826.816 633.079 826.363 633.079 826.065C633.079 825.768 632.758 824.947 632.366 824.241C631.582 822.831 628.642 819.361 628.23 819.361C628.088 819.361 627.999 819.217 628.033 819.04C628.16 818.38 627.637 814.713 627.398 814.579C627.261 814.501 627.149 814.2 627.149 813.909C627.149 813.451 626.532 812.153 625.7 810.863C625.563 810.651 625.298 810.187 625.11 809.833C624.724 809.104 622.965 807.29 620.617 805.198C619.259 803.99 618.997 803.602 618.835 802.564C618.731 801.895 618.542 801.289 618.416 801.218C618.29 801.146 617.901 800.393 617.553 799.542C616.451 796.856 612.981 793.739 609.271 792.103C607.263 791.218 606.477 791.03 603.289 790.672C598.73 790.16 597.95 790.161 594.959 790.675C593.639 790.902 592.178 791.142 591.712 791.207C591.246 791.273 590.61 791.427 590.3 791.549C589.989 791.671 589.227 791.908 588.606 792.075C587.619 792.341 584.915 793.466 583.664 794.13C583.431 794.253 582.573 794.646 581.758 795.002C580.571 795.519 580.276 795.572 580.276 795.264C580.276 795.052 580.082 794.609 579.844 794.279C579.226 793.418 579.616 792.735 581.804 790.841C582.827 789.956 583.664 789.157 583.664 789.064C583.664 788.931 589.793 783.427 591.408 782.109C591.609 781.945 592.331 781.553 593.013 781.238C593.695 780.922 594.316 780.586 594.394 780.491C594.696 780.122 597.41 779.507 598.347 779.596C599.71 779.724 602.722 780.142 604.418 780.437C605.828 780.683 606.527 780.646 608.654 780.217C612.9 779.36 614.147 779.034 615.147 778.518C615.769 778.197 616.666 777.768 617.141 777.565C617.616 777.362 618.378 776.875 618.835 776.483C619.292 776.091 619.995 775.583 620.397 775.354C622.656 774.07 627.665 769.629 629.19 767.56C629.571 767.042 630.268 766.173 630.738 765.628C631.209 765.084 631.998 763.944 632.493 763.095C632.988 762.246 633.618 761.319 633.894 761.034C634.722 760.182 635.62 758.595 635.62 757.985C635.62 757.671 635.241 757.035 634.778 756.573L633.936 755.732L626.467 755.834C618.012 755.949 616.808 755.856 616.912 755.099C616.95 754.822 617.037 754.189 617.104 753.694C617.172 753.198 617.424 752.291 617.665 751.678C617.906 751.066 618.183 750.023 618.28 749.361C618.377 748.699 618.518 748.063 618.594 747.949C618.67 747.835 618.774 747.487 618.825 747.176C619.117 745.433 619.309 744.509 619.452 744.165C619.541 743.953 619.649 743.41 619.693 742.96C619.737 742.509 619.951 741.814 620.168 741.415C620.438 740.917 620.555 739.807 620.538 737.883L620.513 735.077L619.525 734.624C618.297 734.06 617.585 733.91 616.785 734.048ZM614.693 744.102C614.498 744.916 614.365 745.677 614.398 745.795C614.43 745.912 614.212 746.665 613.911 747.469C613.611 748.272 613.214 749.625 613.028 750.475C612.843 751.324 612.461 752.773 612.18 753.694C611.517 755.865 611.24 757.858 611.469 758.808C611.698 759.761 612.803 760.234 614.038 759.908C614.593 759.762 615.569 759.793 616.755 759.997C617.948 760.201 620.471 760.282 623.855 760.224L629.104 760.134L627.35 762.514C626.385 763.823 624.679 765.747 623.559 766.789C622.438 767.83 621.451 768.886 621.365 769.134C621.278 769.382 620.765 769.802 620.223 770.068C619.682 770.334 619.174 770.727 619.095 770.943C618.932 771.383 616.421 773.008 615.903 773.008C615.719 773.008 615.292 773.297 614.954 773.651C614.617 774.006 614.205 774.296 614.039 774.297C613.872 774.298 613.381 774.468 612.947 774.674C612.113 775.071 609.823 775.606 606.89 776.09C605.437 776.33 604.965 776.314 604.208 776.001C602.882 775.453 598.788 775.178 595.806 775.436C594.667 775.535 591.133 776.941 590.3 777.627C589.989 777.883 589.56 778.141 589.346 778.201C588.687 778.384 579.315 786.657 578.251 787.994C577.782 788.584 577.776 788.584 577.342 788.073C577.102 787.789 576.901 787.304 576.896 786.993C576.891 786.683 576.76 786.358 576.605 786.27C576.449 786.182 576.322 785.851 576.322 785.534C576.322 785.216 576.211 784.846 576.074 784.712C575.937 784.577 575.669 784.004 575.478 783.437C575.287 782.871 574.976 782.175 574.787 781.892C574.598 781.609 574.278 780.798 574.075 780.089C573.871 779.381 573.543 778.561 573.345 778.267C573.147 777.973 572.781 777.104 572.532 776.335C572.282 775.567 571.769 774.36 571.39 773.651C570.664 772.294 570.311 771.502 570.242 771.076C570.133 770.408 569.739 769.2 569.403 768.501C569.199 768.076 568.882 767.207 568.698 766.57C568.515 765.932 568.201 765.063 568 764.638C567.799 764.213 567.384 763.344 567.078 762.707C566.772 762.069 566.444 761.175 566.348 760.72C566.186 759.946 566.285 759.814 567.854 758.713C568.778 758.065 569.885 757.234 570.316 756.867C571.671 755.71 575.527 753.179 575.933 753.179C576.147 753.179 576.322 753.082 576.322 752.963C576.322 752.845 576.99 752.432 577.805 752.046C578.62 751.659 579.478 751.243 579.711 751.12C581.234 750.318 582.961 749.833 584.836 749.682C587.639 749.455 589.275 749.693 590.272 750.475C590.713 750.82 591.343 751.181 591.67 751.276C591.998 751.371 592.586 751.66 592.977 751.92C594.079 752.65 597.223 752.647 599.194 751.913C601.976 750.878 603.728 750.048 605.005 749.158C605.694 748.678 606.38 748.286 606.528 748.286C606.677 748.286 606.935 748.054 607.101 747.771C607.267 747.487 607.543 747.256 607.714 747.256C607.885 747.256 608.304 746.995 608.645 746.676C609.944 745.464 612.919 743.048 613.595 742.656C613.984 742.431 614.427 742.07 614.58 741.854C615.039 741.208 615.099 742.404 614.693 744.102ZM603.625 795.051C605.076 795.169 606.361 795.458 607.383 795.896C609.203 796.677 612.053 799.166 612.976 800.782L613.617 801.903L612.406 801.774C611.74 801.703 610.856 801.592 610.441 801.528C609.77 801.423 608.885 801.514 606.536 801.929C606.148 801.998 604.65 802.199 603.209 802.377C601.767 802.555 600.52 802.798 600.439 802.919C600.357 803.039 600.074 803.138 599.809 803.138C599.544 803.138 598.855 803.368 598.278 803.65C597.702 803.932 596.941 804.141 596.588 804.115C596.236 804.089 595.185 804.395 594.253 804.795C593.321 805.195 591.804 805.848 590.881 806.246C589.959 806.645 589.12 806.923 589.016 806.864C588.913 806.806 588.76 805.846 588.676 804.73C588.495 802.32 588.038 801.4 586.142 799.622L584.727 798.295L585.396 797.969C585.763 797.789 586.093 797.657 586.129 797.674C586.164 797.691 587.181 797.302 588.388 796.809C589.595 796.316 590.836 795.809 591.147 795.684C592.972 794.945 599.451 794.275 600.801 794.685C601.142 794.788 602.413 794.953 603.625 795.051ZM582.949 802.76C583.82 803.554 583.946 803.83 583.946 804.933V806.196L582.605 806.357C580.69 806.587 578.4 807.116 576.622 807.738C575.777 808.034 575.025 808.22 574.95 808.152C574.736 807.957 576.082 805.421 576.947 804.388C577.38 803.872 577.734 803.325 577.734 803.172C577.734 802.765 579.989 801.87 581.043 801.86C581.714 801.853 582.211 802.087 582.949 802.76ZM612.607 806.333C612.918 806.502 613.744 806.8 614.443 806.994C615.141 807.188 615.834 807.443 615.981 807.56C616.129 807.677 616.456 807.773 616.709 807.773C617.18 807.773 617.478 808.014 618.944 809.576C620.848 811.605 622.355 813.953 622.785 815.561C622.998 816.358 622.93 816.362 619.808 815.763C617.972 815.41 613.594 815.386 612.352 815.721C611.871 815.851 610.525 816.1 609.36 816.275C607.863 816.5 606.331 816.999 604.134 817.977C600.81 819.458 600.344 819.579 600.289 818.975C600.23 818.337 600.197 818.238 599.717 817.301C599.464 816.806 598.904 815.705 598.472 814.855C598.041 814.005 597.611 813.252 597.517 813.181C597.423 813.11 597.117 812.724 596.837 812.323C596.557 811.922 595.891 811.153 595.358 810.615L594.389 809.637L595.368 809.213C595.906 808.98 596.417 808.685 596.503 808.558C596.589 808.432 597.071 808.25 597.574 808.156C598.077 808.061 599.251 807.768 600.183 807.504C604.068 806.405 604.865 806.226 606.024 806.198C606.694 806.181 607.623 806.076 608.089 805.965C609.164 805.709 611.867 805.929 612.607 806.333ZM588.182 811.226C588.57 811.551 589.608 812.185 590.489 812.635C592.616 813.722 594.49 816.265 595.824 819.877C596.165 820.797 596.562 821.759 596.707 822.014C596.852 822.269 597.031 822.964 597.105 823.559C597.179 824.154 597.431 825.016 597.664 825.475C598.088 826.309 597.848 827.345 597.231 827.345C596.754 827.345 594.148 830.9 593.994 831.76C593.568 834.151 593.57 834.817 594.017 836.855C594.283 838.069 594.658 839.236 594.849 839.448C595.04 839.661 595.289 840.17 595.401 840.58C595.513 840.99 595.783 841.511 596.001 841.739C597.099 842.887 598.354 844.421 598.263 844.503C598.033 844.713 595.208 843.773 594.748 843.333C594.476 843.073 593.971 842.781 593.625 842.684C593.28 842.587 592.42 841.891 591.713 841.137C591.007 840.383 589.987 839.339 589.447 838.816C588.907 838.294 588.464 837.749 588.464 837.606C588.464 837.463 588.029 836.747 587.497 836.015C586.966 835.283 586.444 834.365 586.337 833.976C586.231 833.586 586.04 833.268 585.913 833.268C585.786 833.268 585.343 832.635 584.928 831.862C584.513 831.089 583.996 830.322 583.778 830.157C583.56 829.992 583.382 829.743 583.382 829.603C583.382 829.464 582.976 828.883 582.479 828.311C581.983 827.739 581.379 826.918 581.138 826.487C580.526 825.392 579.432 825.114 578.092 825.714C576.63 826.368 576.28 827.502 577.119 828.864C577.452 829.403 577.648 829.913 577.555 829.997C577.463 830.081 577.656 830.462 577.984 830.842C578.313 831.223 578.581 831.69 578.581 831.88C578.581 832.344 580.113 834.915 581.269 836.392C581.783 837.048 582.394 837.917 582.627 838.323C582.86 838.729 583.467 839.447 583.976 839.918C584.485 840.389 585.141 841.374 585.434 842.107C586.361 844.426 587.378 847.988 587.22 848.363C587.136 848.561 587.198 849.331 587.357 850.073C587.825 852.259 587.73 857.991 587.21 858.899C586.97 859.32 586.773 859.917 586.772 860.228C586.771 860.538 586.654 860.857 586.512 860.937C586.371 861.017 586.172 861.526 586.072 862.067C585.871 863.153 585.37 864.535 584.888 865.329C584.4 866.135 584.647 867.452 585.396 868.039C586.814 869.149 589.302 868.119 589.763 866.23C589.849 865.876 590.068 865.311 590.248 864.973C590.428 864.636 590.537 864.088 590.489 863.755C590.441 863.422 590.601 862.89 590.845 862.572C591.089 862.255 591.288 861.826 591.288 861.62C591.288 860.929 592.476 857.217 592.697 857.217C592.817 857.217 593.055 857.722 593.225 858.339C593.395 858.956 593.919 860.127 594.388 860.941C594.857 861.754 595.241 862.511 595.241 862.623C595.241 862.735 594.699 863.39 594.036 864.078C593.374 864.766 592.527 865.908 592.155 866.617C591.783 867.325 591.118 868.389 590.678 868.981C590.237 869.573 589.876 870.241 589.876 870.465C589.876 870.689 589.769 871.074 589.638 871.32C588.443 873.567 588.181 874.139 588.181 874.496C588.182 874.722 587.96 875.301 587.689 875.783C587.008 876.993 587.031 879.146 587.732 879.852C588.642 880.769 590.648 880.402 591.257 879.207C591.754 878.231 592.632 876.022 592.833 875.244C593.042 874.431 593.524 873.484 593.812 873.322C593.977 873.229 594.112 872.942 594.112 872.684C594.112 872.122 596.272 868.171 596.796 867.774C597.085 867.556 597.269 867.791 597.646 868.859C597.912 869.609 598.296 870.466 598.5 870.764C598.704 871.062 598.921 871.641 598.981 872.052C599.041 872.462 599.304 873.246 599.566 873.794C599.828 874.343 600.042 874.927 600.042 875.092C600.042 875.257 600.296 875.847 600.606 876.402C600.917 876.958 601.171 877.613 601.171 877.858C601.171 878.103 601.284 878.367 601.422 878.445C601.56 878.523 601.76 878.902 601.866 879.288C602.346 881.031 603.136 882.138 604.266 882.648C605.502 883.205 606.389 883.192 608.702 882.58C610.386 882.135 612.276 880.423 612.572 879.075C612.875 877.692 612.762 875.918 612.323 875.15C612.091 874.744 611.901 874.244 611.901 874.039C611.901 873.833 611.587 873.039 611.203 872.273C610.818 871.506 610.423 870.586 610.324 870.226C610.225 869.867 610.031 869.51 609.893 869.432C609.755 869.354 609.642 869.131 609.642 868.936C609.642 868.741 609.496 868.255 609.317 867.857C609.138 867.458 608.947 866.923 608.892 866.667C608.838 866.412 608.604 865.867 608.371 865.457C608.138 865.047 607.948 864.491 607.948 864.221C607.948 863.952 607.657 863.222 607.301 862.599C606.945 861.976 606.44 860.959 606.18 860.339C605.717 859.238 605.721 859.194 606.333 858.485C606.678 858.085 607.203 857.681 607.5 857.586C607.798 857.491 608.331 857.099 608.685 856.715C609.148 856.214 609.789 855.932 610.968 855.711C611.87 855.542 613.751 854.897 615.148 854.277C619.082 852.534 621.483 851.552 621.813 851.552C621.979 851.552 622.863 851.015 623.779 850.359C625.031 849.462 625.487 848.956 625.618 848.317C625.99 846.507 624.158 845.189 622.427 846.022C621.996 846.229 621.198 846.574 620.655 846.789C620.111 847.003 619.235 847.467 618.707 847.82C618.179 848.173 617.401 848.461 616.977 848.461C616.553 848.461 616.057 848.626 615.874 848.826C615.691 849.027 614.518 849.492 613.266 849.861C612.014 850.229 610.669 850.76 610.278 851.041C609.884 851.323 609.136 851.552 608.602 851.552C607.647 851.552 607.643 851.547 608.128 850.972C608.397 850.654 609.208 849.929 609.93 849.363C610.652 848.796 611.38 848.101 611.547 847.818C612.71 845.85 612.8 845.494 612.665 843.381C612.51 840.956 611.948 839.847 610.175 838.462C609.01 837.553 608.756 836.703 609.572 836.44C609.843 836.353 610.32 836.081 610.63 835.837C611.236 835.361 614.707 834.04 615.352 834.04C615.566 834.04 615.901 833.895 616.096 833.718C616.634 833.229 621.053 833.378 622.399 833.932C622.992 834.176 623.478 834.474 623.478 834.594C623.478 834.714 623.738 834.813 624.056 834.813C624.374 834.813 624.939 835.091 625.312 835.431C625.684 835.771 626.822 836.54 627.84 837.141C629.006 837.829 629.691 838.406 629.691 838.702C629.691 838.961 629.939 839.294 630.243 839.442C630.906 839.766 632.716 842.64 633.222 844.174C634.026 846.61 634.648 857.426 634.128 859.921C634.01 860.488 633.851 862.747 633.775 864.943C633.698 867.138 633.577 869.63 633.504 870.479C633.431 871.329 633.313 873.299 633.24 874.857C633.167 876.415 633.024 879.312 632.922 881.295C632.82 883.278 632.726 888.725 632.713 893.399C632.7 898.073 632.637 902.575 632.574 903.403L632.459 904.909L628.463 904.713C624.713 904.529 622.201 904.496 616.419 904.554C604.386 904.675 571.798 904.427 571.766 904.215C571.745 904.073 571.684 902.045 571.631 899.708C571.53 895.215 571.494 894.846 570.844 891.596C570.361 889.184 569.988 887.804 569.686 887.313C569.117 886.387 567.404 884.118 567.216 884.042C567.1 883.995 567.003 883.821 567.002 883.656C567.001 883.491 566.496 883.093 565.881 882.773C564.045 881.817 561.074 879.857 561.074 879.602C561.074 879.471 560.767 879.364 560.39 879.364C559.473 879.364 558.092 878.263 556.929 876.605C556.404 875.856 555.851 875.244 555.7 875.244C555.55 875.244 555.427 875.123 555.427 874.975C555.427 874.828 555.059 873.988 554.609 873.108C553.84 871.605 553.366 870.084 552.627 866.745C552.455 865.966 552.237 865.039 552.144 864.685C551.953 863.959 551.753 860.702 551.757 858.376C551.759 857.526 551.759 855.904 551.759 854.771C551.758 853.638 551.869 851.217 552.004 849.391C552.14 847.566 552.162 845.769 552.053 845.4C551.945 845.03 551.962 844.208 552.092 843.574C552.222 842.939 552.397 841.324 552.482 839.984C552.566 838.644 552.694 837.463 552.764 837.359C552.924 837.123 553.454 834.693 553.576 833.634C553.626 833.198 554 832.271 554.406 831.575C554.812 830.88 555.144 830.211 555.144 830.09C555.144 829.97 555.383 829.563 555.674 829.187C555.966 828.811 556.5 827.866 556.863 827.087C557.441 825.845 558.849 824.159 562.028 820.902C562.514 820.404 563.42 819.716 564.04 819.372C564.661 819.028 565.649 818.316 566.235 817.79C567.425 816.722 572.356 814.061 573.993 813.603C574.575 813.44 575.369 813.12 575.758 812.891C576.362 812.536 577.713 812.022 580.134 811.225C580.445 811.123 580.796 811.058 580.913 811.081C581.031 811.104 581.667 810.999 582.325 810.848C582.984 810.696 583.904 810.486 584.37 810.38C585.531 810.115 587.331 810.515 588.182 811.226ZM618.753 819.979C620.599 820.092 621.239 820.263 622.805 821.061C624.552 821.952 626.867 823.817 626.867 824.333C626.867 824.461 627.229 825.055 627.671 825.652C628.113 826.25 628.572 827.078 628.69 827.492C628.973 828.49 629.09 831.359 628.86 831.698C628.747 831.864 627.622 831.524 625.867 830.793C624.32 830.148 622.292 829.472 621.361 829.292C619.675 828.964 616.838 828.937 616.502 829.244C616.404 829.332 615.926 829.405 615.439 829.405C614.952 829.405 613.503 829.868 612.218 830.435C610.933 831.001 609.755 831.465 609.598 831.465C609.442 831.465 608.625 831.883 607.781 832.393C606.174 833.366 605.407 833.395 605.407 832.482C605.407 832.182 605.041 831.165 604.595 830.221C604.148 829.276 603.429 827.495 602.996 826.262C602.092 823.685 602.133 823.568 604.229 822.711C604.955 822.415 606.315 821.83 607.253 821.411C608.191 820.992 609.272 820.649 609.655 820.649C610.038 820.649 610.796 820.522 611.338 820.366C612.336 820.079 615.758 819.678 616.278 819.787C616.433 819.819 617.547 819.906 618.753 819.979ZM600.296 832.123C600.622 832.627 600.889 833.301 600.889 833.619C600.889 833.938 601.075 834.424 601.303 834.699C601.531 834.974 601.722 835.611 601.727 836.113C601.732 836.616 601.879 837.158 602.054 837.318C602.328 837.567 602.46 841.191 602.204 841.425C602.157 841.468 601.747 841.17 601.292 840.765C598.881 838.614 597.615 833.98 598.909 832.044C599.217 831.584 599.521 831.207 599.586 831.207C599.65 831.207 599.97 831.62 600.296 832.123ZM607.591 842.088C608.06 842.632 608.181 843.913 607.845 844.763C607.576 845.441 604.926 847.946 604.477 847.946C604.4 847.946 603.936 848.288 603.446 848.706C602.281 849.698 601.453 849.935 601.023 849.398C600.841 849.171 600.617 849.052 600.527 849.135C600.436 849.218 600.204 849.197 600.012 849.088C599.567 848.838 600.708 848.414 601.284 848.616C601.501 848.692 601.762 848.632 601.863 848.482C601.975 848.316 601.876 848.27 601.609 848.363C600.701 848.681 601.221 848.199 602.512 847.527C604.435 846.526 605.319 845.567 606.182 843.545C606.966 841.705 607.123 841.544 607.591 842.088Z" fill="black"/>
<path d="M243.476 679.564C240.757 689.885 234.679 698.822 225.964 705.314C217.249 711.805 206.264 715.578 194.313 716.183C182.362 716.79 169.948 714.203 158.545 708.732C147.143 703.26 137.232 695.134 129.989 685.317C122.747 675.502 118.477 664.408 117.688 653.356C116.898 642.304 119.623 631.757 125.536 622.969C131.45 614.181 140.305 607.521 151.05 603.78C161.794 600.039 173.976 599.374 186.148 601.865" stroke="black" stroke-linecap="round" stroke-linejoin="round"/>
<path d="M206.845 675.006C204.433 678.5 200.998 681.254 196.851 683.019C192.704 684.783 187.976 685.504 183.094 685.114C178.213 684.724 173.332 683.237 168.892 680.787C164.453 678.337 160.595 675.001 157.669 671.081C154.742 667.161 152.838 662.781 152.129 658.336C151.421 653.891 151.93 649.522 153.61 645.624C155.29 641.727 158.089 638.423 161.754 636.011C165.418 633.6 169.832 632.158 174.597 631.814" stroke="black" stroke-linecap="round" stroke-linejoin="round"/>
<path d="M181.315 656.589L209.129 641.769" stroke="black" stroke-linecap="round" stroke-linejoin="round"/>
<path d="M227.833 647.088L209.13 637.627L207.116 619.274L229.367 607.418L231.381 625.771L250.084 635.232L227.833 647.088Z" stroke="black" stroke-linecap="round" stroke-linejoin="round"/>
<g filter="url(#filter4_d_999_4148)">
<rect x="416" y="316.359" width="240.527" height="240.527" transform="rotate(-13.2298 416 316.359)" fill="#F7BF46"/>
</g>
<g filter="url(#filter5_f_999_4148)">
<ellipse cx="647.743" cy="282.813" rx="3.48998" ry="15.3776" transform="rotate(65.8202 647.743 282.813)" fill="#393939" fill-opacity="0.1"/>
</g>
<path d="M633.244 261.311L644.642 265.624L643.229 277.204L626.636 270.926L633.244 261.311Z" fill="#C42E1C"/>
<path d="M633.244 261.311L644.642 265.624L643.229 277.204L626.636 270.926L633.244 261.311Z" fill="url(#paint8_linear_999_4148)"/>
<path d="M626.635 270.925L643.227 277.203L645.414 284.542C645.947 286.332 644.199 287.957 642.453 287.297L620.533 279.003C618.787 278.342 618.553 275.967 620.138 274.978L626.635 270.925Z" fill="#C42E1C"/>
<path d="M626.635 270.925L643.227 277.203L645.414 284.542C645.947 286.332 644.199 287.957 642.453 287.297L620.533 279.003C618.787 278.342 618.553 275.967 620.138 274.978L626.635 270.925Z" fill="url(#paint9_linear_999_4148)"/>
<path d="M630.07 252.675C629.404 250.861 631.179 249.103 632.986 249.787L652.46 257.155C654.268 257.839 654.435 260.332 652.734 261.251L644.64 265.623L633.242 261.31L630.07 252.675Z" fill="#C42E1C"/>
<path d="M630.07 252.675C629.404 250.861 631.179 249.103 632.986 249.787L652.46 257.155C654.268 257.839 654.435 260.332 652.734 261.251L644.64 265.623L633.242 261.31L630.07 252.675Z" fill="url(#paint10_linear_999_4148)"/>
<path fill-rule="evenodd" clip-rule="evenodd" d="M625.496 291.154L628.896 282.168L634.091 284.133L632.438 288.5C632.438 288.5 631.908 289.832 629.42 291.171C626.932 292.51 625.496 291.154 625.496 291.154Z" fill="#8F8F8F"/>
<path fill-rule="evenodd" clip-rule="evenodd" d="M625.496 291.154L628.896 282.168L634.091 284.133L632.438 288.5C632.438 288.5 631.908 289.832 629.42 291.171C626.932 292.51 625.496 291.154 625.496 291.154Z" fill="url(#paint11_linear_999_4148)"/>
<g clip-path="url(#clip1_999_4148)">
<path d="M582.924 473.685V452.127H600.171C602.458 452.127 604.652 451.218 606.269 449.601C607.886 447.983 608.794 445.79 608.794 443.503V409.009C608.793 400.579 606.545 392.303 602.282 385.031C598.019 377.759 591.895 371.755 584.541 367.636C577.186 363.517 568.867 361.432 560.439 361.597C552.012 361.761 543.78 364.169 536.592 368.572C529.404 372.974 523.519 379.213 519.543 386.646C515.567 394.079 513.644 402.437 513.971 410.859C514.299 419.282 516.865 427.466 521.406 434.568C525.947 441.669 532.298 447.432 539.806 451.264V473.685" stroke="#030401" stroke-linecap="round" stroke-linejoin="round"/>
<path d="M553.956 382.581L555.898 377.677C556.226 376.847 556.802 376.133 557.552 375.628C558.301 375.124 559.189 374.852 560.099 374.85H563.803C564.713 374.852 565.601 375.124 566.351 375.628C567.1 376.133 567.677 376.847 568.004 377.677L569.947 382.581L576.542 386.292L581.872 385.497C582.76 385.379 583.663 385.522 584.468 385.908C585.272 386.293 585.941 386.904 586.39 387.662L588.196 390.755C588.66 391.525 588.873 392.414 588.809 393.306C588.744 394.197 588.405 395.048 587.835 395.747L584.537 399.856V407.278L587.925 411.387C588.495 412.086 588.834 412.937 588.899 413.828C588.964 414.719 588.75 415.609 588.287 416.379L586.48 419.472C586.031 420.23 585.362 420.84 584.558 421.226C583.754 421.611 582.85 421.755 581.963 421.637L576.632 420.841L570.037 424.552L568.095 429.456C567.767 430.287 567.191 431.001 566.441 431.506C565.692 432.01 564.804 432.281 563.894 432.284H560.099C559.189 432.281 558.301 432.01 557.552 431.506C556.802 431.001 556.226 430.287 555.898 429.456L553.956 424.552L547.36 420.841L542.03 421.637C541.142 421.755 540.239 421.611 539.435 421.226C538.63 420.84 537.961 420.23 537.513 419.472L535.706 416.379C535.243 415.609 535.029 414.719 535.094 413.828C535.158 412.937 535.498 412.086 536.067 411.387L539.365 407.278V399.856L535.977 395.747C535.407 395.048 535.068 394.197 535.003 393.306C534.939 392.414 535.152 391.525 535.615 390.755L537.422 387.662C537.871 386.904 538.54 386.293 539.344 385.908C540.149 385.522 541.052 385.379 541.94 385.497L547.27 386.292L553.956 382.581ZM552.917 403.567C552.917 405.314 553.446 407.023 554.439 408.476C555.432 409.929 556.843 411.061 558.494 411.73C560.145 412.399 561.961 412.574 563.714 412.233C565.466 411.892 567.076 411.051 568.34 409.815C569.603 408.579 570.464 407.005 570.812 405.291C571.161 403.577 570.982 401.8 570.298 400.185C569.614 398.571 568.456 397.191 566.971 396.22C565.485 395.249 563.738 394.731 561.951 394.731C559.555 394.731 557.257 395.662 555.563 397.319C553.868 398.976 552.917 401.223 552.917 403.567Z" stroke="#030401" stroke-linecap="round" stroke-linejoin="round"/>
</g>
<path d="M561.203 336.236V324.998" stroke="black" stroke-linecap="round" stroke-linejoin="round"/>
<path d="M595.219 350.031L603.381 343.574" stroke="black" stroke-linecap="round" stroke-linejoin="round"/>
<path d="M527.162 350.031L519 343.574" stroke="black" stroke-linecap="round" stroke-linejoin="round"/>
<path d="M263.006 97.5876V88" stroke="black" stroke-linecap="round" stroke-linejoin="round"/>
<path d="M292.023 109.356L298.987 103.848" stroke="black" stroke-linecap="round" stroke-linejoin="round"/>
<path d="M233.964 109.356L227 103.848" stroke="black" stroke-linecap="round" stroke-linejoin="round"/>
<path d="M284.202 138.867C284.246 125.693 274.351 114.731 262.662 115.005C250.974 115.279 241.492 126.694 242.021 139.855C242.362 148.326 246.959 156.285 253.695 160.064V171.75C253.711 172.441 253.966 173.097 254.405 173.58C254.844 174.062 255.433 174.332 256.047 174.331H270.154C270.768 174.332 271.357 174.062 271.796 173.58C272.235 173.097 272.49 172.441 272.506 171.75V159.861C279.453 155.963 284.106 147.613 284.202 138.867Z" stroke="black" stroke-linecap="round" stroke-linejoin="round"/>
<g clip-path="url(#clip2_999_4148)">
<path d="M208.892 244.321V225.928H223.607C225.558 225.928 227.429 225.153 228.809 223.773C230.188 222.393 230.964 220.522 230.964 218.571V189.142C230.962 181.951 229.044 174.89 225.408 168.686C221.771 162.482 216.546 157.359 210.272 153.845C203.997 150.331 196.9 148.553 189.71 148.693C182.52 148.834 175.497 150.888 169.364 154.644C163.232 158.4 158.211 163.723 154.819 170.064C151.427 176.405 149.786 183.535 150.066 190.721C150.345 197.907 152.534 204.889 156.408 210.948C160.282 217.007 165.701 221.923 172.107 225.193V244.321" stroke="#030401" stroke-linecap="round" stroke-linejoin="round"/>
<path d="M181.684 160C186.86 160 191.055 164.196 191.055 169.372L191.055 194.849C191.055 200.772 186.253 205.575 180.329 205.575C174.406 205.575 169.603 200.772 169.603 194.849C169.603 194.545 169.616 194.245 169.641 193.948C167.408 191.549 166 186.859 166 182.945C166 177.611 168.615 172.426 172.366 170.388C172.33 170.054 172.312 169.715 172.312 169.372C172.312 164.196 176.508 160 181.684 160Z" stroke="#030401" stroke-linecap="round" stroke-linejoin="round"/>
<path d="M177.316 176.758C175.94 176.444 172.822 174.399 172.352 170.412" stroke="#030401" stroke-linecap="round" stroke-linejoin="round"/>
<path d="M183.064 187.275C188.685 186.647 190.913 180.716 191.057 178.303" stroke="#030401" stroke-linecap="round" stroke-linejoin="round"/>
<path d="M172.507 188.324C171.107 189.43 169.991 191.935 169.629 193.942" stroke="#030401" stroke-linecap="round" stroke-linejoin="round"/>
<path d="M200.426 160C195.251 160 191.055 164.196 191.055 169.372L191.055 194.849C191.055 200.772 195.857 205.575 201.781 205.575C207.705 205.575 212.507 200.772 212.507 194.849C212.507 194.545 212.494 194.245 212.469 193.948C214.701 191.549 216.11 186.859 216.11 182.945C216.11 177.611 213.495 172.426 209.744 170.388C209.78 170.054 209.798 169.715 209.798 169.372C209.798 164.196 205.602 160 200.426 160Z" stroke="#030401" stroke-linecap="round" stroke-linejoin="round"/>
<path d="M204.793 176.758C206.169 176.444 209.287 174.399 209.758 170.412" stroke="#030401" stroke-linecap="round" stroke-linejoin="round"/>
<path d="M199.048 187.275C193.427 186.647 191.2 180.716 191.055 178.303" stroke="#030401" stroke-linecap="round" stroke-linejoin="round"/>
<path d="M209.604 188.324C211.003 189.43 212.12 191.935 212.481 193.942" stroke="#030401" stroke-linecap="round" stroke-linejoin="round"/>
</g>
<defs>
<filter id="filter0_d_999_4148" x="34.1861" y="504.628" width="305.972" height="309.147" filterUnits="userSpaceOnUse" color-interpolation-filters="sRGB">
<feFlood flood-opacity="0" result="BackgroundImageFix"/>
<feColorMatrix in="SourceAlpha" type="matrix" values="0 0 0 0 0 0 0 0 0 0 0 0 0 0 0 0 0 0 127 0" result="hardAlpha"/>
<feOffset dy="6.35055"/>
<feGaussianBlur stdDeviation="1.58764"/>
<feComposite in2="hardAlpha" operator="out"/>
<feColorMatrix type="matrix" values="0 0 0 0 0 0 0 0 0 0 0 0 0 0 0 0 0 0 0.25 0"/>
<feBlend mode="normal" in2="BackgroundImageFix" result="effect1_dropShadow_999_4148"/>
<feBlend mode="normal" in="SourceGraphic" in2="effect1_dropShadow_999_4148" result="shape"/>
</filter>
<filter id="filter1_f_999_4148" x="31.7406" y="574.313" width="48.7121" height="25.4318" filterUnits="userSpaceOnUse" color-interpolation-filters="sRGB">
<feFlood flood-opacity="0" result="BackgroundImageFix"/>
<feBlend mode="normal" in="SourceGraphic" in2="BackgroundImageFix" result="shape"/>
<feGaussianBlur stdDeviation="4.51249" result="effect1_foregroundBlur_999_4148"/>
</filter>
<filter id="filter2_d_999_4148" x="68.8247" y="34.1641" width="297.649" height="300.825" filterUnits="userSpaceOnUse" color-interpolation-filters="sRGB">
<feFlood flood-opacity="0" result="BackgroundImageFix"/>
<feColorMatrix in="SourceAlpha" type="matrix" values="0 0 0 0 0 0 0 0 0 0 0 0 0 0 0 0 0 0 127 0" result="hardAlpha"/>
<feOffset dy="6.35055"/>
<feGaussianBlur stdDeviation="1.58764"/>
<feComposite in2="hardAlpha" operator="out"/>
<feColorMatrix type="matrix" values="0 0 0 0 0 0 0 0 0 0 0 0 0 0 0 0 0 0 0.25 0"/>
<feBlend mode="normal" in2="BackgroundImageFix" result="effect1_dropShadow_999_4148"/>
<feBlend mode="normal" in="SourceGraphic" in2="effect1_dropShadow_999_4148" result="shape"/>
</filter>
<filter id="filter3_f_999_4148" x="155.799" y="30.7426" width="32.089" height="46.2941" filterUnits="userSpaceOnUse" color-interpolation-filters="sRGB">
<feFlood flood-opacity="0" result="BackgroundImageFix"/>
<feBlend mode="normal" in="SourceGraphic" in2="BackgroundImageFix" result="shape"/>
<feGaussianBlur stdDeviation="4.51249" result="effect1_foregroundBlur_999_4148"/>
</filter>
<filter id="filter4_d_999_4148" x="412.825" y="261.312" width="295.54" height="298.716" filterUnits="userSpaceOnUse" color-interpolation-filters="sRGB">
<feFlood flood-opacity="0" result="BackgroundImageFix"/>
<feColorMatrix in="SourceAlpha" type="matrix" values="0 0 0 0 0 0 0 0 0 0 0 0 0 0 0 0 0 0 127 0" result="hardAlpha"/>
<feOffset dy="6.35055"/>
<feGaussianBlur stdDeviation="1.58764"/>
<feComposite in2="hardAlpha" operator="out"/>
<feColorMatrix type="matrix" values="0 0 0 0 0 0 0 0 0 0 0 0 0 0 0 0 0 0 0.25 0"/>
<feBlend mode="normal" in2="BackgroundImageFix" result="effect1_dropShadow_999_4148"/>
<feBlend mode="normal" in="SourceGraphic" in2="effect1_dropShadow_999_4148" result="shape"/>
</filter>
<filter id="filter5_f_999_4148" x="624.616" y="266.729" width="46.255" height="32.1671" filterUnits="userSpaceOnUse" color-interpolation-filters="sRGB">
<feFlood flood-opacity="0" result="BackgroundImageFix"/>
<feBlend mode="normal" in="SourceGraphic" in2="BackgroundImageFix" result="shape"/>
<feGaussianBlur stdDeviation="4.51249" result="effect1_foregroundBlur_999_4148"/>
</filter>
<linearGradient id="paint0_linear_999_4148" x1="71.3848" y1="561.842" x2="63.3764" y2="569.544" gradientUnits="userSpaceOnUse">
<stop stop-color="white"/>
<stop offset="1" stop-color="white" stop-opacity="0"/>
</linearGradient>
<linearGradient id="paint1_linear_999_4148" x1="89.394" y1="552.405" x2="67.1113" y2="588.257" gradientUnits="userSpaceOnUse">
<stop stop-color="white"/>
<stop offset="1" stop-color="white" stop-opacity="0"/>
</linearGradient>
<linearGradient id="paint2_linear_999_4148" x1="73.3816" y1="552.717" x2="55.7944" y2="565.17" gradientUnits="userSpaceOnUse">
<stop stop-color="white"/>
<stop offset="1" stop-color="white" stop-opacity="0"/>
</linearGradient>
<linearGradient id="paint3_linear_999_4148" x1="76.2767" y1="580.346" x2="71.1919" y2="584.261" gradientUnits="userSpaceOnUse">
<stop stop-color="white"/>
<stop offset="1" stop-color="white" stop-opacity="0"/>
</linearGradient>
<linearGradient id="paint4_linear_999_4148" x1="142.41" y1="55.2665" x2="153.005" y2="51.9183" gradientUnits="userSpaceOnUse">
<stop stop-color="white"/>
<stop offset="1" stop-color="white" stop-opacity="0"/>
</linearGradient>
<linearGradient id="paint5_linear_999_4148" x1="125.508" y1="66.5679" x2="167.652" y2="64.1512" gradientUnits="userSpaceOnUse">
<stop stop-color="white"/>
<stop offset="1" stop-color="white" stop-opacity="0"/>
</linearGradient>
<linearGradient id="paint6_linear_999_4148" x1="133.441" y1="52.6556" x2="152.79" y2="43.1682" gradientUnits="userSpaceOnUse">
<stop stop-color="white"/>
<stop offset="1" stop-color="white" stop-opacity="0"/>
</linearGradient>
<linearGradient id="paint7_linear_999_4148" x1="156.319" y1="68.4152" x2="162.189" y2="65.8224" gradientUnits="userSpaceOnUse">
<stop stop-color="white"/>
<stop offset="1" stop-color="white" stop-opacity="0"/>
</linearGradient>
<linearGradient id="paint8_linear_999_4148" x1="624.896" y1="264.21" x2="635.024" y2="268.781" gradientUnits="userSpaceOnUse">
<stop stop-color="white"/>
<stop offset="1" stop-color="white" stop-opacity="0"/>
</linearGradient>
<linearGradient id="paint9_linear_999_4148" x1="604.763" y1="261.356" x2="637.776" y2="287.662" gradientUnits="userSpaceOnUse">
<stop stop-color="white"/>
<stop offset="1" stop-color="white" stop-opacity="0"/>
</linearGradient>
<linearGradient id="paint10_linear_999_4148" x1="619.954" y1="256.282" x2="640.698" y2="262.117" gradientUnits="userSpaceOnUse">
<stop stop-color="white"/>
<stop offset="1" stop-color="white" stop-opacity="0"/>
</linearGradient>
<linearGradient id="paint11_linear_999_4148" x1="626.489" y1="283.283" x2="632.592" y2="285.266" gradientUnits="userSpaceOnUse">
<stop stop-color="white"/>
<stop offset="1" stop-color="white" stop-opacity="0"/>
</linearGradient>
<clipPath id="clip0_999_4148">
<rect width="149.825" height="149.825" fill="white" transform="matrix(0.68381 -0.72966 -0.72966 -0.68381 407.32 938.773)"/>
</clipPath>
<clipPath id="clip1_999_4148">
<rect width="120.73" height="120.73" fill="white" transform="translate(501 357.268)"/>
</clipPath>
<clipPath id="clip2_999_4148">
<rect width="103" height="103" fill="white" transform="translate(139 145)"/>
</clipPath>
</defs>
</svg>
