<svg width="243" height="158" viewBox="0 0 243 158" fill="none" xmlns="http://www.w3.org/2000/svg">
<path d="M202.456 39.8029C244.386 78.2484 219.492 139.73 163.51 149.84V149.84C139.574 154.162 117.658 157.372 93.2723 157.286C72.4221 157.213 51.3175 153.534 32.9902 143.592C15.267 133.978 5.87459 122.515 2.48852 109.086C-5.60812 76.9729 18.8578 44.9734 49.0348 31.3306C62.1244 25.413 75.9394 21.0386 88.1565 17.7225C112.09 11.2263 138.583 5.30197 161.771 14.0934C176.594 19.7132 190.492 28.8323 202.456 39.8029Z" fill="#EFBB04"/>
<path d="M168.733 82.5C151.449 82.5 137.439 95.6913 137.439 111.965C137.439 128.238 151.449 141.429 168.733 141.429C186.016 141.429 200.026 128.238 200.026 111.965C200.026 95.6913 186.016 82.5 168.733 82.5ZM184.379 114.911H171.862V126.697H165.603V114.911H153.086V109.018H165.603V97.2323H171.862V109.018H184.379V114.911Z" fill="black"/>
<path d="M150.923 0H40.0769C37.4044 0 34.8413 0.929055 32.9515 2.58279C31.0617 4.23652 30 6.47945 30 8.81818V88.1818C30 90.5205 31.0617 92.7635 32.9515 94.4172C34.8413 96.0709 37.4044 97 40.0769 97H48.51C49.4636 97.0003 50.3977 96.7637 51.2038 96.3179C52.0098 95.872 52.6547 95.2352 53.0636 94.4813C55.5136 89.9547 59.3819 86.1297 64.2184 83.4513C69.0549 80.7728 74.661 79.3509 80.3846 79.3509C86.1083 79.3509 91.7144 80.7728 96.5509 83.4513C101.387 86.1297 105.256 89.9547 107.706 94.4813C108.115 95.2352 108.759 95.872 109.565 96.3179C110.372 96.7637 111.306 97.0003 112.259 97H150.923C153.596 97 156.159 96.0709 158.049 94.4172C159.938 92.7635 161 90.5205 161 88.1818V8.81818C161 6.47945 159.938 4.23652 158.049 2.58279C156.159 0.929055 153.596 0 150.923 0ZM65.2692 57.3182C65.2692 54.7021 66.1557 52.1447 67.8166 49.9695C69.4775 47.7943 71.8382 46.0989 74.6002 45.0978C77.3622 44.0966 80.4014 43.8347 83.3335 44.3451C86.2656 44.8554 88.9589 46.1152 91.0728 47.9651C93.1867 49.815 94.6263 52.1718 95.2096 54.7377C95.7928 57.3035 95.4935 59.9631 94.3494 62.38C93.2054 64.797 91.268 66.8628 88.7823 68.3163C86.2966 69.7697 83.3742 70.5455 80.3846 70.5455C76.3758 70.5455 72.5311 69.1519 69.6964 66.6713C66.8617 64.1907 65.2692 60.8263 65.2692 57.3182ZM150.923 88.1818H115.295C111.087 81.8516 104.745 76.8154 97.1375 73.7641C100.952 70.7922 103.643 66.8762 104.856 62.5351C106.069 58.194 105.746 53.6328 103.929 49.4563C102.112 45.2797 98.8872 41.685 94.6825 39.1487C90.4778 36.6123 85.4915 35.2541 80.3846 35.2541C75.2777 35.2541 70.2915 36.6123 66.0868 39.1487C61.8821 41.685 58.6575 45.2797 56.8406 49.4563C55.0237 53.6328 54.7002 58.194 55.913 62.5351C57.1259 66.8762 59.8177 70.7922 63.6317 73.7641C56.0243 76.8154 49.6819 81.8516 45.4744 88.1818H40.0769V8.81818H150.923V88.1818ZM50.1538 30.8636V22.0455C50.1538 20.8761 50.6847 19.7546 51.6296 18.9278C52.5745 18.1009 53.856 17.6364 55.1923 17.6364H135.808C137.144 17.6364 138.426 18.1009 139.37 18.9278C140.315 19.7546 140.846 20.8761 140.846 22.0455V74.9545C140.846 76.1239 140.315 77.2454 139.37 78.0722C138.426 78.8991 137.144 79.3636 135.808 79.3636H125.731C124.394 79.3636 123.113 78.8991 122.168 78.0722C121.223 77.2454 120.692 76.1239 120.692 74.9545C120.692 73.7852 121.223 72.6637 122.168 71.8368C123.113 71.01 124.394 70.5455 125.731 70.5455H130.769V26.4545H60.2308V30.8636C60.2308 32.033 59.6999 33.1545 58.755 33.9813C57.8101 34.8082 56.5286 35.2727 55.1923 35.2727C53.856 35.2727 52.5745 34.8082 51.6296 33.9813C50.6847 33.1545 50.1538 32.033 50.1538 30.8636Z" fill="black"/>
</svg>
