<svg width="32" height="27" viewBox="0 0 32 27" fill="none" xmlns="http://www.w3.org/2000/svg">
<path d="M29.1076 0L2.14477 0C1.57594 0 1.03041 0.225966 0.628188 0.628188C0.225966 1.03041 0 1.57594 0 2.14477L0 24.2052C0 24.7741 0.225966 25.3196 0.628188 25.7218C1.03041 26.1241 1.57594 26.35 2.14477 26.35H4.19609C4.37003 26.35 4.54038 26.3006 4.68736 26.2076C4.83434 26.1145 4.95192 25.9817 5.02642 25.8246C5.64713 24.5137 6.62727 23.4059 7.85284 22.6302C9.0784 21.8545 10.499 21.4427 11.9494 21.4427C13.3998 21.4427 14.8205 21.8545 16.046 22.6302C17.2716 23.4059 18.2517 24.5137 18.8724 25.8246C18.9469 25.9817 19.0645 26.1145 19.2115 26.2076C19.3585 26.3006 19.5288 26.35 19.7028 26.35H29.1076C29.6764 26.35 30.2219 26.1241 30.6242 25.7218C31.0264 25.3196 31.2523 24.7741 31.2523 24.2052V2.14477C31.2523 1.57594 31.0264 1.03041 30.6242 0.628188C30.2219 0.225966 29.6764 0 29.1076 0ZM7.96629 15.6262C7.96629 14.8384 8.19989 14.0683 8.63757 13.4133C9.07524 12.7582 9.69732 12.2477 10.4251 11.9462C11.153 11.6448 11.9538 11.5659 12.7265 11.7196C13.4992 11.8733 14.2089 12.2526 14.7659 12.8097C15.323 13.3667 15.7023 14.0764 15.856 14.8491C16.0097 15.6218 15.9308 16.4226 15.6294 17.1505C15.3279 17.8783 14.8174 18.5004 14.1623 18.938C13.5073 19.3757 12.7372 19.6093 11.9494 19.6093C10.893 19.6093 9.87991 19.1897 9.13292 18.4427C8.38594 17.6957 7.96629 16.6826 7.96629 15.6262ZM29.414 24.2052C29.414 24.2865 29.3817 24.3644 29.3242 24.4219C29.2668 24.4794 29.1888 24.5116 29.1076 24.5116H20.2635C19.1917 22.5879 17.488 21.0936 15.4408 20.2819C16.4186 19.549 17.1411 18.527 17.5057 17.3607C17.8704 16.1943 17.8587 14.9428 17.4725 13.7835C17.0863 12.6241 16.345 11.6157 15.3537 10.9011C14.3624 10.1865 13.1714 9.80198 11.9494 9.80198C10.7274 9.80198 9.53642 10.1865 8.54514 10.9011C7.55386 11.6157 6.81259 12.6241 6.42635 13.7835C6.04011 14.9428 6.02849 16.1943 6.39314 17.3607C6.75779 18.527 7.48021 19.549 8.45805 20.2819C6.4109 21.0936 4.70719 22.5879 3.63538 24.5116H2.14477C2.06351 24.5116 1.98557 24.4794 1.92811 24.4219C1.87065 24.3644 1.83837 24.2865 1.83837 24.2052L1.83837 2.14477C1.83837 2.06351 1.87065 1.98557 1.92811 1.92811C1.98557 1.87065 2.06351 1.83837 2.14477 1.83837L29.1076 1.83837C29.1888 1.83837 29.2668 1.87065 29.3242 1.92811C29.3817 1.98557 29.414 2.06351 29.414 2.14477V24.2052ZM26.35 5.82152V20.5285C26.35 20.7723 26.2532 21.0061 26.0808 21.1785C25.9084 21.3508 25.6746 21.4477 25.4308 21.4477H22.9797C22.7359 21.4477 22.5021 21.3508 22.3297 21.1785C22.1573 21.0061 22.0605 20.7723 22.0605 20.5285C22.0605 20.2847 22.1573 20.0509 22.3297 19.8785C22.5021 19.7062 22.7359 19.6093 22.9797 19.6093H24.5116V6.7407L6.7407 6.7407L6.7407 8.27268C6.7407 8.51646 6.64386 8.75026 6.47148 8.92264C6.2991 9.09502 6.0653 9.19187 5.82152 9.19187C5.57773 9.19187 5.34393 9.09502 5.17155 8.92264C4.99917 8.75026 4.90233 8.51646 4.90233 8.27268L4.90233 5.82152C4.90233 5.57773 4.99917 5.34393 5.17155 5.17155C5.34393 4.99917 5.57773 4.90233 5.82152 4.90233L25.4308 4.90233C25.6746 4.90233 25.9084 4.99917 26.0808 5.17155C26.2532 5.34393 26.35 5.57773 26.35 5.82152Z" fill="black"/>
</svg>
