<svg width="36" height="36" viewBox="0 0 36 36" fill="none" xmlns="http://www.w3.org/2000/svg">
<path d="M30.0938 15.7502V29.2502C30.0938 29.7724 29.8863 30.2731 29.5171 30.6423C29.1479 31.0116 28.6471 31.219 28.125 31.219H7.875C7.35286 31.219 6.8521 31.0116 6.48288 30.6423C6.11367 30.2731 5.90625 29.7724 5.90625 29.2502V15.7502C5.90625 15.2281 6.11367 14.7273 6.48288 14.3581C6.8521 13.9889 7.35286 13.7815 7.875 13.7815H11.25C11.4738 13.7815 11.6884 13.8704 11.8466 14.0286C12.0049 14.1868 12.0938 14.4015 12.0938 14.6252C12.0938 14.849 12.0049 15.0636 11.8466 15.2219C11.6884 15.3801 11.4738 15.469 11.25 15.469H7.875C7.80041 15.469 7.72887 15.4986 7.67613 15.5514C7.62338 15.6041 7.59375 15.6756 7.59375 15.7502V29.2502C7.59375 29.3248 7.62338 29.3964 7.67613 29.4491C7.72887 29.5019 7.80041 29.5315 7.875 29.5315H28.125C28.1996 29.5315 28.2711 29.5019 28.3239 29.4491C28.3766 29.3964 28.4062 29.3248 28.4062 29.2502V15.7502C28.4062 15.6756 28.3766 15.6041 28.3239 15.5514C28.2711 15.4986 28.1996 15.469 28.125 15.469H24.75C24.5262 15.469 24.3116 15.3801 24.1534 15.2219C23.9951 15.0636 23.9062 14.849 23.9062 14.6252C23.9062 14.4015 23.9951 14.1868 24.1534 14.0286C24.3116 13.8704 24.5262 13.7815 24.75 13.7815H28.125C28.6471 13.7815 29.1479 13.9889 29.5171 14.3581C29.8863 14.7273 30.0938 15.2281 30.0938 15.7502ZM12.9712 9.59648L17.1562 5.41289V19.1252C17.1562 19.349 17.2451 19.5636 17.4034 19.7219C17.5616 19.8801 17.7762 19.969 18 19.969C18.2238 19.969 18.4384 19.8801 18.5966 19.7219C18.7549 19.5636 18.8438 19.349 18.8438 19.1252V5.41289L23.0287 9.59648C23.106 9.67938 23.1991 9.74587 23.3026 9.79199C23.4061 9.8381 23.5179 9.8629 23.6312 9.8649C23.7445 9.8669 23.857 9.84606 23.962 9.80362C24.0671 9.76119 24.1625 9.69802 24.2427 9.6179C24.3228 9.53778 24.386 9.44234 24.4284 9.33728C24.4708 9.23222 24.4917 9.11969 24.4897 9.0064C24.4877 8.89311 24.4629 8.78138 24.4168 8.67788C24.3706 8.57438 24.3041 8.48123 24.2213 8.40398L18.5963 2.77898C18.438 2.62098 18.2236 2.53223 18 2.53223C17.7764 2.53223 17.562 2.62098 17.4038 2.77898L11.7788 8.40398C11.6959 8.48123 11.6294 8.57438 11.5832 8.67788C11.5371 8.78138 11.5123 8.89311 11.5103 9.0064C11.5083 9.11969 11.5292 9.23222 11.5716 9.33728C11.614 9.44234 11.6772 9.53778 11.7573 9.6179C11.8375 9.69802 11.9329 9.76119 12.038 9.80362C12.143 9.84606 12.2555 9.8669 12.3688 9.8649C12.4821 9.8629 12.5939 9.8381 12.6974 9.79199C12.8009 9.74587 12.894 9.67938 12.9712 9.59648Z" fill="black"/>
</svg>
