<svg width="30" height="31" viewBox="0 0 30 31" fill="none" xmlns="http://www.w3.org/2000/svg">
<path d="M8.8921 7.65652L10.1416 6.40706C10.1717 6.37682 10.1927 6.33873 10.2022 6.29714C10.2117 6.25555 10.2094 6.21212 10.1954 6.17179C10.1815 6.13147 10.1565 6.09586 10.1234 6.06902C10.0902 6.04218 10.0501 6.0252 10.0078 6.01999L5.44826 5.48206C5.30311 5.46499 5.17788 5.58737 5.19495 5.73537L5.73288 10.2949C5.75565 10.4828 5.98618 10.5624 6.11995 10.4287L7.36372 9.18491L11.169 12.9874C11.2573 13.0756 11.4024 13.0756 11.4906 12.9874L12.6974 11.7834C12.7856 11.6952 12.7856 11.5501 12.6974 11.4618L8.8921 7.65652ZM18.9305 12.9874C19.0187 13.0756 19.1639 13.0756 19.2521 12.9874L23.0574 9.18491L24.3012 10.4287C24.3314 10.4588 24.3695 10.4798 24.4111 10.4893C24.4527 10.4988 24.4961 10.4965 24.5364 10.4825C24.5768 10.4686 24.6124 10.4436 24.6392 10.4105C24.666 10.3773 24.683 10.3373 24.6882 10.2949L25.2262 5.73822C25.2432 5.59306 25.1209 5.46783 24.9729 5.48491L20.4133 6.02283C20.2255 6.0456 20.1458 6.27614 20.2795 6.40991L21.529 7.65937L17.7237 11.459C17.6813 11.5018 17.6576 11.5596 17.6576 11.6198C17.6576 11.68 17.6813 11.7378 17.7237 11.7806L18.9305 12.9874ZM24.6882 20.7061C24.6655 20.5183 24.4349 20.4386 24.3012 20.5724L23.0574 21.8161L19.2521 18.0137C19.2093 17.9713 19.1515 17.9475 19.0913 17.9475C19.0311 17.9475 18.9733 17.9713 18.9305 18.0137L17.7237 19.2176C17.6813 19.2604 17.6576 19.3182 17.6576 19.3784C17.6576 19.4386 17.6813 19.4964 17.7237 19.5392L21.529 23.3445L20.2795 24.594C20.2495 24.6242 20.2284 24.6623 20.2189 24.7039C20.2094 24.7455 20.2117 24.7889 20.2257 24.8292C20.2396 24.8696 20.2646 24.9052 20.2978 24.932C20.3309 24.9588 20.371 24.9758 20.4133 24.981L24.9729 25.519C25.118 25.536 25.2432 25.4137 25.2262 25.2657L24.6882 20.7061ZM11.4906 18.0137C11.4478 17.9713 11.3901 17.9475 11.3298 17.9475C11.2696 17.9475 11.2118 17.9713 11.169 18.0137L7.36372 21.8161L6.11995 20.5724C6.08971 20.5423 6.05162 20.5213 6.01003 20.5117C5.96844 20.5022 5.92501 20.5045 5.88468 20.5185C5.84436 20.5324 5.80875 20.5574 5.78191 20.5906C5.75508 20.6237 5.73809 20.6638 5.73288 20.7061L5.19495 25.2628C5.17788 25.408 5.30026 25.5332 5.44826 25.5161L10.0078 24.9782C10.1956 24.9554 10.2753 24.7249 10.1416 24.5911L8.8921 23.3445L12.6974 19.542C12.7856 19.4538 12.7856 19.3087 12.6974 19.2204L11.4906 18.0137Z" fill="black"/>
</svg>
