<svg width="228" height="200" viewBox="0 0 228 200" fill="none" xmlns="http://www.w3.org/2000/svg">
<path fill-rule="evenodd" clip-rule="evenodd" d="M103.64 118.628C104.31 117.877 104.863 116.977 105.415 116.078C108.599 111.495 112.37 106.225 113.929 100.728C115.927 93.4594 114.654 87.9685 111.497 83.9142C107.05 78.2115 98.3076 75.5458 89.7257 76.3471C81.1968 77.1081 72.8306 81.0948 68.7527 87.7951C65.9257 92.3447 65.0677 98.2647 67.6012 105.427C70.4273 113.563 76.9068 118.434 84.8279 121.009C87.8569 122.05 90.9424 122.568 94.2006 122.955C92.0819 125.289 89.9394 127.642 87.7617 130.021C80.4217 137.534 71.9672 144.462 63.2911 150.361C51.9261 158.311 39.6536 164.08 26.2385 167.61C25.0665 168.026 24.3356 169.302 24.6407 170.505C24.9473 171.707 26.2027 172.424 27.4901 172.16C41.4215 168.475 54.2242 162.542 66.022 154.262C74.8248 148.026 83.6452 141.057 91.1104 133.21C94.1714 129.918 97.1676 126.675 100.009 123.312C107.148 123.371 114.209 122.295 119.715 120.728C156.137 109.702 183.801 66.8231 199.097 33.616C199.649 32.4766 199.183 31.1556 198.015 30.6101C196.846 30.0658 195.5 30.6137 194.947 31.7532C180.13 63.8773 153.642 105.622 118.362 116.255C114.213 117.505 109.009 118.362 103.64 118.628ZM97.7791 118.55C99.1674 117.012 100.43 115.332 101.573 113.504C104.405 109.19 108.03 104.51 109.514 99.5489C111.036 94.0796 110.266 89.8784 107.928 86.8751C104.185 82.0711 97.076 80.3137 90.1818 81.0245C83.1208 81.6232 76.044 84.6269 72.7491 90.2514C70.5855 93.8163 70.0014 98.3316 71.9123 103.815C74.3073 110.605 79.7921 114.557 86.2425 116.578C89.931 117.834 93.8623 118.426 97.7791 118.55Z" fill="black"/>
<path fill-rule="evenodd" clip-rule="evenodd" d="M197.995 31.5881C198.038 32.7521 197.816 34.1181 197.592 35.4852C197.208 38.1721 196.615 40.7783 196.679 42.6444C196.926 53.9446 197.363 67.4928 201.166 78.2344C201.545 79.3812 202.884 80.0353 204.083 79.5993C205.281 79.1645 205.975 77.9179 205.48 76.6198C201.911 66.4176 201.623 53.4721 201.278 42.486C201.284 40.5668 201.982 37.4029 202.405 34.6872C202.704 32.3051 202.732 30.1293 202.08 28.472C201.776 27.5077 200.434 26.3767 198.038 26.7683C194.7 27.3998 187.185 31.4547 186.42 31.7985C178.69 35.3011 171.75 38.2015 163.212 35.6184C162.037 35.3177 160.768 36.0473 160.292 37.1279C159.932 38.3599 160.674 39.7092 161.85 40.0087C171.546 42.9052 179.643 40.0803 188.408 36.0273C188.887 35.6626 193.356 33.2106 196.835 31.9938C197.251 31.9155 197.583 31.663 197.995 31.5881Z" fill="black"/>
</svg>
