<svg width="23" height="23" viewBox="0 0 23 23" fill="none" xmlns="http://www.w3.org/2000/svg">
<path d="M21.3663 22.825L18.57 20.0288C17.5975 20.8079 16.5212 21.4146 15.3412 21.8488C14.1604 22.2829 12.905 22.5 11.575 22.5C10.0183 22.5 8.55583 22.2046 7.1875 21.6138C5.81917 21.0229 4.62875 20.2217 3.61625 19.21C2.60375 18.1975 1.80208 17.0067 1.21125 15.6375C0.620417 14.2692 0.325 12.8067 0.325 11.25C0.325 9.92 0.542083 8.665 0.97625 7.485C1.41042 6.305 2.01708 5.22833 2.79625 4.255L0 1.45875L0.8925 0.5675L22.2575 21.9325L21.3663 22.825ZM11.575 21.25C12.7275 21.25 13.8175 21.0633 14.845 20.69C15.8725 20.3167 16.8142 19.7967 17.67 19.13L3.69625 5.155C3.02958 6.01 2.50958 6.95167 2.13625 7.98C1.76208 9.0075 1.575 10.0975 1.575 11.25C1.575 14.0208 2.54917 16.3804 4.4975 18.3288C6.44583 20.2771 8.805 21.2508 11.575 21.25ZM21.1 17.26L20.175 16.3363C20.6333 15.5771 20.9813 14.7717 21.2188 13.92C21.4562 13.0675 21.575 12.1775 21.575 11.25C21.575 8.47917 20.6013 6.11958 18.6538 4.17125C16.7063 2.22292 14.3467 1.24917 11.575 1.25C10.6475 1.25 9.7575 1.36875 8.905 1.60625C8.05333 1.84292 7.24792 2.19042 6.48875 2.64875L5.565 1.72625C6.45333 1.16792 7.40083 0.740833 8.4075 0.445C9.41333 0.148333 10.4692 0 11.575 0C13.1317 0 14.5942 0.295417 15.9625 0.88625C17.3308 1.47708 18.5217 2.27875 19.535 3.29125C20.5475 4.30375 21.3488 5.49417 21.9388 6.8625C22.5296 8.23167 22.825 9.69417 22.825 11.25C22.825 12.3558 22.6767 13.4117 22.38 14.4175C22.0842 15.4242 21.6571 16.3717 21.0987 17.26" fill="black"/>
</svg>
