<svg width="19" height="19" viewBox="0 0 19 19" fill="none" xmlns="http://www.w3.org/2000/svg">
<g clip-path="url(#clip0_2023_2950)">
<path d="M8.64478 13.9311C8.57767 13.9315 8.51113 13.9186 8.449 13.8932C8.38687 13.8678 8.33035 13.8305 8.2827 13.7832L4.99849 10.499C4.95122 10.4513 4.91383 10.3948 4.88845 10.3327C4.86307 10.2705 4.85021 10.204 4.85059 10.1369C4.85021 10.0698 4.86307 10.0032 4.88845 9.94111C4.91383 9.87898 4.95122 9.82247 4.99849 9.77481L12.3064 2.44652C12.5696 2.18366 12.882 1.97522 13.2257 1.83309C13.5695 1.69096 13.9378 1.61793 14.3098 1.61816C14.6818 1.6184 15.0501 1.6919 15.3937 1.83447C15.7372 1.97704 16.0493 2.18588 16.3122 2.44907C16.5751 2.71227 16.7835 3.02466 16.9256 3.36841C17.0678 3.71216 17.1408 4.08054 17.1406 4.45251C17.1403 4.82449 17.0668 5.19278 16.9243 5.53635C16.7817 5.87992 16.5728 6.19204 16.3097 6.4549L9.00686 13.7832C8.95921 13.8305 8.9027 13.8678 8.84056 13.8932C8.77843 13.9186 8.7119 13.9315 8.64478 13.9311ZM6.09492 10.1369L8.64478 12.6868L15.611 5.74094C15.9486 5.40251 16.1381 4.94402 16.1381 4.46601C16.1381 3.988 15.9486 3.52951 15.611 3.19108C15.267 2.86429 14.8106 2.68208 14.3361 2.68208C13.8616 2.68208 13.4052 2.86429 13.0611 3.19108L6.09492 10.1369Z" fill="black"/>
<path d="M5.87057 15.0635C5.73575 15.0657 5.60556 15.0143 5.50849 14.9207L3.86638 13.2735C3.79477 13.2024 3.74587 13.1116 3.7259 13.0126C3.70593 12.9137 3.71577 12.811 3.75419 12.7177L4.88633 9.94343C4.91815 9.86582 4.96863 9.79727 5.03328 9.74383C5.09793 9.6904 5.17476 9.65374 5.25697 9.63709C5.33918 9.62045 5.42422 9.62434 5.50457 9.64842C5.58491 9.6725 5.65808 9.71602 5.71758 9.77514L9.0069 13.0594C9.06831 13.1187 9.11383 13.1926 9.13928 13.2741C9.16473 13.3556 9.16928 13.4423 9.15253 13.526C9.13578 13.6098 9.09825 13.688 9.0434 13.7535C8.98855 13.819 8.91813 13.8696 8.83861 13.9008L6.06436 15.0329C6.00159 15.0525 5.93631 15.0628 5.87057 15.0635ZM4.82513 12.7891L5.99297 13.9518L7.74217 13.2378L5.54419 11.0399L4.82513 12.7891Z" fill="black"/>
<path d="M5.13652 15.9399H2.58666C2.49439 15.9404 2.40373 15.9158 2.32433 15.8688C2.24494 15.8218 2.17979 15.7541 2.13583 15.673C2.09186 15.5918 2.07073 15.5003 2.07469 15.4081C2.07864 15.3159 2.10753 15.2266 2.15828 15.1495L3.80039 12.6302C3.84183 12.5662 3.8971 12.5124 3.96211 12.4725C4.02713 12.4327 4.10025 12.408 4.17608 12.4002C4.25192 12.3923 4.32855 12.4016 4.40032 12.4273C4.4721 12.453 4.53721 12.4945 4.59085 12.5486L6.22786 14.1907C6.31815 14.2809 6.37138 14.4016 6.37704 14.529C6.3827 14.6565 6.34039 14.7814 6.25846 14.8792L5.5241 15.7564C5.4767 15.8133 5.41748 15.8592 5.35054 15.8909C5.28361 15.9226 5.21058 15.9393 5.13652 15.9399ZM3.52501 14.92H4.89683L5.16712 14.5834L4.30016 13.7165L3.52501 14.92Z" fill="black"/>
<path d="M2.1377 16.4512H17.4368V17.9811H2.1377V16.4512Z" fill="black"/>
</g>
<defs>
<clipPath id="clip0_2023_2950">
<rect width="18.359" height="18.359" fill="white" transform="translate(0.577148 0.640625)"/>
</clipPath>
</defs>
</svg>
