<svg width="15" height="16" viewBox="0 0 15 16" fill="none" xmlns="http://www.w3.org/2000/svg">
<line y1="9.04226" x2="14.7959" y2="9.04226" stroke="black" stroke-width="1.64399"/>
<path fill-rule="evenodd" clip-rule="evenodd" d="M5.9189 2.23113C5.35208 2.23113 4.80848 2.46619 4.40768 2.88461C4.00688 3.30302 3.78171 3.87052 3.78171 4.46225C3.78171 5.05398 4.00688 5.62148 4.40768 6.03989C4.80848 6.45831 5.35208 6.69338 5.9189 6.69338H8.05608C9.18971 6.69338 10.2769 7.1635 11.0785 8.00034C11.8801 8.83717 12.3304 9.97216 12.3304 11.1556C12.3304 12.3391 11.8801 13.4741 11.0785 14.3109C10.2769 15.1477 9.18971 15.6179 8.05608 15.6179H5.9189C5.03486 15.6178 4.17257 15.3316 3.45074 14.7988C2.7289 14.266 2.183 13.5127 1.88817 12.6427C1.79974 12.3653 1.81914 12.0628 1.9422 11.8002C2.06526 11.5376 2.28214 11.3359 2.54618 11.2385C2.81022 11.1412 3.10032 11.1559 3.35407 11.2795C3.60782 11.4032 3.80493 11.6259 3.903 11.8997C4.05057 12.3347 4.32365 12.7113 4.68466 12.9776C5.04567 13.2439 5.47686 13.3868 5.9189 13.3868H8.05608C8.6229 13.3868 9.1665 13.1517 9.5673 12.7333C9.9681 12.3149 10.1933 11.7474 10.1933 11.1556C10.1933 10.5639 9.9681 9.9964 9.5673 9.57798C9.1665 9.15957 8.6229 8.9245 8.05608 8.9245H5.9189C4.78527 8.9245 3.69806 8.45437 2.89646 7.61754C2.09486 6.7807 1.64453 5.64571 1.64453 4.46225C1.64453 3.27879 2.09486 2.1438 2.89646 1.30696C3.69806 0.470128 4.78527 0 5.9189 0H8.05608C8.94012 9.56272e-05 9.80241 0.286241 10.5242 0.819051C11.2461 1.35186 11.792 2.10514 12.0868 2.97521C12.1752 3.25258 12.1558 3.55512 12.0328 3.81771C11.9097 4.08031 11.6928 4.28199 11.4288 4.37935C11.1648 4.47672 10.8747 4.46199 10.6209 4.33834C10.3672 4.21469 10.1701 3.99199 10.072 3.71817C9.92441 3.28317 9.65133 2.90662 9.29032 2.64031C8.92931 2.37401 8.49812 2.23106 8.05608 2.23113H5.9189Z" fill="black"/>
</svg>
