<svg width="615" height="111" viewBox="0 0 615 111" fill="none" xmlns="http://www.w3.org/2000/svg">
<path d="M265.095 80.9241C264.084 80.506 264.383 79 265.477 79H602.479C603.711 79 603.854 80.7919 602.638 80.9873L577.678 85H585.743C586.806 85 587.135 86.439 586.178 86.9007L577.678 91L585.567 93.8037C586.357 94.0844 586.472 95.1541 585.76 95.5958L580.27 99L600.67 107.142C602.716 107.959 602.132 111 599.929 111H569.384H260.441H252.622C251.547 111 251.23 109.534 252.209 109.089L265.624 103L272.363 96.5L267.766 95.1358C266.938 94.8899 266.79 93.7801 267.526 93.3262L278.583 86.5L265.095 80.9241Z" fill="#646FD4" fill-opacity="0.4"/>
<path fill-rule="evenodd" clip-rule="evenodd" d="M17.8021 54.3989C12.7217 52.9732 7.40263 52.254 2.24281 51.5951C1.13146 51.457 0.0996518 52.2278 0.0202699 53.3137C-0.138494 54.4005 0.65579 55.3943 1.68776 55.5325C6.68882 56.1667 11.8482 56.8454 16.6905 58.2179C17.7224 58.5156 18.8342 57.9028 19.1518 56.8486C19.4693 55.7952 18.8341 54.6974 17.8021 54.3989Z" fill="black"/>
<path fill-rule="evenodd" clip-rule="evenodd" d="M33.2007 34.1857C25.0244 25.8419 15.8161 18.5721 7.79853 10.0044C7.08409 9.20421 5.81398 9.16134 5.02016 9.90832C4.22634 10.6561 4.14727 11.9135 4.94109 12.7137C12.9587 21.306 22.167 28.5996 30.3433 36.968C31.1371 37.7492 32.4069 37.7603 33.2007 36.9918C33.9152 36.2242 33.9946 34.9668 33.2007 34.1857Z" fill="black"/>
<path fill-rule="evenodd" clip-rule="evenodd" d="M48.5226 2.09232C48.7607 6.86793 48.9984 11.6435 49.2366 16.42C49.2366 17.5138 50.1896 18.3585 51.301 18.3053C52.4123 18.2513 53.2057 17.3202 53.2057 16.2255C52.9675 11.4419 52.7298 6.65916 52.4917 1.8764C52.4123 0.782513 51.4596 -0.0565542 50.3482 0.00298224C49.3163 0.0625187 48.4432 0.999228 48.5226 2.09232Z" fill="black"/>
</svg>
