<svg width="166" height="166" viewBox="0 0 166 166" fill="none" xmlns="http://www.w3.org/2000/svg">
<g filter="url(#filter0_d_1583_6562)">
<circle cx="78.5842" cy="78.5842" r="74.5842" fill="#DBDFFD"/>
<path d="M113.17 94.3752V104.625C113.17 109.34 109.344 113.167 104.629 113.167H80.2336C77.1927 113.167 75.6894 109.511 77.8077 107.358L97.8636 86.8585C98.5127 86.2093 99.4011 85.8335 100.289 85.8335H104.629C109.344 85.8335 113.17 89.6602 113.17 94.3752Z" fill="#454545"/>
<path d="M100.764 76.5742L91.5053 85.8334L83.1003 94.2042C80.9478 96.3567 77.2578 94.8534 77.2578 91.8125C77.2578 80.845 77.2578 62.805 77.2578 62.805C77.2578 61.8825 77.6336 61.0284 78.2486 60.3792L81.392 57.2359C84.7403 53.8875 90.1386 53.8875 93.487 57.2359L100.73 64.4792C104.113 67.8275 104.113 73.2259 100.764 76.5742Z" fill="#454545"/>
<path d="M63.6257 44.8335H53.3757C48.2507 44.8335 44.834 48.2502 44.834 53.3752V99.5002C44.834 100.423 44.9365 101.345 45.1073 102.233C45.2098 102.678 45.3123 103.122 45.449 103.566C45.6198 104.078 45.7907 104.591 45.9957 105.069C46.0298 105.103 46.0298 105.138 46.0298 105.138C46.064 105.138 46.064 105.138 46.0298 105.172C46.5082 106.128 47.0548 107.051 47.704 107.905C48.0798 108.349 48.4557 108.759 48.8315 109.169C49.2073 109.579 49.6173 109.921 50.0615 110.263L50.0957 110.297C50.9498 110.946 51.8723 111.493 52.829 111.971C52.8632 111.937 52.8632 111.937 52.8632 111.971C53.3757 112.21 53.8882 112.381 54.4348 112.552C54.879 112.688 55.3231 112.791 55.7673 112.893C56.6557 113.064 57.5782 113.167 58.5007 113.167C59.9015 113.167 61.3365 112.962 62.669 112.518C63.0448 112.381 63.4207 112.244 63.7965 112.073C64.9923 111.595 66.154 110.912 67.179 110.023C67.4865 109.784 67.8281 109.477 68.1356 109.169L68.2723 109.033C70.664 106.573 72.1673 103.19 72.1673 99.5002V53.3752C72.1673 48.2502 68.7507 44.8335 63.6257 44.8335ZM58.5007 104.625C55.6648 104.625 53.3757 102.336 53.3757 99.5002C53.3757 96.6643 55.6648 94.3752 58.5007 94.3752C61.3365 94.3752 63.6257 96.6643 63.6257 99.5002C63.6257 102.336 61.3365 104.625 58.5007 104.625Z" fill="#454545"/>
</g>
<defs>
<filter id="filter0_d_1583_6562" x="0" y="0" width="165.168" height="165.168" filterUnits="userSpaceOnUse" color-interpolation-filters="sRGB">
<feFlood flood-opacity="0" result="BackgroundImageFix"/>
<feColorMatrix in="SourceAlpha" type="matrix" values="0 0 0 0 0 0 0 0 0 0 0 0 0 0 0 0 0 0 127 0" result="hardAlpha"/>
<feOffset dx="4" dy="4"/>
<feGaussianBlur stdDeviation="4"/>
<feComposite in2="hardAlpha" operator="out"/>
<feColorMatrix type="matrix" values="0 0 0 0 0 0 0 0 0 0 0 0 0 0 0 0 0 0 0.25 0"/>
<feBlend mode="normal" in2="BackgroundImageFix" result="effect1_dropShadow_1583_6562"/>
<feBlend mode="normal" in="SourceGraphic" in2="effect1_dropShadow_1583_6562" result="shape"/>
</filter>
</defs>
</svg>
