<svg width="196" height="99" viewBox="0 0 196 99" fill="none" xmlns="http://www.w3.org/2000/svg">
<g filter="url(#filter0_f_1024_4173)">
<path fill-rule="evenodd" clip-rule="evenodd" d="M55.5546 92.3568C38.4156 92.7006 20.9009 92.0131 4.51325 96.8877C3.53646 97.1752 2.46202 96.7564 2.10887 95.944C1.76323 95.1316 2.26667 94.2379 3.24346 93.9442C20.0143 88.9572 37.9272 89.5821 55.4644 89.2321C56.5013 89.2071 57.3653 89.8945 57.3879 90.757C57.4179 91.6194 56.5915 92.3318 55.5546 92.3568Z" fill="#F7BF46" fill-opacity="0.64"/>
<path fill-rule="evenodd" clip-rule="evenodd" d="M57.0941 71.6592C51.7518 67.5708 45.9211 64.508 38.8731 62.99C37.8663 62.7738 37.2652 61.9207 37.5207 61.0858C37.7837 60.2509 38.813 59.749 39.8124 59.9653C47.4764 61.6151 53.8256 64.9161 59.6338 69.3588C60.4002 69.9425 60.4528 70.9318 59.7465 71.5668C59.0477 72.2011 57.853 72.2429 57.0941 71.6592Z" fill="#F7BF46" fill-opacity="0.64"/>
<path fill-rule="evenodd" clip-rule="evenodd" d="M71.9558 27.0242C69.5063 20.0405 64.6824 14.5772 57.2888 10.6319C56.4172 10.1663 56.1618 9.19893 56.7253 8.47337C57.2813 7.74781 58.446 7.53656 59.3176 8.00214C67.5001 12.3705 72.85 18.4162 75.5624 26.1487C75.8555 26.9761 75.2769 27.8448 74.285 28.086C73.2857 28.3279 72.2413 27.8516 71.9558 27.0242Z" fill="#F7BF46" fill-opacity="0.64"/>
<path fill-rule="evenodd" clip-rule="evenodd" d="M156.374 17.5465C157.832 18.9732 159.139 20.5106 160.251 22.1473C160.747 22.876 161.619 24.4246 161.754 25.7526C161.904 27.1675 161.326 28.3612 159.838 28.9899C157.862 29.8236 156.284 29.7367 155.067 29.2324C153.895 28.748 152.978 27.7962 152.399 26.5201C151.295 24.0809 151.46 20.3531 152.039 18.2258C150.483 16.8909 148.778 15.6804 146.952 14.6042C133.352 6.58932 113.403 9.5447 98.052 21.5286C92.6797 25.7245 90.0949 34.5362 88.75 44.0435C86.6536 58.8466 87.8483 75.3802 88.0136 80.2241C88.0512 81.4203 87.916 82.1302 87.8408 82.2721C87.4877 82.9695 86.864 83.1507 86.4282 83.2195C85.7971 83.3132 85.2937 83.2132 84.8879 83.0383C84.3394 82.7983 83.8885 82.3758 83.6781 81.724C83.5654 81.364 83.5354 80.8628 83.5505 80.3285C83.5655 79.9579 83.6557 79.5529 83.5655 79.2873C82.9794 77.5862 82.2731 75.9251 81.5819 74.2521C79.2751 68.6283 76.2921 63.3581 72.9785 58.0942C62.4517 41.3682 52.2705 23.6953 35.0113 10.9521C34.2374 10.3802 34.1622 9.39159 34.8535 8.74664C35.5372 8.1017 36.7244 8.04294 37.5059 8.61539C55.1107 21.6105 65.5699 39.5877 76.3072 56.6449C79.1248 61.1227 81.7096 65.6067 83.8586 70.2969C83.6407 62.0001 83.7233 50.5155 85.5492 40.3539C87.1721 31.3165 90.2603 23.3297 95.4824 19.2507C112.298 6.12249 134.231 3.27463 149.123 12.0551C150.716 12.995 152.234 14.0287 153.647 15.1499C161.438 3.44775 178.119 -1.24249 192.861 4.35452C193.808 4.71261 194.221 5.64004 193.793 6.42434C193.357 7.20865 192.245 7.55488 191.298 7.19679C178.014 2.15348 162.949 6.65432 156.374 17.5465ZM155.285 21.4643C155.893 22.1792 156.457 22.9204 156.983 23.6866C157.261 24.0978 157.742 24.8884 157.945 25.662C157.99 25.8433 157.997 26.127 157.997 26.2582C157.479 26.4707 157.073 26.5732 156.742 26.4351C156.329 26.2651 156.119 25.8651 155.916 25.4183C155.405 24.2972 155.24 22.811 155.285 21.4643Z" fill="#F7BF46" fill-opacity="0.64"/>
</g>
<defs>
<filter id="filter0_f_1024_4173" x="0" y="0" width="195.962" height="98.9785" filterUnits="userSpaceOnUse" color-interpolation-filters="sRGB">
<feFlood flood-opacity="0" result="BackgroundImageFix"/>
<feBlend mode="normal" in="SourceGraphic" in2="BackgroundImageFix" result="shape"/>
<feGaussianBlur stdDeviation="1" result="effect1_foregroundBlur_1024_4173"/>
</filter>
</defs>
</svg>
