<svg width="475" height="206" viewBox="0 0 475 206" fill="none" xmlns="http://www.w3.org/2000/svg">
<g filter="url(#filter0_d_703_4423)">
<path fill-rule="evenodd" clip-rule="evenodd" d="M383.153 78.5104C383.102 74.8516 382.623 71.1613 381.664 67.4457C378.302 54.4064 363.301 46.0353 347.334 44.0671C331.374 42.0989 314.777 46.5778 308.381 57.9201C304.722 64.405 304.217 69.9942 305.712 74.7065C307.201 79.3936 310.733 83.2794 315.528 86.3074C328.895 94.7416 352.305 96.4638 362.985 92.9374C367.925 91.3036 372.75 89.3355 377.45 87.0835C374.763 101.826 364.751 115.792 351.39 128.378C322.353 155.73 277.293 176.491 252.754 184.124C251.436 184.534 250.704 185.934 251.114 187.253C251.524 188.571 252.924 189.309 254.243 188.899C279.268 181.115 325.205 159.913 354.816 132.017C370.114 117.609 381.014 101.391 382.875 84.3393C417.457 65.8623 445.857 32.3401 470.138 4.12945C471.04 3.08858 470.92 1.50514 469.873 0.603058C468.826 -0.292719 467.248 -0.179219 466.346 0.867957C443.056 27.9242 416.025 60.1092 383.153 78.5104ZM378.125 81.1915C378.314 77.0785 377.911 72.9023 376.819 68.6884C373.911 57.4029 360.544 50.7287 346.722 49.0255C338.25 47.9846 329.539 48.8426 322.707 51.8958C318.411 53.8135 314.872 56.5954 312.74 60.3804C309.939 65.345 309.333 69.5906 310.481 73.1926C311.629 76.8199 314.481 79.7342 318.196 82.0746C330.378 89.7644 351.693 91.3983 361.414 88.1874C367.149 86.2949 372.713 83.9356 378.125 81.1915Z" fill="black"/>
<path fill-rule="evenodd" clip-rule="evenodd" d="M75.1276 182.661C63.6626 185.985 50.4256 189.293 37.6916 190.119C26.8076 190.824 16.2947 189.729 7.68966 185.07C6.47666 184.414 4.95766 184.865 4.30166 186.079C3.64466 187.292 4.09666 188.811 5.30966 189.468C14.6967 194.549 26.1426 195.878 38.0146 195.108C50.9776 194.268 64.4536 190.938 76.1486 187.566C77.5056 190.315 80.3157 192.878 85.2656 194.769C92.8686 197.674 103.25 197.638 114.186 196.001C130.047 193.628 147.109 187.969 158.079 183.948C158.529 183.784 159.199 183.523 160.019 183.179C160.269 183.731 160.549 184.275 160.859 184.809C163.549 189.463 168.309 193.226 173.159 194.57C203.919 203.092 239.819 192.881 269.049 184.571C270.369 184.194 271.139 182.81 270.769 181.483C270.389 180.156 269.009 179.385 267.679 179.762C239.269 187.84 204.389 198.032 174.489 189.751C170.809 188.731 167.229 185.839 165.189 182.307C164.959 181.913 164.759 181.51 164.569 181.101C168.599 179.104 173.339 176.32 175.889 173.34C178.509 170.285 179.159 167.024 176.879 163.944C174.919 161.311 171.949 161.087 168.859 162.452C165.529 163.914 162.099 167.332 160.989 168.936C158.909 171.932 158.249 175.182 158.629 178.351C157.649 178.765 156.853 179.073 156.362 179.253C145.632 183.185 128.955 188.735 113.446 191.056C103.467 192.55 93.9876 192.749 87.0496 190.099C84.0906 188.968 82.1356 187.648 81.0746 186.116C83.1686 185.49 85.1877 184.874 87.1167 184.286C90.9317 183.123 98.8746 181.198 104.55 177.767C109.063 175.039 112.123 171.328 111.945 166.676C111.854 164.286 110.471 162.691 108.27 161.797C104.981 160.462 99.2926 161.108 97.1746 161.558C90.7506 162.92 82.1767 168.558 77.9347 174.911C76.2417 177.446 75.2346 180.098 75.1276 182.661ZM80.4046 181.099C82.2196 180.553 83.9737 180.017 85.6587 179.503C89.2197 178.417 96.6636 176.692 101.963 173.488C104.769 171.792 107.06 169.76 106.949 166.867C106.94 166.642 106.717 166.578 106.52 166.486C106.215 166.345 105.866 166.248 105.494 166.172C102.977 165.658 99.5956 166.155 98.2116 166.449C92.8216 167.592 85.6516 172.357 82.0926 177.688C81.3406 178.814 80.7416 179.961 80.4046 181.099ZM163.569 176.049C165.919 174.84 168.379 173.378 170.319 171.787C171.349 170.942 172.219 170.073 172.769 169.171C173.229 168.425 173.409 167.661 172.859 166.923C172.639 166.624 172.309 166.618 171.969 166.674C171.609 166.734 171.239 166.862 170.869 167.027C168.429 168.101 165.909 170.61 165.099 171.787C164.149 173.152 163.679 174.596 163.569 176.049Z" fill="black"/>
</g>
<defs>
<filter id="filter0_d_703_4423" x="0" y="0" width="474.743" height="205.783" filterUnits="userSpaceOnUse" color-interpolation-filters="sRGB">
<feFlood flood-opacity="0" result="BackgroundImageFix"/>
<feColorMatrix in="SourceAlpha" type="matrix" values="0 0 0 0 0 0 0 0 0 0 0 0 0 0 0 0 0 0 127 0" result="hardAlpha"/>
<feOffset dy="4"/>
<feGaussianBlur stdDeviation="2"/>
<feComposite in2="hardAlpha" operator="out"/>
<feColorMatrix type="matrix" values="0 0 0 0 0 0 0 0 0 0 0 0 0 0 0 0 0 0 0.25 0"/>
<feBlend mode="normal" in2="BackgroundImageFix" result="effect1_dropShadow_703_4423"/>
<feBlend mode="normal" in="SourceGraphic" in2="effect1_dropShadow_703_4423" result="shape"/>
</filter>
</defs>
</svg>
