<svg width="701" height="41" viewBox="0 0 701 41" fill="none" xmlns="http://www.w3.org/2000/svg">
<path fill-rule="evenodd" clip-rule="evenodd" d="M297.372 3.8421C264.478 5.15876 231.969 6.77771 200.269 8.54764C155.392 11.0514 110.534 13.6416 65.9454 17.7427C51.9099 19.0377 37.6568 19.8579 23.7091 21.4767C14.9537 22.4912 3.34411 23.9372 1.82051 24.2393C1.0236 24.412 0.675935 24.6713 0.563595 24.7576C-0.226293 25.362 -0.0821673 25.9445 0.363681 26.3978C0.542722 26.5921 0.995464 27.0671 2.25226 27.1319C86.3034 31.5567 172.25 22.9229 256.403 22.0163C402.339 20.4623 552.699 26.6354 697.477 40.1042C698.74 40.2121 699.969 39.6723 700.145 38.8737C700.355 38.0967 699.443 37.3412 698.179 37.2333C553.156 23.7429 402.55 17.5482 256.333 19.1238C177.906 19.9656 97.9305 27.5419 19.3946 24.9518C21.199 24.736 22.9685 24.52 24.5834 24.3258C38.4749 22.7069 52.6683 21.9084 66.6475 20.6133C111.141 16.5122 155.908 13.9221 200.725 11.4399C256.333 8.33172 314.363 5.65522 372.85 4.40332C393.773 4.59758 414.626 4.79193 435.479 5.02936C480.591 5.54738 525.913 7.05831 570.919 9.08725C584.47 9.7132 598.021 10.3607 611.572 10.9219C616.066 11.1161 627.651 11.6772 629.266 11.6341C631.267 11.5909 631.653 10.5549 631.688 10.3823C631.793 9.99375 631.723 9.45411 630.74 9.00083C630.634 8.93608 630.003 8.7201 628.598 8.59059C546.766 0.949676 459.387 -0.323609 372.921 1.51107C281.715 0.712447 190.158 0.366936 99.1839 0C97.8815 0 96.8177 0.64763 96.8072 1.44626C96.8002 2.24488 97.8498 2.89253 99.1522 2.91412C165.025 3.17313 231.232 3.432 297.372 3.8421Z" fill="#FED98B" fill-opacity="0.83"/>
</svg>
