<svg width="193" height="236" viewBox="0 0 193 236" fill="none" xmlns="http://www.w3.org/2000/svg">
<path fill-rule="evenodd" clip-rule="evenodd" d="M105.983 97.2101C109.623 97.5907 113.255 98.4013 116.868 99.6918C129.551 104.218 136.533 119.913 137.052 135.992C137.571 152.065 131.612 168.19 119.738 173.536C112.949 176.594 107.337 176.592 102.779 174.678C98.2457 172.772 94.6947 168.903 92.112 163.855C84.9192 149.781 85.318 126.31 89.7942 115.992C91.8674 111.221 94.2632 106.593 96.9304 102.115C82.0055 103.461 67.192 112.17 53.452 124.34C23.589 150.788 -1.15537 193.79 -10.973 217.54C-11.5004 218.816 -12.9612 219.418 -14.2372 218.891C-15.5132 218.363 -16.1219 216.902 -15.5945 215.626C-5.58222 191.406 19.6812 147.571 50.1362 120.6C65.8668 106.666 83.0035 97.2738 100.153 96.9602C121.677 64.1878 157.627 38.9307 187.915 17.2966C189.033 16.4922 190.599 16.7545 191.403 17.8788C192.2 19.0026 191.945 20.5632 190.821 21.3671C161.772 42.1191 127.278 66.1334 105.983 97.2101ZM102.859 101.975C106.973 102.158 111.095 102.937 115.193 104.405C126.17 108.32 131.61 122.235 132.058 136.154C132.33 144.685 130.689 153.284 127.031 159.812C124.733 163.918 121.643 167.191 117.681 168.973C112.484 171.314 108.201 171.534 104.718 170.065C101.209 168.594 98.5638 165.491 96.5685 161.579C90.01 148.753 90.3074 127.377 94.383 117.986C96.7855 112.446 99.6377 107.118 102.859 101.975Z" fill="black"/>
</svg>
