<svg width="217" height="218" viewBox="0 0 217 218" fill="none" xmlns="http://www.w3.org/2000/svg">
<path fill-rule="evenodd" clip-rule="evenodd" d="M141.736 89.8648C141.181 86.2481 140.196 82.6594 138.733 79.112C133.6 66.6627 117.586 60.4455 101.501 60.7031C85.4221 60.9599 69.6034 67.69 64.836 79.8076C62.1087 86.736 62.3814 92.3413 64.5135 96.8017C66.6359 101.238 70.6715 104.598 75.8383 106.934C90.2431 113.44 113.667 111.91 123.757 106.941C128.423 104.64 132.93 102.024 137.273 99.1438C136.65 114.116 128.665 129.332 117.172 143.644C92.1945 174.747 50.4366 201.537 27.188 212.489C25.9389 213.077 25.4077 214.565 25.9961 215.814C26.5844 217.064 28.0734 217.601 29.3225 217.013C53.0313 205.844 95.5967 178.496 121.068 146.775C134.227 130.391 142.781 112.821 142.267 95.676C173.963 72.5963 197.457 35.4702 217.605 4.17415C218.355 3.01858 218.017 1.4669 216.855 0.718224C215.694 -0.0242078 214.148 0.306225 213.399 1.46804C194.072 31.4839 171.75 67.0963 141.736 89.8648ZM137.128 93.215C136.747 89.1153 135.769 85.0351 134.106 81.0125C129.666 70.2373 115.504 65.4749 101.58 65.6985C93.0455 65.8387 84.5361 67.8926 78.1918 71.8609C74.2022 74.354 71.0816 77.5984 69.493 81.6418C67.4053 86.9459 67.3923 91.2344 69.0273 94.6431C70.6658 98.0769 73.8929 100.569 77.8963 102.373C91.0236 108.306 112.36 106.977 121.544 102.454C126.962 99.7867 132.146 96.6809 137.128 93.215Z" fill="black"/>
</svg>
