<svg width="118" height="113" viewBox="0 0 118 113" fill="none" xmlns="http://www.w3.org/2000/svg">
<path d="M34.1644 32.342C32.7233 31.1503 32.5213 29.0161 33.7133 27.5752C34.9048 26.1344 37.0393 25.9324 38.4799 27.1242L83.1722 64.0892C90.2281 69.9252 90.0044 77.7123 86.1369 82.3882C84.1927 84.7389 81.309 86.336 77.9897 86.6501C74.4392 86.9858 70.3904 85.8536 66.4622 82.6043L7.21439 33.6004C-0.392251 27.3086 -1.46225 16.0012 4.82946 8.39428L6.02871 6.94435C9.06619 3.27192 13.3674 1.00052 18.1397 0.548926C22.9115 0.0973843 27.5623 1.52168 31.2348 4.55916L66.1404 33.4303L66.141 33.4308L75.3877 41.0788L87.582 51.1647L87.5826 51.1655L108.868 68.7704C113.68 72.7511 116.657 78.3888 117.249 84.6445C117.841 90.9002 115.975 96.996 111.994 101.809L110.335 103.815C106.211 108.801 100.445 111.644 94.462 112.21C88.4802 112.775 82.281 111.064 77.2962 106.941L14.1126 54.6815C12.6715 53.4898 12.4695 51.3556 13.6615 49.9147C14.853 48.4739 16.9875 48.2719 18.4281 49.4637L81.6119 101.723C85.1592 104.657 89.568 105.875 93.8247 105.472C98.0804 105.069 102.184 103.046 105.117 99.4994L106.777 97.493C109.605 94.0739 110.93 89.7374 110.508 85.2821C110.087 80.8268 107.971 76.8156 104.552 73.9876L83.2674 56.3827L83.2665 56.3823L26.9188 9.77733C24.6401 7.89231 21.7487 7.00916 18.7773 7.29034C15.8056 7.57154 13.1313 8.98136 11.2463 11.2604L10.0471 12.7103C6.1351 17.44 6.80042 24.4708 11.5299 28.3828L70.7778 77.3873C75.1701 81.02 79.0364 80.3496 80.9188 78.0728C82.6448 75.9863 82.6761 72.4666 78.8562 69.3068L34.1644 32.342Z" fill="#F7BF46"/>
</svg>
