<svg width="427" height="435" viewBox="0 0 427 435" fill="none" xmlns="http://www.w3.org/2000/svg">
<path d="M344.135 178.581C362.634 229.412 348.398 289.966 299.046 312.111C289.081 316.582 278.517 320.32 267.624 323.509C243.475 330.578 221.098 336.066 197.072 337.278C165.576 338.867 133.299 329.096 110.882 306.914C80.8809 277.225 74.6446 238.728 81.3872 190.523C84.7188 166.705 92.1945 142.998 107.954 124.831C127.287 102.546 152.106 87.8177 173.752 77.7164C204.873 63.193 244.334 52.2815 272.175 72.3889C302.199 94.0723 328.365 135.25 344.135 178.581Z" fill="#F08ADD" fill-opacity="0.63"/>
<g clip-path="url(#clip0_1453_4081)">
<mask id="path-2-inside-1_1453_4081" fill="white">
<path d="M125.712 272.109C127.358 268.791 128.835 265.36 130.659 262.134C136.984 251.241 137.236 240.122 133.169 228.306C128.336 213.766 126.959 198.266 129.151 183.079C131.343 167.892 137.042 153.451 145.779 140.942C154.517 128.432 166.044 118.211 179.414 111.117C192.785 104.024 207.617 100.26 222.693 100.135C237.769 100.011 252.66 103.528 266.141 110.4C279.623 117.271 291.312 127.3 300.248 139.664C309.184 152.027 315.112 166.372 317.547 181.521C319.981 196.669 318.852 212.19 314.251 226.808C304.335 257.616 283.973 278.863 253.706 289.102C240.905 293.44 231.817 300.551 226.452 313.18C223.106 321.084 218.955 328.65 215.003 336.267C209.214 347.689 199.228 352.991 186.881 350.732C185.64 350.381 184.32 350.449 183.121 350.927C181.921 351.405 180.907 352.266 180.23 353.382C175.726 358.995 169.48 362.879 162.519 364.394C155.558 365.909 148.297 364.965 141.933 361.718C135.57 358.47 130.482 353.112 127.509 346.527C124.536 339.942 123.855 332.522 125.577 325.49C126.056 324.172 126.11 322.734 125.73 321.383C125.35 320.032 124.557 318.84 123.465 317.98C119.349 314.2 116.587 309.13 115.617 303.573C114.646 298.016 115.523 292.288 118.107 287.294C120.556 282.205 123.194 277.188 125.712 272.109ZM248.565 152.769C264.322 151.17 270.902 154.095 273.703 163.483C274.901 167.152 274.757 171.139 273.299 174.709C271.84 178.279 269.164 181.193 265.763 182.914C262.463 184.447 258.821 185.055 255.213 184.677C247.451 183.632 243.312 177.695 240.891 170.205C239.623 171.203 239.015 171.424 238.794 171.869C234.63 180.266 230.466 188.663 226.123 196.968C224.187 200.57 224.758 202.386 228.415 204.165C236.921 208.284 245.368 212.626 253.614 217.271C254.66 217.85 255.568 218.657 256.273 219.634C256.978 220.611 257.464 221.734 257.694 222.923C257.697 224.728 255.111 226.674 253.293 228.278C252.014 229.348 250.121 229.644 248.644 230.561C246.688 231.663 245.103 233.339 244.095 235.37C243.087 237.402 242.704 239.696 242.995 241.953C243.242 244.249 244.147 246.421 245.598 248.197C247.05 249.973 248.982 251.275 251.156 251.94C253.329 252.605 255.646 252.603 257.818 251.936C259.991 251.269 261.922 249.965 263.371 248.187C266.912 244.116 265.963 239.591 265.195 234.854C264.786 232.46 265.069 228.721 266.537 227.622C268.005 226.523 271.777 226.761 273.954 227.753C281.845 231.386 289.576 235.36 297.146 239.675C301.468 242.125 303.314 241.068 305.342 236.727C322.981 198.845 312.786 152.214 280.777 126.085C276.39 122.51 271.512 119.621 266.657 116.287L248.565 152.769ZM261.965 114.383C214.178 90.0463 156.411 118.524 141.968 158.913L171.54 174.115C170.268 157.87 173.291 151.222 182.69 148.665C186.349 147.677 190.231 148 193.684 149.581C197.137 151.162 199.95 153.904 201.653 157.347C206.079 166.325 203.158 172.416 188.998 183.217L219.941 199.123C224.236 190.463 228.032 182.105 232.493 174.115C234.448 170.625 237.293 165.994 240.482 165.246C245.405 164.12 245.749 170.315 247.638 173.699C248.977 176.315 251.223 178.333 253.94 179.359C256.657 180.385 259.651 180.347 262.342 179.251C265.008 178.156 267.178 176.09 268.431 173.456C269.683 170.822 269.928 167.807 269.118 164.999C268.308 162.191 266.5 159.79 264.047 158.264C261.594 156.737 258.672 156.195 255.848 156.742C253.955 157.038 252.1 157.71 250.257 157.956C245.406 158.535 242.908 155.727 244.161 150.937C244.811 148.887 245.673 146.913 246.733 145.048C251.72 134.941 256.747 124.854 261.945 114.373L261.965 114.383ZM221.576 206.286L218.616 212.255C214.603 220.349 210.748 228.524 206.477 236.282C205.897 237.344 205.095 238.262 204.127 238.972C203.158 239.681 202.048 240.164 200.876 240.386C199.113 240.369 197.212 237.715 195.646 235.844C194.779 234.321 194.023 232.736 193.384 231.101C191.982 228.674 189.773 226.837 187.157 225.925C184.541 225.012 181.69 225.083 179.12 226.125C176.551 227.167 174.433 229.112 173.15 231.606C171.866 234.1 171.503 236.98 172.124 239.724C172.802 242.501 174.44 244.936 176.737 246.583C179.035 248.231 181.838 248.98 184.635 248.694C186.547 248.509 188.391 247.858 190.215 247.5C196.332 246.48 199.037 249.826 196.724 255.747C195.457 259.006 193.723 262.101 192.168 265.238C187.943 273.756 183.719 282.275 179.444 290.894L221.179 312.348C221.842 311.457 222.435 310.514 222.952 309.527C228.539 296.098 238.565 288.454 252.21 284.372C266.858 279.837 279.957 271.199 290.011 259.444C293.531 255.464 296.644 251.097 300.106 246.681L270.217 231.316C270.409 248.58 267.658 254.479 258.539 256.774C254.973 257.796 251.166 257.504 247.79 255.95C244.414 254.395 241.685 251.678 240.083 248.277C234.438 235.218 241.436 227.795 253.215 222.449L221.576 206.286ZM192.983 252.529L186.647 253.588C183.63 254.183 180.51 253.905 177.641 252.785C174.772 251.666 172.268 249.749 170.416 247.253C168.563 244.758 167.434 241.783 167.158 238.667C166.882 235.551 167.47 232.419 168.855 229.626C170.24 226.833 172.367 224.492 174.993 222.868C177.619 221.244 180.64 220.402 183.713 220.439C186.786 220.475 189.786 221.388 192.375 223.074C194.964 224.759 197.036 227.151 198.357 229.975L201.342 235.725L217.246 203.654L212.754 201.345C204.507 197.105 196.159 193.068 188.112 188.474C187.007 187.776 186.051 186.858 185.302 185.775C184.554 184.693 184.028 183.467 183.755 182.172C183.532 180.813 186.238 178.725 187.956 177.374C189.673 176.022 191.496 175.816 193.103 174.789C195.413 173.33 197.144 171.089 197.992 168.46C198.84 165.831 198.75 162.981 197.738 160.413C196.71 157.799 194.796 155.647 192.342 154.348C189.889 153.049 187.059 152.69 184.367 153.334C181.675 153.978 179.3 155.584 177.672 157.86C176.044 160.136 175.271 162.931 175.495 165.737C175.666 167.857 176.375 169.948 176.695 172.068C177.57 177.596 174.652 180.362 169.362 178.759C167.187 177.976 165.088 176.99 163.091 175.815L139.322 163.596C138.588 165.428 138.066 166.48 137.724 167.574C131.034 187.396 131.243 208.957 138.315 228.641C140.329 233.96 141.193 239.659 140.846 245.348C140.499 251.038 138.951 256.584 136.307 261.609C135.373 263.491 134.599 265.454 133.725 267.468L175.022 288.697L192.983 252.529ZM218.548 317.954L131.225 273.064L123.679 288.28L210.983 333.16L218.548 317.954ZM207.918 337.881L121.548 293.482C119.986 297.902 120.045 302.748 121.713 307.127C123.381 311.507 126.546 315.127 130.626 317.32C148.18 326.648 165.841 335.727 183.609 344.556C187.765 346.577 192.494 347.012 196.939 345.784C201.383 344.555 205.247 341.744 207.829 337.861L207.918 337.881ZM178.131 347.656L131.766 323.822C126.335 335.478 131.455 350.298 142.87 356.751C148.747 360.182 155.705 361.149 162.269 359.447C168.834 357.746 174.491 353.51 178.041 347.636L178.131 347.656Z"/>
</mask>
<path d="M125.712 272.109C127.358 268.791 128.835 265.36 130.659 262.134C136.984 251.241 137.236 240.122 133.169 228.306C128.336 213.766 126.959 198.266 129.151 183.079C131.343 167.892 137.042 153.451 145.779 140.942C154.517 128.432 166.044 118.211 179.414 111.117C192.785 104.024 207.617 100.26 222.693 100.135C237.769 100.011 252.66 103.528 266.141 110.4C279.623 117.271 291.312 127.3 300.248 139.664C309.184 152.027 315.112 166.372 317.547 181.521C319.981 196.669 318.852 212.19 314.251 226.808C304.335 257.616 283.973 278.863 253.706 289.102C240.905 293.44 231.817 300.551 226.452 313.18C223.106 321.084 218.955 328.65 215.003 336.267C209.214 347.689 199.228 352.991 186.881 350.732C185.64 350.381 184.32 350.449 183.121 350.927C181.921 351.405 180.907 352.266 180.23 353.382C175.726 358.995 169.48 362.879 162.519 364.394C155.558 365.909 148.297 364.965 141.933 361.718C135.57 358.47 130.482 353.112 127.509 346.527C124.536 339.942 123.855 332.522 125.577 325.49C126.056 324.172 126.11 322.734 125.73 321.383C125.35 320.032 124.557 318.84 123.465 317.98C119.349 314.2 116.587 309.13 115.617 303.573C114.646 298.016 115.523 292.288 118.107 287.294C120.556 282.205 123.194 277.188 125.712 272.109ZM248.565 152.769C264.322 151.17 270.902 154.095 273.703 163.483C274.901 167.152 274.757 171.139 273.299 174.709C271.84 178.279 269.164 181.193 265.763 182.914C262.463 184.447 258.821 185.055 255.213 184.677C247.451 183.632 243.312 177.695 240.891 170.205C239.623 171.203 239.015 171.424 238.794 171.869C234.63 180.266 230.466 188.663 226.123 196.968C224.187 200.57 224.758 202.386 228.415 204.165C236.921 208.284 245.368 212.626 253.614 217.271C254.66 217.85 255.568 218.657 256.273 219.634C256.978 220.611 257.464 221.734 257.694 222.923C257.697 224.728 255.111 226.674 253.293 228.278C252.014 229.348 250.121 229.644 248.644 230.561C246.688 231.663 245.103 233.339 244.095 235.37C243.087 237.402 242.704 239.696 242.995 241.953C243.242 244.249 244.147 246.421 245.598 248.197C247.05 249.973 248.982 251.275 251.156 251.94C253.329 252.605 255.646 252.603 257.818 251.936C259.991 251.269 261.922 249.965 263.371 248.187C266.912 244.116 265.963 239.591 265.195 234.854C264.786 232.46 265.069 228.721 266.537 227.622C268.005 226.523 271.777 226.761 273.954 227.753C281.845 231.386 289.576 235.36 297.146 239.675C301.468 242.125 303.314 241.068 305.342 236.727C322.981 198.845 312.786 152.214 280.777 126.085C276.39 122.51 271.512 119.621 266.657 116.287L248.565 152.769ZM261.965 114.383C214.178 90.0463 156.411 118.524 141.968 158.913L171.54 174.115C170.268 157.87 173.291 151.222 182.69 148.665C186.349 147.677 190.231 148 193.684 149.581C197.137 151.162 199.95 153.904 201.653 157.347C206.079 166.325 203.158 172.416 188.998 183.217L219.941 199.123C224.236 190.463 228.032 182.105 232.493 174.115C234.448 170.625 237.293 165.994 240.482 165.246C245.405 164.12 245.749 170.315 247.638 173.699C248.977 176.315 251.223 178.333 253.94 179.359C256.657 180.385 259.651 180.347 262.342 179.251C265.008 178.156 267.178 176.09 268.431 173.456C269.683 170.822 269.928 167.807 269.118 164.999C268.308 162.191 266.5 159.79 264.047 158.264C261.594 156.737 258.672 156.195 255.848 156.742C253.955 157.038 252.1 157.71 250.257 157.956C245.406 158.535 242.908 155.727 244.161 150.937C244.811 148.887 245.673 146.913 246.733 145.048C251.72 134.941 256.747 124.854 261.945 114.373L261.965 114.383ZM221.576 206.286L218.616 212.255C214.603 220.349 210.748 228.524 206.477 236.282C205.897 237.344 205.095 238.262 204.127 238.972C203.158 239.681 202.048 240.164 200.876 240.386C199.113 240.369 197.212 237.715 195.646 235.844C194.779 234.321 194.023 232.736 193.384 231.101C191.982 228.674 189.773 226.837 187.157 225.925C184.541 225.012 181.69 225.083 179.12 226.125C176.551 227.167 174.433 229.112 173.15 231.606C171.866 234.1 171.503 236.98 172.124 239.724C172.802 242.501 174.44 244.936 176.737 246.583C179.035 248.231 181.838 248.98 184.635 248.694C186.547 248.509 188.391 247.858 190.215 247.5C196.332 246.48 199.037 249.826 196.724 255.747C195.457 259.006 193.723 262.101 192.168 265.238C187.943 273.756 183.719 282.275 179.444 290.894L221.179 312.348C221.842 311.457 222.435 310.514 222.952 309.527C228.539 296.098 238.565 288.454 252.21 284.372C266.858 279.837 279.957 271.199 290.011 259.444C293.531 255.464 296.644 251.097 300.106 246.681L270.217 231.316C270.409 248.58 267.658 254.479 258.539 256.774C254.973 257.796 251.166 257.504 247.79 255.95C244.414 254.395 241.685 251.678 240.083 248.277C234.438 235.218 241.436 227.795 253.215 222.449L221.576 206.286ZM192.983 252.529L186.647 253.588C183.63 254.183 180.51 253.905 177.641 252.785C174.772 251.666 172.268 249.749 170.416 247.253C168.563 244.758 167.434 241.783 167.158 238.667C166.882 235.551 167.47 232.419 168.855 229.626C170.24 226.833 172.367 224.492 174.993 222.868C177.619 221.244 180.64 220.402 183.713 220.439C186.786 220.475 189.786 221.388 192.375 223.074C194.964 224.759 197.036 227.151 198.357 229.975L201.342 235.725L217.246 203.654L212.754 201.345C204.507 197.105 196.159 193.068 188.112 188.474C187.007 187.776 186.051 186.858 185.302 185.775C184.554 184.693 184.028 183.467 183.755 182.172C183.532 180.813 186.238 178.725 187.956 177.374C189.673 176.022 191.496 175.816 193.103 174.789C195.413 173.33 197.144 171.089 197.992 168.46C198.84 165.831 198.75 162.981 197.738 160.413C196.71 157.799 194.796 155.647 192.342 154.348C189.889 153.049 187.059 152.69 184.367 153.334C181.675 153.978 179.3 155.584 177.672 157.86C176.044 160.136 175.271 162.931 175.495 165.737C175.666 167.857 176.375 169.948 176.695 172.068C177.57 177.596 174.652 180.362 169.362 178.759C167.187 177.976 165.088 176.99 163.091 175.815L139.322 163.596C138.588 165.428 138.066 166.48 137.724 167.574C131.034 187.396 131.243 208.957 138.315 228.641C140.329 233.96 141.193 239.659 140.846 245.348C140.499 251.038 138.951 256.584 136.307 261.609C135.373 263.491 134.599 265.454 133.725 267.468L175.022 288.697L192.983 252.529ZM218.548 317.954L131.225 273.064L123.679 288.28L210.983 333.16L218.548 317.954ZM207.918 337.881L121.548 293.482C119.986 297.902 120.045 302.748 121.713 307.127C123.381 311.507 126.546 315.127 130.626 317.32C148.18 326.648 165.841 335.727 183.609 344.556C187.765 346.577 192.494 347.012 196.939 345.784C201.383 344.555 205.247 341.744 207.829 337.861L207.918 337.881ZM178.131 347.656L131.766 323.822C126.335 335.478 131.455 350.298 142.87 356.751C148.747 360.182 155.705 361.149 162.269 359.447C168.834 357.746 174.491 353.51 178.041 347.636L178.131 347.656Z" fill="black" stroke="black" stroke-width="330" mask="url(#path-2-inside-1_1453_4081)"/>
<path d="M208.471 38.7405L213.369 38.9222C214.049 51.0791 214.81 62.9221 215.242 74.774C215.297 76.0718 213.39 77.453 212.409 78.7771L210.7 77.8985C209.933 65.0113 209.236 52.2359 208.471 38.7405Z" fill="black"/>
<path d="M352.414 107.556L354.967 111.712L323.165 132.894C320.335 130.754 319.814 129.14 322.998 127.095C332.68 120.798 342.253 114.318 352.414 107.556Z" fill="black"/>
<path d="M349.021 259.993C353.651 262.373 358.352 264.612 362.932 267.144C364.005 267.696 364.336 269.644 365.008 270.954C363.693 271.141 362.018 271.956 361.104 271.486C351.431 266.683 341.832 261.748 332.307 256.682C331.333 256.182 330.962 254.366 330.409 253.167C331.833 252.96 333.499 252.217 334.642 252.627C339.502 254.897 344.231 257.531 349.021 259.993Z" fill="black"/>
<path d="M97.8903 136.051C102.501 138.421 107.182 140.7 111.802 143.202C112.835 143.733 113.217 145.377 113.93 146.505C112.524 146.824 110.788 147.81 109.785 147.32C100.115 142.578 90.5463 137.633 81.0476 132.547C80.0937 132.057 79.8417 130.251 79.2488 129.083C80.5142 128.845 82.0806 128 83.0345 128.49C88.0037 130.841 92.9219 133.497 97.8903 136.051Z" fill="black"/>
<path d="M102.917 211.562L79.1851 212.998L78.4772 208.088C86.145 207.713 93.3753 207.215 100.644 207.143C101.281 207.115 101.958 209.622 102.917 211.562Z" fill="black"/>
<path d="M291.788 299.918L304.289 319.37L303.674 321.161C302.083 320.75 299.792 320.893 299.06 319.856C295.168 314.376 291.656 308.584 287.885 302.71L291.788 299.918Z" fill="black"/>
<path d="M361.756 192.268C356.209 192.591 350.662 193.116 345.126 193.063C343.832 193.058 342.585 191.097 341.334 190.048L342.356 188.541C348.092 188.189 353.809 187.675 359.544 187.627C360.719 187.621 361.907 189.451 363.137 190.439L361.756 192.268Z" fill="black"/>
<path d="M145.525 80.8319L156.253 97.5704L152.26 100.241C148.925 95.0474 145.598 90.138 142.671 84.9767C142.088 83.9404 143.101 81.9474 143.376 80.3874L145.525 80.8319Z" fill="black"/>
<path d="M280.429 82.3328C279.556 84.4706 278.529 86.5401 277.358 88.5244C276.847 89.2523 275.234 89.4891 274.149 89.4138C273.771 89.3718 273.081 87.3923 273.402 86.6942C275.381 82.3026 277.488 77.952 279.824 73.7443C280.186 73.0159 281.949 72.7797 283.014 72.8448C283.432 72.9072 284.082 74.8156 283.81 75.5647C282.765 77.9731 281.512 80.1475 280.429 82.3328Z" fill="black"/>
</g>
<defs>
<clipPath id="clip0_1453_4081">
<rect width="319.117" height="322.294" fill="white" transform="matrix(0.889368 0.457193 -0.444277 0.895889 143.188 0)"/>
</clipPath>
</defs>
</svg>
