<svg width="233" height="174" viewBox="0 0 233 174" fill="none" xmlns="http://www.w3.org/2000/svg">
<path d="M196.254 56.4904C235.079 95.8774 211.111 155.999 156.795 166.416V166.416C134.85 170.626 114.677 173.798 92.5095 173.991C70.4921 174.182 48.0351 170.157 29.2746 158.632C12.9073 148.576 4.55474 136.601 1.93087 122.582C-3.96612 91.0735 17.6545 59.9985 46.501 46.0193C58.1124 40.3922 70.3493 36.1212 81.438 32.8131C106.316 25.3913 134.43 18.9922 158.174 29.4909C172.119 35.6567 185.125 45.2 196.254 56.4904Z" fill="#ADB4F7"/>
<path d="M134 86C117.431 86 104 99.431 104 116C104 132.569 117.431 146 134 146C150.569 146 164 132.569 164 116C164 99.431 150.569 86 134 86ZM149 119H137V131H131V119H119V113H131V101H137V113H149V119Z" fill="black"/>
<path d="M164 32L89 2L14 32L89 62L164 32ZM164 32V77" stroke="black" stroke-width="4" stroke-linecap="round" stroke-linejoin="round"/>
<path d="M44 44.002V84.502C44 90.4693 48.7411 96.1923 57.1802 100.412C65.6193 104.631 77.0653 107.002 89 107.002C100.935 107.002 112.381 104.631 120.82 100.412C129.259 96.1923 134 90.4693 134 84.502V44.002" stroke="black" stroke-width="4" stroke-linecap="round" stroke-linejoin="round"/>
</svg>
