<svg width="27" height="42" viewBox="0 0 27 42" fill="none" xmlns="http://www.w3.org/2000/svg">
<path fill-rule="evenodd" clip-rule="evenodd" d="M2.3795 11.8161C3.94567 8.88753 5.15972 5.6862 6.31609 2.57391C6.56307 1.90291 6.2976 1.12274 5.71217 0.883215C5.13852 0.593897 4.46937 0.916952 4.23461 1.5383C3.11621 4.55558 1.949 7.66411 0.448739 10.453C0.126161 11.0464 0.292384 11.849 0.8237 12.232C1.35458 12.6148 2.05648 12.4094 2.3795 11.8161Z" fill="black"/>
<path fill-rule="evenodd" clip-rule="evenodd" d="M8.13337 24.9798C13.9831 21.7636 19.4005 17.8143 25.349 14.7199C25.8993 14.4499 26.1183 13.7575 25.8293 13.2057C25.5399 12.6538 24.86 12.4168 24.2976 12.7306C18.3355 15.8212 12.905 19.7669 7.04172 22.9792C6.48973 23.296 6.28827 23.9931 6.58904 24.5481C6.90159 25.0594 7.58137 25.2965 8.13337 24.9798Z" fill="black"/>
<path fill-rule="evenodd" clip-rule="evenodd" d="M23.4395 38.1262C20.7747 37.5226 18.1099 36.9188 15.4447 36.315C14.8427 36.1468 14.2312 36.5413 14.0895 37.1611C13.9483 37.781 14.3387 38.3609 14.9411 38.5293C17.6103 39.1341 20.279 39.7391 22.9478 40.3438C23.562 40.4684 24.1703 40.0731 24.3085 39.4523C24.4345 38.8752 24.0533 38.2507 23.4395 38.1262Z" fill="black"/>
</svg>
