<svg width="29" height="34" viewBox="0 0 29 34" fill="none" xmlns="http://www.w3.org/2000/svg">
<path d="M28.0628 14.7585C27.8617 14.9562 27.5891 15.0673 27.3049 15.0673C27.0207 15.0673 26.7482 14.9562 26.5471 14.7585L15.5082 3.89342V32.3117C15.5082 32.5916 15.3952 32.8602 15.1941 33.0582C14.993 33.2561 14.7202 33.3674 14.4358 33.3674C14.1514 33.3674 13.8786 33.2561 13.6775 33.0582C13.4764 32.8602 13.3634 32.5916 13.3634 32.3117V3.89342L2.32452 14.7585C2.12123 14.945 1.85234 15.0465 1.5745 15.0417C1.29667 15.0369 1.03159 14.9261 0.835103 14.7327C0.638615 14.5392 0.526065 14.2783 0.521163 14.0048C0.516261 13.7313 0.61939 13.4666 0.808824 13.2665L13.678 0.597811C13.879 0.400109 14.1516 0.289062 14.4358 0.289062C14.72 0.289062 14.9926 0.400109 15.1937 0.597811L28.0628 13.2665C28.2636 13.4644 28.3764 13.7327 28.3764 14.0125C28.3764 14.2923 28.2636 14.5606 28.0628 14.7585Z" fill="black"/>
</svg>
