<svg width="28" height="31" viewBox="0 0 28 31" fill="none" xmlns="http://www.w3.org/2000/svg">
<path d="M9.0316 11.5305V10.2875H23.1978V11.5305H9.0316ZM9.0316 15.7383V14.4952H23.1978V15.7383H9.0316ZM9.0316 19.946V18.703H23.1978V19.946H9.0316ZM5.54454 11.6735C5.34489 11.6735 5.17736 11.5977 5.04196 11.446C4.90657 11.2944 4.83887 11.1075 4.83887 10.8854C4.83887 10.6757 4.90657 10.4996 5.04196 10.3571C5.17736 10.2154 5.34489 10.1445 5.54454 10.1445C5.74496 10.1445 5.91287 10.2154 6.04826 10.3571C6.18366 10.4996 6.25136 10.6757 6.25136 10.8854C6.25136 11.1091 6.18366 11.2964 6.04826 11.4473C5.91287 11.5981 5.74496 11.6739 5.54454 11.6747M5.54454 15.8576C5.34489 15.8576 5.17736 15.7868 5.04196 15.6451C4.90657 15.5025 4.83887 15.3264 4.83887 15.1168C4.83887 14.8764 4.90657 14.685 5.04196 14.5425C5.17736 14.3999 5.34489 14.3282 5.54454 14.3274C5.74496 14.3274 5.91287 14.3991 6.04826 14.5425C6.18366 14.685 6.25136 14.8764 6.25136 15.1168C6.25136 15.3264 6.18366 15.5025 6.04826 15.6451C5.91287 15.7868 5.74496 15.8576 5.54454 15.8576ZM5.54454 20.089C5.34489 20.089 5.17736 20.0136 5.04196 19.8627C4.90657 19.7119 4.83887 19.5242 4.83887 19.2996C4.83887 19.09 4.90657 18.9143 5.04196 18.7726C5.17736 18.6309 5.34489 18.5596 5.54454 18.5588C5.74496 18.5588 5.91287 18.63 6.04826 18.7726C6.18366 18.9143 6.25136 19.09 6.25136 19.2996C6.25136 19.5234 6.18366 19.7111 6.04826 19.8627C5.91287 20.0136 5.74496 20.089 5.54454 20.089Z" fill="black"/>
</svg>
