<svg width="31" height="32" viewBox="0 0 31 32" fill="none" xmlns="http://www.w3.org/2000/svg">
<path d="M8.67111 27.9843C8.10224 27.9843 7.617 27.7839 7.21539 27.3831C6.81464 26.9824 6.61426 26.4971 6.61426 25.9274V14.758C6.61426 14.1891 6.81464 13.7039 7.21539 13.3023C7.61615 12.9015 8.10139 12.7011 8.67111 12.7011H10.435V10.1539C10.435 8.73516 10.9292 7.53119 11.9175 6.54204C12.9058 5.55288 14.1098 5.05872 15.5294 5.05957C16.9482 5.05957 18.1522 5.55373 19.1413 6.54204C20.1305 7.53034 20.6246 8.73432 20.6238 10.1539V12.7011H22.3877C22.9566 12.7011 23.4418 12.9015 23.8434 13.3023C24.2442 13.703 24.4446 14.1883 24.4446 14.758V25.9274C24.4446 26.4963 24.2442 26.9815 23.8434 27.3831C23.4427 27.7839 22.9574 27.9843 22.3877 27.9843H8.67111ZM8.67111 26.7107H22.3877C22.6161 26.7107 22.8038 26.6372 22.9507 26.4903C23.0975 26.3435 23.171 26.1558 23.171 25.9274V14.758C23.171 14.5296 23.0975 14.342 22.9507 14.1951C22.8038 14.0482 22.6161 13.9747 22.3877 13.9747H8.67111C8.44271 13.9747 8.25507 14.0482 8.10818 14.1951C7.9613 14.342 7.88785 14.5296 7.88785 14.758V25.9274C7.88785 26.1558 7.9613 26.3435 8.10818 26.4903C8.25507 26.6372 8.44271 26.7107 8.67111 26.7107ZM15.5294 22.2531C16.0669 22.2531 16.5194 22.0688 16.8871 21.7004C17.2556 21.3327 17.4398 20.8802 17.4398 20.3427C17.4398 19.8052 17.2556 19.3527 16.8871 18.9851C16.5194 18.6166 16.0669 18.4323 15.5294 18.4323C14.992 18.4323 14.5394 18.6166 14.1718 18.9851C13.8033 19.3527 13.619 19.8052 13.619 20.3427C13.619 20.8802 13.8033 21.3327 14.1718 21.7004C14.5394 22.0688 14.992 22.2531 15.5294 22.2531ZM11.7086 12.7011H19.3502V10.1539C19.3502 9.09262 18.9787 8.19049 18.2358 7.44756C17.4929 6.70463 16.5907 6.33317 15.5294 6.33317C14.4681 6.33317 13.566 6.70463 12.823 7.44756C12.0801 8.19049 11.7086 9.09262 11.7086 10.1539V12.7011Z" fill="black"/>
</svg>
