<svg width="241" height="241" viewBox="0 0 241 241" fill="none" xmlns="http://www.w3.org/2000/svg">
<path d="M206.734 103.655C219.623 156.19 189.164 212.643 135.204 216.426C121.897 217.359 109.399 217.835 96.9113 216.882C65.4661 214.483 33.8376 198.006 21.4748 168.993C13.1088 149.361 14.1924 128.111 21.616 104.289C28.7713 81.3282 41.5132 59.4164 62.0586 46.915C71.9658 40.8866 82.4302 36.6105 92.465 33.4936C125.262 23.3063 167.197 24.0831 185.877 52.9018C195.033 67.0264 202.114 84.8273 206.734 103.655Z" fill="white" fill-opacity="0.93"/>
<g clip-path="url(#clip0_1513_4084)">
<path d="M55.441 106.846L55.1738 106.675" stroke="black" stroke-miterlimit="10"/>
<path d="M134.678 204.954L125.836 203.508L116.97 202.062L108.104 200.591L99.238 199.146L90.3719 197.675L81.4814 196.229L72.591 194.759L63.7006 193.288L54.7859 191.842L51.7981 183.705L48.8103 175.568L57.7251 177.014L66.6155 178.509L75.5302 179.955L84.4206 181.426L93.2868 182.896L102.177 184.367L111.043 185.813L119.909 187.283L116.946 179.171L115.076 174.073L106.209 172.603L97.319 171.132L88.4529 169.662L79.5625 168.191L70.6478 166.721L61.7573 165.226L52.8426 163.78L43.9279 162.285L38.8997 148.658L36.8107 142.948L33.7986 134.787L30.8109 126.625L27.7988 118.439L36.7378 119.934L45.6525 121.429L54.5916 122.924L63.5063 124.419L72.421 125.915L81.3114 127.385L90.2018 128.88L99.0923 130.375L107.983 131.846L110.946 139.982L113.934 148.144L105.043 146.649L96.1774 145.178L87.2869 143.683L78.3965 142.213L69.4818 140.718L60.5914 139.247L51.6524 137.752L54.6644 145.913L56.7291 151.599L65.6439 153.07L74.5586 154.54L83.449 156.035L92.3394 157.506L101.206 158.976L110.096 160.447L118.962 161.917L123.723 174.956L125.788 180.642L128.751 188.754L131.715 196.866L134.678 204.954Z" fill="#9999CC" stroke="#666666" stroke-width="0.5" stroke-miterlimit="10"/>
<path d="M192.466 138.56L186.782 145.521L180.927 152.702L175.073 159.858L171.94 163.706L161.446 176.548L157.535 181.327L151.706 188.484L145.876 195.616L140.338 202.405L137.277 194.219L134.241 186.058L139.9 179.122L145.706 172.014L151.511 164.907L155.398 160.128L152.386 151.966L149.374 143.854L146.386 135.742L143.398 127.679L140.459 119.64L136.621 124.345L130.864 131.428L133.803 139.467L128.046 146.55L122.289 153.633L122.192 153.657L119.205 145.619L116.217 137.58L113.326 129.835L119.302 122.483L125.034 115.449L130.767 108.415L134.435 103.905L144.928 91.0141L147.989 87.2398L153.722 80.1814L159.479 73.123L165.211 66.04L168.199 73.8827L171.211 81.8234L165.43 88.9309L159.673 96.0138L153.892 103.121L150.831 106.871L153.819 114.91L156.807 122.973L159.794 131.061L162.806 139.173L165.843 147.334L168.976 143.486L174.806 136.355L171.746 128.218L177.551 121.086L183.308 114.027L186.344 122.189L189.405 130.35L192.466 138.56Z" fill="#242F9B" stroke="#666666" stroke-width="0.5" stroke-miterlimit="10"/>
<path d="M162.952 59.4725L157.195 66.5799L151.074 74.1285L141.528 72.5845L132.054 71.0405L122.605 69.4964L113.205 67.9524L103.853 66.4329L94.5494 64.9134L85.2704 63.3939L79.3434 70.8199L75.8212 75.2314L85.0275 76.7754L94.3065 78.3195L103.61 79.888L112.962 81.4565L122.362 83.0496L131.811 84.6181L141.115 86.1866L141.236 86.2847L130.718 99.2496L121.269 97.6566L111.844 96.0635L102.493 94.4705L93.1649 92.8774L83.8858 91.3089L74.6553 89.7404L65.4734 88.1718L61.6111 93L55.7328 100.377L64.8904 101.97L74.048 103.563L83.2785 105.181L92.5576 106.798L101.885 108.416L111.237 110.058L120.662 111.7L114.614 119.15L108.735 126.405L99.2861 124.836L91.7074 123.562L89.9099 123.243L80.6308 121.601L71.4246 119.935L62.2427 118.293L53.1094 116.675L44.0246 115.058L34.9884 113.44L25.9766 111.822L31.7821 104.519L37.5876 97.2154L43.4173 89.8874L47.4739 84.7897L57.5303 72.1679L61.0039 67.8054L66.8822 60.4038L72.7849 52.9778L78.6876 45.5518L87.918 47.0223L97.1728 48.4928L106.5 49.9633L115.852 51.4583L125.253 52.9533L134.726 54.4483L136.281 54.6934L144.175 56.0168L153.649 57.5854L162.831 59.1294L162.952 59.4725Z" fill="#CBC9E6" stroke="#666666" stroke-width="0.5" stroke-miterlimit="10"/>
</g>
<defs>
<clipPath id="clip0_1513_4084">
<rect width="168.286" height="160.848" fill="white" transform="translate(24.8594 44.8896)"/>
</clipPath>
</defs>
</svg>
