<svg width="25" height="27" viewBox="0 0 25 27" fill="none" xmlns="http://www.w3.org/2000/svg">
<path d="M1.2404 25.261L12.432 1.38538C12.4382 1.37261 12.4478 1.36184 12.4599 1.35431C12.4719 1.34677 12.4858 1.34277 12.5 1.34277C12.5142 1.34277 12.5281 1.34677 12.5401 1.35431C12.5521 1.36184 12.5618 1.37261 12.568 1.38538L23.7611 25.261C23.7675 25.2742 23.77 25.2889 23.7682 25.3035C23.7665 25.318 23.7605 25.3318 23.751 25.343C23.7416 25.3542 23.7291 25.3624 23.715 25.3666C23.701 25.3708 23.686 25.3709 23.672 25.3667L12.5196 22.391C12.5067 22.3876 12.4932 22.3876 12.4803 22.391L1.32801 25.3667C1.31404 25.3705 1.29929 25.3702 1.28552 25.3658C1.27174 25.3614 1.25951 25.3531 1.25028 25.342C1.24105 25.3309 1.23522 25.3173 1.23347 25.3029C1.23171 25.2886 1.23412 25.274 1.2404 25.261Z" stroke="black" stroke-width="1.51054" stroke-linecap="round"/>
<path d="M7.21289 11.8125L12.462 14.8124C12.4735 14.8191 12.4865 14.8226 12.4998 14.8226C12.513 14.8226 12.5261 14.8191 12.5376 14.8124L17.7867 11.8125" stroke="black" stroke-width="1.51054"/>
</svg>
