<svg width="1167" height="142" viewBox="0 0 1167 142" fill="none" xmlns="http://www.w3.org/2000/svg">
<g clip-path="url(#clip0_1457_4378)">
<path d="M73.3128 95.6687C72.8898 95.412 72.4718 95.1946 72.094 94.9203C71.4502 94.5594 70.9527 93.9888 70.6851 93.3044C70.4175 92.6199 70.396 91.8632 70.6243 91.1613C70.7313 90.8779 70.744 90.5685 70.6607 90.2787C70.5773 89.9889 70.4023 89.734 70.1613 89.5513C68.1814 87.4947 66.2832 85.3547 64.3435 83.2412C64.0879 82.9602 63.8179 82.6953 63.6828 82.5628C56.0735 88.6775 47.4037 90.2968 38.2601 88.6016C25.7704 86.2794 17.5718 78.6974 13.7422 66.7205C11.609 60.0402 11.9094 53.1702 13.6142 46.379C15.8561 37.422 20.1033 29.575 27.0745 23.3187C31.094 19.8916 35.7856 17.3315 40.8477 15.8027C47.1388 13.6358 53.6283 12.0985 60.219 11.2138C66.901 10.3923 73.4481 10.6632 79.5158 13.8596C82.749 15.54 85.5902 17.8711 87.859 20.7051C90.1278 23.5391 91.7749 26.8142 92.6957 30.3228C95.1659 38.7962 93.3278 46.71 89.1397 54.256C87.8677 56.565 86.3599 58.7501 84.9731 61.0319L83.8488 62.8405C81.0073 67.3896 80.99 71.8431 84.089 76.2826C84.6018 77.287 85.0134 78.3397 85.3178 79.4255C85.4519 79.813 85.6777 80.1623 85.9764 80.4444C86.5999 80.9269 87.1162 81.5317 87.4934 82.2217C87.8705 82.9117 88.1005 83.6721 88.1691 84.4559C88.2912 84.9536 88.5192 85.419 88.8381 85.8207C89.0179 86.121 89.3948 86.3133 89.5121 86.5865C90.3369 88.4566 91.2284 90.3108 91.8727 92.2514C92.2667 93.7911 92.0451 95.4266 91.254 96.8166C91.011 97.3649 90.9262 97.9683 91.0092 98.5593C91.1407 99.7515 90.9306 100.959 90.4028 102.043C89.875 103.127 89.051 104.043 88.0253 104.687C87.5523 104.95 87.0081 105.055 86.4726 104.989C85.9371 104.922 85.4386 104.687 85.0501 104.317C84.6637 103.947 84.2964 103.558 83.9494 103.152C82.7513 103.414 81.5687 103.743 80.3663 103.915C79.6797 104.067 78.9631 103.985 78.3329 103.682C77.7026 103.379 77.1955 102.873 76.8938 102.246C76.8185 102.098 76.713 101.967 76.5841 101.862C76.4551 101.756 76.3054 101.678 76.1443 101.633C73.4576 101.335 72.5155 99.192 73.0659 96.6607C73.2049 96.2976 73.2606 95.9876 73.3128 95.6687ZM79.9401 83.556C82.9653 82.0849 83.6575 79.5703 82.0015 76.8518C81.0765 75.4988 80.3233 74.0372 79.7587 72.4996C79.3379 71.001 79.235 69.4299 79.4567 67.8852C79.6783 66.3405 80.2197 64.8558 81.0466 63.5244C82.6725 60.6035 84.5683 57.8139 86.3549 54.9846C91.5055 46.8667 92.8128 38.2339 89.7801 29.1467C88.7393 25.7571 86.904 22.6655 84.4237 20.1237C81.9435 17.582 78.8885 15.6622 75.5079 14.5208C70.372 12.7548 64.8407 12.3998 59.4972 13.493C53.9405 14.5381 48.438 15.8581 43.0103 17.4482C37.5363 18.8819 32.4762 21.5872 28.2498 25.3399C21.0508 32.0249 17.0326 40.4309 15.2843 49.9052C13.9395 57.1115 14.4079 64.1647 17.7945 70.7769C19.729 74.7649 22.5722 78.247 26.1007 80.9501C29.6293 83.6532 33.7472 85.5037 38.1315 86.3564C44.2561 87.5635 50.6162 86.9659 56.4293 84.6371C58.7935 83.7642 61.1086 82.6326 62.1472 79.9928C62.253 79.7044 63.1919 79.4711 63.591 79.6136C64.2365 79.8925 64.8096 80.3122 65.2678 80.8417C66.8817 82.5473 68.4227 84.3329 70.0365 86.0385C70.5501 86.59 71.1557 87.0495 71.8269 87.3972C72.2627 87.6138 72.7554 87.6934 73.2399 87.6253C73.7244 87.5572 74.1777 87.3447 74.5395 87.016C74.0537 86.5986 73.6855 86.2691 73.2993 85.9466C67.9397 81.341 62.542 76.7709 57.2262 72.1174C53.6182 68.9578 50.158 65.6168 47.8258 61.3819C46.4832 59.2341 45.8789 56.7085 46.1028 54.181C46.5014 51.1018 49.1652 49.5045 52.0025 50.7729C53.2789 51.4599 54.482 52.2723 55.5938 53.1979C55.9993 53.5084 56.3866 53.8416 56.7539 54.1957C57.2049 52.4618 57.7985 50.7666 58.5286 49.1271C60.043 46.3733 63.169 45.9849 65.4194 48.121C66.1665 48.76 66.7933 49.5254 67.2711 50.3821C68.6264 53.1564 70.0067 55.9416 71.1128 58.8236C73.5949 65.1719 75.8333 71.6154 78.153 78.0271C78.7935 79.8251 79.3453 81.6886 79.9491 83.5524L79.9401 83.556ZM71.3937 64.0664L71.0598 64.197C70.4488 62.6345 69.9157 61.0313 69.22 59.4916C67.8875 56.6158 66.4771 53.7806 65.0668 50.9454C64.8359 50.3938 64.4203 49.939 63.8896 49.6574C63.3589 49.3757 62.7454 49.2843 62.1519 49.3985C61.5863 49.4778 61.0606 49.7372 60.654 50.1375C60.2475 50.5378 59.9822 51.0574 59.898 51.618C59.6755 52.929 59.5217 54.2501 59.4371 55.5759C59.4004 56.0416 59.4696 56.5088 59.6393 56.9431C59.8091 57.3773 60.0752 57.7675 60.418 58.0848C63.4682 61.331 65.6237 65.3043 66.6787 69.6259C67.0753 71.3854 66.0449 72.5294 64.2412 72.1745C63.6597 72.0661 63.114 71.8206 62.6501 71.4584C61.9607 70.8811 61.3509 70.2163 60.8363 69.4809C58.8226 66.1947 57.5675 62.503 57.1605 58.6689C57.0482 58.0702 56.783 57.5112 56.3903 57.0451C55.708 56.237 54.9827 55.4657 54.2174 54.7346C53.9043 54.3765 53.491 54.1187 53.0293 53.9935C52.5676 53.8683 52.078 53.8811 51.6216 54.0305C49.944 54.5835 48.7773 57.8806 49.5856 59.4689C51.0539 62.3289 52.9577 64.945 55.2305 67.226C61.5225 74.03 69.0526 79.4236 76.1205 85.3376C76.329 85.4281 76.5567 85.468 76.7846 85.454C77.0125 85.44 77.2342 85.3727 77.4315 85.2573C77.583 85.1061 77.6947 84.9203 77.7567 84.7165C77.8186 84.5127 77.8289 84.2971 77.7864 84.0892C75.6477 77.4214 73.5179 70.7502 71.3666 64.077L71.3937 64.0664ZM85.3934 81.9076C83.9942 83.0928 82.7292 84.3286 81.3067 85.3479C79.1286 86.9098 76.846 88.3375 74.59 89.8064C74.1787 90.1152 73.7002 90.3235 73.1937 90.4141C72.0446 90.4825 71.9772 91.1882 72.0177 92.037C72.0303 92.5123 72.1986 92.9695 72.4972 93.3393C72.7957 93.7092 73.2083 93.9716 73.6724 94.087C74.3442 94.3311 75.06 94.4367 75.7763 94.3974C76.4926 94.358 77.1944 94.1744 77.8389 93.8578C79.171 93.1929 80.3652 92.3348 81.7285 91.6165C82.0353 91.4965 82.49 91.6482 82.8778 91.6818C82.7985 92.0113 82.8307 92.4928 82.6239 92.656C80.5285 94.2164 78.3642 95.6803 75.6179 95.8688C75.3247 95.8908 74.8114 95.9886 74.7901 96.1204C74.5109 96.9932 74.4376 97.9165 74.5757 98.8188C74.7622 99.1599 75.0324 99.4484 75.3616 99.6579C75.6907 99.8673 76.0683 99.9909 76.4595 100.017C77.9342 99.8234 79.3752 99.4229 80.7394 98.8278C81.9399 98.3585 82.9902 97.5052 84.1578 96.9251C84.5279 96.7804 85.0403 96.9198 85.4822 96.9323C85.271 97.3237 85.1658 97.8795 84.8798 98.0531C82.797 99.2997 80.6251 100.478 78.5033 101.678C78.7214 102.058 79.0698 102.347 79.4854 102.492C79.9011 102.637 80.3565 102.629 80.7693 102.47C81.9127 102.167 83.0181 101.735 84.0638 101.182C86.4385 100.061 88.4676 98.3253 89.9353 96.1587C90.3332 95.5238 90.5772 94.8067 90.6482 94.0643C90.7192 93.3219 90.6151 92.5746 90.3441 91.8815C89.5281 92.8285 88.8676 93.694 88.079 94.445C87.7974 94.7095 87.0139 94.8615 86.8287 94.7074C86.2789 94.2327 86.6602 93.7439 87.1675 93.3912C87.7231 92.9723 88.1821 92.4403 88.5132 91.8312C88.8443 91.2221 89.0397 90.5504 89.0861 89.8618C89.1991 89.2774 89.1446 88.6746 88.9286 88.122C88.7125 87.5694 88.3436 87.0894 87.8642 86.7367C87.6129 87.1569 87.332 87.5591 87.0237 87.9403C86.5708 88.4056 86.1983 89.3954 85.3682 88.7626C84.538 88.1299 85.464 87.6238 85.7855 87.1686C87.2746 85.3615 87.0357 82.8609 85.4024 81.904L85.3934 81.9076ZM60.0916 61.4549C60.4951 64.6426 61.2728 67.6428 64.2016 69.5445C63.6316 66.5124 62.2102 63.7074 60.1007 61.4514L60.0916 61.4549ZM89.554 99.1489L85.3604 102.343C85.8088 103.197 86.4157 103.711 87.3648 103.371C88.314 103.031 89.7615 100.478 89.563 99.1454L89.554 99.1489Z" fill="black"/>
<path d="M25.6438 32.648C17.1651 47.087 16.9528 61.5809 25.0069 76.1299C22.1889 75.5229 18.2604 61.5363 18.5253 53.5376C18.7866 45.8491 23.0619 33.0707 25.6438 32.648Z" fill="black"/>
<path d="M79.9564 19.5133C80.3459 19.7794 80.7126 20.0767 81.0531 20.4021C83.2377 22.75 84.9298 25.5065 86.0321 28.5131C87.1345 31.5197 87.6253 34.7172 87.4765 37.9218C87.3007 43.7984 85.6829 49.5543 82.7633 54.6903C82.5688 54.9847 82.3505 55.2628 82.1104 55.522L81.764 55.3281C81.9688 54.8672 82.1485 54.3954 82.3784 53.9453C85.8325 47.3965 87.5399 40.5322 86.4698 33.1378C85.817 28.4443 83.6835 24.0867 80.3742 20.6881C80.1256 20.425 79.8972 20.1335 79.6632 19.8544L79.9564 19.5133Z" fill="black"/>
<path d="M86.6544 50.163C88.6207 46.382 89.5685 42.1668 89.405 37.9293C90.9731 39.7043 88.9498 48.5552 86.6544 50.163Z" fill="black"/>
<path d="M32.413 82.1378C30.134 81.2061 28.2313 79.5562 26.997 77.4411L27.2646 77.1409C28.1279 78.018 28.9364 78.968 29.8689 79.7563C30.7851 80.4616 31.7371 81.1201 32.7214 81.729L32.413 82.1378Z" fill="black"/>
<path d="M73.2891 91.457C76.451 93.5559 78.4653 91.389 80.703 90.1126L82.085 89.3355C81.9573 89.8074 81.9674 90.0197 81.8806 90.0639C80.0919 91.0515 78.3417 92.1372 76.4742 92.9498C75.1738 93.5097 73.9338 92.8931 73.2891 91.457Z" fill="black"/>
<path d="M75.8404 98.6737C78.2323 98.4926 80.4713 97.4148 82.102 95.6593C81.8257 97.6408 77.9334 99.5023 75.8404 98.6737Z" fill="black"/>
</g>
<path d="M1110.46 45.2389C1116.81 45.2389 1121.96 40.0935 1121.96 33.7454C1121.96 27.3981 1116.81 22.252 1110.46 22.252C1104.12 22.252 1098.97 27.3981 1098.97 33.7454C1098.97 40.0935 1104.12 45.2389 1110.46 45.2389Z" fill="#F7BF46"/>
<path d="M1110.46 17V26.21" stroke="black" stroke-width="3" stroke-miterlimit="10" stroke-linecap="round" stroke-linejoin="round"/>
<path d="M1096 25.373L1103.99 29.94" stroke="black" stroke-width="3" stroke-miterlimit="10" stroke-linecap="round" stroke-linejoin="round"/>
<path d="M1110.46 41.2051V50.4151" stroke="black" stroke-width="3" stroke-miterlimit="10" stroke-linecap="round" stroke-linejoin="round"/>
<path d="M1117.01 37.4746L1125 42.0416" stroke="black" stroke-width="3" stroke-miterlimit="10" stroke-linecap="round" stroke-linejoin="round"/>
<path d="M1096 42.5743L1103.99 37.4746" stroke="black" stroke-width="3" stroke-miterlimit="10" stroke-linecap="round" stroke-linejoin="round"/>
<path d="M1117.01 29.94L1125 25.373" stroke="black" stroke-width="3" stroke-miterlimit="10" stroke-linecap="round" stroke-linejoin="round"/>
<path d="M1141.87 86V97.6571" stroke="black" stroke-width="4" stroke-miterlimit="10" stroke-linecap="round" stroke-linejoin="round"/>
<path d="M1147.66 91.8682H1136" stroke="black" stroke-width="4" stroke-miterlimit="10" stroke-linecap="round" stroke-linejoin="round"/>
<path d="M1085.1 83V90.8507" stroke="black" stroke-width="3" stroke-miterlimit="10" stroke-linecap="round" stroke-linejoin="round"/>
<path d="M1085.1 100.843V108.773" stroke="black" stroke-width="3" stroke-miterlimit="10" stroke-linecap="round" stroke-linejoin="round"/>
<path d="M1074 89.4238L1080.82 93.3888" stroke="black" stroke-width="3" stroke-miterlimit="10" stroke-linecap="round" stroke-linejoin="round"/>
<path d="M1089.46 98.3838L1096.28 102.27" stroke="black" stroke-width="3" stroke-miterlimit="10" stroke-linecap="round" stroke-linejoin="round"/>
<path d="M1074 102.27L1080.82 98.3838" stroke="black" stroke-width="3" stroke-miterlimit="10" stroke-linecap="round" stroke-linejoin="round"/>
<path d="M1089.46 93.3888L1096.28 89.4238" stroke="black" stroke-width="3" stroke-miterlimit="10" stroke-linecap="round" stroke-linejoin="round"/>
<path d="M1058.09 62.0466L1053.05 57L1048 62.0466L1053.05 67.0925L1058.09 62.0466Z" fill="#F4C2FB"/>
<path d="M1166.21 135.607L1160.61 130L1155 135.607L1160.61 141.215L1166.21 135.607Z" fill="#B6A3FE"/>
<g filter="url(#filter0_f_1457_4378)">
<path fill-rule="evenodd" clip-rule="evenodd" d="M882.407 104.357C899.546 104.701 917.061 104.013 933.449 108.888C934.425 109.175 935.5 108.756 935.853 107.944C936.199 107.132 935.695 106.238 934.718 105.944C917.948 100.957 900.035 101.582 882.498 101.232C881.461 101.207 880.597 101.895 880.574 102.757C880.544 103.619 881.37 104.332 882.407 104.357Z" fill="#F4A8FF"/>
<path fill-rule="evenodd" clip-rule="evenodd" d="M880.868 83.6592C886.21 79.5708 892.041 76.508 899.089 74.99C900.096 74.7738 900.697 73.9207 900.441 73.0858C900.178 72.2509 899.149 71.749 898.15 71.9653C890.485 73.6151 884.136 76.9161 878.328 81.3588C877.562 81.9425 877.509 82.9318 878.215 83.5668C878.914 84.2011 880.109 84.2429 880.868 83.6592Z" fill="#F4A8FF"/>
<path fill-rule="evenodd" clip-rule="evenodd" d="M866.006 39.0242C868.456 32.0405 873.28 26.5772 880.673 22.6319C881.545 22.1663 881.8 21.1989 881.237 20.4734C880.681 19.7478 879.516 19.5366 878.644 20.0021C870.462 24.3705 865.112 30.4162 862.399 38.1487C862.106 38.9761 862.685 39.8448 863.677 40.086C864.676 40.3279 865.721 39.8516 866.006 39.0242Z" fill="#F4A8FF"/>
<path fill-rule="evenodd" clip-rule="evenodd" d="M781.588 29.5465C780.13 30.9732 778.823 32.5106 777.711 34.1473C777.215 34.876 776.343 36.4246 776.208 37.7526C776.058 39.1675 776.636 40.3612 778.124 40.9899C780.1 41.8236 781.678 41.7367 782.895 41.2324C784.067 40.748 784.984 39.7962 785.562 38.5201C786.667 36.0809 786.502 32.3531 785.923 30.2258C787.478 28.8909 789.184 27.6804 791.01 26.6042C804.61 18.5893 824.559 21.5447 839.91 33.5286C845.282 37.7245 847.867 46.5362 849.212 56.0435C851.308 70.8466 850.114 87.3802 849.948 92.2241C849.911 93.4203 850.046 94.1302 850.121 94.2721C850.474 94.9695 851.098 95.1507 851.534 95.2195C852.165 95.3132 852.668 95.2132 853.074 95.0383C853.622 94.7983 854.073 94.3758 854.284 93.724C854.396 93.364 854.426 92.8628 854.411 92.3285C854.396 91.9579 854.306 91.5529 854.396 91.2873C854.982 89.5862 855.689 87.9251 856.38 86.2521C858.687 80.6283 861.67 75.3581 864.983 70.0942C875.51 53.3682 885.691 35.6953 902.951 22.9521C903.725 22.3802 903.8 21.3916 903.108 20.7466C902.425 20.1017 901.237 20.0429 900.456 20.6154C882.851 33.6105 872.392 51.5877 861.655 68.6449C858.837 73.1227 856.252 77.6067 854.103 82.2969C854.321 74.0001 854.239 62.5155 852.413 52.3539C850.79 43.3165 847.702 35.3297 842.48 31.2507C825.664 18.1225 803.731 15.2746 788.838 24.0551C787.246 24.995 785.728 26.0287 784.315 27.1499C776.523 15.4478 759.843 10.7575 745.101 16.3545C744.154 16.7126 743.741 17.64 744.169 18.4243C744.605 19.2087 745.717 19.5549 746.663 19.1968C759.948 14.1535 775.013 18.6543 781.588 29.5465ZM782.677 33.4643C782.069 34.1792 781.505 34.9204 780.979 35.6866C780.701 36.0978 780.22 36.8884 780.017 37.662C779.972 37.8433 779.965 38.127 779.965 38.2582C780.483 38.4707 780.889 38.5732 781.219 38.4351C781.633 38.2651 781.843 37.8651 782.046 37.4183C782.557 36.2972 782.722 34.811 782.677 33.4643Z" fill="#F4A8FF"/>
</g>
<path d="M217 73H581H596L564 83.26L590.363 88.6543C593.475 89.291 593.593 93.6944 590.519 94.4962L569.5 99.98L581 111H235.186C231.477 111 230.533 105.857 234 104.54L225.953 99.8054C223.024 98.0818 223.465 93.716 226.679 92.6126C229.742 91.5615 230.333 87.4876 227.696 85.6087L215.701 77.0619C213.926 75.7974 214.821 73 217 73Z" fill="#EC79F6" fill-opacity="0.44"/>
<path d="M268.794 54.274H275.907V85.2557H291.872V92H268.794V54.274ZM317.91 85.7826C316.716 87.8902 315.1 89.5938 313.063 90.8935C311.061 92.1932 308.602 92.843 305.686 92.843C303.719 92.843 301.892 92.5093 300.206 91.8419C298.555 91.1394 297.115 90.1734 295.886 88.944C294.656 87.7145 293.69 86.2744 292.988 84.6234C292.32 82.9373 291.987 81.0932 291.987 79.091C291.987 77.2292 292.32 75.4729 292.988 73.8219C293.655 72.1359 294.586 70.6781 295.78 69.4487C296.975 68.1841 298.38 67.183 299.996 66.4453C301.647 65.7077 303.456 65.3389 305.423 65.3389C307.495 65.3389 309.339 65.6901 310.955 66.3927C312.571 67.0601 313.923 68.0085 315.012 69.2379C316.101 70.4322 316.927 71.8549 317.489 73.5058C318.051 75.1568 318.332 76.9482 318.332 78.8802C318.332 79.1261 318.332 79.3368 318.332 79.5125C318.297 79.7232 318.279 79.9164 318.279 80.0921C318.244 80.2677 318.226 80.4609 318.226 80.6717H298.784C298.924 81.7255 299.205 82.6387 299.627 83.4115C300.083 84.1492 300.628 84.7815 301.26 85.3084C301.928 85.8001 302.648 86.169 303.42 86.4149C304.193 86.6256 304.984 86.731 305.792 86.731C307.372 86.731 308.672 86.3797 309.691 85.6772C310.744 84.9395 311.57 84.0262 312.167 82.9373L317.91 85.7826ZM311.64 75.7715C311.605 75.3148 311.447 74.8055 311.166 74.2435C310.92 73.6814 310.534 73.1545 310.007 72.6628C309.515 72.171 308.883 71.767 308.11 71.4509C307.372 71.1348 306.476 70.9767 305.423 70.9767C303.947 70.9767 302.648 71.3982 301.524 72.2412C300.4 73.0843 299.609 74.261 299.153 75.7715H311.64ZM330.585 92.843C328.899 92.843 327.388 92.6323 326.053 92.2108C324.754 91.7892 323.612 91.2448 322.628 90.5774C321.68 89.8748 320.872 89.0845 320.205 88.2063C319.537 87.293 319.028 86.3797 318.677 85.4664L324.841 82.8319C325.439 84.1668 326.229 85.1679 327.212 85.8353C328.231 86.4675 329.355 86.7837 330.585 86.7837C331.849 86.7837 332.85 86.5554 333.588 86.0987C334.326 85.6421 334.694 85.0976 334.694 84.4653C334.694 83.7628 334.378 83.2008 333.746 82.7792C333.149 82.3226 332.095 81.9186 330.585 81.5674L326.949 80.777C326.141 80.6014 325.298 80.3204 324.42 79.934C323.577 79.5476 322.804 79.0558 322.102 78.4587C321.399 77.8615 320.819 77.1414 320.363 76.2984C319.906 75.4553 319.678 74.4718 319.678 73.3477C319.678 72.0832 319.941 70.9591 320.468 69.9756C321.03 68.992 321.785 68.1666 322.734 67.4991C323.682 66.7966 324.789 66.2697 326.053 65.9184C327.353 65.5321 328.74 65.3389 330.216 65.3389C332.675 65.3389 334.87 65.8306 336.802 66.8142C338.734 67.7626 340.157 69.2906 341.07 71.3982L335.116 73.8219C334.624 72.8033 333.904 72.0656 332.956 71.609C332.007 71.1523 331.059 70.924 330.11 70.924C329.127 70.924 328.266 71.1348 327.529 71.5563C326.791 71.9427 326.422 72.452 326.422 73.0843C326.422 73.6814 326.721 74.1557 327.318 74.5069C327.95 74.8582 328.793 75.1743 329.847 75.4553L333.799 76.4038C336.433 77.036 338.383 78.0547 339.647 79.4598C340.947 80.8297 341.597 82.4631 341.597 84.3599C341.597 85.484 341.333 86.5554 340.807 87.574C340.28 88.5927 339.524 89.506 338.541 90.3139C337.592 91.0867 336.433 91.7014 335.063 92.1581C333.728 92.6147 332.236 92.843 330.585 92.843ZM352.141 66.1819H358.622V69.5541H359.044C359.852 68.2895 360.941 67.2708 362.311 66.498C363.716 65.7253 365.261 65.3389 366.947 65.3389C368.914 65.3389 370.565 65.7955 371.9 66.7088C373.235 67.6221 374.183 68.7461 374.745 70.081C375.553 68.7813 376.695 67.6748 378.17 66.7615C379.646 65.8131 381.437 65.3389 383.545 65.3389C385.125 65.3389 386.495 65.6023 387.654 66.1292C388.814 66.621 389.762 67.3235 390.5 68.2368C391.273 69.1501 391.852 70.2566 392.239 71.5563C392.625 72.8208 392.818 74.2083 392.818 75.7188V92H385.916V76.9833C385.916 73.4707 384.476 71.7143 381.595 71.7143C380.682 71.7143 379.874 71.9251 379.171 72.3466C378.469 72.733 377.872 73.2775 377.38 73.98C376.923 74.6474 376.554 75.4553 376.273 76.4038C376.028 77.3522 375.905 78.3709 375.905 79.4598V92H369.002V76.9833C369.002 73.4707 367.492 71.7143 364.471 71.7143C363.593 71.7143 362.82 71.9251 362.153 72.3466C361.485 72.733 360.923 73.2775 360.466 73.98C360.01 74.6474 359.659 75.4553 359.413 76.4038C359.167 77.3522 359.044 78.3709 359.044 79.4598V92H352.141V66.1819ZM420.316 85.7826C419.122 87.8902 417.506 89.5938 415.469 90.8935C413.466 92.1932 411.008 92.843 408.092 92.843C406.125 92.843 404.298 92.5093 402.612 91.8419C400.961 91.1394 399.521 90.1734 398.292 88.944C397.062 87.7145 396.096 86.2744 395.394 84.6234C394.726 82.9373 394.393 81.0932 394.393 79.091C394.393 77.2292 394.726 75.4729 395.394 73.8219C396.061 72.1359 396.992 70.6781 398.186 69.4487C399.381 68.1841 400.786 67.183 402.402 66.4453C404.052 65.7077 405.861 65.3389 407.829 65.3389C409.901 65.3389 411.745 65.6901 413.361 66.3927C414.977 67.0601 416.329 68.0085 417.418 69.2379C418.507 70.4322 419.333 71.8549 419.895 73.5058C420.457 75.1568 420.738 76.9482 420.738 78.8802C420.738 79.1261 420.738 79.3368 420.738 79.5125C420.703 79.7232 420.685 79.9164 420.685 80.0921C420.65 80.2677 420.632 80.4609 420.632 80.6717H401.19C401.33 81.7255 401.611 82.6387 402.033 83.4115C402.489 84.1492 403.034 84.7815 403.666 85.3084C404.333 85.8001 405.054 86.169 405.826 86.4149C406.599 86.6256 407.39 86.731 408.197 86.731C409.778 86.731 411.078 86.3797 412.096 85.6772C413.15 84.9395 413.976 84.0262 414.573 82.9373L420.316 85.7826ZM414.046 75.7715C414.011 75.3148 413.853 74.8055 413.572 74.2435C413.326 73.6814 412.94 73.1545 412.413 72.6628C411.921 72.171 411.289 71.767 410.516 71.4509C409.778 71.1348 408.882 70.9767 407.829 70.9767C406.353 70.9767 405.054 71.3982 403.93 72.2412C402.805 73.0843 402.015 74.261 401.558 75.7715H414.046ZM424.585 72.0832H420.053V66.1819H424.585V58.2784H431.487V66.1819H437.81V72.0832H431.487V82.0943C431.487 82.6914 431.54 83.2535 431.645 83.7804C431.786 84.2721 432.032 84.6937 432.383 85.0449C432.875 85.6069 433.577 85.888 434.491 85.888C435.088 85.888 435.562 85.8353 435.913 85.7299C436.264 85.5894 436.598 85.4137 436.914 85.203L438.864 91.2623C438.056 91.6487 437.178 91.9297 436.229 92.1054C435.316 92.3161 434.297 92.4215 433.173 92.4215C431.874 92.4215 430.697 92.2283 429.643 91.8419C428.624 91.4204 427.764 90.8584 427.061 90.1559C425.41 88.5751 424.585 86.327 424.585 83.4115V72.0832ZM440.51 54.274H447.413V64.8646L446.991 69.5541H447.413C448.15 68.3246 449.204 67.3235 450.574 66.5507C451.979 65.7428 453.542 65.3389 455.264 65.3389C458.601 65.3389 461.059 66.3224 462.64 68.2895C464.256 70.2566 465.064 72.9438 465.064 76.3511V92H458.162V77.1941C458.162 75.4026 457.74 74.0503 456.897 73.137C456.054 72.1886 454.877 71.7143 453.367 71.7143C452.418 71.7143 451.575 71.9251 450.838 72.3466C450.1 72.733 449.468 73.2775 448.941 73.98C448.449 74.6826 448.063 75.508 447.782 76.4564C447.536 77.3697 447.413 78.3533 447.413 79.4071V92H440.51V54.274ZM480.356 65.3389C482.358 65.3389 484.184 65.6901 485.835 66.3927C487.521 67.0601 488.962 68.0085 490.156 69.2379C491.385 70.4322 492.334 71.8724 493.001 73.5585C493.704 75.2446 494.055 77.0887 494.055 79.091C494.055 81.0932 493.704 82.9373 493.001 84.6234C492.334 86.3095 491.385 87.7672 490.156 88.9967C488.962 90.191 487.521 91.1394 485.835 91.8419C484.184 92.5093 482.358 92.843 480.356 92.843C478.353 92.843 476.509 92.5093 474.823 91.8419C473.172 91.1394 471.732 90.191 470.503 88.9967C469.308 87.7672 468.36 86.3095 467.657 84.6234C466.99 82.9373 466.656 81.0932 466.656 79.091C466.656 77.0887 466.99 75.2446 467.657 73.5585C468.36 71.8724 469.308 70.4322 470.503 69.2379C471.732 68.0085 473.172 67.0601 474.823 66.3927C476.509 65.6901 478.353 65.3389 480.356 65.3389ZM480.356 86.4675C481.234 86.4675 482.077 86.3095 482.885 85.9933C483.728 85.6421 484.465 85.1503 485.098 84.518C485.73 83.8857 486.222 83.113 486.573 82.1997C486.959 81.2864 487.153 80.2501 487.153 79.091C487.153 77.9318 486.959 76.8955 486.573 75.9822C486.222 75.0689 485.73 74.2962 485.098 73.6639C484.465 73.0316 483.728 72.5574 482.885 72.2412C482.077 71.89 481.234 71.7143 480.356 71.7143C479.442 71.7143 478.582 71.89 477.774 72.2412C476.966 72.5574 476.246 73.0316 475.613 73.6639C474.981 74.2962 474.472 75.0689 474.085 75.9822C473.734 76.8955 473.559 77.9318 473.559 79.091C473.559 80.2501 473.734 81.2864 474.085 82.1997C474.472 83.113 474.981 83.8857 475.613 84.518C476.246 85.1503 476.966 85.6421 477.774 85.9933C478.582 86.3095 479.442 86.4675 480.356 86.4675ZM515.087 88.8913H514.666C514.034 89.9802 513.05 90.9111 511.715 91.6839C510.38 92.4566 508.729 92.843 506.762 92.843C505.111 92.843 503.531 92.5093 502.02 91.8419C500.545 91.1394 499.228 90.191 498.068 88.9967C496.944 87.7672 496.049 86.3095 495.381 84.6234C494.714 82.9373 494.38 81.0932 494.38 79.091C494.38 77.0887 494.714 75.2446 495.381 73.5585C496.049 71.8724 496.944 70.4322 498.068 69.2379C499.228 68.0085 500.545 67.0601 502.02 66.3927C503.531 65.6901 505.111 65.3389 506.762 65.3389C508.729 65.3389 510.38 65.7253 511.715 66.498C513.05 67.2708 514.034 68.2017 514.666 69.2906H515.087L514.666 65.6023V54.274H521.568V92H515.087V88.8913ZM508.185 86.4675C509.098 86.4675 509.959 86.3095 510.767 85.9933C511.61 85.6421 512.347 85.1503 512.98 84.518C513.612 83.8857 514.121 83.113 514.508 82.1997C514.894 81.2864 515.087 80.2501 515.087 79.091C515.087 77.9318 514.894 76.8955 514.508 75.9822C514.121 75.0689 513.612 74.2962 512.98 73.6639C512.347 73.0316 511.61 72.5574 510.767 72.2412C509.959 71.89 509.098 71.7143 508.185 71.7143C507.272 71.7143 506.393 71.89 505.55 72.2412C504.743 72.5925 504.022 73.0843 503.39 73.7166C502.758 74.3488 502.249 75.1216 501.862 76.0349C501.476 76.9482 501.283 77.9669 501.283 79.091C501.283 80.215 501.476 81.2337 501.862 82.147C502.249 83.0603 502.758 83.833 503.39 84.4653C504.022 85.0976 504.743 85.5894 505.55 85.9407C506.393 86.2919 507.272 86.4675 508.185 86.4675ZM549.005 85.7826C547.811 87.8902 546.195 89.5938 544.158 90.8935C542.156 92.1932 539.697 92.843 536.781 92.843C534.814 92.843 532.988 92.5093 531.301 91.8419C529.65 91.1394 528.21 90.1734 526.981 88.944C525.751 87.7145 524.785 86.2744 524.083 84.6234C523.415 82.9373 523.082 81.0932 523.082 79.091C523.082 77.2292 523.415 75.4729 524.083 73.8219C524.75 72.1359 525.681 70.6781 526.875 69.4487C528.07 68.1841 529.475 67.183 531.091 66.4453C532.742 65.7077 534.551 65.3389 536.518 65.3389C538.59 65.3389 540.434 65.6901 542.05 66.3927C543.666 67.0601 545.018 68.0085 546.107 69.2379C547.196 70.4322 548.022 71.8549 548.584 73.5058C549.146 75.1568 549.427 76.9482 549.427 78.8802C549.427 79.1261 549.427 79.3368 549.427 79.5125C549.392 79.7232 549.374 79.9164 549.374 80.0921C549.339 80.2677 549.321 80.4609 549.321 80.6717H529.879C530.019 81.7255 530.3 82.6387 530.722 83.4115C531.178 84.1492 531.723 84.7815 532.355 85.3084C533.023 85.8001 533.743 86.169 534.516 86.4149C535.288 86.6256 536.079 86.731 536.887 86.731C538.467 86.731 539.767 86.3797 540.786 85.6772C541.839 84.9395 542.665 84.0262 543.262 82.9373L549.005 85.7826ZM542.735 75.7715C542.7 75.3148 542.542 74.8055 542.261 74.2435C542.015 73.6814 541.629 73.1545 541.102 72.6628C540.61 72.171 539.978 71.767 539.205 71.4509C538.467 71.1348 537.572 70.9767 536.518 70.9767C535.042 70.9767 533.743 71.3982 532.619 72.2412C531.495 73.0843 530.704 74.261 530.248 75.7715H542.735ZM561.68 92.843C559.994 92.843 558.483 92.6323 557.148 92.2108C555.849 91.7892 554.707 91.2448 553.723 90.5774C552.775 89.8748 551.967 89.0845 551.3 88.2063C550.632 87.293 550.123 86.3797 549.772 85.4664L555.936 82.8319C556.534 84.1668 557.324 85.1679 558.308 85.8353C559.326 86.4675 560.45 86.7837 561.68 86.7837C562.944 86.7837 563.945 86.5554 564.683 86.0987C565.421 85.6421 565.789 85.0976 565.789 84.4653C565.789 83.7628 565.473 83.2008 564.841 82.7792C564.244 82.3226 563.19 81.9186 561.68 81.5674L558.044 80.777C557.236 80.6014 556.393 80.3204 555.515 79.934C554.672 79.5476 553.899 79.0558 553.197 78.4587C552.494 77.8615 551.914 77.1414 551.458 76.2984C551.001 75.4553 550.773 74.4718 550.773 73.3477C550.773 72.0832 551.036 70.9591 551.563 69.9756C552.125 68.992 552.88 68.1666 553.829 67.4991C554.777 66.7966 555.884 66.2697 557.148 65.9184C558.448 65.5321 559.836 65.3389 561.311 65.3389C563.77 65.3389 565.965 65.8306 567.897 66.8142C569.829 67.7626 571.252 69.2906 572.165 71.3982L566.211 73.8219C565.719 72.8033 564.999 72.0656 564.051 71.609C563.102 71.1523 562.154 70.924 561.205 70.924C560.222 70.924 559.361 71.1348 558.624 71.5563C557.886 71.9427 557.517 72.452 557.517 73.0843C557.517 73.6814 557.816 74.1557 558.413 74.5069C559.045 74.8582 559.888 75.1743 560.942 75.4553L564.894 76.4038C567.528 77.036 569.478 78.0547 570.742 79.4598C572.042 80.8297 572.692 82.4631 572.692 84.3599C572.692 85.484 572.428 86.5554 571.902 87.574C571.375 88.5927 570.619 89.506 569.636 90.3139C568.687 91.0867 567.528 91.7014 566.158 92.1581C564.824 92.6147 563.331 92.843 561.68 92.843ZM602.468 88.8913H602.047C601.415 89.9802 600.431 90.9111 599.096 91.6839C597.761 92.4566 596.11 92.843 594.143 92.843C592.492 92.843 590.912 92.5093 589.401 91.8419C587.926 91.1394 586.609 90.191 585.449 88.9967C584.325 87.7672 583.43 86.3095 582.762 84.6234C582.095 82.9373 581.761 81.0932 581.761 79.091C581.761 77.0887 582.095 75.2446 582.762 73.5585C583.43 71.8724 584.325 70.4322 585.449 69.2379C586.609 68.0085 587.926 67.0601 589.401 66.3927C590.912 65.6901 592.492 65.3389 594.143 65.3389C596.11 65.3389 597.761 65.7253 599.096 66.498C600.431 67.2708 601.415 68.2017 602.047 69.2906H602.468L602.047 65.6023V54.274H608.949V92H602.468V88.8913ZM595.566 86.4675C596.479 86.4675 597.34 86.3095 598.148 85.9933C598.991 85.6421 599.728 85.1503 600.361 84.518C600.993 83.8857 601.502 83.113 601.889 82.1997C602.275 81.2864 602.468 80.2501 602.468 79.091C602.468 77.9318 602.275 76.8955 601.889 75.9822C601.502 75.0689 600.993 74.2962 600.361 73.6639C599.728 73.0316 598.991 72.5574 598.148 72.2412C597.34 71.89 596.479 71.7143 595.566 71.7143C594.653 71.7143 593.774 71.89 592.931 72.2412C592.124 72.5925 591.403 73.0843 590.771 73.7166C590.139 74.3488 589.63 75.1216 589.243 76.0349C588.857 76.9482 588.664 77.9669 588.664 79.091C588.664 80.215 588.857 81.2337 589.243 82.147C589.63 83.0603 590.139 83.833 590.771 84.4653C591.403 85.0976 592.124 85.5894 592.931 85.9407C593.774 86.2919 594.653 86.4675 595.566 86.4675ZM636.386 85.7826C635.192 87.8902 633.576 89.5938 631.539 90.8935C629.537 92.1932 627.078 92.843 624.162 92.843C622.195 92.843 620.369 92.5093 618.682 91.8419C617.031 91.1394 615.591 90.1734 614.362 88.944C613.132 87.7145 612.166 86.2744 611.464 84.6234C610.797 82.9373 610.463 81.0932 610.463 79.091C610.463 77.2292 610.797 75.4729 611.464 73.8219C612.131 72.1359 613.062 70.6781 614.256 69.4487C615.451 68.1841 616.856 67.183 618.472 66.4453C620.123 65.7077 621.932 65.3389 623.899 65.3389C625.971 65.3389 627.815 65.6901 629.431 66.3927C631.047 67.0601 632.399 68.0085 633.488 69.2379C634.577 70.4322 635.403 71.8549 635.965 73.5058C636.527 75.1568 636.808 76.9482 636.808 78.8802C636.808 79.1261 636.808 79.3368 636.808 79.5125C636.773 79.7232 636.755 79.9164 636.755 80.0921C636.72 80.2677 636.702 80.4609 636.702 80.6717H617.26C617.4 81.7255 617.681 82.6387 618.103 83.4115C618.56 84.1492 619.104 84.7815 619.736 85.3084C620.404 85.8001 621.124 86.169 621.897 86.4149C622.669 86.6256 623.46 86.731 624.268 86.731C625.848 86.731 627.148 86.3797 628.167 85.6772C629.22 84.9395 630.046 84.0262 630.643 82.9373L636.386 85.7826ZM630.116 75.7715C630.081 75.3148 629.923 74.8055 629.642 74.2435C629.396 73.6814 629.01 73.1545 628.483 72.6628C627.991 72.171 627.359 71.767 626.586 71.4509C625.848 71.1348 624.953 70.9767 623.899 70.9767C622.423 70.9767 621.124 71.3982 620 72.2412C618.876 73.0843 618.085 74.261 617.629 75.7715H630.116ZM647.524 66.1819H654.005V69.7648H654.427C654.743 69.1325 655.164 68.5529 655.691 68.026C656.218 67.4991 656.798 67.0425 657.43 66.6561C658.098 66.2697 658.8 65.9711 659.538 65.7604C660.311 65.5496 661.066 65.4442 661.803 65.4442C662.717 65.4442 663.49 65.5321 664.122 65.7077C664.789 65.8833 665.351 66.1116 665.808 66.3927L663.964 72.6628C663.542 72.452 663.068 72.2939 662.541 72.1886C662.049 72.0481 661.435 71.9778 660.697 71.9778C659.749 71.9778 658.888 72.171 658.115 72.5574C657.342 72.9087 656.675 73.418 656.113 74.0854C655.586 74.7528 655.164 75.5432 654.848 76.4564C654.567 77.3346 654.427 78.3006 654.427 79.3544V92H647.524V66.1819ZM689.2 85.7826C688.005 87.8902 686.39 89.5938 684.352 90.8935C682.35 92.1932 679.891 92.843 676.976 92.843C675.009 92.843 673.182 92.5093 671.496 91.8419C669.845 91.1394 668.405 90.1734 667.175 88.944C665.946 87.7145 664.98 86.2744 664.277 84.6234C663.61 82.9373 663.276 81.0932 663.276 79.091C663.276 77.2292 663.61 75.4729 664.277 73.8219C664.945 72.1359 665.876 70.6781 667.07 69.4487C668.264 68.1841 669.669 67.183 671.285 66.4453C672.936 65.7077 674.745 65.3389 676.712 65.3389C678.785 65.3389 680.629 65.6901 682.245 66.3927C683.861 67.0601 685.213 68.0085 686.302 69.2379C687.391 70.4322 688.216 71.8549 688.778 73.5058C689.34 75.1568 689.621 76.9482 689.621 78.8802C689.621 79.1261 689.621 79.3368 689.621 79.5125C689.586 79.7232 689.569 79.9164 689.569 80.0921C689.533 80.2677 689.516 80.4609 689.516 80.6717H670.073C670.214 81.7255 670.495 82.6387 670.916 83.4115C671.373 84.1492 671.917 84.7815 672.55 85.3084C673.217 85.8001 673.937 86.169 674.71 86.4149C675.483 86.6256 676.273 86.731 677.081 86.731C678.662 86.731 679.961 86.3797 680.98 85.6772C682.034 84.9395 682.859 84.0262 683.457 82.9373L689.2 85.7826ZM682.93 75.7715C682.895 75.3148 682.736 74.8055 682.455 74.2435C682.21 73.6814 681.823 73.1545 681.296 72.6628C680.804 72.171 680.172 71.767 679.399 71.4509C678.662 71.1348 677.766 70.9767 676.712 70.9767C675.237 70.9767 673.937 71.3982 672.813 72.2412C671.689 73.0843 670.899 74.261 670.442 75.7715H682.93ZM710.481 92V60.4387H704.369C703.245 60.4387 702.349 60.79 701.682 61.4925C701.05 62.1599 700.734 63.1434 700.734 64.4431V66.1819H706.793V72.0832H700.734V92H693.831V72.0832H689.194V66.1819H693.831V64.5485C693.831 61.1412 694.727 58.5418 696.518 56.7504C698.31 54.9589 700.909 54.0632 704.316 54.0632H717.384V92H710.481ZM744.854 85.7826C743.659 87.8902 742.043 89.5938 740.006 90.8935C738.004 92.1932 735.545 92.843 732.629 92.843C730.662 92.843 728.836 92.5093 727.15 91.8419C725.499 91.1394 724.059 90.1734 722.829 88.944C721.6 87.7145 720.634 86.2744 719.931 84.6234C719.264 82.9373 718.93 81.0932 718.93 79.091C718.93 77.2292 719.264 75.4729 719.931 73.8219C720.599 72.1359 721.529 70.6781 722.724 69.4487C723.918 68.1841 725.323 67.183 726.939 66.4453C728.59 65.7077 730.399 65.3389 732.366 65.3389C734.439 65.3389 736.283 65.6901 737.898 66.3927C739.514 67.0601 740.867 68.0085 741.956 69.2379C743.045 70.4322 743.87 71.8549 744.432 73.5058C744.994 75.1568 745.275 76.9482 745.275 78.8802C745.275 79.1261 745.275 79.3368 745.275 79.5125C745.24 79.7232 745.222 79.9164 745.222 80.0921C745.187 80.2677 745.17 80.4609 745.17 80.6717H725.727C725.868 81.7255 726.149 82.6387 726.57 83.4115C727.027 84.1492 727.571 84.7815 728.204 85.3084C728.871 85.8001 729.591 86.169 730.364 86.4149C731.137 86.6256 731.927 86.731 732.735 86.731C734.316 86.731 735.615 86.3797 736.634 85.6772C737.688 84.9395 738.513 84.0262 739.11 82.9373L744.854 85.7826ZM738.583 75.7715C738.548 75.3148 738.39 74.8055 738.109 74.2435C737.863 73.6814 737.477 73.1545 736.95 72.6628C736.458 72.171 735.826 71.767 735.053 71.4509C734.316 71.1348 733.42 70.9767 732.366 70.9767C730.891 70.9767 729.591 71.3982 728.467 72.2412C727.343 73.0843 726.553 74.261 726.096 75.7715H738.583ZM752.962 78.8802L744.111 66.1819H752.278L756.967 73.3477H757.336L761.762 66.1819H770.192L761.129 78.8802L770.192 92H762.078L757.23 84.6234H756.862L752.172 92H744.005L752.962 78.8802ZM774.812 62.4409C774.214 62.4409 773.635 62.3355 773.073 62.1248C772.546 61.8789 772.072 61.5627 771.65 61.1763C771.264 60.7548 770.948 60.2806 770.702 59.7537C770.491 59.2268 770.386 58.6472 770.386 58.0149C770.386 57.3827 770.491 56.8031 770.702 56.2762C770.948 55.7493 771.264 55.2926 771.65 54.9062C772.072 54.4847 772.546 54.1686 773.073 53.9578C773.635 53.7119 774.214 53.589 774.812 53.589C776.041 53.589 777.095 54.0281 777.973 54.9062C778.851 55.7493 779.29 56.7855 779.29 58.0149C779.29 59.2444 778.851 60.2982 777.973 61.1763C777.095 62.0194 776.041 62.4409 774.812 62.4409ZM771.387 92V66.1819H778.289V92H771.387ZM793.933 65.3389C795.935 65.3389 797.762 65.6901 799.413 66.3927C801.099 67.0601 802.539 68.0085 803.733 69.2379C804.963 70.4322 805.911 71.8724 806.579 73.5585C807.281 75.2446 807.632 77.0887 807.632 79.091C807.632 81.0932 807.281 82.9373 806.579 84.6234C805.911 86.3095 804.963 87.7672 803.733 88.9967C802.539 90.191 801.099 91.1394 799.413 91.8419C797.762 92.5093 795.935 92.843 793.933 92.843C791.931 92.843 790.087 92.5093 788.401 91.8419C786.75 91.1394 785.309 90.191 784.08 88.9967C782.886 87.7672 781.937 86.3095 781.235 84.6234C780.567 82.9373 780.234 81.0932 780.234 79.091C780.234 77.0887 780.567 75.2446 781.235 73.5585C781.937 71.8724 782.886 70.4322 784.08 69.2379C785.309 68.0085 786.75 67.0601 788.401 66.3927C790.087 65.6901 791.931 65.3389 793.933 65.3389ZM793.933 86.4675C794.811 86.4675 795.654 86.3095 796.462 85.9933C797.305 85.6421 798.043 85.1503 798.675 84.518C799.307 83.8857 799.799 83.113 800.151 82.1997C800.537 81.2864 800.73 80.2501 800.73 79.091C800.73 77.9318 800.537 76.8955 800.151 75.9822C799.799 75.0689 799.307 74.2962 798.675 73.6639C798.043 73.0316 797.305 72.5574 796.462 72.2412C795.654 71.89 794.811 71.7143 793.933 71.7143C793.02 71.7143 792.159 71.89 791.351 72.2412C790.543 72.5574 789.823 73.0316 789.191 73.6639C788.559 74.2962 788.049 75.0689 787.663 75.9822C787.312 76.8955 787.136 77.9318 787.136 79.091C787.136 80.2501 787.312 81.2864 787.663 82.1997C788.049 83.113 788.559 83.8857 789.191 84.518C789.823 85.1503 790.543 85.6421 791.351 85.9933C792.159 86.3095 793.02 86.4675 793.933 86.4675ZM815.399 69.5541H815.821C816.629 68.2544 817.718 67.2357 819.088 66.498C820.458 65.7253 822.021 65.3389 823.777 65.3389C825.393 65.3389 826.815 65.6023 828.045 66.1292C829.274 66.6561 830.275 67.4113 831.048 68.3949C831.856 69.3433 832.453 70.5025 832.84 71.8724C833.261 73.2072 833.472 74.7001 833.472 76.3511V92H826.57V77.1941C826.57 75.3324 826.148 73.9625 825.305 73.0843C824.497 72.171 823.303 71.7143 821.722 71.7143C820.774 71.7143 819.931 71.9251 819.193 72.3466C818.49 72.733 817.876 73.2775 817.349 73.98C816.857 74.6474 816.471 75.4553 816.19 76.4038C815.944 77.3171 815.821 78.3006 815.821 79.3544V92H808.918V66.1819H815.399V69.5541Z" fill="black"/>
<defs>
<filter id="filter0_f_1457_4378" x="742" y="12" width="195.962" height="98.9785" filterUnits="userSpaceOnUse" color-interpolation-filters="sRGB">
<feFlood flood-opacity="0" result="BackgroundImageFix"/>
<feBlend mode="normal" in="SourceGraphic" in2="BackgroundImageFix" result="shape"/>
<feGaussianBlur stdDeviation="1" result="effect1_foregroundBlur_1457_4378"/>
</filter>
<clipPath id="clip0_1457_4378">
<rect width="87" height="100" fill="white" transform="translate(0 31.6807) rotate(-21.355)"/>
</clipPath>
</defs>
</svg>
