<svg width="29" height="28" viewBox="0 0 29 28" fill="none" xmlns="http://www.w3.org/2000/svg">
<path fill-rule="evenodd" clip-rule="evenodd" d="M5.20192 13.8879C4.36952 15.133 3.92538 16.5958 3.92544 18.092V19.4332C3.92544 19.616 3.85259 19.7913 3.72291 19.9206C3.59324 20.0498 3.41735 20.1224 3.23396 20.1224C3.05057 20.1224 2.87469 20.0498 2.74501 19.9206C2.61533 19.7913 2.54248 19.616 2.54248 19.4332V18.0934C2.5429 16.3242 3.06886 14.5946 4.05406 13.1229L4.20342 12.8996C4.25382 12.8243 4.3186 12.7596 4.39408 12.7092C4.46955 12.6589 4.55423 12.6238 4.64329 12.6061C4.73235 12.5884 4.82404 12.5883 4.91313 12.6059C5.00222 12.6235 5.08695 12.6584 5.16251 12.7086C5.23806 12.7589 5.30294 12.8234 5.35346 12.8987C5.40397 12.9739 5.43912 13.0583 5.45691 13.1471C5.4747 13.2358 5.47477 13.3272 5.45712 13.416C5.43947 13.5048 5.40444 13.5893 5.35405 13.6646L5.20192 13.8879Z" fill="black"/>
<path fill-rule="evenodd" clip-rule="evenodd" d="M9.10248 11.6665C7.59505 11.6665 6.18857 12.4164 5.35326 13.6652L4.20264 12.9016C4.74029 12.0978 5.46867 11.4387 6.32318 10.9828C7.17768 10.5269 8.13187 10.2883 9.1011 10.2881H9.40535C9.58874 10.2881 9.76462 10.3607 9.8943 10.49C10.024 10.6192 10.0968 10.7945 10.0968 10.9773C10.0968 11.1601 10.024 11.3354 9.8943 11.4646C9.76462 11.5939 9.58874 11.6665 9.40535 11.6665H9.10248ZM13.3592 13.872C14.0092 14.8451 14.3564 15.9865 14.3564 17.1553H15.7393C15.7396 15.7149 15.3118 14.3066 14.5099 13.1083L14.3716 12.9016C14.3226 12.8233 14.2583 12.7557 14.1826 12.7027C14.107 12.6497 14.0214 12.6123 13.9309 12.5929C13.8405 12.5734 13.7471 12.5722 13.6562 12.5894C13.5653 12.6066 13.4788 12.6418 13.4018 12.6929C13.3248 12.744 13.2588 12.81 13.2079 12.8869C13.1569 12.9639 13.122 13.0503 13.1051 13.1409C13.0883 13.2316 13.0898 13.3247 13.1097 13.4148C13.1296 13.5048 13.1674 13.59 13.2209 13.6652L13.3592 13.872Z" fill="black"/>
<path fill-rule="evenodd" clip-rule="evenodd" d="M9.47278 11.6665C10.9788 11.6665 12.3853 12.4164 13.2206 13.6652L14.3712 12.9016C13.8336 12.0978 13.1052 11.4387 12.2507 10.9828C11.3962 10.5269 10.442 10.2883 9.47278 10.2881H9.16853C9.07773 10.2881 8.98781 10.3059 8.90391 10.3405C8.82002 10.3752 8.74379 10.426 8.67958 10.49C8.61537 10.5539 8.56444 10.6299 8.52969 10.7135C8.49494 10.7972 8.47705 10.8868 8.47705 10.9773C8.47705 11.0678 8.49494 11.1574 8.52969 11.241C8.56444 11.3247 8.61537 11.4006 8.67958 11.4646C8.74379 11.5286 8.82002 11.5794 8.90391 11.614C8.98781 11.6487 9.07773 11.6665 9.16853 11.6665H9.47278Z" fill="black"/>
<path fill-rule="evenodd" clip-rule="evenodd" d="M9.19874 10.1291C9.60737 10.1291 10.012 10.0489 10.3895 9.89305C10.767 9.73719 11.1101 9.50874 11.399 9.22074C11.688 8.93275 11.9172 8.59085 12.0735 8.21457C12.2299 7.83828 12.3104 7.43498 12.3104 7.0277C12.3104 6.62041 12.2299 6.21711 12.0735 5.84083C11.9172 5.46455 11.688 5.12265 11.399 4.83465C11.1101 4.54666 10.767 4.31821 10.3895 4.16235C10.012 4.00649 9.60737 3.92627 9.19874 3.92627C8.37347 3.92627 7.582 4.25302 6.99845 4.83465C6.4149 5.41629 6.08707 6.20515 6.08707 7.0277C6.08707 7.85025 6.4149 8.63911 6.99845 9.22074C7.582 9.80237 8.37347 10.1291 9.19874 10.1291ZM9.19874 11.5075C10.3908 11.5075 11.534 11.0356 12.3769 10.1954C13.2198 9.35529 13.6934 8.21583 13.6934 7.0277C13.6934 5.83957 13.2198 4.7001 12.3769 3.85997C11.534 3.01983 10.3908 2.54785 9.19874 2.54785C8.00668 2.54785 6.86346 3.01983 6.02055 3.85997C5.17764 4.7001 4.7041 5.83957 4.7041 7.0277C4.7041 8.21583 5.17764 9.35529 6.02055 10.1954C6.86346 11.0356 8.00668 11.5075 9.19874 11.5075ZM15.0888 18.3114C14.2556 19.5568 13.811 21.0201 13.8109 22.5169V23.9422C13.8109 24.125 13.7381 24.3003 13.6084 24.4296C13.4787 24.5588 13.3028 24.6314 13.1194 24.6314C12.936 24.6314 12.7602 24.5588 12.6305 24.4296C12.5008 24.3003 12.428 24.125 12.428 23.9422V22.5169C12.4278 20.7484 12.9528 19.0194 13.9368 17.5478L14.1207 17.2721C14.2227 17.12 14.3811 17.0145 14.5611 16.9788C14.7411 16.9432 14.9279 16.9802 15.0805 17.0819C15.2331 17.1835 15.3389 17.3414 15.3747 17.5208C15.4105 17.7002 15.3733 17.8864 15.2713 18.0385L15.0888 18.3114Z" fill="black"/>
<path fill-rule="evenodd" clip-rule="evenodd" d="M19.1145 15.9878C18.3537 15.9877 17.6048 16.1748 16.934 16.5327C16.2633 16.8905 15.6917 17.4079 15.2698 18.0389L14.1206 17.2738C14.6686 16.4543 15.4112 15.7823 16.2824 15.3175C17.1535 14.8527 18.1264 14.6095 19.1145 14.6094H19.4243C19.6077 14.6094 19.7835 14.682 19.9132 14.8112C20.0429 14.9405 20.1158 15.1158 20.1158 15.2986C20.1158 15.4814 20.0429 15.6567 19.9132 15.7859C19.7835 15.9152 19.6077 15.9878 19.4243 15.9878H19.1145ZM23.522 18.3118C24.3551 19.5572 24.7998 21.0205 24.7999 22.5173V23.9426C24.7999 24.1254 24.8727 24.3007 25.0024 24.43C25.1321 24.5592 25.3079 24.6318 25.4913 24.6318C25.6747 24.6318 25.8506 24.5592 25.9803 24.43C26.11 24.3007 26.1828 24.1254 26.1828 23.9426V22.5173C26.1825 20.7487 25.6571 19.0197 24.6726 17.5482L24.4887 17.2725C24.3867 17.1204 24.2283 17.0149 24.0483 16.9792C23.8683 16.9436 23.6815 16.9806 23.5289 17.0822C23.3763 17.1839 23.2705 17.3418 23.2347 17.5212C23.1989 17.7006 23.2361 17.8868 23.3381 18.0389L23.522 18.3118Z" fill="black"/>
<path fill-rule="evenodd" clip-rule="evenodd" d="M19.4953 15.9878C20.2561 15.9877 21.0051 16.1748 21.6758 16.5327C22.3465 16.8905 22.9181 17.4079 23.34 18.0389L24.4906 17.2738C23.9424 16.4541 23.1997 15.782 22.3282 15.3172C21.4568 14.8524 20.4837 14.6092 19.4953 14.6094H19.1842C19.0008 14.6094 18.8249 14.682 18.6952 14.8112C18.5655 14.9405 18.4927 15.1158 18.4927 15.2986C18.4927 15.4814 18.5655 15.6567 18.6952 15.7859C18.8249 15.9152 19.0008 15.9878 19.1842 15.9878H19.4953Z" fill="black"/>
<path fill-rule="evenodd" clip-rule="evenodd" d="M19.2251 14.6086C19.6337 14.6086 20.0384 14.5284 20.4159 14.3725C20.7934 14.2167 21.1364 13.9882 21.4254 13.7002C21.7143 13.4122 21.9435 13.0703 22.0999 12.6941C22.2563 12.3178 22.3368 11.9145 22.3368 11.5072C22.3368 11.0999 22.2563 10.6966 22.0999 10.3203C21.9435 9.94404 21.7143 9.60214 21.4254 9.31415C21.1364 9.02615 20.7934 8.7977 20.4159 8.64184C20.0384 8.48598 19.6337 8.40576 19.2251 8.40576C18.3998 8.40576 17.6084 8.73252 17.0248 9.31415C16.4413 9.89578 16.1134 10.6846 16.1134 11.5072C16.1134 12.3297 16.4413 13.1186 17.0248 13.7002C17.6084 14.2819 18.3998 14.6086 19.2251 14.6086ZM19.2251 15.987C20.4172 15.987 21.5604 15.5151 22.4033 14.6749C23.2462 13.8348 23.7197 12.6953 23.7197 11.5072C23.7197 10.3191 23.2462 9.17959 22.4033 8.33946C21.5604 7.49933 20.4172 7.02734 19.2251 7.02734C18.0331 7.02734 16.8898 7.49933 16.0469 8.33946C15.204 9.17959 14.7305 10.3191 14.7305 11.5072C14.7305 12.6953 15.204 13.8348 16.0469 14.6749C16.8898 15.5151 18.0331 15.987 19.2251 15.987Z" fill="black"/>
</svg>
