<svg width="202" height="197" viewBox="0 0 202 197" fill="none" xmlns="http://www.w3.org/2000/svg">
<path d="M181.718 64.0095C205.349 111.813 188.469 172.189 137.292 187.171C125.173 190.719 113.691 193.698 101.966 195.417C70.7626 199.99 36.1353 190.664 18.2804 164.669C6.87343 148.061 3.58446 128.144 5.52124 104.677C7.49943 80.7089 15.3195 56.5538 32.8559 40.0955C40.5547 32.8701 49.0122 26.9943 57.3602 22.1744C87.1019 5.00231 128.367 -2.92994 152.488 21.5163C163.646 32.8247 173.662 47.7126 181.718 64.0095Z" fill="#F08ADD" fill-opacity="0.54"/>
<path d="M10.7949 61.2649C12.5685 57.303 9.76255 54.1995 6.28155 50.6999C-2.61288 41.6139 -1.87169 26.4927 7.30068 17.6841C15.8642 9.46981 29.047 10.1565 38.1135 19.7575C40.7607 22.6101 42.9843 23.31 46.783 22.2403C52.5802 20.6159 58.6025 21.1574 63.3541 25.2249C71.1367 31.8281 78.7738 38.6689 86.027 45.84C91.2899 50.7383 94.69 57.3042 95.6494 64.4212C95.8629 65.508 96.3977 66.5061 97.1847 67.287C117.952 88.9057 138.216 111.026 159.763 131.839C169.823 141.559 176.11 151.913 177.592 165.687C178.36 172.845 180.491 179.844 181.788 186.949C182.542 191.043 181.338 192.337 177.34 191.928C164.462 190.607 151.584 189.287 138.758 187.636C136.301 187.067 134.078 185.758 132.392 183.885C113.451 164.472 94.7229 144.848 75.756 125.461C69.7073 119.28 63.1423 113.575 56.7627 107.751C56.115 107.224 55.3464 106.866 54.5259 106.708C45.605 104.674 38.4444 99.7348 32.1707 93.3034C26.8102 87.8228 21.3041 82.4742 16.1025 76.8484C14.1353 74.7922 12.6413 72.3327 11.7246 69.6412C10.8079 66.9498 10.4907 64.0913 10.7949 61.2649ZM147.984 149.747L66.9675 70.5093L59.1716 79.4104L140.174 158.093L147.984 149.747ZM162.9 143.342C162.212 142.55 161.775 142.021 161.286 141.52C149.241 129.291 137.064 117.194 125.165 104.832C115.225 94.5183 105.616 83.8741 95.8082 73.4279C89.4418 66.6399 78.5223 64.5929 72.95 68.634L151.518 147.172L162.9 143.342ZM133.993 173.017C134.629 171.022 135.846 167.734 136.64 164.287C136.668 163.714 136.572 163.142 136.36 162.609C136.147 162.076 135.823 161.595 135.41 161.197C110.359 136.272 85.2637 111.387 60.1246 86.5418C59.3741 85.8743 58.5876 85.2483 57.7686 84.6665C56.8436 87.1284 56.5243 89.7758 56.8375 92.3864C57.1508 94.997 58.0874 97.4944 59.5687 99.6688C62.3327 103.606 65.4612 107.276 68.9132 110.63C83.0313 124.655 97.2156 138.579 111.466 152.402C118.905 159.625 126.753 166.4 133.993 173.017ZM167.877 150.487C152.854 150.368 139.354 164.314 139.936 178.801C140.029 181.257 141.26 181.957 143.338 182.169L160.544 183.899C164.343 179.937 167.268 176.873 170.061 173.743C170.974 172.713 172.311 171.234 172.126 170.204C170.881 163.587 169.306 156.984 167.877 150.487ZM39.7415 91.4413C39.6773 86.0308 40.7514 80.667 42.8945 75.6965C45.0376 70.7261 48.2019 66.2596 52.1831 62.5855C59.8731 55.0976 69.0323 50.0792 80.1238 49.2208C77.4767 44.242 74.0354 42.6969 69.0984 44.9155C67.3888 45.5723 65.6141 46.046 63.8041 46.3286C58.5639 47.3719 53.6249 49.5745 49.3507 52.7742C45.0764 55.9739 41.5757 60.0893 39.1062 64.8174C36.4332 70.1136 34.0474 75.5492 31.9589 81.1008C31.77 81.5861 31.6933 82.1078 31.7346 82.6268C31.7758 83.1459 31.9339 83.649 32.1971 84.0986C34.2752 86.4625 36.6973 88.5623 39.7415 91.4413ZM28.2397 80.2952C33.3884 57.752 45.9888 43.3176 68.1984 38.1407C64.4924 33.4789 64.1218 32.8582 58.8672 34.3901C53.3046 35.9282 47.9883 38.2447 43.0769 41.2706C32.7266 47.9662 26.519 58.2275 21.5688 69.2151C21.3624 69.8306 21.2922 70.4835 21.3631 71.1287C21.4339 71.7739 21.6441 72.3961 21.9791 72.9525C23.766 75.4485 25.9631 77.7464 28.2397 80.2952ZM13.548 49.7226C18.4981 39.3953 26.3337 32.4224 35.3738 26.1097C29.9339 21.4479 24.9307 16.6673 17.7305 18.5426C11.1126 20.2462 8.21395 25.9249 6.93008 32.1186C5.52709 38.9067 8.50514 44.3609 13.548 49.7226ZM87.9594 61.6083L89.1771 60.5386C87.1785 58.4916 85.3519 54.9655 83.1548 54.7146C78.6547 54.2698 74.1115 54.806 69.8396 56.2861C53.2288 62.0969 46.2932 75.6334 42.799 91.5866C42.7617 92.1039 42.8437 92.6228 43.0387 93.1036C43.2337 93.5843 43.5366 94.0141 43.924 94.3599C46.2535 96.0371 48.7948 97.4237 51.614 99.1406C48.0536 74.524 63.4071 58.9934 87.9594 61.6611V61.6083ZM17.5319 67.9605C25.0366 48.5472 39.4636 37.4539 57.0274 28.9491C53.7979 28.5925 50.2507 27.787 47.233 28.7246C32.0913 33.4393 22.085 43.6741 17.3069 58.7161C16.4201 61.5555 17.4128 64.9231 17.5319 68.0133V67.9605Z" fill="black"/>
</svg>
