<svg xmlns="http://www.w3.org/2000/svg" width="158" height="159" viewBox="0 0 158 159" fill="none">
<g filter="url(#filter0_d_1583_5932)">
<circle cx="74.5842" cy="74.5842" r="74.5842" fill="#DBDFFD"/>
<g clip-path="url(#clip0_1583_5932)">
<path d="M52.125 57.4474C52.124 61.9591 53.4609 66.3697 55.9666 70.1216C58.4724 73.8735 62.0345 76.798 66.2024 78.5254C70.3703 80.2528 74.9568 80.7054 79.382 79.826C83.8072 78.9467 87.8722 76.7748 91.063 73.5851C94.2538 70.3954 96.427 66.3311 97.3079 61.9063C98.1888 57.4814 97.7377 52.8947 96.0118 48.7262C94.2858 44.5577 91.3625 40.9946 87.6115 38.4876C83.8605 35.9805 79.4502 34.6421 74.9386 34.6416C71.9431 34.6409 68.9768 35.2303 66.2092 36.376C63.4415 37.5218 60.9266 39.2015 58.8082 41.3193C56.6897 43.437 55.0091 45.9513 53.8624 48.7186C52.7157 51.4858 52.1253 54.4519 52.125 57.4474Z" fill="#454545"/>
<path d="M61.7341 82.4087C58.9188 82.4084 56.131 82.9626 53.53 84.0398C50.929 85.117 48.5656 86.696 46.5749 88.6867C44.5842 90.6774 43.0052 93.0408 41.928 95.6418C40.8508 98.2429 40.2965 101.031 40.2969 103.846V114.249H109.579V103.846C109.579 101.03 109.024 98.2425 107.946 95.6414C106.868 93.0404 105.289 90.6771 103.298 88.6864C101.306 86.6958 98.9427 85.1168 96.3414 84.0397C93.74 82.9626 90.952 82.4084 88.1365 82.4087H61.7341ZM83.4362 110.572H66.4396L61.5211 84.7459C62.0119 84.7121 62.4898 84.6706 62.978 84.6706H86.8978C87.3834 84.6706 87.869 84.7121 88.3521 84.7459L83.4362 110.572Z" fill="#454545"/>
<path d="M69.6055 110.571H80.2682L77.6272 93.2088H77.5285L80.1254 88.4409H69.7509L72.3452 93.2088H72.2517L69.6055 110.571Z" fill="#646FD4"/>
</g>
</g>
<defs>
<filter id="filter0_d_1583_5932" x="0" y="0" width="157.168" height="158.168" filterUnits="userSpaceOnUse" color-interpolation-filters="sRGB">
<feFlood flood-opacity="0" result="BackgroundImageFix"/>
<feColorMatrix in="SourceAlpha" type="matrix" values="0 0 0 0 0 0 0 0 0 0 0 0 0 0 0 0 0 0 127 0" result="hardAlpha"/>
<feOffset dx="4" dy="5"/>
<feGaussianBlur stdDeviation="2"/>
<feComposite in2="hardAlpha" operator="out"/>
<feColorMatrix type="matrix" values="0 0 0 0 0 0 0 0 0 0 0 0 0 0 0 0 0 0 0.25 0"/>
<feBlend mode="normal" in2="BackgroundImageFix" result="effect1_dropShadow_1583_5932"/>
<feBlend mode="normal" in="SourceGraphic" in2="effect1_dropShadow_1583_5932" result="shape"/>
</filter>
<clipPath id="clip0_1583_5932">
<rect width="69.282" height="79.6098" fill="white" transform="translate(40.2969 34.6416)"/>
</clipPath>
</defs>
</svg>