<svg width="440" height="574" viewBox="0 0 440 574" fill="none" xmlns="http://www.w3.org/2000/svg">
<path d="M0 1C0 0.447717 0.447715 0 1 0H438.413C438.965 0 439.413 0.447715 439.413 1V444C439.413 493.153 399.566 533 350.413 533H1C0.447716 533 0 532.552 0 532V1Z" fill="#DBDFFD"/>
<path d="M1 532.5C0.723858 532.5 0.5 532.276 0.5 532V523.703H0V507.109H0.5V490.516H0V473.922H0.5V457.328H0V440.734H0.5V424.141H0V407.547H0.5V390.953H0V374.359H0.5V357.766H0V341.172H0.5V324.578H0V307.984H0.5V291.391H0V274.797H0.5V258.203H0V241.609H0.5V225.016H0V208.422H0.5V191.828H0V175.234H0.5V158.641H0V142.047H0.5V125.453H0V108.859H0.5V92.2656H0V75.6719H0.5V59.0781H0V42.4844H0.5V25.8906H0V9.29688H0.5V1C0.5 0.723858 0.723859 0.5 1 0.5H8.81095V0H24.4328V0.5H40.0547V0H55.6766V0.5H71.2985V0H86.9204V0.5H102.542V0H118.164V0.5H133.786V0H149.408V0.5H165.03V0H180.652V0.5H196.274V0H211.896V0.5H227.517V0H243.139V0.5H258.761V0H274.383V0.5H290.005V0H305.627V0.5H321.249V0H336.871V0.5H352.493V0H368.114V0.5H383.736V0H399.358V0.5H414.98V0H430.602V0.5H438.413C438.689 0.5 438.913 0.723858 438.913 1V8.91071H439.413V24.7321H438.913V40.5536H439.413V56.375H438.913V72.1964H439.413V88.0179H438.913V103.839H439.413V119.661H438.913V135.482H439.413V151.304H438.913V167.125H439.413V182.946H438.913V198.768H439.413V214.589H438.913V230.411H439.413V246.232H438.913V262.054H439.413V277.875H438.913V293.696H439.413V309.518H438.913V325.339H439.413V341.161H438.913V356.982H439.413V372.804H438.913V388.625H439.413V404.447H438.913V420.268H439.413V436.089H438.913V444C438.913 446.928 438.771 449.823 438.493 452.678L438.991 452.727C438.417 458.62 437.269 464.345 435.603 469.844L435.124 469.699C433.428 475.296 431.193 480.658 428.479 485.726L428.92 485.962C426.157 491.12 422.901 495.975 419.214 500.462L418.827 500.144C415.147 504.623 411.036 508.734 406.558 512.414L406.875 512.801C402.388 516.487 397.533 519.744 392.375 522.507L392.139 522.066C387.071 524.78 381.709 527.015 376.112 528.711L376.257 529.19C370.758 530.856 365.033 532.004 359.14 532.578L359.092 532.08C356.236 532.358 353.341 532.5 350.413 532.5H341.678V533H324.207V532.5H306.736V533H289.266V532.5H271.795V533H254.324V532.5H236.854V533H219.383V532.5H201.912V533H184.442V532.5H166.971V533H149.501V532.5H132.03V533H114.559V532.5H97.0885V533H79.6179V532.5H62.1472V533H44.6766V532.5H27.206V533H9.73532V532.5H1Z" stroke="black" stroke-opacity="0.67" stroke-dasharray="16 16 16 16"/>
<rect x="51.6953" y="41" width="336.913" height="160.435" rx="2.44768" fill="#85B6FF"/>
<rect x="235.305" y="234.413" width="153.304" height="339.587" rx="2.44768" fill="#FFD233"/>
<rect x="51.6953" y="234.413" width="153.304" height="57.9348" rx="2.44768" fill="#D99BFF"/>
<rect x="51.6953" y="309.282" width="153.304" height="85.5652" rx="2.44768" fill="#D99BFF"/>
<rect x="51.6953" y="415.348" width="153.304" height="158.652" rx="2.44768" fill="#FF9790"/>
</svg>
