<svg width="558" height="492" viewBox="0 0 558 492" fill="none" xmlns="http://www.w3.org/2000/svg">
<path d="M1.00001 455.5C0.723861 455.5 0.5 455.276 0.5 455V446.893H0V430.679H0.5V414.464H0V398.25H0.5V382.036H0V365.821H0.5V349.607H0V333.393H0.5V317.179H0V300.964H0.5V284.75H0V268.536H0.5V252.321H0V236.107H0.5V219.893H0V203.679H0.5V187.464H0V171.25H0.5V155.036H0V138.821H0.5V122.607H0V106.393H0.5V90.1786H0V73.9642H0.5V57.75H0V41.5357H0.5V25.3214H0V9.10708H0.5V0.999996C0.5 0.723856 0.723855 0.5 1 0.5H9.35714V0H26.0714V0.5H42.7857V0H59.5V0.5H76.2143V0H92.9286V0.5H109.643V0H126.357V0.5H143.071V0H159.786V0.5H176.5V0H193.214V0.5H209.929V0H226.643V0.5H243.357V0H260.071V0.5H276.786V0H293.5V0.5H310.214V0H326.929V0.5H343.643V0H360.357V0.5H377.071V0H393.786V0.5H410.5V0H427.214V0.5H443.929V0H460.643V0.5H469C471.928 0.5 474.823 0.642209 477.678 0.920072L477.727 0.422424C483.62 0.995937 489.345 2.14418 494.844 3.81038L494.699 4.2889C500.296 5.98456 505.658 8.21973 510.726 10.934L510.962 10.4932C516.12 13.2561 520.974 16.5126 525.462 20.1994L525.144 20.5858C529.623 24.2656 533.734 28.3767 537.414 32.8555L537.801 32.5381C541.487 37.0255 544.744 41.8799 547.507 47.0382L547.066 47.2743C549.78 52.3418 552.015 57.7041 553.711 63.3009L554.19 63.1559C555.856 68.6554 557.004 74.3801 557.578 80.2731L557.08 80.3215C557.358 83.1767 557.5 86.0716 557.5 89V97.6875H558V115.062H557.5V132.438H558V149.812H557.5V167.188H558V184.562H557.5V201.938H558V219.312H557.5V236.688H558V254.063H557.5V271.438H558V288.812H557.5V306.188H558V323.562H557.5V340.938H558V358.312H557.5V367C557.5 369.928 557.358 372.823 557.08 375.678L557.578 375.727C557.004 381.62 555.856 387.345 554.19 392.844L553.711 392.699C552.015 398.296 549.78 403.658 547.066 408.726L547.507 408.962C544.744 414.12 541.487 418.975 537.801 423.462L537.414 423.144C533.734 427.623 529.623 431.734 525.144 435.414L525.462 435.801C520.975 439.487 516.12 442.744 510.962 445.507L510.726 445.066C505.658 447.78 500.296 450.015 494.699 451.711L494.844 452.19C489.345 453.856 483.62 455.004 477.727 455.578L477.678 455.08C474.823 455.358 471.928 455.5 469 455.5H460.643V456H443.929V455.5H427.214V456H410.5V455.5H393.786V456H377.071V455.5H360.357V456H343.643V455.5H326.929V456H310.214V455.5H293.5V456H276.786V455.5H260.071V456H243.357V455.5H226.643V456H209.929V455.5H193.214V456H176.5V455.5H159.786V456H143.071V455.5H126.357V456H109.643V455.5H92.9286V456H76.2143V455.5H59.5V456H42.7857V455.5H26.0714V456H9.35709V455.5H1.00001Z" fill="#DBDFFD" stroke="black" stroke-dasharray="16 16 16 16"/>
<rect x="76.8516" y="53" width="237.833" height="117.845" rx="2.44768" fill="#FFD233"/>
<path d="M436.102 111.566L541.252 268.515H330.952L436.102 111.566Z" fill="#72D350"/>
<rect x="196.125" y="320.83" width="126.416" height="118.56" fill="#FF9790"/>
<path d="M221.117 200.128V294.901" stroke="black" stroke-width="4" stroke-miterlimit="10" stroke-linecap="round" stroke-linejoin="round"/>
<path d="M274.687 247.835H166.841" stroke="black" stroke-width="4" stroke-miterlimit="10" stroke-linecap="round" stroke-linejoin="round"/>
<g clip-path="url(#clip0_1211_2065)">
<path d="M63.183 237.175C62.4429 243.003 61.7559 248.597 61.0484 254.185C60.9124 255.3 60.8151 256.086 60.4142 257.456C60.1272 258.476 59.4719 260.626 58.4432 260.086C57.6401 259.552 57.1381 259.07 57.1864 257.108C57.3371 252.043 58.2399 247.042 59.1088 242.075C59.879 237.689 60.5332 234.357 61.4438 230.517C61.8692 228.724 62.9598 228.307 64.4954 229.035C65.8733 229.688 67.299 230.335 68.5282 231.235C72.978 234.458 77.3259 237.785 81.7283 241.083C82.2777 241.49 82.7306 241.774 83.3153 242.351C84.0171 243.057 84.5669 243.531 84.0324 244.334C83.5319 245.103 82.3125 244.66 81.743 244.315C76.9205 241.539 67.068 235.646 66.4722 235.452C67.3208 238.706 68.038 241.735 68.9259 244.729C75.2085 265.55 82.9219 285.747 95.3367 303.862C105.164 318.201 116.519 331.13 129.857 342.296C130.641 342.96 131.377 343.7 132.072 344.427C133.028 345.398 133.354 346.072 132.886 346.601C131.874 347.476 131.057 346.982 130.372 346.645C128.994 345.992 127.737 345.037 126.514 344.115C110.29 331.623 97.5979 316.031 86.9037 298.704C75.9262 280.921 69.3723 261.421 64.4543 241.294C64.2353 240.223 63.4457 237.625 63.183 237.175Z" fill="black"/>
</g>
<path d="M415.83 472C423.737 470.293 431.317 468.624 438.899 466.984C440.409 466.651 441.475 466.417 443.437 466.31C444.893 466.216 447.986 466.083 447.756 467.666C447.429 468.954 447.034 469.826 444.464 470.662C437.817 472.785 430.908 473.903 424.059 475.048C418.01 476.056 413.383 476.732 407.979 477.308C405.455 477.576 404.414 476.351 404.656 474.023C404.874 471.935 405.061 469.787 405.667 467.778C407.816 460.523 410.145 453.353 412.414 446.125C412.69 445.225 412.851 444.507 413.333 443.483C413.928 442.249 414.293 441.317 415.581 441.643C416.809 441.942 416.792 443.728 416.605 444.626C415.207 452.16 412.065 467.655 412.085 468.518C415.923 465.926 419.529 463.607 423.011 461.083C447.176 443.389 469.875 424.124 487.718 399.705C501.842 380.376 513.434 359.709 521.829 337.272C522.333 335.95 522.957 334.655 523.582 333.42C524.405 331.733 525.132 331.001 526.034 331.367C527.633 332.281 527.366 333.567 527.243 334.612C527.025 336.701 526.36 338.771 525.723 340.781C516.926 367.573 502.488 391.196 484.881 413.019C466.811 435.419 444.485 452.86 420.597 468.463C419.306 469.238 416.293 471.453 415.83 472Z" fill="black"/>
<defs>
<clipPath id="clip0_1211_2065">
<rect width="124.47" height="124.47" fill="white" transform="translate(19 327.756) rotate(-71.9479)"/>
</clipPath>
</defs>
</svg>
