<svg width="500" height="541" viewBox="0 0 500 541" fill="none" xmlns="http://www.w3.org/2000/svg">
<g filter="url(#filter0_dd_1211_2106)">
<rect x="53" y="61" width="342" height="411" fill="#DBDFFD" stroke="black" stroke-width="2" stroke-dasharray="16 16"/>
<line x1="224.5" x2="224.5" y2="533" stroke="black"/>
<line x1="4" y1="197.5" x2="496" y2="197.5" stroke="black"/>
<line x1="4" y1="339.5" x2="496" y2="339.5" stroke="black"/>
<rect x="61.8516" width="237.833" height="117.845" rx="2.44768" fill="#FFD233"/>
<path d="M370.416 121L475.566 277.949H265.267L370.416 121Z" fill="#72D350"/>
<rect x="93" y="292" width="126.416" height="118.56" fill="#FF9790"/>
<path d="M299.058 129.545C299.652 129.512 300.147 129.479 300.609 129.446C301.764 129.413 302.886 129.347 304.041 129.38C304.47 129.38 304.932 129.479 305.327 129.611C306.053 129.908 306.086 130.502 305.459 130.931C305.228 131.096 304.965 131.195 304.701 131.261C303.546 131.558 302.424 131.888 301.269 132.152C299.784 132.515 298.266 132.581 296.748 132.449C296.551 132.416 296.32 132.383 296.122 132.317C295.231 132.02 294.934 131.393 295.264 130.469C296.913 125.982 298.563 121.461 300.213 116.941C300.642 115.786 300.972 114.598 301.038 113.377C301.071 112.783 301.038 112.189 300.972 111.596C300.939 111.365 300.873 111.134 300.741 110.936C300.51 110.474 300.147 110.309 299.718 110.408C299.289 110.507 298.959 110.903 298.959 111.365C298.959 111.958 298.992 112.552 298.959 113.146C298.926 113.509 298.827 113.905 298.662 114.235C298.365 114.763 297.771 114.994 297.21 114.862C296.65 114.73 296.221 114.268 296.155 113.641C295.99 112.09 297.045 110.045 298.398 109.286C300.048 108.362 301.962 108.758 303.051 110.342C303.579 111.101 303.843 111.958 303.942 112.882C304.107 114.169 303.975 115.456 303.579 116.71C303.051 118.459 302.49 120.174 301.863 121.89C301.038 124.233 300.147 126.51 299.256 128.852C299.223 129.05 299.157 129.248 299.058 129.545Z" fill="black"/>
<path d="M318.031 119.482C318.13 125.883 315.589 134.066 309.485 137.795C304.733 140.698 298.695 141.061 293.581 139.082C290.083 137.696 287.08 135.485 284.672 132.383C282.725 129.843 279.326 123.606 281.966 115.423C282.989 112.256 284.474 109.352 286.717 106.976C292.624 100.707 301.302 100.542 304.436 101.334C307.604 102.126 310.541 103.479 312.883 106.02C316.282 109.649 318.064 114.038 318.031 119.482ZM300.345 137.267C311.663 136.178 313.939 129.843 314.566 120.835C314.83 117.601 314.368 114.533 312.817 111.728C309.683 106.119 304.832 104.139 298.992 104.37C290.479 104.601 286.717 110.177 285.53 115.06C285.101 116.413 284.804 118.855 284.672 120.307C283.979 132.218 294.505 137.531 300.345 137.267Z" fill="black"/>
<path d="M297.838 290.891C298.828 291.089 299.785 291.056 300.774 291.056C300.807 290.759 300.807 290.561 300.84 290.33C300.906 288.152 300.972 285.974 301.071 283.797C301.137 282.642 301.236 281.487 301.335 280.365C301.368 279.936 301.467 279.507 301.632 279.078C301.83 278.484 302.358 278.187 302.886 278.22C303.447 278.286 303.876 278.715 303.975 279.342C304.008 279.606 304.008 279.87 304.008 280.167C303.942 283.533 303.876 286.898 303.777 290.264C303.777 290.495 303.777 290.726 303.777 290.99C304.008 291.023 304.173 291.023 304.371 291.056C304.701 291.089 304.932 291.221 304.998 291.584C305.064 291.914 304.932 292.178 304.668 292.343C304.371 292.508 304.041 292.607 303.678 292.739C303.645 292.937 303.612 293.2 303.612 293.431C303.48 295.147 303.381 296.863 303.216 298.579C303.183 298.975 303.084 299.371 303.018 299.767C302.985 299.965 302.919 300.13 302.853 300.295C302.622 300.856 302.16 301.153 301.632 301.12C301.104 301.087 300.675 300.724 300.51 300.163C300.445 299.899 300.379 299.635 300.379 299.371C300.379 298.315 300.412 297.292 300.445 296.236C300.477 295.345 300.543 294.487 300.609 293.596C300.609 293.431 300.609 293.233 300.609 293.003C299.917 293.068 299.323 293.101 298.696 293.167C298.003 293.233 297.31 293.299 296.65 293.365C295.792 293.431 295.132 292.97 294.967 292.112C294.868 291.65 294.868 291.188 294.868 290.726C294.967 288.812 295.033 286.865 295.165 284.951C295.264 283.401 295.429 281.883 295.594 280.332C295.627 279.969 295.726 279.573 295.858 279.243C296.089 278.649 296.617 278.352 297.178 278.385C297.739 278.451 298.168 278.847 298.3 279.507C298.366 279.804 298.366 280.101 298.366 280.365C298.201 283.632 298.003 286.898 297.838 290.132C297.871 290.33 297.838 290.594 297.838 290.891Z" fill="black"/>
<path d="M318.031 288.482C318.13 294.883 315.589 303.066 309.485 306.795C304.733 309.698 298.695 310.061 293.581 308.082C290.083 306.696 287.08 304.485 284.672 301.383C282.725 298.843 279.326 292.606 281.966 284.423C282.989 281.256 284.474 278.352 286.717 275.976C292.624 269.707 301.302 269.542 304.436 270.334C307.604 271.126 310.541 272.479 312.883 275.02C316.282 278.649 318.064 283.038 318.031 288.482ZM300.345 306.267C311.663 305.178 313.939 298.843 314.566 289.835C314.83 286.601 314.368 283.533 312.817 280.728C309.683 275.119 304.832 273.139 298.992 273.37C290.479 273.601 286.717 279.177 285.53 284.06C285.101 285.413 284.804 287.855 284.672 289.307C283.979 301.218 294.505 306.531 300.345 306.267Z" fill="black"/>
<path d="M93.1136 271.969C93.0476 272.332 93.0476 272.662 92.9486 272.992C92.8496 273.322 92.6846 273.685 92.4866 273.949C92.0907 274.444 91.3978 274.576 90.8368 274.345C90.2759 274.114 89.9129 273.586 89.9459 272.959C89.9789 271.969 90.5729 271.21 91.2988 270.649C91.5298 270.484 91.8927 270.517 92.1897 270.418C94.3014 269.89 95.8852 270.748 97.1061 272.332C98.195 273.718 98.5249 275.401 98.261 277.15C98.063 278.469 97.3701 279.492 96.1822 280.185C96.0832 280.251 95.9512 280.317 95.8852 280.383C96.0832 281.274 96.3472 282.132 96.4792 282.99C96.7761 285.069 96.7431 287.147 96.2812 289.193C96.0832 290.051 95.7533 290.876 95.2253 291.602C94.3674 292.79 93.2455 293.483 91.7277 293.45C90.8038 293.45 90.0119 293.087 89.385 292.394C88.7581 291.668 88.2961 290.843 87.9992 289.919C87.9002 289.655 87.8672 289.325 87.8672 289.061C87.9332 288.005 88.9561 287.51 89.748 288.17C90.1769 288.5 90.4409 288.962 90.7708 289.424C90.9358 289.655 91.0348 289.952 91.1998 290.183C91.4638 290.579 91.7607 290.645 92.1897 290.414C92.6186 290.183 92.8826 289.82 93.0146 289.391C93.2455 288.632 93.5095 287.873 93.5755 287.114C93.7075 285.663 93.7075 284.178 93.7405 282.726C93.7405 282.429 93.6745 282.099 93.6085 281.802C93.5425 281.373 93.3775 281.076 92.8826 280.944C92.3876 280.812 92.0907 280.449 92.0247 279.921C91.9587 279.393 92.1897 278.964 92.6186 278.7C93.0476 278.436 93.5425 278.206 94.0045 278.008C94.9943 277.612 95.5223 276.853 95.5553 275.83C95.5883 275.17 95.5553 274.51 95.4233 273.883C95.3243 273.223 94.8953 272.695 94.3344 272.299C94.0375 271.903 93.6085 271.771 93.1136 271.969Z" fill="black"/>
<path d="M111.031 280.482C111.13 286.883 108.589 295.066 102.485 298.795C97.7334 301.698 91.6951 302.061 86.5807 300.082C83.0831 298.696 80.0804 296.485 77.6717 293.383C75.725 290.843 72.3264 284.606 74.966 276.423C75.9889 273.256 77.4737 270.352 79.7175 267.976C85.6238 261.707 94.3018 261.542 97.4364 262.334C100.604 263.126 103.541 264.479 105.883 267.02C109.282 270.649 111.031 275.038 111.031 280.482ZM93.3449 298.267C104.663 297.178 106.939 290.843 107.566 281.835C107.83 278.601 107.368 275.533 105.817 272.728C102.683 267.119 97.8323 265.139 91.992 265.37C83.479 265.601 79.7175 271.177 78.5296 276.06C78.1007 277.413 77.8037 279.855 77.6717 281.307C76.9458 293.218 87.5046 298.531 93.3449 298.267Z" fill="black"/>
</g>
<defs>
<filter id="filter0_dd_1211_2106" x="0" y="0" width="500" height="541" filterUnits="userSpaceOnUse" color-interpolation-filters="sRGB">
<feFlood flood-opacity="0" result="BackgroundImageFix"/>
<feColorMatrix in="SourceAlpha" type="matrix" values="0 0 0 0 0 0 0 0 0 0 0 0 0 0 0 0 0 0 127 0" result="hardAlpha"/>
<feOffset dy="4"/>
<feGaussianBlur stdDeviation="2"/>
<feComposite in2="hardAlpha" operator="out"/>
<feColorMatrix type="matrix" values="0 0 0 0 0 0 0 0 0 0 0 0 0 0 0 0 0 0 0.25 0"/>
<feBlend mode="normal" in2="BackgroundImageFix" result="effect1_dropShadow_1211_2106"/>
<feColorMatrix in="SourceAlpha" type="matrix" values="0 0 0 0 0 0 0 0 0 0 0 0 0 0 0 0 0 0 127 0" result="hardAlpha"/>
<feOffset dy="4"/>
<feGaussianBlur stdDeviation="2"/>
<feComposite in2="hardAlpha" operator="out"/>
<feColorMatrix type="matrix" values="0 0 0 0 0 0 0 0 0 0 0 0 0 0 0 0 0 0 0.25 0"/>
<feBlend mode="normal" in2="effect1_dropShadow_1211_2106" result="effect2_dropShadow_1211_2106"/>
<feBlend mode="normal" in="SourceGraphic" in2="effect2_dropShadow_1211_2106" result="shape"/>
</filter>
</defs>
</svg>
