<svg width="10" height="10" viewBox="0 0 10 10" fill="none" xmlns="http://www.w3.org/2000/svg">
<path d="M0 5C0 5.08464 0.0336246 5.16582 0.0934763 5.22567C0.153328 5.28552 0.234506 5.31915 0.319149 5.31915H4.68085V9.68085C4.68085 9.76549 4.71448 9.84667 4.77433 9.90652C4.83418 9.96638 4.91536 10 5 10C5.08464 10 5.16582 9.96638 5.22567 9.90652C5.28552 9.84667 5.31915 9.76549 5.31915 9.68085V5.31915H9.68085C9.76549 5.31915 9.84667 5.28552 9.90652 5.22567C9.96638 5.16582 10 5.08464 10 5C10 4.91536 9.96638 4.83418 9.90652 4.77433C9.84667 4.71448 9.76549 4.68085 9.68085 4.68085H5.31915V0.319149C5.31915 0.234505 5.28552 0.153329 5.22567 0.0934765C5.16582 0.0336245 5.08464 0 5 0C4.91536 0 4.83418 0.0336245 4.77433 0.0934765C4.71448 0.153329 4.68085 0.234505 4.68085 0.319149V4.68085H0.319149C0.234506 4.68085 0.153328 4.71448 0.0934763 4.77433C0.0336246 4.83418 0 4.91536 0 5Z" fill="black"/>
</svg>
