<svg width="30" height="31" viewBox="0 0 30 31" fill="none" xmlns="http://www.w3.org/2000/svg">
<g clip-path="url(#clip0_1340_3364)">
<path d="M25.1899 3.49363H15.1488V1.49202C15.1488 1.22659 15.0431 0.972028 14.8548 0.78434C14.6664 0.596653 14.411 0.491211 14.1447 0.491211C13.8784 0.491211 13.623 0.596653 13.4347 0.78434C13.2464 0.972028 13.1406 1.22659 13.1406 1.49202V3.49363H3.09953C2.56692 3.49363 2.05612 3.70451 1.6795 4.07989C1.30289 4.45527 1.09131 4.96438 1.09131 5.49524V20.5073C1.09131 21.0382 1.30289 21.5473 1.6795 21.9227C2.05612 22.2981 2.56692 22.509 3.09953 22.509H8.03975L5.3274 25.8867C5.16096 26.094 5.08398 26.3588 5.1134 26.6228C5.14283 26.8867 5.27624 27.1282 5.48429 27.2941C5.69234 27.46 5.95799 27.5367 6.2228 27.5074C6.4876 27.478 6.72988 27.3451 6.89632 27.1377L10.6103 22.509H17.6792L21.3932 27.1377C21.4756 27.2404 21.5775 27.3259 21.693 27.3893C21.8086 27.4527 21.9356 27.4928 22.0667 27.5074C22.1978 27.5219 22.3305 27.5105 22.4572 27.4739C22.5839 27.4373 22.7022 27.3762 22.8052 27.2941C22.9082 27.2119 22.994 27.1104 23.0576 26.9952C23.1213 26.88 23.1615 26.7534 23.1761 26.6228C23.1906 26.4921 23.1792 26.3598 23.1425 26.2335C23.1058 26.1072 23.0445 25.9894 22.9621 25.8867L20.2497 22.509H25.1899C25.7226 22.509 26.2334 22.2981 26.61 21.9227C26.9866 21.5473 27.1982 21.0382 27.1982 20.5073V5.49524C27.1982 4.96438 26.9866 4.45527 26.61 4.07989C26.2334 3.70451 25.7226 3.49363 25.1899 3.49363ZM25.1899 20.5073H3.09953V5.49524H25.1899V20.5073Z" fill="black"/>
</g>
<defs>
<clipPath id="clip0_1340_3364">
<rect width="29.4326" height="29.3357" fill="white" transform="translate(0.525879 0.927734)"/>
</clipPath>
</defs>
</svg>
