<svg width="281" height="253" viewBox="0 0 281 253" fill="none" xmlns="http://www.w3.org/2000/svg">
<path d="M246.56 104.067C259.449 156.602 228.99 213.055 175.03 216.838C161.723 217.771 149.225 218.247 136.737 217.294C105.292 214.895 73.6638 198.418 61.3009 169.405C52.9349 149.773 54.0186 128.523 61.4422 104.701C68.5975 81.7403 81.3394 59.8285 101.885 47.3271C111.792 41.2987 122.256 37.0226 132.291 33.9057C165.089 23.7185 207.023 24.4952 225.703 53.3139C234.859 67.4385 241.941 85.2394 246.56 104.067Z" fill="white" fill-opacity="0.93"/>
<path d="M201.018 55.1865H37.3807C34.4217 55.1865 31.5838 56.362 29.4915 58.4544C27.3991 60.5467 26.2236 63.3846 26.2236 66.3436V200.229C26.2236 203.188 27.3991 206.026 29.4915 208.118C31.5838 210.211 34.4217 211.386 37.3807 211.386H49.8302C50.5338 211.385 51.2226 211.184 51.8167 210.808C52.4109 210.431 52.8859 209.893 53.1867 209.257C57.104 200.982 63.2904 193.989 71.0264 189.092C78.7624 184.195 87.7298 181.595 96.8854 181.595C106.041 181.595 115.008 184.195 122.744 189.092C130.48 193.989 136.667 200.982 140.584 209.257C140.885 209.893 141.36 210.431 141.954 210.808C142.548 211.184 143.237 211.385 143.941 211.386H201.018C203.978 211.386 206.815 210.211 208.908 208.118C211 206.026 212.176 203.188 212.176 200.229V66.3436C212.176 63.3846 211 60.5467 208.908 58.4544C206.815 56.362 203.978 55.1865 201.018 55.1865ZM204.737 200.229C204.737 201.215 204.346 202.161 203.648 202.859C202.951 203.556 202.005 203.948 201.018 203.948H146.237C139.399 191.099 127.838 181.409 113.993 176.92C120.294 173.173 125.191 167.461 127.931 160.661C130.671 153.86 131.103 146.349 129.16 139.28C127.217 132.211 123.006 125.975 117.176 121.531C111.345 117.087 104.217 114.679 96.8854 114.679C89.5541 114.679 82.4256 117.087 76.5949 121.531C70.7643 125.975 66.554 132.211 64.611 139.28C62.6679 146.349 63.0996 153.86 65.8396 160.661C68.5796 167.461 73.4764 173.173 79.7778 176.92C65.9324 181.409 54.3716 191.099 47.5337 203.948H37.3807C36.3944 203.948 35.4484 203.556 34.751 202.859C34.0535 202.161 33.6617 201.215 33.6617 200.229V66.3436C33.6617 65.3573 34.0535 64.4113 34.751 63.7139C35.4484 63.0164 36.3944 62.6246 37.3807 62.6246H201.018C202.005 62.6246 202.951 63.0164 203.648 63.7139C204.346 64.4113 204.737 65.3573 204.737 66.3436V200.229ZM96.8854 174.196C91.7365 174.196 86.7032 172.669 82.4221 169.808C78.1409 166.948 74.8042 162.882 72.8338 158.125C70.8634 153.368 70.3478 148.134 71.3523 143.084C72.3568 138.034 74.8363 133.395 78.4771 129.754C82.1179 126.113 86.7566 123.634 91.8065 122.629C96.8565 121.625 102.091 122.14 106.848 124.111C111.605 126.081 115.671 129.418 118.531 133.699C121.392 137.98 122.919 143.014 122.919 148.162C122.919 151.581 122.245 154.966 120.937 158.125C119.629 161.283 117.711 164.153 115.294 166.571C112.876 168.988 110.006 170.906 106.848 172.214C103.689 173.522 100.304 174.196 96.8854 174.196ZM182.423 88.6579V177.915C182.423 178.901 182.031 179.847 181.334 180.545C180.637 181.242 179.691 181.634 178.704 181.634H163.828C162.842 181.634 161.896 181.242 161.198 180.545C160.501 179.847 160.109 178.901 160.109 177.915C160.109 176.928 160.501 175.982 161.198 175.285C161.896 174.588 162.842 174.196 163.828 174.196H174.985V92.3769H63.414V103.534C63.414 104.52 63.0222 105.466 62.3247 106.164C61.6273 106.861 60.6813 107.253 59.695 107.253C58.7086 107.253 57.7627 106.861 57.0652 106.164C56.3678 105.466 55.9759 104.52 55.9759 103.534V88.6579C55.9759 87.6715 56.3678 86.7256 57.0652 86.0281C57.7627 85.3307 58.7086 84.9388 59.695 84.9388H178.704C179.691 84.9388 180.637 85.3307 181.334 86.0281C182.031 86.7256 182.423 87.6715 182.423 88.6579Z" fill="black"/>
</svg>
