<svg width="42" height="42" viewBox="0 0 42 42" fill="none" xmlns="http://www.w3.org/2000/svg">
<path d="M23.0313 31.5625C23.0313 31.9642 22.9121 32.357 22.6889 32.691C22.4657 33.025 22.1485 33.2854 21.7773 33.4391C21.4062 33.5929 20.9978 33.6331 20.6037 33.5547C20.2097 33.4763 19.8478 33.2829 19.5637 32.9988C19.2796 32.7147 19.0862 32.3528 19.0078 31.9588C18.9294 31.5648 18.9696 31.1563 19.1234 30.7852C19.2771 30.414 19.5375 30.0968 19.8715 29.8736C20.2055 29.6504 20.5983 29.5313 21 29.5313C21.5387 29.5313 22.0554 29.7453 22.4363 30.1262C22.8173 30.5071 23.0313 31.0238 23.0313 31.5625ZM21 10.0313C16.7344 10.0313 13.2813 13.1289 13.2813 16.9375V17.75C13.2813 18.0732 13.4097 18.3832 13.6382 18.6118C13.8668 18.8403 14.1768 18.9688 14.5 18.9688C14.8232 18.9688 15.1332 18.8403 15.3618 18.6118C15.5904 18.3832 15.7188 18.0732 15.7188 17.75V16.9375C15.7188 14.4736 18.0872 12.4688 21 12.4688C23.9128 12.4688 26.2813 14.4736 26.2813 16.9375C26.2813 19.4014 23.9128 21.4063 21 21.4063C20.6768 21.4063 20.3668 21.5347 20.1382 21.7632C19.9097 21.9918 19.7813 22.3018 19.7813 22.625V24.25C19.7813 24.5732 19.9097 24.8832 20.1382 25.1118C20.3668 25.3403 20.6768 25.4688 21 25.4688C21.3232 25.4688 21.6332 25.3403 21.8618 25.1118C22.0904 24.8832 22.2188 24.5732 22.2188 24.25V23.7584C25.8974 23.2344 28.7188 20.3744 28.7188 16.9375C28.7188 13.1289 25.2656 10.0313 21 10.0313ZM41.7188 21C41.7188 25.0978 40.5036 29.1035 38.227 32.5107C35.9504 35.9179 32.7146 38.5735 28.9287 40.1416C25.1429 41.7098 20.977 42.1201 16.958 41.3206C12.9389 40.5212 9.24721 38.5479 6.34964 35.6504C3.45207 32.7528 1.4788 29.0611 0.679364 25.042C-0.120073 21.023 0.290227 16.8571 1.85838 13.0713C3.42653 9.28542 6.08211 6.04959 9.48929 3.77299C12.8965 1.49638 16.9022 0.28125 21 0.28125C26.493 0.287701 31.7591 2.47264 35.6433 6.35676C39.5274 10.2409 41.7123 15.507 41.7188 21ZM39.2813 21C39.2813 17.3843 38.2091 13.8498 36.2003 10.8435C34.1915 7.83715 31.3364 5.49399 27.9959 4.11033C24.6555 2.72666 20.9797 2.36463 17.4335 3.07002C13.8873 3.77541 10.6299 5.51653 8.07321 8.0732C5.51654 10.6299 3.77541 13.8873 3.07003 17.4335C2.36464 20.9797 2.72667 24.6555 4.11034 27.9959C5.494 31.3364 7.83716 34.1915 10.8435 36.2003C13.8498 38.2091 17.3843 39.2813 21 39.2813C25.8468 39.2759 30.4936 37.3481 33.9209 33.9209C37.3481 30.4936 39.2759 25.8468 39.2813 21Z" fill="black"/>
</svg>
