<svg width="1426" height="195" viewBox="0 0 1426 195" fill="none" xmlns="http://www.w3.org/2000/svg">
<path d="M1 93.4216C88.5824 72.9486 231.159 34 298.882 34C370.17 34 485.249 104.407 517.838 115.892C550.427 127.377 683.328 155.34 711.334 152.843C739.34 150.346 908.904 104.906 941.493 93.4216C974.082 81.9367 1174.71 54.4729 1207.3 58.967C1233.37 62.5623 1373.29 98.415 1440 115.892" stroke="black" stroke-width="3" stroke-dasharray="10 10"/>
<g clip-path="url(#clip0_1331_4082)" filter="url(#filter0_d_1331_4082)">
<path fill-rule="evenodd" clip-rule="evenodd" d="M1201.4 37.539C1201.48 35.2355 1202.14 32.9893 1203.3 30.9999C1204.47 29.0105 1206.11 27.3395 1208.07 26.1352L1208.71 25.7456C1209.57 25.2141 1210.55 24.8778 1211.56 24.7601C1212.57 24.6425 1213.59 24.7462 1214.56 25.0641C1215.52 25.3821 1216.41 25.9066 1217.15 26.6012C1217.89 27.2958 1218.47 28.1438 1218.85 29.0863L1223.74 41.1599L1230.85 36.8064C1232.17 35.9945 1233.66 35.4865 1235.2 35.3191C1236.75 35.1518 1238.31 35.3292 1239.78 35.8385C1241.24 36.3479 1242.58 37.1766 1243.69 38.2648C1244.8 39.353 1245.65 40.6736 1246.19 42.1315L1253.58 62.2303C1254.42 64.5086 1254.44 67.007 1253.65 69.3004C1252.85 71.5938 1251.28 73.5405 1249.21 74.8091L1215.32 95.5887C1212.94 97.0441 1210.09 97.4967 1207.38 96.847C1204.67 96.1973 1202.33 94.4985 1200.88 92.1243L1186.24 68.2525C1185.76 67.4611 1185.61 66.5094 1185.82 65.6068C1186.04 64.7042 1186.61 63.9245 1187.4 63.4394L1199.13 56.2507C1199.62 55.9497 1200.03 55.5321 1200.32 55.035C1200.61 54.5379 1200.77 53.9766 1200.79 53.4009L1201.4 37.539ZM1200.01 63.9198L1194.04 67.5781L1206.85 88.4659C1207.33 89.2573 1208.11 89.8236 1209.01 90.0402C1209.92 90.2567 1210.87 90.1058 1211.66 89.6207L1214.64 87.7915L1200.01 63.9198Z" fill="#646FD4"/>
</g>
<g clip-path="url(#clip1_1331_4082)">
<path d="M791.138 122.524C783.941 121.029 776.854 123.31 772.081 128.217C769.658 121.815 764.066 116.9 756.87 115.404C745.561 113.055 734.386 120.385 732.037 131.694C727.801 152.083 761.189 180.647 761.189 180.647C761.189 180.647 803.156 167.917 807.427 147.356C809.777 136.048 802.446 124.873 791.138 122.524Z" fill="#F44336"/>
</g>
<path d="M92.5259 60.2766L79.4408 62.6472L79.2095 62.7028C78.8602 62.8088 78.5453 63.0057 78.2969 63.2733C78.0485 63.5409 77.8756 63.8696 77.7958 64.2258C77.716 64.5821 77.7322 64.9531 77.8427 65.3011C77.9533 65.649 78.1541 65.9614 78.4249 66.2063L88.2801 75.1451L86.4949 88.3251L86.4761 88.5528C86.4674 88.9183 86.556 89.2796 86.7328 89.5996C86.9095 89.9196 87.1682 90.1868 87.4822 90.374C87.7963 90.5612 88.1544 90.6615 88.52 90.6648C88.8856 90.668 89.2455 90.574 89.5628 90.3925L101.108 83.7933L113.062 89.564L113.271 89.6516C113.616 89.7736 113.988 89.8017 114.347 89.7329C114.706 89.6641 115.041 89.5009 115.317 89.2601C115.592 89.0193 115.799 88.7095 115.915 88.3625C116.031 88.0156 116.053 87.6439 115.978 87.2857L113.268 74.2642L122.473 64.6514L122.627 64.4705C122.847 64.1795 122.986 63.8354 123.029 63.4734C123.073 63.1113 123.019 62.7442 122.875 62.4095C122.73 62.0748 122.5 61.7843 122.206 61.5678C121.913 61.3513 121.567 61.2164 121.205 61.1768L107.985 59.7316L101.686 48.0234C101.503 47.6842 101.23 47.4027 100.896 47.211C100.562 47.0192 100.181 46.9248 99.7959 46.9383C99.4111 46.9519 99.0377 47.0729 98.718 47.2878C98.3984 47.5026 98.1453 47.8026 97.9873 48.1538L92.5259 60.2766Z" fill="#FFD233"/>
<path d="M341.969 28.4207L368.421 18.3036C370.737 17.4179 373.07 19.6605 372.214 22.0275L368.899 31.1958C387.219 38.0591 400.473 47.0214 394.169 64.4554C391.624 71.4921 384.57 76.8238 378.241 78.6565C376.266 79.2284 374.554 76.995 375.797 75.3599C386.996 60.63 380.934 53.4522 363.265 46.7736L359.624 56.8424C358.767 59.2131 355.539 59.4382 354.327 57.2789L340.465 32.5813C339.593 31.0277 340.303 29.0582 341.969 28.4207Z" fill="#646FD4"/>
<defs>
<filter id="filter0_d_1331_4082" x="1159" y="0" width="123.516" height="123.516" filterUnits="userSpaceOnUse" color-interpolation-filters="sRGB">
<feFlood flood-opacity="0" result="BackgroundImageFix"/>
<feColorMatrix in="SourceAlpha" type="matrix" values="0 0 0 0 0 0 0 0 0 0 0 0 0 0 0 0 0 0 127 0" result="hardAlpha"/>
<feOffset dx="4" dy="4"/>
<feGaussianBlur stdDeviation="2"/>
<feComposite in2="hardAlpha" operator="out"/>
<feColorMatrix type="matrix" values="0 0 0 0 0 0 0 0 0 0 0 0 0 0 0 0 0 0 0.25 0"/>
<feBlend mode="normal" in2="BackgroundImageFix" result="effect1_dropShadow_1331_4082"/>
<feBlend mode="normal" in="SourceGraphic" in2="effect1_dropShadow_1331_4082" result="shape"/>
</filter>
<clipPath id="clip0_1331_4082">
<rect width="84" height="84" fill="white" transform="translate(1159 43.9004) rotate(-31.5085)"/>
</clipPath>
<clipPath id="clip1_1331_4082">
<rect width="84" height="84" fill="white" transform="translate(736.086 95) rotate(11.7365)"/>
</clipPath>
</defs>
</svg>
