<svg width="108" height="26" viewBox="0 0 108 26" fill="none" xmlns="http://www.w3.org/2000/svg">
<path d="M7.50127 9.95661L1.69537 10.7984L1.59254 10.8193C1.43687 10.8606 1.29496 10.9425 1.18129 11.0566C1.06763 11.1708 0.986289 11.313 0.945573 11.4688C0.904858 11.6246 0.906229 11.7885 0.949546 11.9436C0.992863 12.0987 1.07657 12.2396 1.19213 12.3518L5.39822 16.4459L4.4063 22.2291L4.39447 22.3292C4.38494 22.4902 4.41838 22.6508 4.49135 22.7947C4.56431 22.9385 4.6742 23.0603 4.80975 23.1478C4.94529 23.2352 5.10164 23.285 5.26276 23.2921C5.42389 23.2992 5.58401 23.2633 5.72674 23.1882L10.9193 20.4582L16.1 23.1882L16.191 23.2301C16.3412 23.2893 16.5045 23.3074 16.664 23.2827C16.8235 23.2579 16.9736 23.1912 17.0988 23.0893C17.2241 22.9874 17.3199 22.854 17.3766 22.7029C17.4333 22.5517 17.4487 22.3882 17.4213 22.2291L16.4285 16.4459L20.6364 12.3509L20.7074 12.2735C20.8088 12.1486 20.8753 11.9991 20.9001 11.8402C20.9249 11.6812 20.9071 11.5185 20.8485 11.3687C20.79 11.2189 20.6928 11.0872 20.5668 10.9872C20.4408 10.8872 20.2906 10.8223 20.1314 10.7993L14.3255 9.95661L11.7301 4.69673C11.655 4.54433 11.5387 4.416 11.3945 4.32626C11.2502 4.23653 11.0837 4.18896 10.9138 4.18896C10.7439 4.18896 10.5774 4.23653 10.4332 4.32626C10.2889 4.416 10.1726 4.54433 10.0975 4.69673L7.50127 9.95661Z" fill="#FFD233"/>
<path d="M35.8929 8.31745L30.087 9.15922L29.9841 9.18015C29.8285 9.22147 29.6866 9.30337 29.5729 9.41748C29.4592 9.53159 29.3779 9.67382 29.3372 9.82965C29.2965 9.98548 29.2978 10.1493 29.3411 10.3044C29.3845 10.4596 29.4682 10.6004 29.5837 10.7126L33.7898 14.8068L32.7979 20.5899L32.7861 20.69C32.7765 20.851 32.81 21.0117 32.8829 21.1555C32.9559 21.2993 33.0658 21.4212 33.2013 21.5086C33.3369 21.596 33.4932 21.6458 33.6544 21.6529C33.8155 21.66 33.9756 21.6242 34.1183 21.5491L39.3109 18.819L44.4916 21.5491L44.5826 21.5909C44.7328 21.6501 44.8961 21.6682 45.0556 21.6435C45.2151 21.6187 45.3652 21.552 45.4904 21.4501C45.6157 21.3482 45.7115 21.2149 45.7682 21.0637C45.8249 20.9125 45.8403 20.749 45.8129 20.5899L44.8201 14.8068L49.028 10.7117L49.099 10.6344C49.2004 10.5095 49.2669 10.3599 49.2917 10.201C49.3165 10.0421 49.2987 9.87938 49.2401 9.72955C49.1816 9.57972 49.0844 9.44809 48.9584 9.34806C48.8324 9.24803 48.6822 9.18318 48.523 9.16013L42.7171 8.31745L40.1217 3.05757C40.0466 2.90517 39.9303 2.77684 39.7861 2.6871C39.6418 2.59737 39.4753 2.5498 39.3054 2.5498C39.1355 2.5498 38.969 2.59737 38.8248 2.6871C38.6805 2.77684 38.5642 2.90517 38.4891 3.05757L35.8929 8.31745Z" fill="#FFD233"/>
<path d="M64.2864 8.31745L58.4805 9.15922L58.3777 9.18015C58.222 9.22147 58.0801 9.30337 57.9665 9.41748C57.8528 9.53159 57.7714 9.67382 57.7307 9.82965C57.69 9.98548 57.6914 10.1493 57.7347 10.3044C57.778 10.4596 57.8617 10.6004 57.9773 10.7126L62.1834 14.8068L61.1915 20.5899L61.1796 20.69C61.1701 20.851 61.2035 21.0117 61.2765 21.1555C61.3495 21.2993 61.4594 21.4212 61.5949 21.5086C61.7305 21.596 61.8868 21.6458 62.0479 21.6529C62.209 21.66 62.3692 21.6242 62.5119 21.5491L67.7044 18.819L72.8852 21.5491L72.9762 21.5909C73.1264 21.6501 73.2896 21.6682 73.4491 21.6435C73.6087 21.6187 73.7588 21.552 73.884 21.4501C74.0092 21.3482 74.1051 21.2149 74.1618 21.0637C74.2184 20.9125 74.2339 20.749 74.2065 20.5899L73.2137 14.8068L77.4216 10.7117L77.4926 10.6344C77.594 10.5095 77.6604 10.3599 77.6852 10.201C77.71 10.0421 77.6922 9.87938 77.6337 9.72955C77.5751 9.57972 77.4779 9.44809 77.352 9.34806C77.226 9.24803 77.0757 9.18318 76.9165 9.16013L71.1106 8.31745L68.5153 3.05757C68.4402 2.90517 68.3239 2.77684 68.1796 2.6871C68.0354 2.59737 67.8689 2.5498 67.699 2.5498C67.5291 2.5498 67.3626 2.59737 67.2183 2.6871C67.0741 2.77684 66.9578 2.90517 66.8827 3.05757L64.2864 8.31745Z" fill="#FFD233"/>
<path d="M92.677 6.67976L86.8712 7.52152L86.7683 7.54245C86.6127 7.58378 86.4707 7.66568 86.3571 7.77979C86.2434 7.89389 86.1621 8.03613 86.1214 8.19195C86.0806 8.34778 86.082 8.51163 86.1253 8.66675C86.1686 8.82188 86.2524 8.96273 86.3679 9.07492L90.574 13.1691L89.5821 18.9522L89.5703 19.0523C89.5607 19.2133 89.5942 19.374 89.6671 19.5178C89.7401 19.6616 89.85 19.7835 89.9855 19.8709C90.1211 19.9583 90.2774 20.0081 90.4385 20.0152C90.5997 20.0223 90.7598 19.9865 90.9025 19.9114L96.0951 17.1813L101.276 19.9114L101.367 19.9532C101.517 20.0124 101.68 20.0305 101.84 20.0058C101.999 19.9811 102.149 19.9143 102.275 19.8124C102.4 19.7105 102.496 19.5772 102.552 19.426C102.609 19.2748 102.624 19.1113 102.597 18.9522L101.604 13.1691L105.812 9.07401L105.883 8.99666C105.985 8.87177 106.051 8.72224 106.076 8.5633C106.101 8.40436 106.083 8.24169 106.024 8.09186C105.966 7.94202 105.869 7.81039 105.743 7.71036C105.617 7.61033 105.466 7.54549 105.307 7.52243L99.5013 6.67976L96.9059 1.41987C96.8308 1.26747 96.7145 1.13914 96.5703 1.04941C96.426 0.95967 96.2595 0.912109 96.0896 0.912109C95.9197 0.912109 95.7532 0.95967 95.6089 1.04941C95.4647 1.13914 95.3484 1.26747 95.2733 1.41987L92.677 6.67976Z" fill="#FFD233"/>
</svg>
