<svg width="26" height="24" viewBox="0 0 26 24" fill="none" xmlns="http://www.w3.org/2000/svg">
<path d="M11.0229 23.875C9.4998 23.875 8.0673 23.5861 6.7254 23.0082C5.38432 22.4294 4.21751 21.6442 3.22496 20.6525C2.23241 19.6616 1.44678 18.496 0.868071 17.1557C0.289357 15.8155 0 14.3834 0 12.8594C0 11.3363 0.289357 9.90384 0.868071 8.56194C1.44678 7.22004 2.23201 6.05323 3.22374 5.0615C4.21547 4.06895 5.38147 3.28332 6.72173 2.70461C8.06281 2.1259 9.49531 1.83654 11.0192 1.83654C11.8338 1.83654 12.6256 1.91939 13.3945 2.08508C14.1642 2.25078 14.8947 2.49688 15.5861 2.82337V4.18731C14.9037 3.82653 14.1797 3.54819 13.4141 3.35229C12.6501 3.15803 11.8518 3.0609 11.0192 3.0609C8.30524 3.0609 5.99405 4.01508 4.08569 5.92345C2.17732 7.83182 1.22354 10.1426 1.22436 12.8558C1.22436 15.5698 2.17854 17.8809 4.08691 19.7893C5.99528 21.6977 8.30605 22.6515 11.0192 22.6506C13.7332 22.6506 16.0444 21.6969 17.9528 19.7893C19.8611 17.8818 20.8149 15.5706 20.8141 12.8558C20.8141 12.2656 20.7635 11.6918 20.6623 11.1343C20.5611 10.5776 20.4141 10.0369 20.2215 9.51204H21.534C21.7022 10.041 21.8287 10.5809 21.9136 11.1319C21.9968 11.6836 22.0385 12.2583 22.0385 12.8558C22.0385 14.3805 21.7495 15.813 21.1716 17.1533C20.5929 18.4944 19.8077 19.6608 18.816 20.6525C17.825 21.6442 16.6594 22.429 15.3192 23.0069C13.9789 23.5856 12.5468 23.875 11.0229 23.875ZM21.4263 6.12179V3.67308H18.9776V2.44872H21.4263V0H22.6506V2.44872H25.0994V3.67308H22.6506V6.12179H21.4263ZM15.0743 11.16C15.4555 11.16 15.7775 11.027 16.0403 10.7609C16.3032 10.494 16.4346 10.1699 16.4346 9.78875C16.4346 9.40757 16.3011 9.08597 16.0342 8.82395C15.7681 8.56113 15.4445 8.42971 15.0633 8.42971C14.6821 8.42971 14.3601 8.56276 14.0973 8.82885C13.8344 9.09576 13.703 9.41981 13.703 9.80099C13.703 10.1822 13.8365 10.5038 14.1034 10.7658C14.3703 11.0286 14.6939 11.16 15.0743 11.16ZM6.97517 11.16C7.35554 11.16 7.67755 11.027 7.94119 10.7609C8.20402 10.494 8.33544 10.1699 8.33544 9.78875C8.33544 9.40757 8.20198 9.08597 7.93507 8.82395C7.66816 8.56113 7.34452 8.42971 6.96415 8.42971C6.58379 8.42971 6.26178 8.56276 5.99814 8.82885C5.73531 9.09576 5.60389 9.41981 5.60389 9.80099C5.60389 10.1822 5.73735 10.5038 6.00426 10.7658C6.27035 11.0286 6.59399 11.16 6.97517 11.16ZM11.0192 18.8368C12.2101 18.8368 13.2916 18.5143 14.2638 17.8695C15.2351 17.2247 15.9681 16.3697 16.4627 15.3045H5.57573C6.07037 16.3705 6.80336 17.2255 7.77468 17.8695C8.74682 18.5143 9.82834 18.8368 11.0192 18.8368Z" fill="black"/>
</svg>
