<svg width="372" height="248" viewBox="0 0 372 248" fill="none" xmlns="http://www.w3.org/2000/svg">
<g filter="url(#filter0_d_1067_2747)">
<mask id="path-1-inside-1_1067_2747" fill="white">
<path fill-rule="evenodd" clip-rule="evenodd" d="M55 0C24.6243 0 0 24.6244 0 55V158.183C0 188.558 24.6244 213.183 55.0001 213.183H66.1134L79.3228 237.61C80.3868 239.578 83.1523 239.731 84.4269 237.893L101.562 213.183H308.815C339.191 213.183 363.815 188.558 363.815 158.183V55C363.815 24.6243 339.19 0 308.815 0H55Z"/>
</mask>
<path fill-rule="evenodd" clip-rule="evenodd" d="M55 0C24.6243 0 0 24.6244 0 55V158.183C0 188.558 24.6244 213.183 55.0001 213.183H66.1134L79.3228 237.61C80.3868 239.578 83.1523 239.731 84.4269 237.893L101.562 213.183H308.815C339.191 213.183 363.815 188.558 363.815 158.183V55C363.815 24.6243 339.19 0 308.815 0H55Z" fill="#0D1137"/>
<path d="M66.1134 213.183L66.993 212.707L66.7095 212.183H66.1134V213.183ZM79.3228 237.61L78.4431 238.086L79.3228 237.61ZM84.4269 237.893L83.6052 237.323L84.4269 237.893ZM101.562 213.183V212.183H101.038L100.74 212.613L101.562 213.183ZM-1 55V61.4489H1V55H-1ZM-1 74.3468V87.2446H1V74.3468H-1ZM-1 100.142V113.04H1V100.142H-1ZM-1 125.938V138.836H1V125.938H-1ZM-1 151.734V158.183H1V151.734H-1ZM-1 158.183C-1 160.035 -0.910057 161.866 -0.734249 163.673L1.25635 163.479C1.08679 161.737 1 159.97 1 158.183H-1ZM1.3977 174.444C2.47088 177.986 3.88547 181.38 5.60306 184.586L7.36609 183.642C5.71001 180.55 4.3463 177.278 3.31178 173.864L1.3977 174.444ZM11.7102 193.71C14.0384 196.543 16.6394 199.144 19.473 201.473L20.7427 199.927C18.0097 197.682 15.501 195.173 13.2555 192.44L11.7102 193.71ZM28.5965 207.58C31.8032 209.297 35.1968 210.712 38.739 211.785L39.3189 209.871C35.9044 208.836 32.6327 207.473 29.5408 205.817L28.5965 207.58ZM49.5102 213.917C51.3167 214.093 53.148 214.183 55.0001 214.183V212.183C53.2128 212.183 51.4461 212.096 49.7039 211.926L49.5102 213.917ZM55.0001 214.183H57.7784V212.183H55.0001V214.183ZM63.3351 214.183H66.1134V212.183H63.3351V214.183ZM65.2338 213.658L68.5361 219.765L70.2954 218.814L66.993 212.707L65.2338 213.658ZM75.1408 231.979L78.4431 238.086L80.2024 237.135L76.9 231.028L75.1408 231.979ZM78.4431 238.086C79.8618 240.709 83.5491 240.914 85.2487 238.463L83.6052 237.323C82.7554 238.548 80.9117 238.446 80.2024 237.135L78.4431 238.086ZM85.2487 238.463L89.5324 232.285L87.8889 231.145L83.6052 237.323L85.2487 238.463ZM98.0999 219.93L102.384 213.753L100.74 212.613L96.4564 218.79L98.0999 219.93ZM101.562 214.183H107.319V212.183H101.562V214.183ZM118.833 214.183H130.347V212.183H118.833V214.183ZM141.861 214.183H153.375V212.183H141.861V214.183ZM164.889 214.183H176.403V212.183H164.889V214.183ZM187.917 214.183H199.431V212.183H187.917V214.183ZM210.945 214.183H222.459V212.183H210.945V214.183ZM233.973 214.183H245.488V212.183H233.973V214.183ZM257.002 214.183H268.516V212.183H257.002V214.183ZM280.03 214.183H291.544V212.183H280.03V214.183ZM303.058 214.183H308.815V212.183H303.058V214.183ZM308.815 214.183C310.667 214.183 312.498 214.093 314.305 213.917L314.111 211.926C312.369 212.096 310.602 212.183 308.815 212.183V214.183ZM325.076 211.785C328.618 210.712 332.012 209.297 335.218 207.58L334.274 205.817C331.182 207.473 327.911 208.836 324.496 209.871L325.076 211.785ZM344.342 201.473C347.176 199.144 349.777 196.543 352.105 193.71L350.559 192.44C348.314 195.173 345.805 197.682 343.072 199.927L344.342 201.473ZM358.212 184.586C359.929 181.38 361.344 177.986 362.417 174.444L360.503 173.864C359.469 177.278 358.105 180.55 356.449 183.642L358.212 184.586ZM364.549 163.673C364.725 161.866 364.815 160.035 364.815 158.183H362.815C362.815 159.97 362.728 161.737 362.559 163.479L364.549 163.673ZM364.815 158.183V151.734H362.815V158.183H364.815ZM364.815 138.836V125.938H362.815V138.836H364.815ZM364.815 113.04V100.142H362.815V113.04H364.815ZM364.815 87.2446V74.3468H362.815V87.2446H364.815ZM364.815 61.4489V55H362.815V61.4489H364.815ZM364.815 55C364.815 53.1479 364.725 51.3166 364.549 49.5101L362.559 49.7038C362.728 51.446 362.815 53.2127 362.815 55H364.815ZM362.417 38.739C361.344 35.1968 359.929 31.8032 358.212 28.5964L356.449 29.5407C358.105 32.6326 359.469 35.9043 360.503 39.3189L362.417 38.739ZM352.105 19.473C349.776 16.6393 347.175 14.0383 344.342 11.7101L343.072 13.2554C345.805 15.501 348.314 18.0096 350.559 20.7427L352.105 19.473ZM335.218 5.60304C332.012 3.88545 328.618 2.47087 325.076 1.39769L324.496 3.31177C327.91 4.34629 331.182 5.71 334.274 7.36607L335.218 5.60304ZM314.305 -0.734249C312.498 -0.910057 310.667 -1 308.815 -1V1C310.602 1 312.369 1.08679 314.111 1.25635L314.305 -0.734249ZM308.815 -1H303.046V1H308.815V-1ZM291.509 -1H279.972V1H291.509V-1ZM268.435 -1H256.898V1H268.435V-1ZM245.361 -1H233.824V1H245.361V-1ZM222.287 -1H210.75V1H222.287V-1ZM199.213 -1H187.676V1H199.213V-1ZM176.139 -1H164.602V1H176.139V-1ZM153.065 -1H141.528V1H153.065V-1ZM129.991 -1H118.454V1H129.991V-1ZM106.917 -1H95.3796V1H106.917V-1ZM83.8426 -1H72.3056V1H83.8426V-1ZM60.7686 -1H55V1H60.7686V-1ZM55 -1C53.1479 -1 51.3166 -0.910057 49.5101 -0.734249L49.7038 1.25635C51.446 1.08679 53.2127 1 55 1V-1ZM38.739 1.39769C35.1968 2.47087 31.8032 3.88546 28.5964 5.60305L29.5407 7.36608C32.6326 5.71001 35.9043 4.3463 39.3189 3.31177L38.739 1.39769ZM19.473 11.7102C16.6393 14.0384 14.0383 16.6393 11.7101 19.473L13.2555 20.7427C15.501 18.0096 18.0096 15.501 20.7427 13.2555L19.473 11.7102ZM5.60304 28.5964C3.88545 31.8032 2.47087 35.1968 1.39769 38.739L3.31177 39.3189C4.34629 35.9043 5.71 32.6326 7.36607 29.5407L5.60304 28.5964ZM-0.73425 49.5101C-0.910057 51.3166 -1 53.148 -1 55H1C1 53.2128 1.08679 51.4461 1.25635 49.7039L-0.73425 49.5101ZM66.1134 213.183L67.8726 212.231L67.3056 211.183H66.1134V213.183ZM79.3228 237.61L77.5635 238.562V238.562L79.3228 237.61ZM84.4269 237.893L82.7834 236.753L84.4269 237.893ZM101.562 213.183V211.183H100.515L99.9184 212.043L101.562 213.183ZM-2 55V61.4489H2V55H-2ZM-2 74.3468V87.2446H2V74.3468H-2ZM-2 100.142V113.04H2V100.142H-2ZM-2 125.938V138.836H2V125.938H-2ZM-2 151.734V158.183H2V151.734H-2ZM-2 158.183C-2 160.067 -1.90848 161.931 -1.72955 163.769L2.25164 163.382C2.08522 161.672 2 159.938 2 158.183H-2ZM0.440656 174.734C1.53317 178.34 2.97319 181.794 4.72155 185.058L8.24761 183.17C6.62229 180.135 5.28401 176.925 4.26882 173.574L0.440656 174.734ZM10.9375 194.345C13.3071 197.229 15.9542 199.876 18.8382 202.245L21.3775 199.155C18.6948 196.95 16.2323 194.488 14.0281 191.805L10.9375 194.345ZM28.1243 208.461C31.3885 210.21 34.8431 211.65 38.4491 212.742L39.6089 208.914C36.2581 207.899 33.0474 206.56 30.0129 204.935L28.1243 208.461ZM49.4133 214.912C51.2519 215.091 53.1156 215.183 55.0001 215.183V211.183C53.2452 211.183 51.5108 211.098 49.8008 210.931L49.4133 214.912ZM55.0001 215.183H57.7784V211.183H55.0001V215.183ZM63.3351 215.183H66.1134V211.183H63.3351V215.183ZM64.3541 214.134L67.6565 220.241L71.175 218.338L67.8726 212.231L64.3541 214.134ZM74.2612 232.455L77.5635 238.562L81.082 236.659L77.7797 230.552L74.2612 232.455ZM77.5635 238.562C79.3368 241.841 83.946 242.096 86.0704 239.032L82.7834 236.753C82.3585 237.366 81.4367 237.315 81.082 236.659L77.5635 238.562ZM86.0704 239.032L90.3542 232.855L87.0671 230.576L82.7834 236.753L86.0704 239.032ZM98.9216 220.5L103.205 214.322L99.9184 212.043L95.6346 218.221L98.9216 220.5ZM101.562 215.183H107.319V211.183H101.562V215.183ZM118.833 215.183H130.347V211.183H118.833V215.183ZM141.861 215.183H153.375V211.183H141.861V215.183ZM164.889 215.183H176.403V211.183H164.889V215.183ZM187.917 215.183H199.431V211.183H187.917V215.183ZM210.945 215.183H222.459V211.183H210.945V215.183ZM233.973 215.183H245.488V211.183H233.973V215.183ZM257.002 215.183H268.516V211.183H257.002V215.183ZM280.03 215.183H291.544V211.183H280.03V215.183ZM303.058 215.183H308.815V211.183H303.058V215.183ZM308.815 215.183C310.699 215.183 312.563 215.091 314.402 214.912L314.014 210.931C312.304 211.098 310.57 211.183 308.815 211.183V215.183ZM325.366 212.742C328.972 211.65 332.426 210.21 335.691 208.461L333.802 204.935C330.768 206.56 327.557 207.899 324.206 208.914L325.366 212.742ZM344.977 202.245C347.861 199.876 350.508 197.229 352.877 194.345L349.787 191.805C347.583 194.488 345.12 196.95 342.437 199.155L344.977 202.245ZM359.093 185.058C360.842 181.794 362.282 178.34 363.374 174.734L359.546 173.574C358.531 176.925 357.193 180.135 355.567 183.17L359.093 185.058ZM365.544 163.769C365.723 161.931 365.815 160.067 365.815 158.183H361.815C361.815 159.938 361.73 161.672 361.563 163.382L365.544 163.769ZM365.815 158.183V151.734H361.815V158.183H365.815ZM365.815 138.836V125.938H361.815V138.836H365.815ZM365.815 113.04V100.142H361.815V113.04H365.815ZM365.815 87.2446V74.3468H361.815V87.2446H365.815ZM365.815 61.4489V55H361.815V61.4489H365.815ZM365.815 55C365.815 53.1155 365.723 51.2519 365.544 49.4132L361.563 49.8007C361.73 51.5107 361.815 53.2451 361.815 55H365.815ZM363.374 38.449C362.282 34.843 360.842 31.3884 359.093 28.1243L355.567 30.0129C357.193 33.0473 358.531 36.258 359.546 39.6088L363.374 38.449ZM352.877 18.8382C350.508 15.9542 347.861 13.307 344.977 10.9375L342.437 14.0281C345.12 16.2323 347.583 18.6948 349.787 21.3775L352.877 18.8382ZM335.691 4.72152C332.426 2.97318 328.972 1.53316 325.366 0.440648L324.206 4.26881C327.557 5.284 330.767 6.62227 333.802 8.24759L335.691 4.72152ZM314.402 -1.72955C312.563 -1.90848 310.699 -2 308.815 -2V2C310.57 2 312.304 2.08522 314.014 2.25164L314.402 -1.72955ZM308.815 -2H303.046V2H308.815V-2ZM291.509 -2H279.972V2H291.509V-2ZM268.435 -2H256.898V2H268.435V-2ZM245.361 -2H233.824V2H245.361V-2ZM222.287 -2H210.75V2H222.287V-2ZM199.213 -2H187.676V2H199.213V-2ZM176.139 -2H164.602V2H176.139V-2ZM153.065 -2H141.528V2H153.065V-2ZM129.991 -2H118.454V2H129.991V-2ZM106.917 -2H95.3796V2H106.917V-2ZM83.8426 -2H72.3056V2H83.8426V-2ZM60.7686 -2H55V2H60.7686V-2ZM55 -2C53.1155 -2 51.2519 -1.90848 49.4132 -1.72955L49.8007 2.25164C51.5107 2.08522 53.2451 2 55 2V-2ZM38.449 0.440652C34.843 1.53316 31.3884 2.97318 28.1243 4.72154L30.0129 8.2476C33.0473 6.62228 36.258 5.28401 39.6088 4.26881L38.449 0.440652ZM18.8382 10.9375C15.9542 13.307 13.307 15.9542 10.9375 18.8382L14.0281 21.3775C16.2323 18.6948 18.6948 16.2323 21.3775 14.0281L18.8382 10.9375ZM4.72153 28.1243C2.97318 31.3885 1.53316 34.8431 0.440648 38.449L4.26881 39.6089C5.284 36.2581 6.62227 33.0474 8.24759 30.0129L4.72153 28.1243ZM-1.72955 49.4133C-1.90848 51.2519 -2 53.1156 -2 55H2C2 53.2452 2.08522 51.5108 2.25164 49.8007L-1.72955 49.4133Z" fill="white" mask="url(#path-1-inside-1_1067_2747)"/>
</g>
<defs>
<filter id="filter0_d_1067_2747" x="0" y="0" width="371.814" height="247.184" filterUnits="userSpaceOnUse" color-interpolation-filters="sRGB">
<feFlood flood-opacity="0" result="BackgroundImageFix"/>
<feColorMatrix in="SourceAlpha" type="matrix" values="0 0 0 0 0 0 0 0 0 0 0 0 0 0 0 0 0 0 127 0" result="hardAlpha"/>
<feOffset dx="4" dy="4"/>
<feGaussianBlur stdDeviation="2"/>
<feComposite in2="hardAlpha" operator="out"/>
<feColorMatrix type="matrix" values="0 0 0 0 0 0 0 0 0 0 0 0 0 0 0 0 0 0 0.25 0"/>
<feBlend mode="normal" in2="BackgroundImageFix" result="effect1_dropShadow_1067_2747"/>
<feBlend mode="normal" in="SourceGraphic" in2="effect1_dropShadow_1067_2747" result="shape"/>
</filter>
</defs>
</svg>
