<svg width="323" height="32" viewBox="0 0 323 32" fill="none" xmlns="http://www.w3.org/2000/svg">
<path d="M12.8875 2.64473C11.888 2.21636 12.194 0.725586 13.2814 0.725586H321.525C322.753 0.725586 322.901 2.51017 321.69 2.71198L299.377 6.43082H306.551C307.606 6.43082 307.942 7.85334 306.998 8.32525L299.377 12.1361L306.526 14.7701C307.301 15.0555 307.416 16.1033 306.721 16.5497L301.754 19.743L320.03 27.3055C322.052 28.1424 321.454 31.1535 319.265 31.1535H291.77H8.4095H1.47256C0.404366 31.1535 0.0802441 29.7035 1.04676 29.2487L13.1639 23.5465L19.3445 17.3659L15.2266 16.0988C14.4126 15.8483 14.2643 14.7599 14.9816 14.3008L25.0498 7.85713L12.8875 2.64473Z" fill="#F7BF46" fill-opacity="0.54"/>
</svg>
