<svg width="353" height="32" viewBox="0 0 353 32" fill="none" xmlns="http://www.w3.org/2000/svg">
<path d="M14.0952 1.92415C13.0836 1.50596 13.3826 0 14.4773 0H351.479C352.711 0 352.854 1.79192 351.638 1.98732L326.678 6H334.743C335.806 6 336.135 7.43895 335.178 7.90072L326.678 12L334.567 14.8037C335.357 15.0844 335.472 16.1541 334.76 16.5958L329.27 20L349.67 28.1425C351.716 28.9591 351.132 32 348.929 32H318.384H9.44068H1.62241C0.546684 32 0.229542 30.534 1.20908 30.0894L14.6243 24L21.363 17.5L16.7665 16.1358C15.9381 15.8899 15.7905 14.7801 16.5257 14.3262L27.5833 7.5L14.0952 1.92415Z" fill="#646FD4" fill-opacity="0.4"/>
</svg>
