<svg width="266" height="32" viewBox="0 0 266 32" fill="none" xmlns="http://www.w3.org/2000/svg">
<path d="M10.7694 1.87633C9.86301 1.37811 10.2168 0 11.2511 0H264.538C265.738 0 265.921 1.72709 264.747 1.97791L245.932 6H251.876C252.875 6 253.257 7.30268 252.416 7.84177L245.932 12L251.914 14.8268C252.577 15.1399 252.689 16.0361 252.123 16.5025L247.881 20L263.395 28.2334C265.236 29.2105 264.541 32 262.457 32H239.695H7.35593H1.59196C0.579121 32 0.20808 30.6672 1.07521 30.1439L11.2542 24L16.322 17.5L12.836 16.1242C12.1265 15.8442 11.9791 14.905 12.5686 14.4211L21 7.5L10.7694 1.87633Z" fill="#FCC832"/>
</svg>
