<svg width="838" height="559" viewBox="0 0 838 559" fill="none" xmlns="http://www.w3.org/2000/svg">
<g filter="url(#filter0_d_1260_2190)">
<rect x="18" y="15" width="796" height="517" rx="23" fill="white"/>
<rect x="18" y="15" width="796" height="44" fill="#0D1136"/>
<circle cx="59.5" cy="37.5" r="8.5" fill="#C13939"/>
<circle cx="107.5" cy="37.5" r="8.5" fill="#00AA44"/>
<circle cx="83.5" cy="37.5" r="8.5" fill="#DDB21D"/>
<rect x="226" y="26" width="381" height="21" rx="7" fill="#262840"/>
<path opacity="0.54" d="M366.221 34.6772C366.799 34.6772 367.315 34.7902 367.767 35.0162C368.228 35.2422 368.589 35.5903 368.852 36.0604C369.114 36.5215 369.245 37.1181 369.245 37.8504V42H367.55V38.0674C367.55 37.4255 367.396 36.9464 367.089 36.63C366.79 36.3135 366.37 36.1553 365.828 36.1553C365.43 36.1553 365.077 36.2367 364.77 36.3994C364.463 36.5621 364.223 36.8062 364.051 37.1317C363.888 37.4481 363.807 37.8504 363.807 38.3386V42H362.112V31.9379H363.807V36.7113L363.441 36.1146C363.694 35.6536 364.06 35.301 364.539 35.0569C365.028 34.8038 365.588 34.6772 366.221 34.6772ZM373.443 42.0949C372.647 42.0949 372.033 41.8915 371.599 41.4847C371.165 41.0688 370.948 40.4586 370.948 39.654V33.1584H372.643V39.6133C372.643 39.9569 372.729 40.2235 372.9 40.4134C373.081 40.6032 373.33 40.6982 373.646 40.6982C374.026 40.6982 374.342 40.5987 374.596 40.3998L375.07 41.6067C374.871 41.7695 374.627 41.8915 374.338 41.9729C374.049 42.0542 373.75 42.0949 373.443 42.0949ZM369.754 36.1689V34.8128H374.582V36.1689H369.754ZM378.34 42.0949C377.545 42.0949 376.93 41.8915 376.496 41.4847C376.062 41.0688 375.845 40.4586 375.845 39.654V33.1584H377.54V39.6133C377.54 39.9569 377.626 40.2235 377.798 40.4134C377.979 40.6032 378.227 40.6982 378.544 40.6982C378.923 40.6982 379.24 40.5987 379.493 40.3998L379.967 41.6067C379.769 41.7695 379.524 41.8915 379.235 41.9729C378.946 42.0542 378.648 42.0949 378.34 42.0949ZM374.652 36.1689V34.8128H379.479V36.1689H374.652ZM384.698 42.0949C384.11 42.0949 383.572 41.9593 383.084 41.6881C382.605 41.4169 382.221 41.0101 381.931 40.4676C381.651 39.9162 381.511 39.2201 381.511 38.3793C381.511 37.5295 381.647 36.8334 381.918 36.2909C382.198 35.7485 382.578 35.3462 383.057 35.084C383.536 34.8128 384.083 34.6772 384.698 34.6772C385.412 34.6772 386.04 34.8309 386.583 35.1383C387.134 35.4456 387.568 35.8751 387.885 36.4265C388.21 36.978 388.373 37.6289 388.373 38.3793C388.373 39.1296 388.21 39.7851 387.885 40.3456C387.568 40.8971 387.134 41.3265 386.583 41.6339C386.04 41.9412 385.412 42.0949 384.698 42.0949ZM380.684 44.6308V34.7586H382.298V36.4672L382.243 38.3928L382.379 40.3185V44.6308H380.684ZM384.508 40.6439C384.915 40.6439 385.276 40.5535 385.593 40.3727C385.918 40.1919 386.176 39.9297 386.366 39.5862C386.556 39.2427 386.651 38.8404 386.651 38.3793C386.651 37.9092 386.556 37.5069 386.366 37.1724C386.176 36.8288 385.918 36.5667 385.593 36.3859C385.276 36.2051 384.915 36.1146 384.508 36.1146C384.101 36.1146 383.735 36.2051 383.41 36.3859C383.084 36.5667 382.826 36.8288 382.637 37.1724C382.447 37.5069 382.352 37.9092 382.352 38.3793C382.352 38.8404 382.447 39.2427 382.637 39.5862C382.826 39.9297 383.084 40.1919 383.41 40.3727C383.735 40.5535 384.101 40.6439 384.508 40.6439ZM391.54 42.0949C390.934 42.0949 390.351 42.0181 389.79 41.8644C389.239 41.7017 388.801 41.5073 388.475 41.2813L389.126 39.993C389.451 40.2009 389.84 40.3727 390.292 40.5083C390.744 40.6439 391.196 40.7117 391.648 40.7117C392.182 40.7117 392.566 40.6394 392.801 40.4948C393.045 40.3501 393.167 40.1557 393.167 39.9116C393.167 39.7128 393.086 39.5636 392.923 39.4641C392.76 39.3557 392.548 39.2743 392.286 39.2201C392.023 39.1658 391.73 39.1161 391.404 39.0709C391.088 39.0257 390.767 38.9669 390.441 38.8946C390.125 38.8132 389.836 38.7002 389.574 38.5556C389.311 38.4019 389.099 38.1985 388.936 37.9453C388.773 37.6922 388.692 37.3577 388.692 36.9418C388.692 36.4808 388.823 36.083 389.085 35.7485C389.347 35.405 389.714 35.1428 390.184 34.962C390.663 34.7721 391.228 34.6772 391.879 34.6772C392.367 34.6772 392.86 34.7315 393.357 34.8399C393.854 34.9484 394.266 35.1021 394.591 35.301L393.94 36.5893C393.597 36.3813 393.248 36.2412 392.896 36.1689C392.552 36.0875 392.209 36.0468 391.865 36.0468C391.35 36.0468 390.966 36.1237 390.713 36.2774C390.469 36.4311 390.346 36.6254 390.346 36.8605C390.346 37.0775 390.428 37.2402 390.591 37.3487C390.753 37.4572 390.966 37.543 391.228 37.6063C391.49 37.6696 391.779 37.7239 392.096 37.7691C392.421 37.8052 392.742 37.864 393.059 37.9453C393.375 38.0267 393.664 38.1397 393.926 38.2844C394.198 38.42 394.415 38.6143 394.577 38.8675C394.74 39.1206 394.822 39.4506 394.822 39.8574C394.822 40.3094 394.686 40.7027 394.415 41.0372C394.153 41.3717 393.777 41.6339 393.289 41.8237C392.801 42.0045 392.218 42.0949 391.54 42.0949ZM396.146 36.9283C395.838 36.9283 395.576 36.8243 395.359 36.6164C395.142 36.3994 395.034 36.1282 395.034 35.8027C395.034 35.4592 395.142 35.188 395.359 34.9891C395.576 34.7812 395.838 34.6772 396.146 34.6772C396.453 34.6772 396.715 34.7812 396.932 34.9891C397.149 35.188 397.258 35.4592 397.258 35.8027C397.258 36.1282 397.149 36.3994 396.932 36.6164C396.715 36.8243 396.453 36.9283 396.146 36.9283ZM396.146 42.0949C395.838 42.0949 395.576 41.991 395.359 41.783C395.142 41.5661 395.034 41.2948 395.034 40.9694C395.034 40.6258 395.142 40.3546 395.359 40.1557C395.576 39.9478 395.838 39.8438 396.146 39.8438C396.453 39.8438 396.715 39.9478 396.932 40.1557C397.149 40.3546 397.258 40.6258 397.258 40.9694C397.258 41.2948 397.149 41.5661 396.932 41.783C396.715 41.991 396.453 42.0949 396.146 42.0949ZM397.406 43.3561L401.881 30.5819H403.4L398.925 43.3561H397.406ZM400.807 43.3561L405.282 30.5819H406.8L402.325 43.3561H400.807ZM406.842 42V32.5075H408.605V42H406.842ZM413.397 42.0949C412.701 42.0949 412.072 41.9412 411.512 41.6339C410.96 41.3174 410.526 40.8835 410.21 40.332C409.894 39.7806 409.735 39.1296 409.735 38.3793C409.735 37.6289 409.894 36.978 410.21 36.4265C410.526 35.8751 410.96 35.4456 411.512 35.1383C412.072 34.8309 412.701 34.6772 413.397 34.6772C414.002 34.6772 414.545 34.8128 415.024 35.084C415.503 35.3462 415.883 35.7485 416.163 36.2909C416.443 36.8334 416.584 37.5295 416.584 38.3793C416.584 39.2201 416.448 39.9162 416.177 40.4676C415.905 41.0101 415.53 41.4169 415.051 41.6881C414.572 41.9593 414.021 42.0949 413.397 42.0949ZM413.6 40.6439C414.007 40.6439 414.369 40.5535 414.685 40.3727C415.01 40.1919 415.268 39.9297 415.458 39.5862C415.657 39.2427 415.756 38.8404 415.756 38.3793C415.756 37.9092 415.657 37.5069 415.458 37.1724C415.268 36.8288 415.01 36.5667 414.685 36.3859C414.369 36.2051 414.007 36.1146 413.6 36.1146C413.193 36.1146 412.827 36.2051 412.502 36.3859C412.185 36.5667 411.928 36.8288 411.729 37.1724C411.539 37.5069 411.444 37.9092 411.444 38.3793C411.444 38.8404 411.539 39.2427 411.729 39.5862C411.928 39.9297 412.185 40.1919 412.502 40.3727C412.827 40.5535 413.193 40.6439 413.6 40.6439ZM415.797 42V40.2913L415.865 38.3657L415.729 36.4401V31.9379H417.411V42H415.797ZM422.367 42.0949C421.563 42.0949 420.858 41.9367 420.252 41.6203C419.655 41.2948 419.19 40.8519 418.855 40.2913C418.53 39.7308 418.367 39.0935 418.367 38.3793C418.367 37.656 418.525 37.0187 418.842 36.4672C419.167 35.9067 419.61 35.4683 420.171 35.1518C420.74 34.8354 421.387 34.6772 422.11 34.6772C422.815 34.6772 423.443 34.8309 423.995 35.1383C424.546 35.4456 424.98 35.8796 425.297 36.4401C425.613 37.0006 425.771 37.6606 425.771 38.42C425.771 38.4923 425.767 38.5737 425.758 38.6641C425.758 38.7545 425.753 38.8404 425.744 38.9217H419.71V37.7962H424.849L424.185 38.1488C424.194 37.7329 424.108 37.3668 423.927 37.0503C423.746 36.7339 423.498 36.4853 423.181 36.3045C422.874 36.1237 422.517 36.0333 422.11 36.0333C421.694 36.0333 421.328 36.1237 421.011 36.3045C420.704 36.4853 420.46 36.7384 420.279 37.0639C420.107 37.3803 420.021 37.7555 420.021 38.1894V38.4607C420.021 38.8946 420.121 39.2788 420.32 39.6133C420.519 39.9478 420.799 40.2055 421.161 40.3863C421.522 40.5671 421.938 40.6575 422.408 40.6575C422.815 40.6575 423.181 40.5942 423.507 40.4676C423.832 40.3411 424.121 40.1422 424.374 39.871L425.283 40.9151C424.958 41.2948 424.546 41.5887 424.049 41.7966C423.561 41.9955 423 42.0949 422.367 42.0949ZM430.984 42V40.5354L430.889 40.2235V37.6606C430.889 37.1633 430.74 36.7791 430.442 36.5079C430.143 36.2277 429.691 36.0875 429.086 36.0875C428.679 36.0875 428.277 36.1508 427.879 36.2774C427.49 36.4039 427.16 36.5802 426.889 36.8062L426.224 35.5722C426.613 35.2739 427.074 35.0524 427.608 34.9077C428.15 34.7541 428.711 34.6772 429.289 34.6772C430.338 34.6772 431.147 34.9303 431.717 35.4366C432.295 35.9338 432.584 36.7068 432.584 37.7555V42H430.984ZM428.706 42.0949C428.164 42.0949 427.689 42.0045 427.282 41.8237C426.875 41.6339 426.559 41.3762 426.333 41.0507C426.116 40.7163 426.007 40.3411 426.007 39.9252C426.007 39.5184 426.102 39.1522 426.292 38.8268C426.491 38.5013 426.812 38.2437 427.255 38.0538C427.698 37.864 428.286 37.7691 429.018 37.7691H431.12V38.8946H429.14C428.561 38.8946 428.173 38.9895 427.974 39.1794C427.775 39.3602 427.675 39.5862 427.675 39.8574C427.675 40.1648 427.797 40.4089 428.042 40.5897C428.286 40.7705 428.625 40.8609 429.059 40.8609C429.474 40.8609 429.845 40.766 430.171 40.5761C430.505 40.3863 430.745 40.106 430.889 39.7354L431.174 40.7524C431.011 41.1773 430.718 41.5073 430.293 41.7423C429.877 41.9774 429.348 42.0949 428.706 42.0949ZM434.082 42V31.9379H435.777V42H434.082ZM440.727 42.0949C439.923 42.0949 439.218 41.9367 438.612 41.6203C438.015 41.2948 437.55 40.8519 437.215 40.2913C436.89 39.7308 436.727 39.0935 436.727 38.3793C436.727 37.656 436.885 37.0187 437.202 36.4672C437.527 35.9067 437.97 35.4683 438.531 35.1518C439.1 34.8354 439.747 34.6772 440.47 34.6772C441.175 34.6772 441.803 34.8309 442.355 35.1383C442.906 35.4456 443.34 35.8796 443.657 36.4401C443.973 37.0006 444.131 37.6606 444.131 38.42C444.131 38.4923 444.127 38.5737 444.118 38.6641C444.118 38.7545 444.113 38.8404 444.104 38.9217H438.07V37.7962H443.209L442.545 38.1488C442.554 37.7329 442.468 37.3668 442.287 37.0503C442.106 36.7339 441.857 36.4853 441.541 36.3045C441.234 36.1237 440.877 36.0333 440.47 36.0333C440.054 36.0333 439.688 36.1237 439.371 36.3045C439.064 36.4853 438.82 36.7384 438.639 37.0639C438.467 37.3803 438.381 37.7555 438.381 38.1894V38.4607C438.381 38.8946 438.481 39.2788 438.68 39.6133C438.879 39.9478 439.159 40.2055 439.521 40.3863C439.882 40.5671 440.298 40.6575 440.768 40.6575C441.175 40.6575 441.541 40.5942 441.867 40.4676C442.192 40.3411 442.481 40.1422 442.734 39.871L443.643 40.9151C443.318 41.2948 442.906 41.5887 442.409 41.7966C441.921 41.9955 441.36 42.0949 440.727 42.0949ZM447.319 42.0949C446.713 42.0949 446.13 42.0181 445.57 41.8644C445.018 41.7017 444.58 41.5073 444.254 41.2813L444.905 39.993C445.231 40.2009 445.619 40.3727 446.071 40.5083C446.523 40.6439 446.975 40.7117 447.427 40.7117C447.961 40.7117 448.345 40.6394 448.58 40.4948C448.824 40.3501 448.946 40.1557 448.946 39.9116C448.946 39.7128 448.865 39.5636 448.702 39.4641C448.539 39.3557 448.327 39.2743 448.065 39.2201C447.803 39.1658 447.509 39.1161 447.183 39.0709C446.867 39.0257 446.546 38.9669 446.22 38.8946C445.904 38.8132 445.615 38.7002 445.353 38.5556C445.09 38.4019 444.878 38.1985 444.715 37.9453C444.552 37.6922 444.471 37.3577 444.471 36.9418C444.471 36.4808 444.602 36.083 444.864 35.7485C445.127 35.405 445.493 35.1428 445.963 34.962C446.442 34.7721 447.007 34.6772 447.658 34.6772C448.146 34.6772 448.639 34.7315 449.136 34.8399C449.633 34.9484 450.045 35.1021 450.37 35.301L449.719 36.5893C449.376 36.3813 449.028 36.2412 448.675 36.1689C448.331 36.0875 447.988 36.0468 447.644 36.0468C447.129 36.0468 446.745 36.1237 446.492 36.2774C446.248 36.4311 446.126 36.6254 446.126 36.8605C446.126 37.0775 446.207 37.2402 446.37 37.3487C446.532 37.4572 446.745 37.543 447.007 37.6063C447.269 37.6696 447.558 37.7239 447.875 37.7691C448.2 37.8052 448.521 37.864 448.838 37.9453C449.154 38.0267 449.443 38.1397 449.706 38.2844C449.977 38.42 450.194 38.6143 450.356 38.8675C450.519 39.1206 450.601 39.4506 450.601 39.8574C450.601 40.3094 450.465 40.7027 450.194 41.0372C449.932 41.3717 449.556 41.6339 449.068 41.8237C448.58 42.0045 447.997 42.0949 447.319 42.0949ZM451.382 42V34.7586H453.077V42H451.382ZM452.237 33.5652C451.92 33.5652 451.658 33.4658 451.45 33.2669C451.251 33.068 451.152 32.8284 451.152 32.5482C451.152 32.2589 451.251 32.0193 451.45 31.8295C451.658 31.6306 451.92 31.5311 452.237 31.5311C452.553 31.5311 452.811 31.626 453.01 31.8159C453.218 31.9967 453.322 32.2272 453.322 32.5075C453.322 32.8058 453.222 33.059 453.023 33.2669C452.824 33.4658 452.562 33.5652 452.237 33.5652ZM455.167 42.0949C454.859 42.0949 454.597 41.991 454.38 41.783C454.163 41.5661 454.055 41.2948 454.055 40.9694C454.055 40.6258 454.163 40.3546 454.38 40.1557C454.597 39.9478 454.859 39.8438 455.167 39.8438C455.474 39.8438 455.736 39.9478 455.953 40.1557C456.17 40.3546 456.279 40.6258 456.279 40.9694C456.279 41.2948 456.17 41.5661 455.953 41.783C455.736 41.991 455.474 42.0949 455.167 42.0949ZM460.46 42.0949C459.701 42.0949 459.023 41.9367 458.426 41.6203C457.838 41.2948 457.377 40.8519 457.043 40.2913C456.708 39.7308 456.541 39.0935 456.541 38.3793C456.541 37.656 456.708 37.0187 457.043 36.4672C457.377 35.9067 457.838 35.4683 458.426 35.1518C459.023 34.8354 459.701 34.6772 460.46 34.6772C461.165 34.6772 461.785 34.8219 462.318 35.1112C462.86 35.3914 463.272 35.8073 463.552 36.3587L462.25 37.1181C462.033 36.7746 461.766 36.5215 461.45 36.3587C461.143 36.196 460.808 36.1146 460.447 36.1146C460.031 36.1146 459.655 36.2051 459.321 36.3859C458.986 36.5667 458.724 36.8288 458.534 37.1724C458.345 37.5069 458.25 37.9092 458.25 38.3793C458.25 38.8494 458.345 39.2562 458.534 39.5998C458.724 39.9342 458.986 40.1919 459.321 40.3727C459.655 40.5535 460.031 40.6439 460.447 40.6439C460.808 40.6439 461.143 40.5626 461.45 40.3998C461.766 40.2371 462.033 39.984 462.25 39.6404L463.552 40.3998C463.272 40.9423 462.86 41.3626 462.318 41.661C461.785 41.9503 461.165 42.0949 460.46 42.0949ZM467.488 42.0949C466.746 42.0949 466.087 41.9367 465.508 41.6203C464.929 41.2948 464.473 40.8519 464.138 40.2913C463.804 39.7308 463.637 39.0935 463.637 38.3793C463.637 37.656 463.804 37.0187 464.138 36.4672C464.473 35.9067 464.929 35.4683 465.508 35.1518C466.087 34.8354 466.746 34.6772 467.488 34.6772C468.238 34.6772 468.903 34.8354 469.481 35.1518C470.069 35.4683 470.525 35.9022 470.851 36.4537C471.185 37.0051 471.353 37.647 471.353 38.3793C471.353 39.0935 471.185 39.7308 470.851 40.2913C470.525 40.8519 470.069 41.2948 469.481 41.6203C468.903 41.9367 468.238 42.0949 467.488 42.0949ZM467.488 40.6439C467.904 40.6439 468.274 40.5535 468.6 40.3727C468.925 40.1919 469.178 39.9297 469.359 39.5862C469.549 39.2427 469.644 38.8404 469.644 38.3793C469.644 37.9092 469.549 37.5069 469.359 37.1724C469.178 36.8288 468.925 36.5667 468.6 36.3859C468.274 36.2051 467.908 36.1146 467.501 36.1146C467.086 36.1146 466.715 36.2051 466.389 36.3859C466.073 36.5667 465.82 36.8288 465.63 37.1724C465.44 37.5069 465.345 37.9092 465.345 38.3793C465.345 38.8404 465.44 39.2427 465.63 39.5862C465.82 39.9297 466.073 40.1919 466.389 40.3727C466.715 40.5535 467.081 40.6439 467.488 40.6439ZM481.435 34.6772C482.014 34.6772 482.525 34.7902 482.968 35.0162C483.42 35.2422 483.772 35.5903 484.026 36.0604C484.279 36.5215 484.405 37.1181 484.405 37.8504V42H482.71V38.0674C482.71 37.4255 482.57 36.9464 482.29 36.63C482.01 36.3135 481.607 36.1553 481.083 36.1553C480.712 36.1553 480.382 36.2367 480.093 36.3994C479.813 36.5621 479.591 36.8017 479.428 37.1181C479.275 37.4346 479.198 37.8369 479.198 38.325V42H477.503V38.0674C477.503 37.4255 477.363 36.9464 477.082 36.63C476.802 36.3135 476.4 36.1553 475.876 36.1553C475.505 36.1553 475.175 36.2367 474.886 36.3994C474.605 36.5621 474.384 36.8017 474.221 37.1181C474.067 37.4346 473.991 37.8369 473.991 38.325V42H472.296V34.7586H473.909V36.6842L473.624 36.1146C473.869 35.6445 474.221 35.2874 474.682 35.0433C475.152 34.7993 475.686 34.6772 476.282 34.6772C476.96 34.6772 477.548 34.8445 478.045 35.179C478.552 35.5135 478.886 36.0197 479.049 36.6978L478.384 36.4672C478.619 35.9248 479.008 35.4909 479.551 35.1654C480.093 34.8399 480.721 34.6772 481.435 34.6772Z" fill="white"/>
</g>
<defs>
<filter id="filter0_d_1260_2190" x="0" y="0" width="838" height="559" filterUnits="userSpaceOnUse" color-interpolation-filters="sRGB">
<feFlood flood-opacity="0" result="BackgroundImageFix"/>
<feColorMatrix in="SourceAlpha" type="matrix" values="0 0 0 0 0 0 0 0 0 0 0 0 0 0 0 0 0 0 127 0" result="hardAlpha"/>
<feOffset dx="3" dy="6"/>
<feGaussianBlur stdDeviation="10.5"/>
<feComposite in2="hardAlpha" operator="out"/>
<feColorMatrix type="matrix" values="0 0 0 0 0.141176 0 0 0 0 0.184314 0 0 0 0 0.607843 0 0 0 0.48 0"/>
<feBlend mode="normal" in2="BackgroundImageFix" result="effect1_dropShadow_1260_2190"/>
<feBlend mode="normal" in="SourceGraphic" in2="effect1_dropShadow_1260_2190" result="shape"/>
</filter>
</defs>
</svg>
