<svg width="36" height="36" viewBox="0 0 36 36" fill="none" xmlns="http://www.w3.org/2000/svg">
<path fill-rule="evenodd" clip-rule="evenodd" d="M2.63639 10.0228C1.80055 10.8586 1.13753 11.8509 0.685174 12.943C0.232822 14.0351 1.24549e-08 15.2056 0 16.3876C-1.24549e-08 17.5697 0.232822 18.7401 0.685174 19.8322C1.13753 20.9243 1.80055 21.9166 2.63639 22.7524C3.47222 23.5882 4.46451 24.2513 5.55658 24.7036C6.64866 25.156 7.81913 25.3888 9.00119 25.3888C10.1832 25.3888 11.3537 25.156 12.4458 24.7036C13.5379 24.2513 14.5301 23.5882 15.366 22.7524C17.0054 21.055 17.9126 18.7816 17.8921 16.4218C17.8715 14.062 16.925 11.8047 15.2564 10.136C13.5877 8.46737 11.3304 7.52085 8.9706 7.50034C6.61083 7.47983 4.33741 8.38698 2.63999 10.0264M14.0952 21.4816C13.4293 22.1624 12.635 22.7044 11.7583 23.0761C10.8815 23.4478 9.93974 23.6419 8.98746 23.6472C8.03517 23.6524 7.09131 23.4687 6.21052 23.1066C5.32973 22.7446 4.52951 22.2114 3.85619 21.538C3.18287 20.8646 2.64984 20.0642 2.28795 19.1834C1.92606 18.3025 1.74251 17.3586 1.74792 16.4064C1.75334 15.4541 1.94761 14.5123 2.31948 13.6356C2.69136 12.7589 3.23346 11.9647 3.91439 11.299C5.26981 9.97382 7.09316 9.23662 8.98873 9.24739C10.8843 9.25817 12.6992 10.016 14.0394 11.3566C15.3797 12.6971 16.1373 14.5121 16.1477 16.4076C16.1581 18.3032 15.4206 20.1264 14.0952 21.4816Z" fill="black"/>
<path d="M14.0918 24.0612C13.7543 23.7235 13.5648 23.2655 13.5649 22.788C13.5651 22.3105 13.755 21.8527 14.0927 21.5151C14.4305 21.1776 14.8885 20.9881 15.3659 20.9883C15.8434 20.9885 16.3013 21.1783 16.6388 21.516L21.7292 26.6082C21.9011 26.7743 22.0383 26.9729 22.1326 27.1925C22.2269 27.4121 22.2766 27.6483 22.2787 27.8873C22.2807 28.1263 22.2352 28.3633 22.1447 28.5846C22.0542 28.8058 21.9205 29.0068 21.7515 29.1758C21.5825 29.3448 21.3815 29.4784 21.1603 29.5689C20.9391 29.6594 20.7021 29.705 20.4631 29.7029C20.2241 29.7008 19.9879 29.6512 19.7683 29.5568C19.5487 29.4625 19.35 29.3254 19.184 29.1534L14.0918 24.0612Z" fill="black"/>
</svg>
