<svg width="572" height="428" viewBox="0 0 572 428" fill="none" xmlns="http://www.w3.org/2000/svg">
<g filter="url(#filter0_d_3098_876)">
<ellipse cx="158" cy="357.5" rx="154" ry="62.5" fill="#DBDFFD"/>
</g>
<path d="M240.526 332.199H237.356V265.546H68.2709V332.199H65.1016V262.482H240.526V332.199Z" fill="#FCC832"/>
<path d="M153.299 224H150.102V347.661H153.299V224Z" fill="#FCC832"/>
<path d="M122.815 305.783L147.187 306.028C148.143 306.061 149.071 306.348 149.87 306.856C150.669 307.364 151.309 308.074 151.719 308.908L153.177 312.402H180.053C180.93 312.384 181.78 312.692 182.429 313.262C183.077 313.832 183.475 314.621 183.54 315.466L182.019 348.226C182.019 348.642 181.932 349.053 181.763 349.435C181.594 349.817 181.346 350.162 181.035 350.449C180.724 350.736 180.355 350.958 179.952 351.103C179.549 351.247 179.12 351.311 178.691 351.29H124.178C123.748 351.311 123.319 351.247 122.916 351.103C122.513 350.958 122.145 350.736 121.833 350.449C121.522 350.162 121.274 349.817 121.105 349.435C120.936 349.053 120.849 348.642 120.85 348.226L119.297 308.786C119.384 307.949 119.795 307.175 120.447 306.618C121.1 306.061 121.945 305.763 122.815 305.783Z" fill="#FCC832"/>
<path d="M178.689 353.097H124.176C123.541 353.109 122.91 353 122.318 352.775C121.727 352.55 121.187 352.214 120.731 351.787C120.274 351.36 119.909 350.85 119.658 350.285C119.406 349.721 119.272 349.115 119.264 348.5L117.711 309.122C117.715 308.479 117.851 307.844 118.11 307.252C118.369 306.66 118.746 306.124 119.22 305.674C119.695 305.224 120.256 304.869 120.873 304.63C121.49 304.391 122.149 304.272 122.814 304.28L147.186 304.525C148.454 304.561 149.687 304.938 150.745 305.615C151.804 306.292 152.645 307.241 153.176 308.355L154.254 310.899H180.052C181.375 310.883 182.651 311.373 183.601 312.263C184.551 313.153 185.098 314.37 185.123 315.649L183.602 348.47C183.598 349.087 183.467 349.697 183.217 350.264C182.967 350.832 182.603 351.346 182.146 351.776C181.689 352.207 181.148 352.545 180.555 352.772C179.961 352.999 179.327 353.109 178.689 353.097ZM122.814 307.314C122.323 307.297 121.845 307.467 121.483 307.789C121.122 308.11 120.905 308.555 120.88 309.03L122.433 348.408C122.437 348.624 122.486 348.837 122.576 349.035C122.666 349.233 122.796 349.411 122.959 349.559C123.121 349.707 123.312 349.823 123.521 349.899C123.731 349.975 123.953 350.01 124.176 350.002H178.689C179.13 350.019 179.559 349.867 179.885 349.581C180.211 349.294 180.408 348.895 180.433 348.47L181.954 315.649C181.913 315.194 181.693 314.771 181.339 314.469C180.985 314.166 180.524 314.007 180.052 314.025H152.098L150.26 309.581C149.954 309.018 149.5 308.544 148.944 308.205C148.387 307.866 147.748 307.675 147.091 307.651L122.814 307.314Z" fill="#393C41"/>
<path d="M178.597 332.29L126.017 335.815L124.242 319.42L176.822 315.865L178.597 332.29Z" fill="#FFFFEE"/>
<path d="M126.017 337.347C125.626 337.348 125.249 337.207 124.962 336.951C124.674 336.696 124.496 336.345 124.464 335.968L122.658 319.573C122.623 319.152 122.759 318.734 123.038 318.408C123.175 318.249 123.343 318.117 123.534 318.023C123.725 317.928 123.933 317.871 124.147 317.857L176.727 314.333C177.132 314.306 177.533 314.431 177.845 314.682C178.158 314.933 178.359 315.291 178.407 315.681L180.182 332.107C180.212 332.309 180.196 332.515 180.136 332.711C180.076 332.906 179.973 333.087 179.833 333.24C179.699 333.403 179.531 333.536 179.339 333.631C179.148 333.726 178.938 333.781 178.724 333.792L126.144 337.347H126.017ZM126.017 320.829L127.475 334.19L176.885 330.85L175.427 317.489L126.017 320.829Z" fill="#393C41"/>
<path d="M181.833 319.907L155.939 320.122C154.973 320.124 154.024 320.364 153.181 320.82C152.338 321.275 151.629 321.932 151.122 322.727L149.569 325.791H121.045C120.591 325.753 120.133 325.803 119.699 325.937C119.265 326.071 118.863 326.286 118.515 326.571C118.167 326.856 117.882 327.204 117.674 327.596C117.466 327.989 117.341 328.416 117.305 328.856L118.889 358.305C118.929 358.712 119.052 359.106 119.251 359.466C119.45 359.825 119.721 360.143 120.049 360.399C120.376 360.656 120.754 360.847 121.159 360.961C121.564 361.075 121.988 361.11 122.407 361.064H180.375C180.796 361.115 181.224 361.083 181.633 360.971C182.042 360.859 182.423 360.669 182.754 360.412C183.085 360.154 183.359 359.835 183.561 359.473C183.762 359.112 183.885 358.714 183.925 358.305L185.446 322.819C185.342 321.979 184.91 321.209 184.238 320.668C183.566 320.127 182.706 319.854 181.833 319.907Z" fill="#FCC832"/>
<path d="M180.374 362.596H122.469C121.205 362.68 119.957 362.276 119 361.471C118.044 360.667 117.456 359.528 117.367 358.306L115.719 328.917C115.808 327.637 116.419 326.444 117.417 325.6C118.416 324.755 119.72 324.328 121.043 324.412H148.553L149.694 322.114C150.337 321.044 151.263 320.159 152.377 319.55C153.491 318.941 154.753 318.631 156.033 318.651L181.895 318.437C183.208 318.352 184.503 318.771 185.5 319.602C186.496 320.434 187.114 321.611 187.219 322.88L185.445 358.367C185.332 359.57 184.74 360.684 183.793 361.473C182.847 362.262 181.621 362.664 180.374 362.596ZM181.832 321.44L155.938 321.654C155.273 321.661 154.619 321.82 154.029 322.119C153.44 322.417 152.932 322.846 152.547 323.37L150.582 327.415H121.043C119.776 327.415 118.888 328.151 118.888 328.794L120.505 358.183C120.505 358.827 121.36 359.47 122.469 359.47H180.374C181.483 359.47 182.339 358.827 182.339 358.244L183.955 322.696C183.955 322.175 183.068 321.44 181.832 321.44Z" fill="#393C41"/>
<path d="M205.597 305.782L229.97 306.028C230.926 306.058 231.856 306.343 232.655 306.851C233.455 307.359 234.094 308.071 234.502 308.908L235.992 312.402H262.836C263.718 312.376 264.576 312.68 265.231 313.251C265.887 313.822 266.289 314.615 266.354 315.466L264.674 348.471C264.675 348.886 264.588 349.298 264.419 349.68C264.25 350.062 264.002 350.407 263.691 350.694C263.379 350.98 263.011 351.203 262.608 351.347C262.205 351.492 261.776 351.556 261.347 351.535H206.833C206.404 351.556 205.975 351.492 205.572 351.347C205.169 351.203 204.801 350.98 204.489 350.694C204.178 350.407 203.93 350.062 203.761 349.68C203.592 349.298 203.505 348.886 203.506 348.471L201.984 309.031C201.997 308.587 202.1 308.149 202.289 307.745C202.478 307.34 202.749 306.975 203.085 306.673C203.422 306.37 203.817 306.136 204.249 305.983C204.68 305.83 205.138 305.762 205.597 305.782Z" fill="#646FD4"/>
<path d="M261.505 353.097H206.992C205.712 353.113 204.476 352.639 203.556 351.778C202.636 350.917 202.105 349.739 202.08 348.5L200.559 309.122C200.563 308.479 200.698 307.844 200.957 307.252C201.216 306.66 201.594 306.124 202.068 305.674C202.542 305.224 203.104 304.869 203.721 304.63C204.337 304.391 204.997 304.272 205.661 304.28L230.034 304.525C231.319 304.539 232.575 304.903 233.657 305.575C234.739 306.247 235.603 307.2 236.151 308.325L237.228 310.868H262.995C264.295 310.908 265.529 311.436 266.434 312.34C267.339 313.243 267.845 314.452 267.844 315.71L266.291 348.531C266.266 349.745 265.752 350.902 264.858 351.755C263.964 352.608 262.761 353.089 261.505 353.097ZM205.598 307.314C205.356 307.305 205.116 307.343 204.889 307.425C204.663 307.507 204.456 307.631 204.279 307.79C204.103 307.95 203.96 308.141 203.86 308.354C203.76 308.567 203.705 308.796 203.696 309.03L205.218 348.408C205.222 348.624 205.27 348.837 205.36 349.035C205.451 349.233 205.581 349.411 205.743 349.559C205.905 349.707 206.097 349.823 206.306 349.899C206.515 349.975 206.738 350.01 206.961 350.002H261.505C261.724 350.014 261.944 349.984 262.151 349.914C262.358 349.843 262.548 349.733 262.71 349.59C262.873 349.447 263.004 349.275 263.096 349.082C263.189 348.89 263.24 348.682 263.249 348.47L264.675 315.649C264.627 315.191 264.4 314.768 264.041 314.467C263.682 314.165 263.217 314.007 262.741 314.025H234.819L232.981 309.489C232.68 308.922 232.227 308.444 231.67 308.104C231.112 307.765 230.471 307.576 229.812 307.559L205.598 307.314Z" fill="#393C41"/>
<path d="M261.41 332.29L208.798 335.815L207.023 319.42L259.603 315.865L261.41 332.29Z" fill="#FFFFEE"/>
<path d="M208.832 337.347C208.44 337.342 208.063 337.199 207.771 336.946C207.48 336.692 207.293 336.344 207.247 335.968L205.473 319.573C205.442 319.366 205.457 319.155 205.517 318.954C205.577 318.753 205.681 318.567 205.821 318.408C206.106 318.096 206.502 317.899 206.93 317.856L259.51 314.332C259.917 314.298 260.322 314.421 260.636 314.673C260.951 314.925 261.15 315.287 261.19 315.681L262.996 332.106C263.015 332.31 262.99 332.516 262.925 332.71C262.86 332.905 262.755 333.085 262.616 333.24C262.488 333.402 262.326 333.535 262.14 333.63C261.954 333.725 261.749 333.781 261.539 333.792L208.959 337.347H208.832ZM208.832 320.829L210.29 334.19L259.7 330.85L258.337 317.489L208.832 320.829Z" fill="#393C41"/>
<path d="M264.68 319.909L238.818 320.123C237.852 320.122 236.901 320.361 236.057 320.817C235.214 321.273 234.506 321.931 234.001 322.728L232.416 325.793H203.892C203.44 325.755 202.984 325.805 202.552 325.939C202.119 326.073 201.719 326.289 201.374 326.574C201.029 326.859 200.746 327.208 200.542 327.6C200.337 327.992 200.216 328.419 200.184 328.857L201.8 358.307C201.839 358.716 201.963 359.113 202.164 359.475C202.365 359.837 202.639 360.156 202.971 360.413C203.302 360.67 203.683 360.86 204.092 360.972C204.5 361.084 204.928 361.116 205.35 361.065H263.254C263.673 361.111 264.097 361.077 264.502 360.963C264.907 360.849 265.285 360.658 265.612 360.401C265.94 360.144 266.211 359.826 266.41 359.467C266.61 359.107 266.732 358.713 266.772 358.307L268.42 322.82C268.308 321.961 267.856 321.177 267.159 320.633C266.461 320.09 265.572 319.83 264.68 319.909Z" fill="#646FD4"/>
<path d="M263.186 362.596H205.282C204.014 362.68 202.763 362.277 201.801 361.473C200.839 360.67 200.245 359.531 200.148 358.306L198.531 328.917C198.621 327.643 199.227 326.455 200.219 325.611C201.21 324.767 202.506 324.337 203.824 324.412H231.366L232.475 322.114C233.123 321.048 234.05 320.166 235.163 319.558C236.276 318.95 237.535 318.637 238.814 318.651L264.676 318.437C265.989 318.352 267.284 318.771 268.281 319.602C269.277 320.434 269.895 321.611 270 322.88L268.352 358.428C268.232 359.64 267.622 360.758 266.654 361.538C265.687 362.318 264.441 362.698 263.186 362.596ZM264.676 321.44L238.814 321.654C238.148 321.656 237.492 321.813 236.901 322.112C236.311 322.411 235.804 322.842 235.423 323.37L233.426 327.415H203.887C202.651 327.415 201.764 328.151 201.764 328.794L203.38 358.183C203.38 358.827 204.236 359.47 205.345 359.47H263.25C264.359 359.47 265.183 358.827 265.183 358.244L266.831 322.696C266.768 322.175 265.88 321.44 264.676 321.44Z" fill="#393C41"/>
<path d="M38.1001 305.783L62.4724 306.028C63.4281 306.061 64.3558 306.348 65.1549 306.856C65.954 307.364 66.5938 308.074 67.0046 308.908L68.4625 312.402H95.3387C96.2151 312.384 97.0652 312.692 97.7139 313.262C98.3625 313.832 98.7603 314.621 98.825 315.466L97.3037 348.226C97.3042 348.642 97.2173 349.053 97.0482 349.435C96.8791 349.817 96.6314 350.162 96.3201 350.449C96.0088 350.736 95.6404 350.958 95.2374 351.103C94.8344 351.247 94.4052 351.311 93.9759 351.29H39.4629C39.0335 351.311 38.6042 351.247 38.2012 351.103C37.7982 350.958 37.4299 350.736 37.1186 350.449C36.8073 350.162 36.5596 349.817 36.3905 349.435C36.2214 349.053 36.1345 348.642 36.1351 348.226L34.582 308.786C34.6696 307.949 35.0805 307.175 35.7327 306.618C36.3849 306.061 37.2303 305.763 38.1001 305.783Z" fill="#EC79F6"/>
<path d="M93.9785 353.097H39.4655C38.8302 353.109 38.1988 353 37.6074 352.775C37.0161 352.55 36.4765 352.214 36.0199 351.787C35.5633 351.36 35.1986 350.85 34.9468 350.285C34.6951 349.721 34.5613 349.115 34.5531 348.5L33 309.122C33.0041 308.479 33.1396 307.844 33.3987 307.252C33.6578 306.66 34.0353 306.124 34.5095 305.674C34.9838 305.224 35.5454 304.869 36.1621 304.63C36.7788 304.391 37.4383 304.272 38.1027 304.28L62.4751 304.525C63.7434 304.561 64.976 304.938 66.0343 305.615C67.0926 306.292 67.9345 307.241 68.4651 308.355L69.5427 310.899H95.3413C96.6641 310.883 97.9397 311.373 98.8898 312.263C99.8399 313.153 100.387 314.37 100.412 315.649L98.891 348.47C98.8869 349.087 98.7561 349.697 98.5062 350.264C98.2563 350.832 97.8923 351.346 97.4352 351.776C96.9782 352.207 96.4373 352.545 95.8439 352.772C95.2505 352.999 94.6165 353.109 93.9785 353.097ZM38.071 307.314C37.5857 307.305 37.1159 307.479 36.761 307.8C36.4061 308.12 36.194 308.561 36.1694 309.03L37.7224 348.408C37.722 348.626 37.7676 348.841 37.8563 349.04C37.945 349.24 38.075 349.42 38.2382 349.569C38.4015 349.718 38.5945 349.834 38.8056 349.908C39.0166 349.983 39.2412 350.014 39.4655 350.002H93.9785C94.4189 350.019 94.8483 349.867 95.1744 349.581C95.5005 349.294 95.697 348.895 95.7216 348.47L97.243 315.649C97.2026 315.194 96.9825 314.771 96.6284 314.469C96.2743 314.166 95.8134 314.007 95.3413 314.025H67.3876L65.5494 309.551C65.2343 308.997 64.7771 308.532 64.222 308.199C63.6669 307.866 63.0326 307.678 62.38 307.651L38.071 307.314Z" fill="#393C41"/>
<path d="M93.8779 332.29L41.2983 335.815L39.5234 319.42L92.1031 315.865L93.8779 332.29Z" fill="#FFFFEE"/>
<path d="M41.2984 337.347C40.9076 337.348 40.5307 337.207 40.2428 336.951C39.9549 336.696 39.7774 336.345 39.7455 335.968L37.9389 319.573C37.9042 319.152 38.0406 318.734 38.3192 318.408C38.4523 318.252 38.616 318.123 38.801 318.028C38.9859 317.934 39.1885 317.875 39.3969 317.857L92.0082 314.333C92.4135 314.306 92.8139 314.431 93.1265 314.682C93.4392 314.933 93.6401 315.291 93.6879 315.681L95.4628 332.107C95.4931 332.309 95.4776 332.515 95.4174 332.711C95.3572 332.906 95.2538 333.087 95.1142 333.24C94.9801 333.403 94.8119 333.536 94.6207 333.631C94.4295 333.726 94.2196 333.781 94.0049 333.792L41.4252 337.347H41.2984ZM41.2984 320.829L42.7564 334.19L92.1667 330.85L90.7404 317.489L41.2984 320.829Z" fill="#393C41"/>
<path d="M97.1141 319.908L71.2204 320.123C70.2545 320.125 69.3051 320.365 68.462 320.821C67.619 321.277 66.9103 321.933 66.403 322.728L64.8501 325.792H36.3259C35.8719 325.755 35.4147 325.804 34.9806 325.938C34.5464 326.072 34.1439 326.287 33.7963 326.572C33.4487 326.857 33.1628 327.205 32.9551 327.598C32.7474 327.99 32.6219 328.418 32.5859 328.857L34.2341 358.307C34.2735 358.713 34.3963 359.107 34.5954 359.467C34.7945 359.826 35.0658 360.144 35.3935 360.401C35.7211 360.657 36.0985 360.849 36.5035 360.963C36.9085 361.077 37.333 361.111 37.752 361.065H95.6563C96.0778 361.116 96.5055 361.084 96.9142 360.972C97.3229 360.86 97.7042 360.67 98.0353 360.413C98.3664 360.155 98.6407 359.836 98.8418 359.475C99.0429 359.113 99.1667 358.716 99.2059 358.307L100.822 322.82C100.718 321.963 100.273 321.179 99.5802 320.635C98.8876 320.092 98.0027 319.831 97.1141 319.908Z" fill="#EC79F6"/>
<path d="M95.655 362.596H37.7825C37.1537 362.642 36.5217 362.567 35.9228 362.376C35.324 362.185 34.77 361.881 34.2929 361.483C33.8157 361.084 33.4248 360.598 33.1426 360.053C32.8603 359.508 32.6923 358.914 32.6481 358.306L31 328.948C31.0395 328.297 31.2143 327.662 31.5139 327.078C31.8135 326.495 32.2319 325.976 32.7438 325.552C33.2557 325.129 33.8507 324.81 34.4932 324.614C35.1357 324.418 35.8125 324.349 36.483 324.412H63.993L65.1341 322.114C65.7741 321.042 66.6996 320.155 67.8144 319.546C68.9292 318.937 70.1925 318.628 71.4728 318.651L97.3347 318.437C98.6481 318.352 99.9432 318.771 100.94 319.602C101.936 320.434 102.554 321.611 102.659 322.88L101.043 358.428C100.98 359.047 100.79 359.647 100.483 360.194C100.177 360.74 99.76 361.222 99.2579 361.611C98.7557 361.999 98.1782 362.286 97.5594 362.456C96.9406 362.625 96.2932 362.672 95.655 362.596ZM97.1129 321.44L71.2192 321.654C70.554 321.661 69.9 321.82 69.3106 322.119C68.7212 322.417 68.2131 322.846 67.828 323.37L65.8629 327.415H36.3246C35.0569 327.415 34.1694 328.151 34.1694 328.794L35.8175 358.152C35.8175 358.827 36.6415 359.47 37.7825 359.47H95.655C96.796 359.47 97.62 358.827 97.62 358.244L99.2363 322.696C99.2363 322.175 98.3806 321.44 97.1129 321.44Z" fill="#393C41"/>
<path d="M157.896 264.013C157.896 262.801 157.524 261.616 156.828 260.608C156.131 259.6 155.141 258.815 153.983 258.351C152.825 257.887 151.55 257.766 150.321 258.002C149.091 258.239 147.962 258.822 147.075 259.679C146.189 260.537 145.585 261.629 145.341 262.818C145.096 264.006 145.222 265.239 145.701 266.359C146.181 267.479 146.993 268.436 148.036 269.109C149.078 269.783 150.304 270.142 151.557 270.142C153.239 270.142 154.851 269.497 156.04 268.347C157.228 267.198 157.896 265.639 157.896 264.013Z" fill="#FCC832"/>
<path d="M151.441 271.797C149.849 271.797 148.292 271.341 146.968 270.485C145.645 269.63 144.613 268.414 144.003 266.992C143.394 265.57 143.235 264.005 143.545 262.495C143.856 260.985 144.623 259.598 145.748 258.509C146.874 257.421 148.309 256.679 149.87 256.379C151.432 256.079 153.05 256.233 154.521 256.822C155.992 257.411 157.25 258.409 158.134 259.689C159.019 260.969 159.491 262.474 159.491 264.013C159.491 266.078 158.643 268.058 157.133 269.517C155.623 270.977 153.576 271.797 151.441 271.797ZM151.441 259.294C150.475 259.294 149.532 259.571 148.729 260.089C147.927 260.608 147.301 261.345 146.932 262.207C146.562 263.07 146.465 264.019 146.654 264.934C146.842 265.849 147.307 266.69 147.99 267.35C148.672 268.01 149.542 268.46 150.489 268.642C151.435 268.824 152.417 268.731 153.309 268.373C154.2 268.016 154.963 267.411 155.499 266.635C156.035 265.859 156.322 264.947 156.322 264.013C156.322 262.762 155.807 261.561 154.892 260.676C153.977 259.791 152.735 259.294 151.441 259.294Z" fill="#FCC832"/>
<path d="M66.6881 270.265C70.2589 270.265 73.1536 267.466 73.1536 264.013C73.1536 260.561 70.2589 257.762 66.6881 257.762C63.1174 257.762 60.2227 260.561 60.2227 264.013C60.2227 267.466 63.1174 270.265 66.6881 270.265Z" fill="#FCC832"/>
<path d="M66.7221 271.797C65.1299 271.797 63.5734 271.341 62.2496 270.485C60.9258 269.63 59.894 268.414 59.2847 266.992C58.6754 265.57 58.5159 264.005 58.8265 262.495C59.1372 260.985 59.9039 259.598 61.0298 258.509C62.1556 257.421 63.5899 256.679 65.1515 256.379C66.7131 256.079 68.3318 256.233 69.8027 256.822C71.2737 257.411 72.531 258.409 73.4156 259.689C74.3001 260.969 74.7722 262.474 74.7722 264.013C74.7722 266.078 73.9241 268.058 72.4144 269.517C70.9047 270.977 68.8571 271.797 66.7221 271.797ZM66.7221 259.294C65.7568 259.294 64.8131 259.571 64.0104 260.089C63.2078 260.608 62.5822 261.345 62.2128 262.207C61.8433 263.07 61.7467 264.019 61.9351 264.934C62.1234 265.849 62.5882 266.69 63.2708 267.35C63.9534 268.01 64.8231 268.46 65.7699 268.642C66.7167 268.824 67.698 268.731 68.5899 268.373C69.4817 268.016 70.244 267.411 70.7803 266.635C71.3166 265.859 71.6028 264.947 71.6028 264.013C71.6028 262.762 71.0886 261.561 70.1733 260.676C69.258 259.791 68.0166 259.294 66.7221 259.294Z" fill="#FCC832"/>
<path d="M245.439 264.013C245.439 262.801 245.067 261.616 244.371 260.608C243.674 259.6 242.684 258.815 241.526 258.351C240.368 257.887 239.093 257.766 237.864 258.002C236.634 258.239 235.505 258.822 234.618 259.679C233.732 260.537 233.128 261.629 232.884 262.818C232.639 264.006 232.765 265.239 233.244 266.359C233.724 267.479 234.536 268.436 235.579 269.109C236.621 269.783 237.847 270.142 239.1 270.142C240.782 270.142 242.394 269.497 243.583 268.347C244.771 267.198 245.439 265.639 245.439 264.013Z" fill="#FCC832"/>
<path d="M238.972 271.797C237.38 271.797 235.823 271.341 234.5 270.485C233.176 269.63 232.144 268.414 231.535 266.992C230.925 265.57 230.766 264.005 231.077 262.495C231.387 260.985 232.154 259.598 233.28 258.509C234.406 257.421 235.84 256.679 237.402 256.379C238.963 256.079 240.582 256.233 242.053 256.822C243.524 257.411 244.781 258.409 245.666 259.689C246.55 260.969 247.022 262.474 247.022 264.013C247.022 266.078 246.174 268.058 244.664 269.517C243.155 270.977 241.107 271.797 238.972 271.797ZM238.972 259.294C238.007 259.294 237.063 259.571 236.26 260.089C235.458 260.608 234.832 261.345 234.463 262.207C234.093 263.07 233.997 264.019 234.185 264.934C234.373 265.849 234.838 266.69 235.521 267.35C236.203 268.01 237.073 268.46 238.02 268.642C238.967 268.824 239.948 268.731 240.84 268.373C241.732 268.016 242.494 267.411 243.03 266.635C243.567 265.859 243.853 264.947 243.853 264.013C243.853 262.762 243.339 261.561 242.423 260.676C241.508 259.791 240.267 259.294 238.972 259.294Z" fill="#FCC832"/>
<g clip-path="url(#clip0_3098_876)">
<path d="M152 176.324C186.973 176.324 215.324 147.973 215.324 113C215.324 78.0265 186.973 49.6753 152 49.6753C117.027 49.6753 88.6758 78.0265 88.6758 113C88.6758 147.973 117.027 176.324 152 176.324Z" fill="#9BA3EB"/>
<path d="M215.32 112.999C215.32 147.967 186.968 176.319 152 176.319V49.6797C186.973 49.6797 215.32 78.0317 215.32 112.999Z" fill="#646FD4"/>
<path d="M259.05 107.05C257.662 107.05 256.317 107.536 255.249 108.423C254.181 109.31 253.457 110.543 253.203 111.907H220.884C220.762 103.064 218.926 94.3275 215.478 86.1827C214.897 84.8076 214.273 83.4566 213.607 82.1296H254.939V79.9465H212.463C209.314 74.1922 205.358 68.9181 200.715 64.2843C200.447 64.0173 200.177 63.7527 199.906 63.4905H221.363V61.3062H197.545C195.294 59.3171 192.914 57.4778 190.422 55.8V26.0528H219.719C219.991 27.5105 220.798 28.8141 221.981 29.7081C223.164 30.602 224.639 31.0218 226.115 30.8851C227.592 30.7485 228.964 30.0653 229.963 28.9695C230.962 27.8736 231.516 26.4442 231.516 24.9612C231.516 23.4783 230.962 22.0488 229.963 20.953C228.964 19.8571 227.592 19.174 226.115 19.0373C224.639 18.9007 223.164 19.3205 221.981 20.2144C220.798 21.1083 219.991 22.4119 219.719 23.8697H188.239V54.3906C183.012 51.1581 177.377 48.6381 171.484 46.8974V25.5389H169.301V46.2938C164.004 44.9255 158.562 44.1943 153.092 44.1154V11.7964C154.549 11.5243 155.853 10.7176 156.747 9.5344C157.641 8.35118 158.061 6.87675 157.924 5.40012C157.787 3.92349 157.104 2.55111 156.008 1.55199C154.912 0.552863 153.483 -0.000976562 152 -0.000976562C150.517 -0.000976563 149.088 0.552863 147.992 1.55199C146.896 2.55111 146.213 3.92349 146.076 5.40012C145.939 6.87675 146.359 8.35118 147.253 9.5344C148.147 10.7176 149.451 11.5243 150.908 11.7964V44.1154C145.438 44.1943 139.997 44.9255 134.699 46.2938V25.5389H132.516V46.8974C126.623 48.6381 120.988 51.1581 115.761 54.3906V23.8673H84.2764C84.0044 22.4095 83.1976 21.106 82.0144 20.212C80.8312 19.3181 79.3568 18.8983 77.8801 19.035C76.4035 19.1716 75.0311 19.8548 74.032 20.9506C73.0329 22.0464 72.479 23.4759 72.479 24.9589C72.479 26.4418 73.0329 27.8713 74.032 28.9671C75.0311 30.063 76.4035 30.7461 77.8801 30.8828C79.3568 31.0194 80.8312 30.5996 82.0144 29.7057C83.1976 28.8118 84.0044 27.5082 84.2764 26.0504H113.574V55.8C111.081 57.4778 108.702 59.3171 106.45 61.3062H82.6368V63.4905H104.095C103.823 63.7527 103.553 64.0173 103.285 64.2843C98.6424 68.9181 94.6862 74.1922 91.5369 79.9465H49.0608V82.1296H90.3934C89.7287 83.4558 89.105 84.8069 88.5222 86.1827C85.074 94.3275 83.2381 103.064 83.1164 111.907H50.7974C50.5253 110.45 49.7186 109.146 48.5354 108.252C47.3522 107.358 45.8777 106.939 44.4011 107.075C42.9245 107.212 41.5521 107.895 40.553 108.991C39.5538 110.087 39 111.516 39 112.999C39 114.482 39.5538 115.911 40.553 117.007C41.5521 118.103 42.9245 118.786 44.4011 118.923C45.8777 119.06 47.3522 118.64 48.5354 117.746C49.7186 116.852 50.5253 115.548 50.7974 114.091H83.1164C83.2381 122.934 85.074 131.671 88.5222 139.815C89.1034 141.19 89.7271 142.541 90.3934 143.868H49.0608V146.052H91.5369C94.6862 151.806 98.6424 157.08 103.285 161.714C103.553 161.981 103.823 162.245 104.095 162.508H82.6368V164.692H106.455C108.706 166.681 111.086 168.52 113.578 170.198V199.945H84.2812C84.0091 198.488 83.2024 197.184 82.0191 196.29C80.8359 195.396 79.3615 194.976 77.8849 195.113C76.4082 195.25 75.0359 195.933 74.0367 197.029C73.0376 198.124 72.4838 199.554 72.4838 201.037C72.4838 202.52 73.0376 203.949 74.0367 205.045C75.0359 206.141 76.4082 206.824 77.8849 206.961C79.3615 207.097 80.8359 206.678 82.0191 205.784C83.2024 204.89 84.0091 203.586 84.2812 202.128H115.761V171.607C120.988 174.84 126.623 177.36 132.516 179.101V200.459H134.699V179.704C139.997 181.073 145.438 181.804 150.908 181.883V214.202C149.451 214.474 148.147 215.28 147.253 216.464C146.359 217.647 145.939 219.121 146.076 220.598C146.213 222.075 146.896 223.447 147.992 224.446C149.088 225.445 150.517 225.999 152 225.999C153.483 225.999 154.912 225.445 156.008 224.446C157.104 223.447 157.787 222.075 157.924 220.598C158.061 219.121 157.641 217.647 156.747 216.464C155.853 215.28 154.549 214.474 153.092 214.202V181.883C158.562 181.804 164.004 181.073 169.301 179.704V200.459H171.484V179.101C177.377 177.36 183.012 174.84 188.239 171.607V202.131H219.724C219.996 203.589 220.802 204.892 221.986 205.786C223.169 206.68 224.643 207.1 226.12 206.963C227.597 206.826 228.969 206.143 229.968 205.047C230.967 203.952 231.521 202.522 231.521 201.039C231.521 199.556 230.967 198.127 229.968 197.031C228.969 195.935 227.597 195.252 226.12 195.115C224.643 194.979 223.169 195.398 221.986 196.292C220.802 197.186 219.996 198.49 219.724 199.948H190.426V170.198C192.919 168.52 195.298 166.681 197.55 164.692H221.368V162.508H199.906C200.177 162.245 200.447 161.981 200.715 161.714C205.358 157.08 209.314 151.806 212.463 146.052H254.939V143.868H213.607C214.272 142.541 214.896 141.19 215.478 139.815C218.926 131.671 220.762 122.934 220.884 114.091H253.203C253.41 115.201 253.929 116.23 254.7 117.056C255.471 117.883 256.461 118.473 257.554 118.757C258.648 119.041 259.8 119.008 260.875 118.662C261.951 118.315 262.905 117.669 263.627 116.8C264.349 115.931 264.809 114.874 264.952 113.753C265.095 112.632 264.916 111.494 264.436 110.471C263.956 109.448 263.194 108.583 262.241 107.977C261.287 107.371 260.18 107.05 259.05 107.05ZM213.467 138.965C207.028 154.265 195.132 166.627 180.091 173.649C165.049 180.672 147.935 181.855 132.07 176.969C116.206 172.083 102.722 161.475 94.2389 147.207C85.7552 132.938 82.8763 116.026 86.1611 99.7542C89.4458 83.4822 98.6598 69.0113 112.014 59.151C125.369 49.2907 141.911 44.7445 158.429 46.395C174.947 48.0456 190.262 55.7752 201.401 68.083C212.54 80.3909 218.709 96.3988 218.709 112.999C218.72 121.918 216.938 130.749 213.467 138.965Z" fill="#FCC832"/>
<path d="M165.863 104.631H138.137C137.421 104.631 136.713 104.772 136.052 105.045C135.39 105.319 134.79 105.72 134.284 106.226C133.778 106.732 133.376 107.333 133.102 107.994C132.828 108.655 132.687 109.364 132.688 110.079V137.807C132.687 138.523 132.828 139.232 133.102 139.893C133.376 140.554 133.778 141.154 134.284 141.66C134.79 142.166 135.39 142.568 136.052 142.841C136.713 143.115 137.421 143.256 138.137 143.256H165.863C166.579 143.256 167.287 143.115 167.948 142.841C168.609 142.568 169.21 142.166 169.716 141.66C170.222 141.154 170.624 140.554 170.898 139.893C171.171 139.232 171.312 138.523 171.312 137.807V110.079C171.312 109.364 171.171 108.655 170.898 107.994C170.624 107.333 170.222 106.732 169.716 106.226C169.21 105.72 168.609 105.319 167.948 105.045C167.287 104.772 166.579 104.631 165.863 104.631ZM154.589 125.037V128.644C154.589 128.984 154.522 129.321 154.392 129.635C154.262 129.949 154.071 130.234 153.831 130.475C153.591 130.715 153.305 130.906 152.991 131.036C152.677 131.166 152.34 131.233 152 131.233C151.66 131.233 151.323 131.166 151.009 131.036C150.695 130.906 150.409 130.715 150.169 130.475C149.928 130.234 149.738 129.949 149.608 129.635C149.477 129.321 149.41 128.984 149.41 128.644V125.037C148.334 124.46 147.482 123.54 146.988 122.423C146.494 121.307 146.387 120.057 146.685 118.872C146.982 117.688 147.667 116.637 148.63 115.886C149.593 115.135 150.779 114.727 152 114.727C153.221 114.727 154.407 115.135 155.37 115.886C156.333 116.637 157.018 117.688 157.315 118.872C157.613 120.057 157.506 121.307 157.012 122.423C156.518 123.54 155.666 124.46 154.589 125.037Z" fill="white"/>
<path d="M164.485 101.16H160.56V92.2079C160.56 89.9373 159.658 87.7598 158.052 86.1543C156.447 84.5487 154.269 83.6468 151.998 83.6468C149.728 83.6468 147.55 84.5487 145.945 86.1543C144.339 87.7598 143.437 89.9373 143.437 92.2079V101.166H139.512V92.2079C139.512 88.8962 140.827 85.7202 143.169 83.3785C145.511 81.0368 148.687 79.7212 151.998 79.7212C155.31 79.7212 158.486 81.0368 160.828 83.3785C163.17 85.7202 164.485 88.8962 164.485 92.2079V101.16Z" fill="white"/>
</g>
<g filter="url(#filter1_d_3098_876)">
<ellipse cx="446" cy="244.5" rx="122" ry="62.5" fill="#DBDFFD"/>
</g>
<g clip-path="url(#clip1_3098_876)">
<path d="M457.448 274.971H452.46V273.306H457.448L460.872 270.124L462.003 271.357L458.345 274.688L457.498 273.772L457.448 274.971ZM447.473 274.971H442.485V273.306H447.473V274.971ZM437.498 274.971H432.76L432.095 274.355L433.225 273.122L433.408 273.306H437.498V274.971ZM428.404 270.957L424.746 267.626L425.877 266.41L429.534 269.741L428.404 270.957ZM465.577 267.959L464.447 266.727L468.104 263.395L469.235 264.611L465.577 267.959ZM421.122 264.162L417.448 260.83L418.578 259.598L422.236 262.929L421.122 264.162ZM472.926 261.164L471.795 259.948L475.453 256.617L476.583 257.832L472.926 261.164ZM413.79 257.383L410.133 254.052L411.263 252.836L414.921 256.167L413.79 257.383ZM480.29 254.385L479.16 253.152L482.817 249.821L483.948 251.037L480.29 254.385ZM406.475 250.587L402.818 247.256L403.948 246.04L407.606 249.371L406.475 250.587ZM487.572 247.589L486.442 246.373L490.099 243.042L491.23 244.258L487.572 247.589ZM399.144 243.742L395.486 240.41L396.617 239.195L400.274 242.526L399.144 243.742ZM494.904 240.81L493.773 239.578L497.447 236.246L498.578 237.479L494.904 240.81ZM391.829 237.079L388.171 233.748L389.302 232.532L392.959 235.863L391.829 237.079ZM502.219 234.081L501.088 232.865L504.746 229.534L505.876 230.75L502.219 234.081ZM500.556 230.75H495.569V229.084H500.556V230.75ZM490.581 230.75H485.594V229.084H490.581V230.75ZM480.606 230.75H475.619V229.084H480.606V230.75ZM470.631 230.75H465.644V229.084H470.631V230.75ZM460.656 230.75H455.669V229.084H460.656V230.75ZM450.681 230.75H445.694V229.084H450.681V230.75ZM440.706 230.75H435.719V229.084H440.706V230.75ZM430.731 230.75H425.744V229.084H430.731V230.75ZM420.756 230.75H415.769V229.084H420.756V230.75ZM410.781 230.75H405.794V229.084H410.781V230.75ZM400.806 230.75H395.819V229.084H400.806V230.75ZM390.831 230.75H385.844V229.084H390.831V230.75Z" fill="#393C41"/>
<path d="M488.405 165.209H483.417V163.543H488.405V165.209ZM478.43 165.209H473.442V163.543H478.43V165.209ZM468.455 165.209H463.467V163.543H468.455V165.209ZM458.48 165.209H453.492V163.543H458.48V165.209ZM448.505 165.209H443.517V163.543H448.505V165.209ZM438.53 165.209H433.542V163.543H438.53V165.209ZM428.555 165.209H423.567V163.543H428.555V165.209ZM418.58 165.209H413.592V163.543H418.58V165.209ZM408.605 165.209H403.617V163.543H408.605V165.209Z" fill="#393C41"/>
<path d="M377.832 213.761V222.689C377.832 230.067 390.135 236.013 405.313 236.013C420.492 236.013 432.778 230.017 432.778 222.689V213.761H377.832Z" fill="#FCC832"/>
<path d="M405.313 236.812C389.436 236.812 377.051 230.567 377.051 222.605V212.845H433.609V222.605C433.609 230.567 421.174 236.812 405.313 236.812ZM378.713 214.51V222.605C378.713 229.401 390.916 235.147 405.313 235.147C419.711 235.147 431.913 229.401 431.913 222.605V214.51H378.713Z" fill="#393C41"/>
<path d="M377.832 202.868V211.795C377.832 219.174 390.135 225.12 405.313 225.12C420.492 225.12 432.778 219.124 432.778 211.795V202.868H377.832Z" fill="#FCC832"/>
<path d="M405.313 226.003C389.436 226.003 377.051 219.757 377.051 211.796V202.102H433.609V211.862C433.609 219.757 421.174 226.003 405.313 226.003ZM378.663 203.768V211.862C378.663 218.658 390.866 224.404 405.263 224.404C419.661 224.404 431.863 218.658 431.863 211.862V203.768H378.663Z" fill="#393C41"/>
<path d="M377.832 192.108V201.036C377.832 208.414 390.135 214.361 405.313 214.361C420.492 214.361 432.778 208.364 432.778 201.036V192.108H377.832Z" fill="#FCC832"/>
<path d="M405.313 215.193C389.436 215.193 377.051 208.947 377.051 200.986V191.226H433.609V200.986C433.609 208.947 421.174 215.193 405.313 215.193ZM378.713 192.891V200.986C378.713 207.781 390.916 213.528 405.313 213.528C419.711 213.528 431.913 207.781 431.913 200.986V192.891H378.713Z" fill="#393C41"/>
<path d="M377.832 181.249V190.177C377.832 197.555 390.135 203.501 405.313 203.501C420.492 203.501 432.778 197.505 432.778 190.177V181.249H377.832Z" fill="#FCC832"/>
<path d="M405.313 204.384C389.436 204.384 377.051 198.138 377.051 190.176V180.449H433.609V190.21C433.609 198.138 421.174 204.384 405.313 204.384ZM378.663 182.115V190.21C378.663 197.005 390.866 202.751 405.263 202.751C419.661 202.751 431.863 197.005 431.863 190.21V182.115H378.663Z" fill="#393C41"/>
<path d="M377.832 168.208V179.367C377.832 186.745 390.135 192.692 405.313 192.692C420.492 192.692 432.778 186.695 432.778 179.367V168.208H377.832Z" fill="#FCC832"/>
<path d="M405.313 193.575C389.436 193.575 377.051 187.329 377.051 179.367V167.375H433.609V179.367C433.609 187.329 421.174 193.575 405.313 193.575ZM378.713 169.041V179.367C378.713 186.163 390.916 191.909 405.313 191.909C419.711 191.909 431.913 186.163 431.913 179.367V169.041H378.713Z" fill="#393C41"/>
<path d="M432.778 168.207C432.778 175.603 420.492 181.532 405.313 181.532C390.135 181.532 377.832 175.536 377.832 168.207C377.832 160.879 390.135 154.883 405.313 154.883C420.492 154.883 432.778 160.829 432.778 168.207Z" fill="#FCC832"/>
<path d="M405.313 182.431C389.436 182.431 377.051 176.186 377.051 168.207C377.051 160.229 389.486 154 405.313 154C421.14 154 433.576 160.246 433.576 168.207C433.576 176.169 421.174 182.431 405.313 182.431ZM405.313 155.666C390.617 155.666 378.713 161.295 378.713 168.207C378.713 175.12 390.667 180.766 405.313 180.766C419.96 180.766 431.913 175.136 431.913 168.207C431.913 161.279 419.744 155.666 405.313 155.666Z" fill="#393C41"/>
<path d="M458.945 213.761V222.689C458.945 230.067 471.248 236.013 486.426 236.013C501.605 236.013 513.891 230.017 513.891 222.689V213.761H458.945Z" fill="#EC79F6"/>
<path d="M486.427 236.812C470.55 236.812 458.164 230.567 458.164 222.605V212.845H514.722V222.605C514.722 230.567 502.287 236.812 486.427 236.812ZM459.827 214.51V222.605C459.827 229.401 472.029 235.147 486.427 235.147C500.824 235.147 513.027 229.401 513.027 222.605V214.51H459.827Z" fill="#393C41"/>
<path d="M458.945 202.868V211.795C458.945 219.174 471.248 225.12 486.426 225.12C501.605 225.12 513.891 219.124 513.891 211.795V202.868H458.945Z" fill="#EC79F6"/>
<path d="M486.427 226.003C470.55 226.003 458.164 219.757 458.164 211.796V202.102H514.722V211.862C514.722 219.757 502.287 226.003 486.427 226.003ZM459.777 203.768V211.862C459.777 218.658 471.979 224.404 486.377 224.404C500.774 224.404 512.977 218.658 512.977 211.862V203.768H459.777Z" fill="#393C41"/>
<path d="M458.945 192.108V201.036C458.945 208.414 471.248 214.361 486.426 214.361C501.605 214.361 513.891 208.364 513.891 201.036V192.108H458.945Z" fill="#EC79F6"/>
<path d="M486.427 215.193C470.55 215.193 458.164 208.947 458.164 200.986V191.226H514.722V200.986C514.722 208.947 502.287 215.193 486.427 215.193ZM459.827 192.891V200.986C459.827 207.781 472.029 213.528 486.427 213.528C500.824 213.528 513.027 207.781 513.027 200.986V192.891H459.827Z" fill="#393C41"/>
<path d="M458.945 181.249V190.177C458.945 197.555 471.248 203.501 486.426 203.501C501.605 203.501 513.891 197.505 513.891 190.177V181.249H458.945Z" fill="#EC79F6"/>
<path d="M486.427 204.384C470.55 204.384 458.164 198.138 458.164 190.176V180.449H514.722V190.21C514.722 198.138 502.287 204.384 486.427 204.384ZM459.777 182.115V190.21C459.777 197.005 471.979 202.751 486.377 202.751C500.774 202.751 512.977 197.005 512.977 190.21V182.115H459.777Z" fill="#393C41"/>
<path d="M458.945 168.208V179.367C458.945 186.745 471.248 192.692 486.426 192.692C501.605 192.692 513.891 186.695 513.891 179.367V168.208H458.945Z" fill="#EC79F6"/>
<path d="M486.427 193.575C470.55 193.575 458.164 187.329 458.164 179.367V167.375H514.722V179.367C514.722 187.329 502.287 193.575 486.427 193.575ZM459.827 169.041V179.367C459.827 186.163 472.029 191.909 486.427 191.909C500.824 191.909 513.027 186.163 513.027 179.367V169.041H459.827Z" fill="#393C41"/>
<path d="M513.891 168.207C513.891 175.603 501.588 181.532 486.426 181.532C471.264 181.532 458.945 175.536 458.945 168.207C458.945 160.879 471.248 154.883 486.426 154.883C501.605 154.883 513.891 160.829 513.891 168.207Z" fill="#EC79F6"/>
<path d="M486.427 182.431C470.55 182.431 458.164 176.186 458.164 168.207C458.164 160.229 470.6 154 486.427 154C502.254 154 514.689 160.246 514.689 168.207C514.689 176.169 502.287 182.431 486.427 182.431ZM486.427 155.666C471.73 155.666 459.827 161.295 459.827 168.207C459.827 175.12 471.78 180.766 486.427 180.766C501.073 180.766 513.027 175.136 513.027 168.207C513.027 161.279 501.106 155.666 486.427 155.666Z" fill="#393C41"/>
<path d="M418.43 258.848V267.776C418.43 275.171 430.732 281.1 445.911 281.1C461.089 281.1 473.292 275.171 473.292 267.776V258.848H418.43Z" fill="#646FD4"/>
<path d="M445.86 282.05C429.983 282.05 417.598 275.821 417.598 267.843V258.016H474.173V267.776C474.173 275.754 461.737 282.05 445.86 282.05ZM419.26 259.748V267.843C419.26 274.655 431.463 280.384 445.86 280.384C460.257 280.384 472.46 274.655 472.46 267.843V259.681L419.26 259.748Z" fill="#393C41"/>
<path d="M418.43 248.055V256.966C418.43 264.361 430.732 270.291 445.911 270.291C461.089 270.291 473.292 264.361 473.292 256.966V248.055H418.43Z" fill="#646FD4"/>
<path d="M445.86 271.19C429.983 271.19 417.598 264.944 417.598 256.966V247.222H474.173V256.966C474.173 264.944 461.737 271.19 445.86 271.19ZM419.26 248.888V256.966C419.26 263.778 431.463 269.524 445.86 269.524C460.257 269.524 472.46 263.778 472.46 256.966V248.888H419.26Z" fill="#393C41"/>
<path d="M418.43 237.246V246.157C418.43 253.552 430.732 259.482 445.911 259.482C461.089 259.482 473.292 253.552 473.292 246.157V237.246H418.43Z" fill="#646FD4"/>
<path d="M445.86 260.397C429.983 260.397 417.598 254.152 417.598 246.173V236.413H474.173V246.157C474.173 254.135 461.737 260.397 445.86 260.397ZM419.26 238.095V246.173C419.26 252.986 431.463 258.732 445.86 258.732C460.257 258.732 472.46 252.986 472.46 246.173V238.079L419.26 238.095Z" fill="#393C41"/>
<path d="M418.43 226.436V235.414C418.43 242.792 430.732 248.738 445.911 248.738C461.089 248.738 473.292 242.742 473.292 235.414V226.436H418.43Z" fill="#646FD4"/>
<path d="M445.86 249.571C429.983 249.571 417.598 243.325 417.598 235.364V225.604H474.173V235.414C474.173 243.325 461.737 249.571 445.86 249.571ZM419.26 227.269V235.414C419.26 242.209 431.463 247.956 445.86 247.956C460.257 247.956 472.46 242.209 472.46 235.414V227.269H419.26Z" fill="#393C41"/>
<path d="M418.43 213.395V224.554C418.43 231.933 430.732 237.879 445.911 237.879C461.089 237.879 473.292 231.933 473.292 224.554V213.395H418.43Z" fill="#646FD4"/>
<path d="M445.86 238.745C429.983 238.745 417.598 232.499 417.598 224.537V212.545H474.173V224.537C474.173 232.515 461.737 238.745 445.86 238.745ZM419.26 214.211V224.537C419.26 231.333 431.463 237.079 445.86 237.079C460.257 237.079 472.46 231.333 472.46 224.537V214.211H419.26Z" fill="#393C41"/>
<path d="M473.292 213.394C473.292 220.79 460.99 226.719 445.811 226.719C430.632 226.719 418.43 220.79 418.43 213.394C418.43 205.999 430.732 200.07 445.911 200.07C461.089 200.07 473.292 205.999 473.292 213.394Z" fill="#646FD4"/>
<path d="M445.86 227.602C429.983 227.602 417.598 221.373 417.598 213.395C417.598 205.417 430.033 199.188 445.86 199.188C461.687 199.188 474.123 205.417 474.123 213.395C474.123 221.373 461.737 227.602 445.86 227.602ZM445.86 200.853C431.164 200.853 419.26 206.483 419.26 213.395C419.26 220.307 431.214 225.937 445.86 225.937C460.507 225.937 472.46 220.324 472.46 213.395C472.46 206.466 460.557 200.853 445.86 200.853Z" fill="#393C41"/>
</g>
<defs>
<filter id="filter0_d_3098_876" x="0" y="295" width="316" height="133" filterUnits="userSpaceOnUse" color-interpolation-filters="sRGB">
<feFlood flood-opacity="0" result="BackgroundImageFix"/>
<feColorMatrix in="SourceAlpha" type="matrix" values="0 0 0 0 0 0 0 0 0 0 0 0 0 0 0 0 0 0 127 0" result="hardAlpha"/>
<feOffset dy="4"/>
<feGaussianBlur stdDeviation="2"/>
<feComposite in2="hardAlpha" operator="out"/>
<feColorMatrix type="matrix" values="0 0 0 0 0 0 0 0 0 0 0 0 0 0 0 0 0 0 0.25 0"/>
<feBlend mode="normal" in2="BackgroundImageFix" result="effect1_dropShadow_3098_876"/>
<feBlend mode="normal" in="SourceGraphic" in2="effect1_dropShadow_3098_876" result="shape"/>
</filter>
<filter id="filter1_d_3098_876" x="320" y="182" width="252" height="133" filterUnits="userSpaceOnUse" color-interpolation-filters="sRGB">
<feFlood flood-opacity="0" result="BackgroundImageFix"/>
<feColorMatrix in="SourceAlpha" type="matrix" values="0 0 0 0 0 0 0 0 0 0 0 0 0 0 0 0 0 0 127 0" result="hardAlpha"/>
<feOffset dy="4"/>
<feGaussianBlur stdDeviation="2"/>
<feComposite in2="hardAlpha" operator="out"/>
<feColorMatrix type="matrix" values="0 0 0 0 0 0 0 0 0 0 0 0 0 0 0 0 0 0 0.25 0"/>
<feBlend mode="normal" in2="BackgroundImageFix" result="effect1_dropShadow_3098_876"/>
<feBlend mode="normal" in="SourceGraphic" in2="effect1_dropShadow_3098_876" result="shape"/>
</filter>
<clipPath id="clip0_3098_876">
<rect width="226" height="226" fill="white" transform="translate(39)"/>
</clipPath>
<clipPath id="clip1_3098_876">
<rect width="137.722" height="128" fill="white" transform="translate(377 154)"/>
</clipPath>
</defs>
</svg>
