<svg width="27" height="26" viewBox="0 0 27 26" fill="none" xmlns="http://www.w3.org/2000/svg">
<path d="M8.69388 1.82881C7.07205 1.82589 5.50945 2.43814 4.3213 3.54206C3.13314 4.64598 2.40785 6.15942 2.29172 7.77709C2.17559 9.39477 2.67727 10.9963 3.69556 12.2586C4.71385 13.5209 6.17296 14.3501 7.77858 14.5789V16.4241C6.23716 16.2514 4.7758 15.6471 3.56267 14.6806C2.34953 13.7141 1.43391 12.4247 0.921151 10.9609C0.408397 9.49701 0.319348 7.91812 0.66425 6.40589C1.00915 4.89366 1.77399 3.50952 2.87076 2.41275C3.96753 1.31598 5.35166 0.551145 6.8639 0.206243C8.37613 -0.13866 9.95501 -0.0496106 11.4189 0.463143C12.8827 0.975897 14.1721 1.89152 15.1386 3.10466C16.1051 4.3178 16.7094 5.77915 16.8821 7.32058H15.0369C14.8167 5.79542 14.0543 4.40069 12.8893 3.39205C11.7243 2.3834 10.2348 1.82841 8.69388 1.82881ZM14.1856 9.15117C12.9719 9.15117 11.8078 9.63333 10.9496 10.4916C10.0913 11.3498 9.60917 12.5139 9.60917 13.7276L9.60917 21.05C9.60917 22.2638 10.0913 23.4278 10.9496 24.286C11.8078 25.1443 12.9719 25.6265 14.1856 25.6265H21.508C22.7218 25.6265 23.8858 25.1443 24.7441 24.286C25.6023 23.4278 26.0845 22.2638 26.0845 21.05V13.7276C26.0845 12.5139 25.6023 11.3498 24.7441 10.4916C23.8858 9.63333 22.7218 9.15117 21.508 9.15117L14.1856 9.15117ZM11.4398 13.7276C11.4398 12.9994 11.7291 12.301 12.244 11.786C12.759 11.2711 13.4574 10.9818 14.1856 10.9818L21.508 10.9818C22.2363 10.9818 22.9347 11.2711 23.4496 11.786C23.9646 12.301 24.2539 12.9994 24.2539 13.7276V21.05C24.2539 21.7782 23.9646 22.4767 23.4496 22.9916C22.9347 23.5066 22.2363 23.7959 21.508 23.7959H14.1856C13.4574 23.7959 12.759 23.5066 12.244 22.9916C11.7291 22.4767 11.4398 21.7782 11.4398 21.05L11.4398 13.7276Z" fill="black"/>
</svg>
