<svg width="19" height="16" viewBox="0 0 19 16" fill="none" xmlns="http://www.w3.org/2000/svg">
<path d="M6.47922 4.26367H2.5552L1.99463 4.73736V14.211L2.5552 14.6847H14.8878L15.4484 14.211V11.368H14.3273V13.7374H3.11578V5.21104H6.47922V4.26367Z" fill="white"/>
<path fill-rule="evenodd" clip-rule="evenodd" d="M7.60113 10.8948H6.47998V8.52636C6.48014 7.43447 6.92653 6.37612 7.74368 5.53027C8.56082 4.68443 9.69858 4.10298 10.9646 3.88425V2.6991C10.9645 2.44282 11.0557 2.19245 11.2261 1.9805C11.3966 1.76855 11.6386 1.6048 11.9206 1.51052C12.2026 1.41624 12.5117 1.39579 12.8076 1.45181C13.1036 1.50783 13.3728 1.63774 13.5802 1.82467L17.6679 5.50994V6.80594L13.5802 10.4912C13.3727 10.6782 13.1034 10.8081 12.8073 10.8641C12.5113 10.9201 12.2021 10.8996 11.9201 10.8052C11.638 10.7108 11.3961 10.5469 11.2257 10.3348C11.0553 10.1227 10.9643 9.87219 10.9646 9.61583V8.6211C9.91854 8.82099 9.41291 9.29467 9.13486 9.70583C8.8929 10.0708 8.75184 10.4772 8.72228 10.8948H7.60113ZM12.0857 4.73689C10.8963 4.73689 9.75566 5.13613 8.91464 5.8468C8.07361 6.55746 7.60113 7.52133 7.60113 8.52636V9.94741H7.79845C7.95317 9.52773 8.22897 9.0332 8.72228 8.60499C9.21783 8.17394 9.93312 7.81015 10.9646 7.65762C11.3349 7.60391 11.71 7.5776 12.0857 7.57899V9.61678C12.0858 9.68298 12.1094 9.74764 12.1535 9.80238C12.1975 9.85712 12.26 9.89943 12.3328 9.92382C12.4057 9.94822 12.4855 9.95357 12.562 9.9392C12.6384 9.92482 12.708 9.89138 12.7618 9.8432L16.8506 6.15794L12.7618 2.47267C12.708 2.42443 12.6383 2.39097 12.5617 2.37663C12.4851 2.36228 12.4052 2.36772 12.3323 2.39223C12.2594 2.41674 12.1969 2.45919 12.153 2.51408C12.109 2.56897 12.0856 2.63376 12.0857 2.70004V4.73689Z" fill="white"/>
<path d="M8.72168 10.8945C8.77946 10.8945 8.78834 10.8945 8.72168 10.8945V10.8945ZM8.72168 10.8945V10.9028V10.8966V10.8945Z" fill="white"/>
</svg>
