<svg width="33" height="31" viewBox="0 0 33 31" fill="none" xmlns="http://www.w3.org/2000/svg">
<path d="M23.5303 3.15625H10.1104C8.33076 3.15625 6.62406 3.80587 5.36569 4.9622C4.10733 6.11854 3.40039 7.68686 3.40039 9.32216V21.654C3.40039 23.2893 4.10733 24.8576 5.36569 26.0139C6.62406 27.1703 8.33076 27.8199 10.1104 27.8199H23.5303C25.3099 27.8199 27.0166 27.1703 28.2749 26.0139C29.5333 24.8576 30.2403 23.2893 30.2403 21.654V9.32216C30.2403 7.68686 29.5333 6.11854 28.2749 4.9622C27.0166 3.80587 25.3099 3.15625 23.5303 3.15625ZM27.5563 21.654C27.5563 22.6352 27.1321 23.5762 26.3771 24.27C25.6221 24.9638 24.598 25.3535 23.5303 25.3535H10.1104C9.0426 25.3535 8.01858 24.9638 7.26356 24.27C6.50854 23.5762 6.08438 22.6352 6.08438 21.654V9.32216C6.08438 8.34098 6.50854 7.39999 7.26356 6.70619C8.01858 6.01239 9.0426 5.62262 10.1104 5.62262H23.5303C24.598 5.62262 25.6221 6.01239 26.3771 6.70619C27.1321 7.39999 27.5563 8.34098 27.5563 9.32216V21.654Z" fill="black"/>
</svg>
