<svg width="23" height="23" viewBox="0 0 23 23" fill="none" xmlns="http://www.w3.org/2000/svg">
<path d="M14.8194 22.148H2.9093C2.48813 22.148 2.08421 21.9807 1.78641 21.6829C1.4886 21.3851 1.32129 20.9812 1.32129 20.56L1.32129 3.09191C1.32129 2.67075 1.4886 2.26683 1.78641 1.96902C2.08421 1.67121 2.48813 1.50391 2.9093 1.50391L20.3774 1.50391C20.7985 1.50391 21.2025 1.67121 21.5003 1.96902C21.7981 2.26683 21.9654 2.67075 21.9654 3.09191V15.002L14.8194 22.148Z" stroke="black" stroke-width="1.45606" stroke-linecap="round" stroke-linejoin="round"/>
<path d="M14.8154 15.7969V22.149L21.9615 15.0029H15.6094C15.3989 15.0029 15.1969 15.0866 15.048 15.2355C14.8991 15.3844 14.8154 15.5864 14.8154 15.7969Z" stroke="black" stroke-width="1.45606" stroke-linecap="round" stroke-linejoin="round"/>
</svg>
