<svg xmlns="http://www.w3.org/2000/svg" width="238" height="221" viewBox="0 0 238 221" fill="none">
<path d="M230.221 84.254C243.11 136.789 212.651 193.242 158.691 197.025C145.384 197.958 132.886 198.433 120.399 197.481C88.9534 195.081 57.3249 178.604 44.9621 149.592C36.5961 129.959 37.6797 108.709 45.1033 84.8877C52.2586 61.9268 65.0005 40.0151 85.5459 27.5136C95.4531 21.4853 105.918 17.2091 115.952 14.0922C148.75 3.90498 190.684 4.68174 209.364 33.5004C218.52 47.6251 225.602 65.4259 230.221 84.254Z" fill="white" fill-opacity="0.93"/>
<path d="M209.447 34.9809L120.19 5.22856C119.424 4.97199 118.595 4.97199 117.828 5.22856L28.5714 34.9809C27.8325 35.2283 27.19 35.7015 26.7346 36.3338C26.2791 36.9661 26.0338 37.7254 26.0332 38.5047V112.885C26.0332 113.872 26.425 114.818 27.1225 115.515C27.8199 116.213 28.7659 116.604 29.7522 116.604C30.7386 116.604 31.6845 116.213 32.382 115.515C33.0795 114.818 33.4713 113.872 33.4713 112.885V43.6648L74.2691 57.2672C69.2319 64.0331 65.7945 71.8533 64.2157 80.1393C62.6368 88.4254 62.9576 96.9616 65.1539 105.106C67.3501 113.25 71.3647 120.79 76.8955 127.159C82.4263 133.528 89.3294 138.559 97.0854 141.875C77.6907 147.212 60.8248 159.662 48.9518 177.811C48.46 178.636 48.3068 179.62 48.5243 180.556C48.7418 181.492 49.313 182.307 50.1184 182.831C50.9237 183.355 51.9006 183.547 52.8444 183.367C53.7882 183.187 54.6256 182.648 55.1812 181.864C69.89 159.299 93.1619 146.357 119.009 146.357C144.856 146.357 168.128 159.299 182.837 181.855C183.393 182.639 184.23 183.177 185.174 183.358C186.118 183.538 187.095 183.346 187.9 182.822C188.705 182.298 189.277 181.482 189.494 180.546C189.712 179.61 189.558 178.627 189.067 177.801C177.24 159.652 160.328 147.203 140.933 141.866C148.689 138.55 155.592 133.518 161.123 127.15C166.654 120.781 170.668 113.241 172.864 105.097C175.061 96.9523 175.382 88.4161 173.803 80.13C172.224 71.844 168.786 64.0238 163.749 57.2579L209.447 42.0191C210.184 41.7703 210.825 41.2965 211.279 40.6643C211.733 40.0322 211.977 39.2736 211.977 38.4954C211.977 37.7172 211.733 36.9586 211.279 36.3264C210.825 35.6943 210.184 35.2204 209.447 34.9716V34.9809ZM167.357 90.5712C167.357 98.3292 165.49 105.973 161.914 112.858C158.339 119.743 153.158 125.666 146.811 130.127C140.464 134.588 133.137 137.457 125.448 138.49C117.759 139.523 109.935 138.691 102.635 136.063C95.3357 133.436 88.7756 129.091 83.509 123.394C78.2425 117.698 74.4241 110.818 72.3763 103.335C70.3286 95.8518 70.1116 87.986 71.7437 80.4017C73.3759 72.8173 76.8092 65.7371 81.7537 59.759L117.828 71.7808C118.594 72.0408 119.424 72.0408 120.19 71.7808L156.265 59.759C163.444 68.4208 167.368 79.3208 167.357 90.5712ZM119.009 64.3334L41.5137 38.5047L119.009 12.6759L196.505 38.5047L119.009 64.3334Z" fill="black"/>
</svg>