<svg width="219" height="224" viewBox="0 0 219 224" fill="none" xmlns="http://www.w3.org/2000/svg">
<path d="M230.39 86.6554C243.279 139.19 212.82 195.643 158.86 199.426C145.553 200.359 133.055 200.835 120.568 199.882C89.1223 197.483 57.4939 181.006 45.131 151.993C36.765 132.361 37.8487 111.111 45.2722 87.289C52.4276 64.3282 65.1694 42.4164 85.7148 29.915C95.622 23.8866 106.086 19.6105 116.121 16.4936C148.919 6.30635 190.853 7.08311 209.533 35.9018C218.689 50.0264 225.771 67.8273 230.39 86.6554Z" fill="white" fill-opacity="0.93"/>
<path d="M209.616 37.3822L120.359 7.62993C119.593 7.37336 118.764 7.37336 117.997 7.62993L28.7404 37.3822C28.0015 37.6296 27.3589 38.1029 26.9035 38.7352C26.4481 39.3674 26.2027 40.1268 26.2021 40.906V115.287C26.2021 116.273 26.594 117.219 27.2914 117.917C27.9889 118.614 28.9348 119.006 29.9212 119.006C30.9075 119.006 31.8535 118.614 32.5509 117.917C33.2484 117.219 33.6402 116.273 33.6402 115.287V46.0662L74.4381 59.6686C69.4008 66.4345 65.9635 74.2546 64.3846 82.5407C62.8058 90.8268 63.1265 99.363 65.3228 107.507C67.5191 115.651 71.5336 123.192 77.0644 129.56C82.5953 135.929 89.4983 140.961 97.2544 144.277C77.8596 149.614 60.9938 162.063 49.1207 180.212C48.629 181.037 48.4758 182.021 48.6932 182.957C48.9107 183.893 49.482 184.708 50.2873 185.232C51.0926 185.757 52.0696 185.949 53.0134 185.768C53.9571 185.588 54.7946 185.05 55.3501 184.266C70.0589 161.7 93.3308 148.758 119.178 148.758C145.025 148.758 168.297 161.7 183.006 184.256C183.562 185.04 184.399 185.579 185.343 185.759C186.287 185.939 187.264 185.747 188.069 185.223C188.874 184.699 189.446 183.884 189.663 182.948C189.88 182.012 189.727 181.028 189.236 180.203C177.409 162.054 160.497 149.604 141.102 144.267C148.858 140.951 155.761 135.92 161.292 129.551C166.823 123.182 170.837 115.642 173.033 107.498C175.23 99.3537 175.55 90.8175 173.972 82.5314C172.393 74.2453 168.955 66.4252 163.918 59.6593L209.616 44.4205C210.353 44.1717 210.994 43.6978 211.448 43.0657C211.902 42.4335 212.146 41.6749 212.146 40.8967C212.146 40.1185 211.902 39.3599 211.448 38.7278C210.994 38.0956 210.353 37.6218 209.616 37.3729V37.3822ZM167.526 92.9726C167.526 100.731 165.659 108.375 162.083 115.259C158.507 122.144 153.327 128.067 146.98 132.528C140.633 136.99 133.306 139.858 125.617 140.891C117.928 141.924 110.104 141.092 102.804 138.465C95.5046 135.837 88.9446 131.492 83.678 125.796C78.4114 120.099 74.593 113.219 72.5453 105.736C70.4975 98.2532 70.2805 90.3874 71.9127 82.8031C73.5448 75.2187 76.9781 68.1385 81.9226 62.1603L117.997 74.1821C118.763 74.4421 119.593 74.4421 120.359 74.1821L156.434 62.1603C163.613 70.8222 167.537 81.7222 167.526 92.9726ZM119.178 66.7347L41.6826 40.906L119.178 15.0773L196.674 40.906L119.178 66.7347Z" fill="black"/>
</svg>
