<svg width="246" height="122" viewBox="0 0 246 122" fill="none" xmlns="http://www.w3.org/2000/svg">
<rect x="6.92201" y="6.13685" width="232.941" height="109.02" stroke="black" stroke-width="1.56863" stroke-dasharray="4.71 4.71"/>
<path d="M95.0348 36.0498V48.1627L89.6983 48.8403C88.9642 48.2756 88.2583 47.0898 87.5807 45.2827H77.416V84.5862C79.6748 85.4898 81.2278 86.4215 82.0748 87.3815L81.2278 94.4121H61.4066L60.5595 87.3815C61.2936 86.4215 62.8466 85.4898 65.2183 84.5862V45.2827H55.0536C54.376 47.0898 53.6701 48.2756 52.936 48.8403L47.5995 48.1627V36.0498H95.0348Z" fill="black"/>
<line x1="116.726" y1="36.7257" x2="116.726" y2="94.7649" stroke="#111111" stroke-width="1.56863" stroke-linecap="round"/>
<rect x="0.392157" y="0.392157" width="10.2157" height="10.2157" fill="#646FD4" stroke="black" stroke-width="0.784314"/>
<rect x="235.392" y="0.392157" width="10.2157" height="10.2157" fill="#646FD4" stroke="black" stroke-width="0.784314"/>
<rect x="235.392" y="111.392" width="10.2157" height="10.2157" fill="#646FD4" stroke="black" stroke-width="0.784314"/>
<rect x="0.392157" y="111.392" width="10.2157" height="10.2157" fill="#646FD4" stroke="black" stroke-width="0.784314"/>
</svg>
