<svg width="18" height="18" viewBox="0 0 18 18" fill="none" xmlns="http://www.w3.org/2000/svg">
<path d="M12.8064 11.0403C13.0183 11.0403 13.2282 11.082 13.4239 11.1631C13.6197 11.2442 13.7976 11.3631 13.9474 11.5129C14.0972 11.6627 14.2161 11.8406 14.2972 12.0364C14.3783 12.2321 14.42 12.442 14.42 12.6539V14.8053C14.42 15.0172 14.3783 15.227 14.2972 15.4228C14.2161 15.6186 14.0972 15.7965 13.9474 15.9463C13.7976 16.0961 13.6197 16.215 13.4239 16.2961C13.2282 16.3772 13.0183 16.4189 12.8064 16.4189H3.8421C3.41415 16.4189 3.00373 16.2489 2.70112 15.9463C2.39852 15.6437 2.22852 15.2333 2.22852 14.8053V12.6539C2.22852 12.2259 2.39852 11.8155 2.70112 11.5129C3.00373 11.2103 3.41415 11.0403 3.8421 11.0403H12.8064ZM12.8064 12.116H3.8421C3.69945 12.116 3.56264 12.1727 3.46177 12.2735C3.3609 12.3744 3.30424 12.5112 3.30424 12.6539V14.8053C3.30424 15.1029 3.5452 15.3432 3.8421 15.3432H12.8064C12.9491 15.3432 13.0859 15.2865 13.1868 15.1856C13.2876 15.0848 13.3443 14.948 13.3443 14.8053V12.6539C13.3443 12.5112 13.2876 12.3744 13.1868 12.2735C13.0859 12.1727 12.9491 12.116 12.8064 12.116ZM5.13511 9.2259L7.82657 2.41587C7.86356 2.32199 7.92621 2.24041 8.00737 2.18046C8.08853 2.1205 8.18491 2.08458 8.28551 2.0768C8.38612 2.06902 8.48688 2.08969 8.57629 2.13646C8.6657 2.18324 8.74015 2.25421 8.79113 2.34129L8.82699 2.41659L11.5141 9.22949C11.5652 9.35651 11.5658 9.49819 11.516 9.62568C11.4662 9.75318 11.3696 9.85688 11.246 9.91567C11.1224 9.97445 10.9811 9.9839 10.8507 9.94209C10.7204 9.90028 10.6109 9.81034 10.5446 9.69062L10.513 9.62464L9.79872 7.81312H6.8491L6.13482 9.62034C6.08719 9.74141 5.99729 9.84111 5.88178 9.90098C5.76627 9.96084 5.63298 9.97681 5.5066 9.94592L5.43703 9.92369C5.31609 9.87593 5.21655 9.78598 5.15682 9.67048C5.0971 9.55498 5.08123 9.42176 5.11217 9.29547L5.13511 9.2259ZM8.32642 4.07822L7.27436 6.7374H9.37417L8.32642 4.07822Z" fill="black"/>
</svg>
