<svg width="38" height="38" viewBox="0 0 38 38" fill="none" xmlns="http://www.w3.org/2000/svg">
<path d="M18.9498 4.21582C17.1494 4.21582 15.7308 4.66873 14.6359 5.41735C13.6466 6.10528 12.8637 7.04999 12.3714 8.14979C11.7538 9.47109 11.5554 10.8392 11.4918 11.7338C10.2827 11.8236 9.04004 12.1137 8.02006 12.7949C6.67629 13.6914 5.84908 15.1718 5.84908 17.3166C5.84908 19.4614 6.67629 20.9417 8.02006 21.8382C9.29832 22.6898 10.9209 22.9312 12.3995 22.9312H25.5002C26.9619 22.9312 28.5882 22.7216 29.8721 21.8831C31.2308 20.996 32.0506 19.5063 32.0506 17.3166C32.0506 15.1718 31.2234 13.6914 29.8796 12.7949C28.8577 12.1137 27.6188 11.8236 26.406 11.7338C26.3443 10.8392 26.1459 9.47109 25.5301 8.14792C25.0366 7.04887 24.2539 6.10446 23.2656 5.41548C22.1689 4.6706 20.7484 4.21582 18.9498 4.21582ZM13.3352 12.6377C13.3352 12.183 13.3408 10.493 14.0651 8.93958C14.4207 8.17786 14.9391 7.47604 15.6896 6.96324C16.4382 6.45231 17.4751 6.08736 18.9498 6.08736C20.4246 6.08736 21.4633 6.45231 22.21 6.96324C22.9605 7.47604 23.4771 8.17786 23.8327 8.93958C24.5588 10.493 24.5644 12.183 24.5644 12.6377C24.5644 12.8859 24.663 13.1239 24.8385 13.2994C25.014 13.4749 25.252 13.5735 25.5002 13.5735C26.829 13.5735 28.0137 13.8 28.8409 14.3521C29.6007 14.8592 30.179 15.7183 30.179 17.3166C30.179 18.9785 29.5951 19.8282 28.8484 20.3166C28.0249 20.8556 26.8458 21.0596 25.5002 21.0596H12.3995C11.0707 21.0596 9.88598 20.8332 9.05876 20.2811C8.29704 19.7739 7.72061 18.9149 7.72061 17.3166C7.72061 15.7183 8.29704 14.8592 9.05876 14.3521C9.88598 13.8 11.0707 13.5735 12.3995 13.5735C12.6476 13.5735 12.8856 13.4749 13.0611 13.2994C13.2366 13.1239 13.3352 12.8859 13.3352 12.6377ZM15.2068 32.2889C16.1995 32.2889 17.1515 31.8945 17.8535 31.1925C18.5555 30.4906 18.9498 29.5385 18.9498 28.5458C18.9498 27.5531 18.5555 26.601 17.8535 25.899C17.1515 25.1971 16.1995 24.8027 15.2068 24.8027C14.214 24.8027 13.262 25.1971 12.56 25.899C11.858 26.601 11.4637 27.5531 11.4637 28.5458C11.4637 29.5385 11.858 30.4906 12.56 31.1925C13.262 31.8945 14.214 32.2889 15.2068 32.2889ZM15.2068 30.4173C14.7104 30.4173 14.2344 30.2201 13.8834 29.8692C13.5324 29.5182 13.3352 29.0422 13.3352 28.5458C13.3352 28.0494 13.5324 27.5734 13.8834 27.2224C14.2344 26.8714 14.7104 26.6743 15.2068 26.6743C15.7031 26.6743 16.1792 26.8714 16.5301 27.2224C16.8811 27.5734 17.0783 28.0494 17.0783 28.5458C17.0783 29.0422 16.8811 29.5182 16.5301 29.8692C16.1792 30.2201 15.7031 30.4173 15.2068 30.4173ZM6.78484 34.1604C7.52939 34.1604 8.24344 33.8646 8.76991 33.3382C9.29638 32.8117 9.59215 32.0976 9.59215 31.3531C9.59215 30.6086 9.29638 29.8945 8.76991 29.368C8.24344 28.8416 7.52939 28.5458 6.78484 28.5458C6.0403 28.5458 5.32625 28.8416 4.79978 29.368C4.27331 29.8945 3.97754 30.6086 3.97754 31.3531C3.97754 32.0976 4.27331 32.8117 4.79978 33.3382C5.32625 33.8646 6.0403 34.1604 6.78484 34.1604ZM6.78484 32.2889C6.53666 32.2889 6.29865 32.1903 6.12316 32.0148C5.94766 31.8393 5.84908 31.6013 5.84908 31.3531C5.84908 31.1049 5.94766 30.8669 6.12316 30.6914C6.29865 30.5159 6.53666 30.4173 6.78484 30.4173C7.03302 30.4173 7.27104 30.5159 7.44653 30.6914C7.62202 30.8669 7.72061 31.1049 7.72061 31.3531C7.72061 31.6013 7.62202 31.8393 7.44653 32.0148C7.27104 32.1903 7.03302 32.2889 6.78484 32.2889Z" fill="black"/>
</svg>
