<svg width="32" height="31" viewBox="0 0 32 31" fill="none" xmlns="http://www.w3.org/2000/svg">
<path d="M16.0419 5.09044C13.8323 5.09044 11.6724 5.7435 9.83518 6.96703C7.998 8.19056 6.56609 9.92961 5.72052 11.9643C4.87496 13.9989 4.65372 16.2378 5.08478 18.3978C5.51585 20.5578 6.57986 22.5418 8.14225 24.0991C9.70465 25.6563 11.6953 26.7168 13.8624 27.1465C16.0295 27.5761 18.2758 27.3556 20.3171 26.5128C22.3585 25.6701 24.1033 24.2429 25.3309 22.4117C26.5584 20.5806 27.2136 18.4277 27.2136 16.2254C27.2102 13.2733 26.032 10.4431 23.9377 8.35562C21.8433 6.26815 19.0038 5.09389 16.0419 5.09044ZM16.0419 25.939C14.1144 25.939 12.2302 25.3693 10.6275 24.3019C9.02488 23.2346 7.77576 21.7176 7.03814 19.9426C6.30052 18.1677 6.10753 16.2147 6.48356 14.3304C6.8596 12.4462 7.78777 10.7154 9.15072 9.35696C10.5137 7.9985 12.2502 7.07337 14.1406 6.69858C16.0311 6.32378 17.9906 6.51614 19.7713 7.25133C21.5521 7.98652 23.0742 9.23153 24.145 10.8289C25.2159 12.4263 25.7875 14.3043 25.7875 16.2254C25.7843 18.8007 24.7565 21.2695 22.9296 23.0905C21.1026 24.9114 18.6256 25.9358 16.0419 25.939ZM21.2997 10.9849C21.4333 11.1182 21.5083 11.2988 21.5083 11.4871C21.5083 11.6755 21.4333 11.8561 21.2997 11.9894L16.5458 16.7277C16.4805 16.7975 16.4018 16.8535 16.3143 16.8924C16.2268 16.9312 16.1324 16.9521 16.0367 16.9538C15.9409 16.9555 15.8458 16.9379 15.757 16.9022C15.6682 16.8664 15.5876 16.8132 15.5199 16.7457C15.4521 16.6783 15.3988 16.5979 15.3629 16.5094C15.327 16.4209 15.3094 16.3261 15.3111 16.2306C15.3128 16.1352 15.3338 16.0411 15.3727 15.9539C15.4117 15.8667 15.4679 15.7883 15.538 15.7232L20.2919 10.9849C20.4256 10.8518 20.6068 10.777 20.7958 10.777C20.9848 10.777 21.166 10.8518 21.2997 10.9849ZM12.4764 2.01055C12.4764 1.82205 12.5516 1.64127 12.6853 1.50798C12.819 1.37469 13.0004 1.2998 13.1895 1.2998H18.8942C19.0834 1.2998 19.2647 1.37469 19.3985 1.50798C19.5322 1.64127 19.6073 1.82205 19.6073 2.01055C19.6073 2.19905 19.5322 2.37983 19.3985 2.51312C19.2647 2.64641 19.0834 2.72129 18.8942 2.72129H13.1895C13.0004 2.72129 12.819 2.64641 12.6853 2.51312C12.5516 2.37983 12.4764 2.19905 12.4764 2.01055Z" fill="black"/>
</svg>
