<svg width="196" height="99" viewBox="0 0 196 99" fill="none" xmlns="http://www.w3.org/2000/svg">
<g filter="url(#filter0_f_1067_2951)">
<path fill-rule="evenodd" clip-rule="evenodd" d="M140.407 92.3568C157.546 92.7006 175.061 92.0131 191.449 96.8877C192.425 97.1752 193.5 96.7564 193.853 95.944C194.199 95.1316 193.695 94.2379 192.718 93.9442C175.948 88.9572 158.035 89.5821 140.498 89.2321C139.461 89.2071 138.597 89.8945 138.574 90.757C138.544 91.6194 139.37 92.3318 140.407 92.3568Z" fill="#FCBC05"/>
<path fill-rule="evenodd" clip-rule="evenodd" d="M138.868 71.6592C144.21 67.5708 150.041 64.508 157.089 62.99C158.096 62.7738 158.697 61.9207 158.441 61.0858C158.178 60.2509 157.149 59.749 156.15 59.9653C148.485 61.6151 142.136 64.9161 136.328 69.3588C135.562 69.9425 135.509 70.9318 136.215 71.5668C136.914 72.2011 138.109 72.2429 138.868 71.6592Z" fill="#FCBC05"/>
<path fill-rule="evenodd" clip-rule="evenodd" d="M124.006 27.0242C126.456 20.0405 131.28 14.5772 138.673 10.6319C139.545 10.1663 139.8 9.19893 139.237 8.47337C138.681 7.74781 137.516 7.53656 136.644 8.00214C128.462 12.3705 123.112 18.4162 120.399 26.1487C120.106 26.9761 120.685 27.8448 121.677 28.086C122.676 28.3279 123.721 27.8516 124.006 27.0242Z" fill="#FCBC05"/>
<path fill-rule="evenodd" clip-rule="evenodd" d="M39.5877 17.5465C38.13 18.9732 36.8226 20.5106 35.7106 22.1473C35.2147 22.876 34.3431 24.4246 34.2078 25.7526C34.0575 27.1675 34.636 28.3612 36.1238 28.9899C38.0999 29.8236 39.6779 29.7367 40.8951 29.2324C42.0673 28.748 42.9839 27.7962 43.5625 26.5201C44.667 24.0809 44.5017 20.3531 43.9231 18.2258C45.4785 16.8909 47.1841 15.6804 49.01 14.6042C62.61 6.58932 82.5592 9.5447 97.9099 21.5286C103.282 25.7245 105.867 34.5362 107.212 44.0435C109.308 58.8466 108.114 75.3802 107.948 80.2241C107.911 81.4203 108.046 82.1302 108.121 82.2721C108.474 82.9695 109.098 83.1507 109.534 83.2195C110.165 83.3132 110.668 83.2132 111.074 83.0383C111.622 82.7983 112.073 82.3758 112.284 81.724C112.396 81.364 112.426 80.8628 112.411 80.3285C112.396 79.9579 112.306 79.5529 112.396 79.2873C112.982 77.5862 113.689 75.9251 114.38 74.2521C116.687 68.6283 119.67 63.3581 122.983 58.0942C133.51 41.3682 143.691 23.6953 160.951 10.9521C161.725 10.3802 161.8 9.39159 161.108 8.74664C160.425 8.1017 159.237 8.04294 158.456 8.61539C140.851 21.6105 130.392 39.5877 119.655 56.6449C116.837 61.1227 114.252 65.6067 112.103 70.2969C112.321 62.0001 112.239 50.5155 110.413 40.3539C108.79 31.3165 105.702 23.3297 100.48 19.2507C83.6636 6.12249 61.7308 3.27463 46.8385 12.0551C45.2455 12.995 43.7278 14.0287 42.3152 15.1499C34.5234 3.44775 17.8427 -1.24249 3.10065 4.35452C2.15391 4.71261 1.74066 5.64004 2.16894 6.42434C2.60475 7.20865 3.71675 7.55488 4.66349 7.19679C17.9479 2.15348 33.0131 6.65432 39.5877 17.5465ZM40.6772 21.4643C40.0686 22.1792 39.505 22.9204 38.9791 23.6866C38.7011 24.0978 38.2201 24.8884 38.0173 25.662C37.9722 25.8433 37.9647 26.127 37.9647 26.2582C38.4832 26.4707 38.8889 26.5732 39.2195 26.4351C39.6327 26.2651 39.8432 25.8651 40.0461 25.4183C40.557 24.2972 40.7223 22.811 40.6772 21.4643Z" fill="#FCBC05"/>
</g>
<defs>
<filter id="filter0_f_1067_2951" x="0" y="0" width="195.962" height="98.9785" filterUnits="userSpaceOnUse" color-interpolation-filters="sRGB">
<feFlood flood-opacity="0" result="BackgroundImageFix"/>
<feBlend mode="normal" in="SourceGraphic" in2="BackgroundImageFix" result="shape"/>
<feGaussianBlur stdDeviation="1" result="effect1_foregroundBlur_1067_2951"/>
</filter>
</defs>
</svg>
