<svg width="30" height="32" viewBox="0 0 30 32" fill="none" xmlns="http://www.w3.org/2000/svg">
<path d="M27.5091 23.4972L17.3989 4.90659C17.1463 4.45113 16.7856 4.07348 16.3526 3.81108C15.9197 3.54869 15.4295 3.41064 14.9306 3.41064C14.4318 3.41064 13.9415 3.54869 13.5086 3.81108C13.0756 4.07348 12.715 4.45113 12.4623 4.90659L2.35215 23.4972C2.10906 23.9378 1.98096 24.4388 1.98096 24.949C1.98096 25.4592 2.10906 25.9603 2.35215 26.4008C2.60147 26.8591 2.96151 27.2389 3.39529 27.5012C3.82907 27.7634 4.32096 27.8986 4.82044 27.893H25.0408C25.5399 27.8982 26.0313 27.7627 26.4646 27.5005C26.898 27.2383 27.2576 26.8588 27.5068 26.4008C27.7502 25.9605 27.8787 25.4596 27.8791 24.9494C27.8795 24.4391 27.7518 23.938 27.5091 23.4972ZM25.9056 25.4203C25.8174 25.5795 25.6909 25.711 25.5389 25.8014C25.387 25.8917 25.215 25.9376 25.0408 25.9344H4.82044C4.64619 25.9376 4.47427 25.8917 4.32231 25.8014C4.17035 25.711 4.04381 25.5795 3.95567 25.4203C3.87584 25.2772 3.83373 25.114 3.83373 24.9478C3.83373 24.7816 3.87584 24.6184 3.95567 24.4753L14.0658 5.88466C14.1558 5.72623 14.2829 5.59513 14.4348 5.50411C14.5868 5.4131 14.7584 5.36526 14.9329 5.36526C15.1075 5.36526 15.2791 5.4131 15.431 5.50411C15.583 5.59513 15.7101 5.72623 15.8 5.88466L25.9102 24.4753C25.9893 24.6189 26.0306 24.7823 26.0298 24.9485C26.029 25.1147 25.9861 25.2776 25.9056 25.4203Z" fill="black"/>
</svg>
