<svg width="30" height="36" viewBox="0 0 30 36" fill="none" xmlns="http://www.w3.org/2000/svg">
<path opacity="0.2" d="M28.4276 14.9628H1.49707L14.9623 1.49756L28.4276 14.9628Z" fill="black"/>
<path d="M29.4864 13.9041L16.0211 0.438798C15.8822 0.299692 15.7171 0.189338 15.5355 0.114046C15.3539 0.038754 15.1592 0 14.9626 0C14.766 0 14.5713 0.038754 14.3897 0.114046C14.208 0.189338 14.043 0.299692 13.9041 0.438798L0.438799 13.9041C0.229323 14.1133 0.0866395 14.38 0.0288131 14.6704C-0.0290134 14.9608 0.000617149 15.2618 0.113954 15.5353C0.22729 15.8088 0.419236 16.0426 0.665492 16.207C0.911747 16.3713 1.20124 16.459 1.49732 16.4587H13.4664V34.4124C13.4664 34.8092 13.6241 35.1898 13.9047 35.4703C14.1852 35.7509 14.5658 35.9086 14.9626 35.9086C15.3594 35.9086 15.7399 35.7509 16.0205 35.4703C16.3011 35.1898 16.4587 34.8092 16.4587 34.4124V16.4587H28.4279C28.7239 16.459 29.0134 16.3713 29.2597 16.207C29.5059 16.0426 29.6979 15.8088 29.8112 15.5353C29.9246 15.2618 29.9542 14.9608 29.8964 14.6704C29.8385 14.38 29.6959 14.1133 29.4864 13.9041ZM5.10863 13.4664L14.9626 3.61249L24.8165 13.4664H5.10863Z" fill="black"/>
</svg>
