<svg width="20" height="20" viewBox="0 0 20 20" fill="none" xmlns="http://www.w3.org/2000/svg">
<g clip-path="url(#clip0_2023_2956)">
<path d="M14.6315 15.4437C14.8386 15.444 15.0379 15.5233 15.1885 15.6655C15.3392 15.8077 15.4298 16.0021 15.4419 16.2089C15.4541 16.4157 15.3868 16.6193 15.2538 16.7782C15.1209 16.937 14.9323 17.0391 14.7266 17.0636L14.6315 17.0693H4.87827C4.67111 17.069 4.47186 16.9897 4.32123 16.8475C4.17059 16.7053 4.07994 16.5109 4.0678 16.3041C4.05566 16.0973 4.12295 15.8937 4.25591 15.7348C4.38887 15.576 4.57747 15.4739 4.78318 15.4494L4.87827 15.4437H14.6315ZM13.8187 2.43945C14.0178 2.43948 14.2099 2.51257 14.3587 2.64485C14.5075 2.77714 14.6025 2.95942 14.6258 3.15713L14.6315 3.25222V9.75436C14.6328 11.0327 14.132 12.2605 13.2371 13.1733C12.3421 14.0861 11.1245 14.611 9.84633 14.635C8.56819 14.659 7.33174 14.1801 6.40317 13.3015C5.47461 12.4229 4.92818 11.2147 4.88152 9.93723L4.87827 9.75436V3.25222C4.8785 3.04506 4.95783 2.84581 5.10003 2.69518C5.24224 2.54454 5.43661 2.45389 5.64341 2.44175C5.85021 2.42961 6.05384 2.4969 6.2127 2.62986C6.37156 2.76282 6.47365 2.95142 6.49812 3.15713L6.50381 3.25222V9.75436C6.50379 10.6025 6.83524 11.4171 7.42744 12.0243C8.01963 12.6315 8.82567 12.9832 9.67357 13.0045C10.5215 13.0257 11.3441 12.7147 11.9659 12.1378C12.5877 11.561 12.9595 10.764 13.0019 9.91691L13.0059 9.75436V3.25222C13.0059 3.03666 13.0916 2.82993 13.244 2.67751C13.3964 2.52508 13.6032 2.43945 13.8187 2.43945Z" fill="black"/>
</g>
<defs>
<clipPath id="clip0_2023_2956">
<rect width="19.5064" height="19.5064" fill="white"/>
</clipPath>
</defs>
</svg>
