<svg width="28" height="23" viewBox="0 0 28 23" fill="none" xmlns="http://www.w3.org/2000/svg">
<path d="M12.0145 0.511997L7.7905 15.872L6.3825 10.112C8.21717 10.112 9.7105 10.6453 10.8625 11.712C12.0145 12.7787 12.5905 14.2507 12.5905 16.128C12.5905 17.9627 11.9932 19.456 10.7985 20.608C9.6465 21.7173 8.19583 22.272 6.4465 22.272C4.6545 22.272 3.16117 21.7173 1.9665 20.608C0.8145 19.456 0.2385 17.9627 0.2385 16.128C0.2385 15.5733 0.281167 15.04 0.3665 14.528C0.451833 13.9733 0.6225 13.3333 0.8785 12.608C1.1345 11.8827 1.49717 10.9227 1.9665 9.728L5.6785 0.511997H12.0145ZM27.1185 0.511997L22.8945 15.872L21.4865 10.112C23.3212 10.112 24.8145 10.6453 25.9665 11.712C27.1185 12.7787 27.6945 14.2507 27.6945 16.128C27.6945 17.9627 27.0972 19.456 25.9025 20.608C24.7505 21.7173 23.2998 22.272 21.5505 22.272C19.7585 22.272 18.2652 21.7173 17.0705 20.608C15.9185 19.456 15.3425 17.9627 15.3425 16.128C15.3425 15.5733 15.3852 15.04 15.4705 14.528C15.5558 13.9733 15.7265 13.3333 15.9825 12.608C16.2385 11.8827 16.6012 10.9227 17.0705 9.728L20.7825 0.511997H27.1185Z" fill="white"/>
</svg>
