<svg xmlns="http://www.w3.org/2000/svg" width="1440" height="1088" viewBox="0 0 1440 1088" fill="none">
<path d="M-632 1087L-309.5 1087M-632 1087L-632 872.167M-632 1087L-470.75 872.167M-632 -202L-309.5 -202M-632 -202L-632 12.8333M-632 -202L-470.75 12.8333M-309.5 -202L13 -202M-309.5 -202L-148.25 12.8333M-309.5 -202L-470.75 12.8333M-309.5 -202L-309.5 12.8333M-309.5 1087L13 1087M-309.5 1087L-470.75 872.167M-309.5 1087L-309.5 872.167M-309.5 1087L-148.25 872.167M13 -202L335.5 -202M13 -202L-148.25 12.8333M13 -202L13 12.8333M13 -202L174.25 12.8333M13 1087L335.5 1087M13 1087L-148.25 872.167M13 1087L13 872.167M13 1087L174.25 872.167M335.5 -202L658 -202M335.5 -202L496.75 12.8333M335.5 -202L174.25 12.8333M335.5 -202L335.5 12.8333M335.5 1087L658 1087M335.5 1087L174.25 872.167M335.5 1087L335.5 872.167M335.5 1087L496.75 872.167M658 -202L496.75 12.8333M658 -202L658 12.8333M658 -202L980.5 -202M658 -202L819.25 12.8333M658 1087L658 872.167M658 1087L980.5 1087M658 1087L496.75 872.167M658 1087L819.25 872.167M658 657.333L658 442.5M658 657.333L335.5 657.333M658 657.333L496.75 872.167M658 657.333L658 872.167M658 657.333L819.25 872.167M658 657.333L980.5 657.333M658 657.333L496.75 442.5M658 657.333L819.25 442.5M-632 657.333L-632 442.5M-632 657.333L-470.75 872.167M-632 657.333L-632 872.167M-632 657.333L-309.5 657.333M-632 657.333L-470.75 442.5M-632 227.667L-632 442.5M-632 227.667L-470.75 442.5M-632 227.667L-309.5 227.667M-632 227.667L-470.75 12.8333M658 227.667L496.75 12.8333M658 227.667L658 442.5M658 227.667L496.75 442.5M658 227.667L819.25 442.5M658 227.667L980.5 227.667M658 227.667L819.25 12.8333M658 227.667L335.5 227.667M658 227.667L658 12.8333M496.75 12.8333L335.5 227.667M496.75 12.8333L335.5 12.8333M496.75 12.8333L658 12.8333M658 12.8333L658 442.5M658 12.8333L658 872.167M658 12.8333L819.25 12.8333M658 12.8333L335.5 12.8333M-632 12.8333L-632 872.167M-632 12.8333L-470.75 12.8333M-632 442.5L-470.75 442.5M658 442.5L658 872.167M658 442.5L496.75 442.5M658 442.5L819.25 442.5M-632 872.167L-470.75 872.167M658 872.167L496.75 872.167M658 872.167L819.25 872.167M980.5 -202L1303 -202M980.5 -202L1625.5 657.333M980.5 -202L980.5 227.667M980.5 -202L819.25 12.8333M980.5 1087L1303 1087M980.5 1087L819.25 872.167M980.5 1087L980.5 872.167M980.5 1087L1141.75 872.167M1303 -202L1625.5 -202M1303 -202L1948 657.333M1303 -202L1303 657.333M1303 -202L980.5 227.667M1303 1087L1625.5 1087M1303 1087L1141.75 872.167M1303 1087L1303 872.167M1303 1087L1464.25 872.167M1625.5 -202L1948 -202M1625.5 -202L1786.75 12.8332M1625.5 -202L980.5 657.333M1625.5 -202L1625.5 657.333M1625.5 1087L1948 1087M1625.5 1087L1464.25 872.167M1625.5 1087L1625.5 872.167M1625.5 1087L1786.75 872.167M1948 -202L1786.75 12.8332M1948 -202L1948 12.8332M1948 1087L1948 872.167M1948 1087L1786.75 872.167M1948 657.333L1948 442.5M1948 657.333L1625.5 657.333M1948 657.333L1786.75 872.167M1948 657.333L1948 872.167M1948 227.667L1786.75 12.8332M1948 227.667L1948 442.5M1948 227.667L1625.5 657.333M1948 227.667L980.5 227.667M1786.75 12.8332L1303 657.333M1948 12.8332L1948 442.5M1948 12.8332L819.25 12.8333M1948 442.5L1948 872.167M1948 442.5L819.25 442.5M1948 872.167L1786.75 872.167M-470.75 872.167L-309.5 657.333M-470.75 872.167L-309.5 872.167M-309.5 657.333L-309.5 872.167M-309.5 657.333L-148.25 872.167M-309.5 657.333L13 657.333M-309.5 657.333L-470.75 442.5M-309.5 657.333L-309.5 442.5M-309.5 657.333L-148.25 442.5M-309.5 872.167L-148.25 872.167M-148.25 872.167L13 657.333M-148.25 872.167L13 872.167M13 657.333L13 872.167M13 657.333L174.25 872.167M13 657.333L335.5 657.333M13 657.333L-148.25 442.5M13 657.333L13 227.667M13 657.333L335.5 227.667M13 872.167L174.25 872.167M174.25 872.167L335.5 657.333M174.25 872.167L335.5 872.167M335.5 657.333L335.5 872.167M335.5 657.333L496.75 872.167M335.5 657.333L13 227.667M335.5 657.333L496.75 442.5M335.5 657.333L335.5 227.667M335.5 872.167L496.75 872.167M819.25 872.167L980.5 657.333M819.25 872.167L980.5 872.167M980.5 657.333L980.5 872.167M980.5 657.333L1141.75 872.167M980.5 657.333L1303 657.333M980.5 657.333L819.25 442.5M980.5 657.333L980.5 227.667M980.5 872.167L1141.75 872.167M1141.75 872.167L1303 657.333M1141.75 872.167L1303 872.167M1303 657.333L1303 872.167M1303 657.333L1464.25 872.167M1303 657.333L1625.5 657.333M1303 657.333L980.5 227.667M1303 872.167L1464.25 872.167M1464.25 872.167L1625.5 657.333M1464.25 872.167L1625.5 872.167M1625.5 657.333L1625.5 872.167M1625.5 657.333L1786.75 872.167M1625.5 872.167L1786.75 872.167M-309.5 442.5L-470.75 442.5M-309.5 442.5L-309.5 227.667M-309.5 442.5L-148.25 442.5M-470.75 442.5L-309.5 227.667M-309.5 227.667L-148.25 442.5M-309.5 227.667L-148.25 12.8333M-309.5 227.667L13 227.667M-309.5 227.667L-470.75 12.8333M-309.5 227.667L-309.5 12.8333M-148.25 442.5L13 227.667M-148.25 442.5L496.75 442.5M13 227.667L-148.25 12.8333M13 227.667L13 12.8333M13 227.667L174.25 12.8333M13 227.667L335.5 227.667M-148.25 12.8333L13 12.8333M-148.25 12.8333L-309.5 12.8333M13 12.8333L174.25 12.8333M174.25 12.8333L335.5 227.667M174.25 12.8333L335.5 12.8333M-470.75 12.8333L-309.5 12.8333M496.75 442.5L335.5 227.667M819.25 442.5L980.5 227.667M980.5 227.667L819.25 12.8333M335.5 227.667L335.5 12.8333" stroke="black" stroke-opacity="0.15"/>
</svg>