<svg width="1440" height="3975" viewBox="0 0 1440 3975" fill="none" xmlns="http://www.w3.org/2000/svg">
<g clip-path="url(#clip0_3033_2203)">
<path d="M-152 1184L170.5 1184M-152 1184L-152 969.167M-152 1184L9.25 969.167M-152 -105L170.5 -105M-152 -105L-152 109.833M-152 -105L9.24996 109.833M170.5 -105L493 -105M170.5 -105L331.75 109.833M170.5 -105L9.24996 109.833M170.5 -105L170.5 109.833M170.5 1184L493 1184M170.5 1184L9.25 969.167M170.5 1184L170.5 969.167M170.5 1184L331.75 969.167M493 -105L815.5 -105M493 -105L331.75 109.833M493 -105L493 109.833M493 -105L654.25 109.833M493 1184L815.5 1184M493 1184L331.75 969.167M493 1184L493 969.167M493 1184L654.25 969.167M815.5 -105L1138 -105M815.5 -105L976.75 109.833M815.5 -105L654.25 109.833M815.5 -105L815.5 109.833M815.5 1184L1138 1184M815.5 1184L654.25 969.167M815.5 1184L815.5 969.167M815.5 1184L976.75 969.167M1138 -105L976.75 109.833M1138 -105L1138 109.833M1138 -105L1460.5 -105M1138 -105L1299.25 109.833M1138 1184L1138 969.167M1138 1184L1460.5 1184M1138 1184L976.75 969.167M1138 1184L1299.25 969.167M1138 754.333L1138 539.5M1138 754.333L815.5 754.333M1138 754.333L976.75 969.167M1138 754.333L1138 969.167M1138 754.333L1299.25 969.167M1138 754.333L1460.5 754.333M1138 754.333L976.75 539.5M1138 754.333L1299.25 539.5M-152 754.333L-152 539.5M-152 754.333L9.25 969.167M-152 754.333L-152 969.167M-152 754.333L170.5 754.333M-152 754.333L9.24998 539.5M-152 324.667L-152 539.5M-152 324.667L9.24998 539.5M-152 324.667L170.5 324.667M-152 324.667L9.24996 109.833M1138 324.667L976.75 109.833M1138 324.667L1138 539.5M1138 324.667L976.75 539.5M1138 324.667L1299.25 539.5M1138 324.667L1460.5 324.667M1138 324.667L1299.25 109.833M1138 324.667L815.5 324.667M1138 324.667L1138 109.833M976.75 109.833L815.5 324.667M976.75 109.833L815.5 109.833M976.75 109.833L1138 109.833M1138 109.833L1138 539.5M1138 109.833L1138 969.167M1138 109.833L1299.25 109.833M1138 109.833L815.5 109.833M-152 109.833L-152 969.167M-152 109.833L9.24996 109.833M-152 539.5L9.24998 539.5M1138 539.5L1138 969.167M1138 539.5L976.75 539.5M1138 539.5L1299.25 539.5M-152 969.167L9.25 969.167M1138 969.167L976.75 969.167M1138 969.167L1299.25 969.167M1460.5 -105L1783 -105M1460.5 -105L2105.5 754.333M1460.5 -105L1460.5 324.667M1460.5 -105L1299.25 109.833M1460.5 1184L1783 1184M1460.5 1184L1299.25 969.167M1460.5 1184L1460.5 969.167M1460.5 1184L1621.75 969.167M1783 -105L2105.5 -105M1783 -105L2428 754.333M1783 -105L1783 754.333M1783 -105L1460.5 324.667M1783 1184L2105.5 1184M1783 1184L1621.75 969.167M1783 1184L1783 969.167M1783 1184L1944.25 969.167M2105.5 -105L2428 -105M2105.5 -105L2266.75 109.833M2105.5 -105L1460.5 754.333M2105.5 -105L2105.5 754.333M2105.5 1184L2428 1184M2105.5 1184L1944.25 969.167M2105.5 1184L2105.5 969.167M2105.5 1184L2266.75 969.167M2428 -105L2266.75 109.833M2428 -105L2428 109.833M2428 1184L2428 969.167M2428 1184L2266.75 969.167M2428 754.333L2428 539.5M2428 754.333L2105.5 754.333M2428 754.333L2266.75 969.167M2428 754.333L2428 969.167M2428 324.667L2266.75 109.833M2428 324.667L2428 539.5M2428 324.667L2105.5 754.333M2428 324.667L1460.5 324.667M2266.75 109.833L1783 754.333M2428 109.833L2428 539.5M2428 109.833L1299.25 109.833M2428 539.5L2428 969.167M2428 539.5L1299.25 539.5M2428 969.167L2266.75 969.167M9.25 969.167L170.5 754.333M9.25 969.167L170.5 969.167M170.5 754.333L170.5 969.167M170.5 754.333L331.75 969.167M170.5 754.333L493 754.333M170.5 754.333L9.24998 539.5M170.5 754.333L170.5 539.5M170.5 754.333L331.75 539.5M170.5 969.167L331.75 969.167M331.75 969.167L493 754.333M331.75 969.167L493 969.167M493 754.333L493 969.167M493 754.333L654.25 969.167M493 754.333L815.5 754.333M493 754.333L331.75 539.5M493 754.333L493 324.667M493 754.333L815.5 324.667M493 969.167L654.25 969.167M654.25 969.167L815.5 754.333M654.25 969.167L815.5 969.167M815.5 754.333L815.5 969.167M815.5 754.333L976.75 969.167M815.5 754.333L493 324.667M815.5 754.333L976.75 539.5M815.5 754.333L815.5 324.667M815.5 969.167L976.75 969.167M1299.25 969.167L1460.5 754.333M1299.25 969.167L1460.5 969.167M1460.5 754.333L1460.5 969.167M1460.5 754.333L1621.75 969.167M1460.5 754.333L1783 754.333M1460.5 754.333L1299.25 539.5M1460.5 754.333L1460.5 324.667M1460.5 969.167L1621.75 969.167M1621.75 969.167L1783 754.333M1621.75 969.167L1783 969.167M1783 754.333L1783 969.167M1783 754.333L1944.25 969.167M1783 754.333L2105.5 754.333M1783 754.333L1460.5 324.667M1783 969.167L1944.25 969.167M1944.25 969.167L2105.5 754.333M1944.25 969.167L2105.5 969.167M2105.5 754.333L2105.5 969.167M2105.5 754.333L2266.75 969.167M2105.5 969.167L2266.75 969.167M170.5 539.5L9.24998 539.5M170.5 539.5L170.5 324.667M170.5 539.5L331.75 539.5M9.24998 539.5L170.5 324.667M170.5 324.667L331.75 539.5M170.5 324.667L331.75 109.833M170.5 324.667L493 324.667M170.5 324.667L9.24996 109.833M170.5 324.667L170.5 109.833M331.75 539.5L493 324.667M331.75 539.5L976.75 539.5M493 324.667L331.75 109.833M493 324.667L493 109.833M493 324.667L654.25 109.833M493 324.667L815.5 324.667M331.75 109.833L493 109.833M331.75 109.833L170.5 109.833M493 109.833L654.25 109.833M654.25 109.833L815.5 324.667M654.25 109.833L815.5 109.833M9.24996 109.833L170.5 109.833M976.75 539.5L815.5 324.667M1299.25 539.5L1460.5 324.667M1460.5 324.667L1299.25 109.833M815.5 324.667L815.5 109.833" stroke="black" stroke-opacity="0.15"/>
</g>
<g clip-path="url(#clip1_3033_2203)">
<path d="M-152 3120L170.5 3120M-152 3120L-152 2905.17M-152 3120L9.25 2905.17M-152 1831L170.5 1831M-152 1831L-152 2045.83M-152 1831L9.24996 2045.83M170.5 1831L493 1831M170.5 1831L331.75 2045.83M170.5 1831L9.24996 2045.83M170.5 1831L170.5 2045.83M170.5 3120L493 3120M170.5 3120L9.25 2905.17M170.5 3120L170.5 2905.17M170.5 3120L331.75 2905.17M493 1831L815.5 1831M493 1831L331.75 2045.83M493 1831L493 2045.83M493 1831L654.25 2045.83M493 3120L815.5 3120M493 3120L331.75 2905.17M493 3120L493 2905.17M493 3120L654.25 2905.17M815.5 1831L1138 1831M815.5 1831L976.75 2045.83M815.5 1831L654.25 2045.83M815.5 1831L815.5 2045.83M815.5 3120L1138 3120M815.5 3120L654.25 2905.17M815.5 3120L815.5 2905.17M815.5 3120L976.75 2905.17M1138 1831L976.75 2045.83M1138 1831L1138 2045.83M1138 1831L1460.5 1831M1138 1831L1299.25 2045.83M1138 3120L1138 2905.17M1138 3120L1460.5 3120M1138 3120L976.75 2905.17M1138 3120L1299.25 2905.17M1138 2690.33L1138 2475.5M1138 2690.33L815.5 2690.33M1138 2690.33L976.75 2905.17M1138 2690.33L1138 2905.17M1138 2690.33L1299.25 2905.17M1138 2690.33L1460.5 2690.33M1138 2690.33L976.75 2475.5M1138 2690.33L1299.25 2475.5M-152 2690.33L-152 2475.5M-152 2690.33L9.25 2905.17M-152 2690.33L-152 2905.17M-152 2690.33L170.5 2690.33M-152 2690.33L9.24998 2475.5M-152 2260.67L-152 2475.5M-152 2260.67L9.24998 2475.5M-152 2260.67L170.5 2260.67M-152 2260.67L9.24996 2045.83M1138 2260.67L976.75 2045.83M1138 2260.67L1138 2475.5M1138 2260.67L976.75 2475.5M1138 2260.67L1299.25 2475.5M1138 2260.67L1460.5 2260.67M1138 2260.67L1299.25 2045.83M1138 2260.67L815.5 2260.67M1138 2260.67L1138 2045.83M976.75 2045.83L815.5 2260.67M976.75 2045.83L815.5 2045.83M976.75 2045.83L1138 2045.83M1138 2045.83L1138 2475.5M1138 2045.83L1138 2905.17M1138 2045.83L1299.25 2045.83M1138 2045.83L815.5 2045.83M-152 2045.83L-152 2905.17M-152 2045.83L9.24996 2045.83M-152 2475.5L9.24998 2475.5M1138 2475.5L1138 2905.17M1138 2475.5L976.75 2475.5M1138 2475.5L1299.25 2475.5M-152 2905.17L9.25 2905.17M1138 2905.17L976.75 2905.17M1138 2905.17L1299.25 2905.17M1460.5 1831L1783 1831M1460.5 1831L2105.5 2690.33M1460.5 1831L1460.5 2260.67M1460.5 1831L1299.25 2045.83M1460.5 3120L1783 3120M1460.5 3120L1299.25 2905.17M1460.5 3120L1460.5 2905.17M1460.5 3120L1621.75 2905.17M1783 1831L2105.5 1831M1783 1831L2428 2690.33M1783 1831L1783 2690.33M1783 1831L1460.5 2260.67M1783 3120L2105.5 3120M1783 3120L1621.75 2905.17M1783 3120L1783 2905.17M1783 3120L1944.25 2905.17M2105.5 1831L2428 1831M2105.5 1831L2266.75 2045.83M2105.5 1831L1460.5 2690.33M2105.5 1831L2105.5 2690.33M2105.5 3120L2428 3120M2105.5 3120L1944.25 2905.17M2105.5 3120L2105.5 2905.17M2105.5 3120L2266.75 2905.17M2428 1831L2266.75 2045.83M2428 1831L2428 2045.83M2428 3120L2428 2905.17M2428 3120L2266.75 2905.17M2428 2690.33L2428 2475.5M2428 2690.33L2105.5 2690.33M2428 2690.33L2266.75 2905.17M2428 2690.33L2428 2905.17M2428 2260.67L2266.75 2045.83M2428 2260.67L2428 2475.5M2428 2260.67L2105.5 2690.33M2428 2260.67L1460.5 2260.67M2266.75 2045.83L1783 2690.33M2428 2045.83L2428 2475.5M2428 2045.83L1299.25 2045.83M2428 2475.5L2428 2905.17M2428 2475.5L1299.25 2475.5M2428 2905.17L2266.75 2905.17M9.25 2905.17L170.5 2690.33M9.25 2905.17L170.5 2905.17M170.5 2690.33L170.5 2905.17M170.5 2690.33L331.75 2905.17M170.5 2690.33L493 2690.33M170.5 2690.33L9.24998 2475.5M170.5 2690.33L170.5 2475.5M170.5 2690.33L331.75 2475.5M170.5 2905.17L331.75 2905.17M331.75 2905.17L493 2690.33M331.75 2905.17L493 2905.17M493 2690.33L493 2905.17M493 2690.33L654.25 2905.17M493 2690.33L815.5 2690.33M493 2690.33L331.75 2475.5M493 2690.33L493 2260.67M493 2690.33L815.5 2260.67M493 2905.17L654.25 2905.17M654.25 2905.17L815.5 2690.33M654.25 2905.17L815.5 2905.17M815.5 2690.33L815.5 2905.17M815.5 2690.33L976.75 2905.17M815.5 2690.33L493 2260.67M815.5 2690.33L976.75 2475.5M815.5 2690.33L815.5 2260.67M815.5 2905.17L976.75 2905.17M1299.25 2905.17L1460.5 2690.33M1299.25 2905.17L1460.5 2905.17M1460.5 2690.33L1460.5 2905.17M1460.5 2690.33L1621.75 2905.17M1460.5 2690.33L1783 2690.33M1460.5 2690.33L1299.25 2475.5M1460.5 2690.33L1460.5 2260.67M1460.5 2905.17L1621.75 2905.17M1621.75 2905.17L1783 2690.33M1621.75 2905.17L1783 2905.17M1783 2690.33L1783 2905.17M1783 2690.33L1944.25 2905.17M1783 2690.33L2105.5 2690.33M1783 2690.33L1460.5 2260.67M1783 2905.17L1944.25 2905.17M1944.25 2905.17L2105.5 2690.33M1944.25 2905.17L2105.5 2905.17M2105.5 2690.33L2105.5 2905.17M2105.5 2690.33L2266.75 2905.17M2105.5 2905.17L2266.75 2905.17M170.5 2475.5L9.24998 2475.5M170.5 2475.5L170.5 2260.67M170.5 2475.5L331.75 2475.5M9.24998 2475.5L170.5 2260.67M170.5 2260.67L331.75 2475.5M170.5 2260.67L331.75 2045.83M170.5 2260.67L493 2260.67M170.5 2260.67L9.24996 2045.83M170.5 2260.67L170.5 2045.83M331.75 2475.5L493 2260.67M331.75 2475.5L976.75 2475.5M493 2260.67L331.75 2045.83M493 2260.67L493 2045.83M493 2260.67L654.25 2045.83M493 2260.67L815.5 2260.67M331.75 2045.83L493 2045.83M331.75 2045.83L170.5 2045.83M493 2045.83L654.25 2045.83M654.25 2045.83L815.5 2260.67M654.25 2045.83L815.5 2045.83M9.24996 2045.83L170.5 2045.83M976.75 2475.5L815.5 2260.67M1299.25 2475.5L1460.5 2260.67M1460.5 2260.67L1299.25 2045.83M815.5 2260.67L815.5 2045.83" stroke="black" stroke-opacity="0.15"/>
</g>
<g clip-path="url(#clip2_3033_2203)">
<path d="M-152 2042L170.5 2042M-152 2042L-152 1827.17M-152 2042L9.25 1827.17M-152 753L170.5 753M-152 753L-152 967.833M-152 753L9.24996 967.833M170.5 753L493 753M170.5 753L331.75 967.833M170.5 753L9.24996 967.833M170.5 753L170.5 967.833M170.5 2042L493 2042M170.5 2042L9.25 1827.17M170.5 2042L170.5 1827.17M170.5 2042L331.75 1827.17M493 753L815.5 753M493 753L331.75 967.833M493 753L493 967.833M493 753L654.25 967.833M493 2042L815.5 2042M493 2042L331.75 1827.17M493 2042L493 1827.17M493 2042L654.25 1827.17M815.5 753L1138 753M815.5 753L976.75 967.833M815.5 753L654.25 967.833M815.5 753L815.5 967.833M815.5 2042L1138 2042M815.5 2042L654.25 1827.17M815.5 2042L815.5 1827.17M815.5 2042L976.75 1827.17M1138 753L976.75 967.833M1138 753L1138 967.833M1138 753L1460.5 753M1138 753L1299.25 967.833M1138 2042L1138 1827.17M1138 2042L1460.5 2042M1138 2042L976.75 1827.17M1138 2042L1299.25 1827.17M1138 1612.33L1138 1397.5M1138 1612.33L815.5 1612.33M1138 1612.33L976.75 1827.17M1138 1612.33L1138 1827.17M1138 1612.33L1299.25 1827.17M1138 1612.33L1460.5 1612.33M1138 1612.33L976.75 1397.5M1138 1612.33L1299.25 1397.5M-152 1612.33L-152 1397.5M-152 1612.33L9.25 1827.17M-152 1612.33L-152 1827.17M-152 1612.33L170.5 1612.33M-152 1612.33L9.24998 1397.5M-152 1182.67L-152 1397.5M-152 1182.67L9.24998 1397.5M-152 1182.67L170.5 1182.67M-152 1182.67L9.24996 967.833M1138 1182.67L976.75 967.833M1138 1182.67L1138 1397.5M1138 1182.67L976.75 1397.5M1138 1182.67L1299.25 1397.5M1138 1182.67L1460.5 1182.67M1138 1182.67L1299.25 967.833M1138 1182.67L815.5 1182.67M1138 1182.67L1138 967.833M976.75 967.833L815.5 1182.67M976.75 967.833L815.5 967.833M976.75 967.833L1138 967.833M1138 967.833L1138 1397.5M1138 967.833L1138 1827.17M1138 967.833L1299.25 967.833M1138 967.833L815.5 967.833M-152 967.833L-152 1827.17M-152 967.833L9.24996 967.833M-152 1397.5L9.24998 1397.5M1138 1397.5L1138 1827.17M1138 1397.5L976.75 1397.5M1138 1397.5L1299.25 1397.5M-152 1827.17L9.25 1827.17M1138 1827.17L976.75 1827.17M1138 1827.17L1299.25 1827.17M1460.5 753L1783 753M1460.5 753L2105.5 1612.33M1460.5 753L1460.5 1182.67M1460.5 753L1299.25 967.833M1460.5 2042L1783 2042M1460.5 2042L1299.25 1827.17M1460.5 2042L1460.5 1827.17M1460.5 2042L1621.75 1827.17M1783 753L2105.5 753M1783 753L2428 1612.33M1783 753L1783 1612.33M1783 753L1460.5 1182.67M1783 2042L2105.5 2042M1783 2042L1621.75 1827.17M1783 2042L1783 1827.17M1783 2042L1944.25 1827.17M2105.5 753L2428 753M2105.5 753L2266.75 967.833M2105.5 753L1460.5 1612.33M2105.5 753L2105.5 1612.33M2105.5 2042L2428 2042M2105.5 2042L1944.25 1827.17M2105.5 2042L2105.5 1827.17M2105.5 2042L2266.75 1827.17M2428 753L2266.75 967.833M2428 753L2428 967.833M2428 2042L2428 1827.17M2428 2042L2266.75 1827.17M2428 1612.33L2428 1397.5M2428 1612.33L2105.5 1612.33M2428 1612.33L2266.75 1827.17M2428 1612.33L2428 1827.17M2428 1182.67L2266.75 967.833M2428 1182.67L2428 1397.5M2428 1182.67L2105.5 1612.33M2428 1182.67L1460.5 1182.67M2266.75 967.833L1783 1612.33M2428 967.833L2428 1397.5M2428 967.833L1299.25 967.833M2428 1397.5L2428 1827.17M2428 1397.5L1299.25 1397.5M2428 1827.17L2266.75 1827.17M9.25 1827.17L170.5 1612.33M9.25 1827.17L170.5 1827.17M170.5 1612.33L170.5 1827.17M170.5 1612.33L331.75 1827.17M170.5 1612.33L493 1612.33M170.5 1612.33L9.24998 1397.5M170.5 1612.33L170.5 1397.5M170.5 1612.33L331.75 1397.5M170.5 1827.17L331.75 1827.17M331.75 1827.17L493 1612.33M331.75 1827.17L493 1827.17M493 1612.33L493 1827.17M493 1612.33L654.25 1827.17M493 1612.33L815.5 1612.33M493 1612.33L331.75 1397.5M493 1612.33L493 1182.67M493 1612.33L815.5 1182.67M493 1827.17L654.25 1827.17M654.25 1827.17L815.5 1612.33M654.25 1827.17L815.5 1827.17M815.5 1612.33L815.5 1827.17M815.5 1612.33L976.75 1827.17M815.5 1612.33L493 1182.67M815.5 1612.33L976.75 1397.5M815.5 1612.33L815.5 1182.67M815.5 1827.17L976.75 1827.17M1299.25 1827.17L1460.5 1612.33M1299.25 1827.17L1460.5 1827.17M1460.5 1612.33L1460.5 1827.17M1460.5 1612.33L1621.75 1827.17M1460.5 1612.33L1783 1612.33M1460.5 1612.33L1299.25 1397.5M1460.5 1612.33L1460.5 1182.67M1460.5 1827.17L1621.75 1827.17M1621.75 1827.17L1783 1612.33M1621.75 1827.17L1783 1827.17M1783 1612.33L1783 1827.17M1783 1612.33L1944.25 1827.17M1783 1612.33L2105.5 1612.33M1783 1612.33L1460.5 1182.67M1783 1827.17L1944.25 1827.17M1944.25 1827.17L2105.5 1612.33M1944.25 1827.17L2105.5 1827.17M2105.5 1612.33L2105.5 1827.17M2105.5 1612.33L2266.75 1827.17M2105.5 1827.17L2266.75 1827.17M170.5 1397.5L9.24998 1397.5M170.5 1397.5L170.5 1182.67M170.5 1397.5L331.75 1397.5M9.24998 1397.5L170.5 1182.67M170.5 1182.67L331.75 1397.5M170.5 1182.67L331.75 967.833M170.5 1182.67L493 1182.67M170.5 1182.67L9.24996 967.833M170.5 1182.67L170.5 967.833M331.75 1397.5L493 1182.67M331.75 1397.5L976.75 1397.5M493 1182.67L331.75 967.833M493 1182.67L493 967.833M493 1182.67L654.25 967.833M493 1182.67L815.5 1182.67M331.75 967.833L493 967.833M331.75 967.833L170.5 967.833M493 967.833L654.25 967.833M654.25 967.833L815.5 1182.67M654.25 967.833L815.5 967.833M9.24996 967.833L170.5 967.833M976.75 1397.5L815.5 1182.67M1299.25 1397.5L1460.5 1182.67M1460.5 1182.67L1299.25 967.833M815.5 1182.67L815.5 967.833" stroke="black" stroke-opacity="0.15"/>
</g>
<g clip-path="url(#clip3_3033_2203)">
<path d="M-153 3975L169.5 3975M-153 3975L-153 3760.17M-153 3975L8.25 3760.17M-153 2686L169.5 2686M-153 2686L-153 2900.83M-153 2686L8.24996 2900.83M169.5 2686L492 2686M169.5 2686L330.75 2900.83M169.5 2686L8.24996 2900.83M169.5 2686L169.5 2900.83M169.5 3975L492 3975M169.5 3975L8.25 3760.17M169.5 3975L169.5 3760.17M169.5 3975L330.75 3760.17M492 2686L814.5 2686M492 2686L330.75 2900.83M492 2686L492 2900.83M492 2686L653.25 2900.83M492 3975L814.5 3975M492 3975L330.75 3760.17M492 3975L492 3760.17M492 3975L653.25 3760.17M814.5 2686L1137 2686M814.5 2686L975.75 2900.83M814.5 2686L653.25 2900.83M814.5 2686L814.5 2900.83M814.5 3975L1137 3975M814.5 3975L653.25 3760.17M814.5 3975L814.5 3760.17M814.5 3975L975.75 3760.17M1137 2686L975.75 2900.83M1137 2686L1137 2900.83M1137 2686L1459.5 2686M1137 2686L1298.25 2900.83M1137 3975L1137 3760.17M1137 3975L1459.5 3975M1137 3975L975.75 3760.17M1137 3975L1298.25 3760.17M1137 3545.33L1137 3330.5M1137 3545.33L814.5 3545.33M1137 3545.33L975.75 3760.17M1137 3545.33L1137 3760.17M1137 3545.33L1298.25 3760.17M1137 3545.33L1459.5 3545.33M1137 3545.33L975.75 3330.5M1137 3545.33L1298.25 3330.5M-153 3545.33L-153 3330.5M-153 3545.33L8.25 3760.17M-153 3545.33L-153 3760.17M-153 3545.33L169.5 3545.33M-153 3545.33L8.24998 3330.5M-153 3115.67L-153 3330.5M-153 3115.67L8.24998 3330.5M-153 3115.67L169.5 3115.67M-153 3115.67L8.24996 2900.83M1137 3115.67L975.75 2900.83M1137 3115.67L1137 3330.5M1137 3115.67L975.75 3330.5M1137 3115.67L1298.25 3330.5M1137 3115.67L1459.5 3115.67M1137 3115.67L1298.25 2900.83M1137 3115.67L814.5 3115.67M1137 3115.67L1137 2900.83M975.75 2900.83L814.5 3115.67M975.75 2900.83L814.5 2900.83M975.75 2900.83L1137 2900.83M1137 2900.83L1137 3330.5M1137 2900.83L1137 3760.17M1137 2900.83L1298.25 2900.83M1137 2900.83L814.5 2900.83M-153 2900.83L-153 3760.17M-153 2900.83L8.24996 2900.83M-153 3330.5L8.24998 3330.5M1137 3330.5L1137 3760.17M1137 3330.5L975.75 3330.5M1137 3330.5L1298.25 3330.5M-153 3760.17L8.25 3760.17M1137 3760.17L975.75 3760.17M1137 3760.17L1298.25 3760.17M1459.5 2686L1782 2686M1459.5 2686L2104.5 3545.33M1459.5 2686L1459.5 3115.67M1459.5 2686L1298.25 2900.83M1459.5 3975L1782 3975M1459.5 3975L1298.25 3760.17M1459.5 3975L1459.5 3760.17M1459.5 3975L1620.75 3760.17M1782 2686L2104.5 2686M1782 2686L2427 3545.33M1782 2686L1782 3545.33M1782 2686L1459.5 3115.67M1782 3975L2104.5 3975M1782 3975L1620.75 3760.17M1782 3975L1782 3760.17M1782 3975L1943.25 3760.17M2104.5 2686L2427 2686M2104.5 2686L2265.75 2900.83M2104.5 2686L1459.5 3545.33M2104.5 2686L2104.5 3545.33M2104.5 3975L2427 3975M2104.5 3975L1943.25 3760.17M2104.5 3975L2104.5 3760.17M2104.5 3975L2265.75 3760.17M2427 2686L2265.75 2900.83M2427 2686L2427 2900.83M2427 3975L2427 3760.17M2427 3975L2265.75 3760.17M2427 3545.33L2427 3330.5M2427 3545.33L2104.5 3545.33M2427 3545.33L2265.75 3760.17M2427 3545.33L2427 3760.17M2427 3115.67L2265.75 2900.83M2427 3115.67L2427 3330.5M2427 3115.67L2104.5 3545.33M2427 3115.67L1459.5 3115.67M2265.75 2900.83L1782 3545.33M2427 2900.83L2427 3330.5M2427 2900.83L1298.25 2900.83M2427 3330.5L2427 3760.17M2427 3330.5L1298.25 3330.5M2427 3760.17L2265.75 3760.17M8.25 3760.17L169.5 3545.33M8.25 3760.17L169.5 3760.17M169.5 3545.33L169.5 3760.17M169.5 3545.33L330.75 3760.17M169.5 3545.33L492 3545.33M169.5 3545.33L8.24998 3330.5M169.5 3545.33L169.5 3330.5M169.5 3545.33L330.75 3330.5M169.5 3760.17L330.75 3760.17M330.75 3760.17L492 3545.33M330.75 3760.17L492 3760.17M492 3545.33L492 3760.17M492 3545.33L653.25 3760.17M492 3545.33L814.5 3545.33M492 3545.33L330.75 3330.5M492 3545.33L492 3115.67M492 3545.33L814.5 3115.67M492 3760.17L653.25 3760.17M653.25 3760.17L814.5 3545.33M653.25 3760.17L814.5 3760.17M814.5 3545.33L814.5 3760.17M814.5 3545.33L975.75 3760.17M814.5 3545.33L492 3115.67M814.5 3545.33L975.75 3330.5M814.5 3545.33L814.5 3115.67M814.5 3760.17L975.75 3760.17M1298.25 3760.17L1459.5 3545.33M1298.25 3760.17L1459.5 3760.17M1459.5 3545.33L1459.5 3760.17M1459.5 3545.33L1620.75 3760.17M1459.5 3545.33L1782 3545.33M1459.5 3545.33L1298.25 3330.5M1459.5 3545.33L1459.5 3115.67M1459.5 3760.17L1620.75 3760.17M1620.75 3760.17L1782 3545.33M1620.75 3760.17L1782 3760.17M1782 3545.33L1782 3760.17M1782 3545.33L1943.25 3760.17M1782 3545.33L2104.5 3545.33M1782 3545.33L1459.5 3115.67M1782 3760.17L1943.25 3760.17M1943.25 3760.17L2104.5 3545.33M1943.25 3760.17L2104.5 3760.17M2104.5 3545.33L2104.5 3760.17M2104.5 3545.33L2265.75 3760.17M2104.5 3760.17L2265.75 3760.17M169.5 3330.5L8.24998 3330.5M169.5 3330.5L169.5 3115.67M169.5 3330.5L330.75 3330.5M8.24998 3330.5L169.5 3115.67M169.5 3115.67L330.75 3330.5M169.5 3115.67L330.75 2900.83M169.5 3115.67L492 3115.67M169.5 3115.67L8.24996 2900.83M169.5 3115.67L169.5 2900.83M330.75 3330.5L492 3115.67M330.75 3330.5L975.75 3330.5M492 3115.67L330.75 2900.83M492 3115.67L492 2900.83M492 3115.67L653.25 2900.83M492 3115.67L814.5 3115.67M330.75 2900.83L492 2900.83M330.75 2900.83L169.5 2900.83M492 2900.83L653.25 2900.83M653.25 2900.83L814.5 3115.67M653.25 2900.83L814.5 2900.83M8.24996 2900.83L169.5 2900.83M975.75 3330.5L814.5 3115.67M1298.25 3330.5L1459.5 3115.67M1459.5 3115.67L1298.25 2900.83M814.5 3115.67L814.5 2900.83" stroke="black" stroke-opacity="0.15"/>
</g>
<defs>
<clipPath id="clip0_3033_2203">
<rect width="1440" height="1024" fill="white"/>
</clipPath>
<clipPath id="clip1_3033_2203">
<rect width="1440" height="1024" fill="white" transform="translate(0 2048)"/>
</clipPath>
<clipPath id="clip2_3033_2203">
<rect width="1440" height="1024" fill="white" transform="translate(0 1024)"/>
</clipPath>
<clipPath id="clip3_3033_2203">
<rect width="1440" height="903" fill="white" transform="translate(0 3072)"/>
</clipPath>
</defs>
</svg>
