<svg width="30" height="30" viewBox="0 0 30 30" fill="none" xmlns="http://www.w3.org/2000/svg">
<path d="M18.5524 13.9702H20.4229C20.6185 13.9702 20.8061 14.0477 20.9444 14.1856C21.0827 14.3234 21.1604 14.5104 21.1604 14.7054C21.1604 14.9004 21.0827 15.0874 20.9444 15.2252C20.8061 15.3631 20.6185 15.4406 20.4229 15.4406H10.0967C9.9011 15.4406 9.7135 15.3631 9.57517 15.2252C9.43685 15.0874 9.35914 14.9004 9.35914 14.7054C9.35914 14.5104 9.43685 14.3234 9.57517 14.1856C9.7135 14.0477 9.9011 13.9702 10.0967 13.9702H11.2134C11.0047 13.7394 10.8746 13.4486 10.842 13.1395C10.8094 12.8305 10.8759 12.519 11.032 12.25L14.7199 5.88355C14.9155 5.54586 15.2377 5.29945 15.6156 5.19854C15.9935 5.09762 16.3961 5.15045 16.735 5.34542L20.5674 7.55088C20.9062 7.74586 21.1534 8.067 21.2547 8.44365C21.3559 8.82031 21.3029 9.22162 21.1073 9.55932L18.5524 13.9702ZM19.8298 8.82417L15.9974 6.61871L12.3095 12.9851L14.0207 13.9702H16.85L19.8298 8.82417ZM21.1014 12.4999L21.9526 11.0296C22.1723 11.0379 22.3874 11.0949 22.5822 11.1967C22.7769 11.2984 22.9464 11.4423 23.0781 11.6178L26.766 16.5183C26.9576 16.7728 27.0611 17.0823 27.0611 17.4005V24.2624C27.0611 24.6524 26.9057 25.0263 26.629 25.3021C26.3524 25.5778 25.9772 25.7327 25.5859 25.7327H4.93366C4.54242 25.7327 4.16721 25.5778 3.89056 25.3021C3.61391 25.0263 3.4585 24.6524 3.4585 24.2624V17.4005C3.4585 17.0823 3.56202 16.7728 3.75353 16.5183L7.44143 11.6178C7.57884 11.4351 7.75701 11.2869 7.96185 11.1849C8.16668 11.0828 8.39255 11.0296 8.62156 11.0296H10.0421L9.33554 12.25C9.28948 12.3296 9.25096 12.4132 9.22048 12.4999H8.62156L5.30245 16.9109H25.2171L21.898 12.4999H21.1014ZM4.93366 24.2624H25.5859V18.3812H4.93366V24.2624Z" fill="black"/>
</svg>
