<svg width="69" height="65" viewBox="0 0 69 65" fill="none" xmlns="http://www.w3.org/2000/svg">
<g clip-path="url(#clip0_3123_1806)">
<path d="M12.4092 25.0373L12.3008 24.968" stroke="black" stroke-width="0.822785" stroke-miterlimit="10"/>
<path d="M44.5653 64.6834L40.9773 64.0991L37.3794 63.5148L33.7815 62.9205L30.1836 62.3362L26.5857 61.742L22.9779 61.1576L19.3702 60.5634L15.7624 59.9691L12.1448 59.3848L10.9323 56.0967L9.71989 52.8085L13.3375 53.3929L16.9453 53.997L20.5629 54.5814L24.1706 55.1756L27.7685 55.7698L31.3763 56.3641L34.9742 56.9484L38.5721 57.5426L37.3695 54.2644L36.6105 52.2044L33.0126 51.6101L29.4049 51.0159L25.807 50.4217L22.1992 49.8274L18.5816 49.2332L14.9738 48.629L11.3562 48.0447L7.73858 47.4406L5.69813 41.9339L4.8504 39.6263L3.6281 36.3283L2.41566 33.0302L1.19336 29.7223L4.82083 30.3264L8.43845 30.9306L12.0659 31.5347L15.6835 32.1389L19.3012 32.743L22.9089 33.3373L26.5167 33.9414L30.1244 34.5455L33.7322 35.1398L34.9348 38.4279L36.1472 41.7259L32.5395 41.1218L28.9416 40.5276L25.3338 39.9234L21.726 39.3292L18.1084 38.725L14.5007 38.1308L10.8732 37.5266L12.0955 40.8247L12.9334 43.1224L16.551 43.7167L20.1686 44.3109L23.7764 44.915L27.3841 45.5093L30.982 46.1035L34.5898 46.6978L38.1877 47.292L40.1197 52.5609L40.9576 54.8587L42.1602 58.1369L43.3627 61.4151L44.5653 64.6834Z" fill="#9999CC" stroke="#666666" stroke-width="0.411392" stroke-miterlimit="10"/>
<path d="M68.0154 37.8528L65.7088 40.6655L63.3332 43.5674L60.9576 46.4594L59.686 48.0143L55.4276 53.204L53.8406 55.1353L51.4749 58.0273L49.1091 60.9093L46.8617 63.6527L45.6197 60.3448L44.3875 57.0468L46.6842 54.2439L49.0401 51.3718L51.396 48.4996L52.9732 46.5683L51.7509 43.2703L50.5286 39.9921L49.3161 36.7138L48.1037 33.4554L46.911 30.2069L45.3535 32.1085L43.0173 34.9707L44.2101 38.2192L41.8739 41.0815L39.5377 43.9438L39.4983 43.9537L38.2859 40.7052L37.0734 37.4566L35.9004 34.327L38.3253 31.3558L40.6516 28.5133L42.9779 25.6709L44.4664 23.8485L48.7247 18.639L49.9667 17.1138L52.293 14.2615L54.6292 11.4091L56.9555 8.54684L58.168 11.7161L59.3903 14.925L57.0442 17.7972L54.7081 20.6594L52.362 23.5316L51.12 25.0469L52.3325 28.2954L53.5449 31.5539L54.7573 34.8222L55.9796 38.1004L57.2118 41.3984L58.4834 39.8435L60.8491 36.9614L59.6071 33.6733L61.963 30.7912L64.2992 27.9389L65.5313 31.2369L66.7733 34.535L68.0154 37.8528Z" fill="#242F9B" stroke="#666666" stroke-width="0.411392" stroke-miterlimit="10"/>
<path d="M56.0382 5.89305L53.7021 8.76522L51.218 11.8157L47.3441 11.1917L43.4998 10.5677L39.6653 9.94379L35.8506 9.31984L32.0555 8.70579L28.2802 8.09174L24.5147 7.4777L22.1095 10.4786L20.6802 12.2613L24.4161 12.8853L28.1816 13.5092L31.9569 14.1431L35.752 14.7769L39.5668 15.4207L43.4012 16.0546L47.1766 16.6884L47.2259 16.728L42.9577 21.9673L39.1232 21.3235L35.2986 20.6797L31.5035 20.036L27.7183 19.3922L23.9528 18.7584L20.2071 18.1245L16.481 17.4906L14.9137 19.4417L12.5283 22.4228L16.2445 23.0666L19.9607 23.7104L23.7064 24.364L27.4719 25.0177L31.2571 25.6714L35.0521 26.3349L38.8768 26.9985L36.4223 30.0093L34.0368 32.9409L30.2024 32.307L27.1269 31.792L26.3975 31.6633L22.632 30.9997L18.8961 30.3262L15.17 29.6627L11.4637 29.009L7.77707 28.3553L4.11017 27.7017L0.453125 27.048L2.80901 24.0966L5.1649 21.1452L7.53064 18.1839L9.17681 16.1239L13.2577 11.0233L14.6673 9.26042L17.0528 6.26941L19.4481 3.26849L21.8434 0.267578L25.5892 0.861819L29.3448 1.45606L33.13 2.0503L36.925 2.65444L40.7398 3.25859L44.5841 3.86273L45.215 3.96177L48.4186 4.49659L52.2629 5.13045L55.989 5.7544L56.0382 5.89305Z" fill="#CBC9E6" stroke="#666666" stroke-width="0.411392" stroke-miterlimit="10"/>
</g>
<defs>
<clipPath id="clip0_3123_1806">
<rect width="68.2911" height="65" fill="white"/>
</clipPath>
</defs>
</svg>
